%TF.GenerationSoftware,KiCad,Pcbnew,8.0.5*%
%TF.CreationDate,2024-09-08T16:16:33+10:00*%
%TF.ProjectId,akohekohe,616b6f68-656b-46f6-9865-2e6b69636164,0.1*%
%TF.SameCoordinates,Original*%
%TF.FileFunction,Paste,Top*%
%TF.FilePolarity,Positive*%
%FSLAX46Y46*%
G04 Gerber Fmt 4.6, Leading zero omitted, Abs format (unit mm)*
G04 Created by KiCad (PCBNEW 8.0.5) date 2024-09-08 16:16:33*
%MOMM*%
%LPD*%
G01*
G04 APERTURE LIST*
G04 Aperture macros list*
%AMRotRect*
0 Rectangle, with rotation*
0 The origin of the aperture is its center*
0 $1 length*
0 $2 width*
0 $3 Rotation angle, in degrees counterclockwise*
0 Add horizontal line*
21,1,$1,$2,0,0,$3*%
G04 Aperture macros list end*
%ADD10RotRect,1.100000X1.900000X202.000000*%
%ADD11RotRect,1.100000X1.900000X199.000000*%
%ADD12RotRect,1.100000X1.900000X158.000000*%
%ADD13RotRect,1.100000X1.900000X194.000000*%
%ADD14RotRect,1.100000X1.900000X161.000000*%
%ADD15RotRect,1.100000X1.900000X217.000000*%
%ADD16RotRect,1.100000X1.900000X143.000000*%
%ADD17RotRect,1.100000X1.900000X166.000000*%
G04 APERTURE END LIST*
D10*
%TO.C,S24*%
X181216882Y-109203537D03*
X178157182Y-110439743D03*
%TD*%
D11*
%TO.C,S14*%
X233326810Y-114192899D03*
X230206599Y-115267274D03*
%TD*%
D12*
%TO.C,S8*%
X120785993Y-126190379D03*
X117726293Y-124954173D03*
%TD*%
D13*
%TO.C,S13*%
X248115078Y-110021687D03*
X244913103Y-110820047D03*
%TD*%
D10*
%TO.C,S19*%
X205604792Y-86812221D03*
X202545092Y-88048427D03*
%TD*%
%TO.C,S21*%
X198491444Y-110582808D03*
X195431744Y-111819014D03*
%TD*%
%TO.C,S22*%
X192685038Y-96211464D03*
X189625338Y-97447670D03*
%TD*%
D12*
%TO.C,S12*%
X143866948Y-110439738D03*
X140807248Y-109203532D03*
%TD*%
D14*
%TO.C,S2*%
X91817568Y-115267281D03*
X88697357Y-114192906D03*
%TD*%
D12*
%TO.C,S7*%
X119479053Y-88048417D03*
X116419353Y-86812211D03*
%TD*%
D15*
%TO.C,S26*%
X191819739Y-148899988D03*
X189184246Y-150885982D03*
%TD*%
D12*
%TO.C,S5*%
X107866268Y-116791127D03*
X104806568Y-115554921D03*
%TD*%
D10*
%TO.C,S17*%
X217217598Y-115554912D03*
X214157898Y-116791118D03*
%TD*%
D11*
%TO.C,S16*%
X223234199Y-84881832D03*
X220113988Y-85956207D03*
%TD*%
D16*
%TO.C,S25*%
X132839913Y-150885978D03*
X130204421Y-148899984D03*
%TD*%
D14*
%TO.C,S3*%
X96863869Y-100611743D03*
X93743658Y-99537368D03*
%TD*%
D11*
%TO.C,S15*%
X228280503Y-99537361D03*
X225160292Y-100611736D03*
%TD*%
D10*
%TO.C,S20*%
X204297842Y-124954152D03*
X201238142Y-126190358D03*
%TD*%
%TO.C,S18*%
X211411206Y-101183579D03*
X208351506Y-102419785D03*
%TD*%
D12*
%TO.C,S9*%
X126592407Y-111819016D03*
X123532707Y-110582810D03*
%TD*%
%TO.C,S6*%
X113672645Y-102419766D03*
X110612945Y-101183560D03*
%TD*%
D10*
%TO.C,S23*%
X187023283Y-123574884D03*
X183963583Y-124811090D03*
%TD*%
D12*
%TO.C,S10*%
X132398803Y-97447652D03*
X129339103Y-96211446D03*
%TD*%
D17*
%TO.C,S1*%
X77111054Y-110820016D03*
X73909077Y-110021671D03*
%TD*%
D12*
%TO.C,S11*%
X138060556Y-124811097D03*
X135000856Y-123574891D03*
%TD*%
D14*
%TO.C,S4*%
X101910172Y-85956199D03*
X98789961Y-84881824D03*
%TD*%
M02*
