%TF.GenerationSoftware,KiCad,Pcbnew,8.0.5*%
%TF.CreationDate,2024-09-08T16:42:39+10:00*%
%TF.ProjectId,akohekohe_min_choc,616b6f68-656b-46f6-9865-5f6d696e5f63,0.1*%
%TF.SameCoordinates,Original*%
%TF.FileFunction,Paste,Top*%
%TF.FilePolarity,Positive*%
%FSLAX46Y46*%
G04 Gerber Fmt 4.6, Leading zero omitted, Abs format (unit mm)*
G04 Created by KiCad (PCBNEW 8.0.5) date 2024-09-08 16:42:39*
%MOMM*%
%LPD*%
G01*
G04 APERTURE LIST*
G04 Aperture macros list*
%AMRotRect*
0 Rectangle, with rotation*
0 The origin of the aperture is its center*
0 $1 length*
0 $2 width*
0 $3 Rotation angle, in degrees counterclockwise*
0 Add horizontal line*
21,1,$1,$2,0,0,$3*%
G04 Aperture macros list end*
%ADD10RotRect,1.100000X1.900000X202.000000*%
%ADD11RotRect,1.100000X1.900000X199.000000*%
%ADD12RotRect,1.100000X1.900000X158.000000*%
%ADD13RotRect,1.100000X1.900000X194.000000*%
%ADD14RotRect,1.100000X1.900000X161.000000*%
%ADD15RotRect,1.100000X1.900000X217.000000*%
%ADD16RotRect,1.100000X1.900000X143.000000*%
%ADD17RotRect,1.100000X1.900000X166.000000*%
G04 APERTURE END LIST*
D10*
%TO.C,S24*%
X178194910Y-110448322D03*
X181254610Y-109212116D03*
%TD*%
D11*
%TO.C,S14*%
X230244331Y-115275852D03*
X233364542Y-114201477D03*
%TD*%
D12*
%TO.C,S8*%
X117764020Y-124962752D03*
X120823720Y-126198958D03*
%TD*%
D13*
%TO.C,S13*%
X244950833Y-110828628D03*
X248152809Y-110030268D03*
%TD*%
D10*
%TO.C,S19*%
X202582825Y-88057007D03*
X205642525Y-86820801D03*
%TD*%
%TO.C,S21*%
X195469471Y-111827593D03*
X198529171Y-110591387D03*
%TD*%
%TO.C,S22*%
X189663059Y-97456253D03*
X192722759Y-96220047D03*
%TD*%
D12*
%TO.C,S12*%
X140844973Y-109212109D03*
X143904673Y-110448315D03*
%TD*%
D14*
%TO.C,S2*%
X88735086Y-114201486D03*
X91855297Y-115275861D03*
%TD*%
D12*
%TO.C,S7*%
X116457079Y-86820791D03*
X119516779Y-88056997D03*
%TD*%
D15*
%TO.C,S26*%
X189221970Y-150894562D03*
X191857462Y-148908569D03*
%TD*%
D12*
%TO.C,S5*%
X104844297Y-115563504D03*
X107903997Y-116799710D03*
%TD*%
D10*
%TO.C,S17*%
X214195625Y-116799697D03*
X217255325Y-115563491D03*
%TD*%
D11*
%TO.C,S16*%
X220151713Y-85964785D03*
X223271924Y-84890410D03*
%TD*%
D16*
%TO.C,S25*%
X130242149Y-148908566D03*
X132877641Y-150894559D03*
%TD*%
D14*
%TO.C,S3*%
X93781387Y-99545942D03*
X96901598Y-100620317D03*
%TD*%
D11*
%TO.C,S15*%
X225198018Y-100620310D03*
X228318229Y-99545935D03*
%TD*%
D10*
%TO.C,S20*%
X201275872Y-126198941D03*
X204335572Y-124962735D03*
%TD*%
%TO.C,S18*%
X208389236Y-102428362D03*
X211448936Y-101192156D03*
%TD*%
D12*
%TO.C,S9*%
X123570436Y-110591385D03*
X126630136Y-111827591D03*
%TD*%
%TO.C,S6*%
X110650675Y-101192143D03*
X113710375Y-102428349D03*
%TD*%
D10*
%TO.C,S23*%
X184001309Y-124819665D03*
X187061009Y-123583459D03*
%TD*%
D12*
%TO.C,S10*%
X129376832Y-96220023D03*
X132436532Y-97456229D03*
%TD*%
D17*
%TO.C,S1*%
X73946808Y-110030254D03*
X77148784Y-110828597D03*
%TD*%
D12*
%TO.C,S11*%
X135038588Y-123583476D03*
X138098288Y-124819682D03*
%TD*%
D14*
%TO.C,S4*%
X98827682Y-84890407D03*
X101947893Y-85964782D03*
%TD*%
M02*
