M48
; DRILL file {KiCad 8.0.5} date 2024-09-08T16:42:37+1000
; FORMAT={-:-/ absolute / inch / decimal}
; #@! TF.CreationDate,2024-09-08T16:42:37+10:00
; #@! TF.GenerationSoftware,Kicad,Pcbnew,8.0.5
; #@! TF.FileFunction,Plated,1,2,PTH
FMAT,2
INCH
; #@! TA.AperFunction,Plated,PTH,ViaDrill
T1C0.0118
; #@! TA.AperFunction,Plated,PTH,ViaDrill
T2C0.0157
; #@! TA.AperFunction,Plated,PTH,ComponentDrill
T3C0.0354
; #@! TA.AperFunction,Plated,PTH,ComponentDrill
T4C0.0394
; #@! TA.AperFunction,Plated,PTH,ComponentDrill
T5C0.0430
; #@! TA.AperFunction,Plated,PTH,ComponentDrill
T6C0.0500
%
G90
G05
T1
X5.2795Y-3.8682
X5.2826Y-4.0193
T2
X3.1564Y-4.1354
X3.834Y-4.1019
X3.8812Y-3.9931
X3.934Y-4.0179
X4.0804Y-3.4145
X4.1062Y-3.3447
X4.1426Y-3.4151
X4.4899Y-4.1009
X4.5464Y-4.0377
X4.6102Y-4.0529
X4.7926Y-3.4346
X4.8295Y-3.5117
X5.1008Y-4.4677
X5.4761Y-5.01
X5.5472Y-5.042
X5.5696Y-4.984
X5.7235Y-4.3597
X5.7561Y-4.4762
X6.2056Y-4.7677
X7.1098Y-4.8861
X7.1487Y-4.9735
X7.2019Y-4.2816
X7.2694Y-4.2761
X7.4391Y-4.8975
X7.6204Y-3.6799
X7.7002Y-3.712
X7.8709Y-4.3152
X7.894Y-4.3724
X7.9461Y-4.3171
X8.1295Y-3.3252
X8.213Y-3.3535
X8.3825Y-3.9543
X8.4329Y-3.8996
X8.8317Y-3.2661
X8.8612Y-3.3215
X8.9051Y-3.2707
X9.0517Y-3.9667
X9.0704Y-3.929
X9.0829Y-3.9913
X9.172Y-4.0439
X9.7689Y-4.0372
T3
X6.1657Y-4.9518
T4
X6.0366Y-5.2683
X6.0366Y-4.7683
X6.0366Y-4.8683
X6.0366Y-5.1683
X6.0366Y-4.9683
X6.0366Y-5.0683
X6.0366Y-4.6683
X6.6366Y-5.2683
X6.6366Y-4.8683
X6.6366Y-4.9683
X6.6366Y-4.7683
X6.6366Y-5.0683
X6.6366Y-5.1683
X6.6366Y-4.6683
T5
X6.0576Y-5.4706
X6.1576Y-5.4706
T6
X3.0753Y-3.9427
X3.2463Y-4.0705
X3.6908Y-4.1227
X3.85Y-4.2649
X3.8895Y-3.5457
X4.0487Y-3.688
X4.0881Y-2.9687
X4.2474Y-3.111
X4.3443Y-4.1871
X4.4958Y-4.3375
X4.5729Y-3.6213
X4.7244Y-3.7717
X4.8015Y-3.0555
X4.8529Y-4.5572
X4.953Y-3.2059
X5.0045Y-4.7076
X5.0815Y-3.9914
X5.2331Y-4.1418
X5.3101Y-3.4256
X5.4307Y-5.5683
X5.4617Y-3.576
X5.533Y-4.5029
X5.5381Y-5.7528
X5.6846Y-4.6533
X5.7616Y-3.9371
X5.9132Y-4.0875
X6.9194Y-3.9371
X7.1329Y-3.94
X7.148Y-4.5029
X7.2504Y-5.5683
X7.3615Y-4.5058
X7.3709Y-3.4256
X7.4574Y-5.5159
X7.5844Y-3.4285
X7.5995Y-3.9914
X7.813Y-3.9943
X7.8281Y-4.5572
X7.8796Y-3.0555
X8.0416Y-4.5601
X8.0931Y-3.0585
X8.1082Y-3.6213
X8.3217Y-3.6243
X8.3368Y-4.1871
X8.5503Y-4.1901
X8.5929Y-2.9687
X8.7916Y-3.5457
X8.806Y-2.9828
X8.9903Y-4.1227
X9.0047Y-3.5598
X9.2033Y-4.1368
X9.6058Y-3.9427
X9.8168Y-3.9753
M30
