%TF.GenerationSoftware,KiCad,Pcbnew,8.0.5*%
%TF.CreationDate,2024-09-08T16:16:33+10:00*%
%TF.ProjectId,akohekohe,616b6f68-656b-46f6-9865-2e6b69636164,0.1*%
%TF.SameCoordinates,Original*%
%TF.FileFunction,Soldermask,Top*%
%TF.FilePolarity,Negative*%
%FSLAX46Y46*%
G04 Gerber Fmt 4.6, Leading zero omitted, Abs format (unit mm)*
G04 Created by KiCad (PCBNEW 8.0.5) date 2024-09-08 16:16:33*
%MOMM*%
%LPD*%
G01*
G04 APERTURE LIST*
G04 Aperture macros list*
%AMRoundRect*
0 Rectangle with rounded corners*
0 $1 Rounding radius*
0 $2 $3 $4 $5 $6 $7 $8 $9 X,Y pos of 4 corners*
0 Add a 4 corners polygon primitive as box body*
4,1,4,$2,$3,$4,$5,$6,$7,$8,$9,$2,$3,0*
0 Add four circle primitives for the rounded corners*
1,1,$1+$1,$2,$3*
1,1,$1+$1,$4,$5*
1,1,$1+$1,$6,$7*
1,1,$1+$1,$8,$9*
0 Add four rect primitives between the rounded corners*
20,1,$1+$1,$2,$3,$4,$5,0*
20,1,$1+$1,$4,$5,$6,$7,0*
20,1,$1+$1,$6,$7,$8,$9,0*
20,1,$1+$1,$8,$9,$2,$3,0*%
G04 Aperture macros list end*
%ADD10C,0.100000*%
%ADD11C,2.300000*%
%ADD12RoundRect,0.050000X0.154075X1.086858X-0.865827X0.674791X-0.154075X-1.086858X0.865827X-0.674791X0*%
%ADD13C,2.132000*%
%ADD14C,1.801800*%
%ADD15C,3.529000*%
%ADD16RoundRect,0.050000X0.210745X1.077305X-0.829325X0.719180X-0.210745X-1.077305X0.829325X-0.719180X0*%
%ADD17RoundRect,0.050000X0.865827X0.674791X-0.154075X1.086858X-0.865827X-0.674791X0.154075X-1.086858X0*%
%ADD18RoundRect,0.050000X0.303837X1.054838X-0.763488X0.788724X-0.303837X-1.054838X0.763488X-0.788724X0*%
%ADD19RoundRect,0.050000X0.829325X0.719180X-0.210745X1.077305X-0.829325X-0.719180X0.210745X-1.077305X0*%
%ADD20RoundRect,0.050000X-0.132475X1.089702X-1.010974X0.427705X0.132475X-1.089702X1.010974X-0.427705X0*%
%ADD21C,1.852600*%
%ADD22O,2.850000X1.900000*%
%ADD23RoundRect,0.050000X1.010974X0.427705X0.132475X1.089702X-1.010974X-0.427705X-0.132475X-1.089702X0*%
%ADD24O,1.600000X1.600000*%
%ADD25RoundRect,0.050000X0.763488X0.788724X-0.303837X1.054838X-0.763488X-0.788724X0.303837X-1.054838X0*%
G04 APERTURE END LIST*
D10*
%TO.C,BT1*%
X156884924Y-119205828D02*
X154884926Y-119205828D01*
X154884925Y-117805830D01*
X156884925Y-117805830D01*
X156884924Y-119205828D01*
G36*
X156884924Y-119205828D02*
G01*
X154884926Y-119205828D01*
X154884925Y-117805830D01*
X156884925Y-117805830D01*
X156884924Y-119205828D01*
G37*
X156884920Y-120407282D02*
X156884923Y-121807283D01*
X154884927Y-121807292D01*
X154884925Y-120407266D01*
X156884920Y-120407282D01*
G36*
X156884920Y-120407282D02*
G01*
X156884923Y-121807283D01*
X154884927Y-121807292D01*
X154884925Y-120407266D01*
X156884920Y-120407282D01*
G37*
%TD*%
D11*
%TO.C,PAD1*%
X191517204Y-129093091D03*
%TD*%
D12*
%TO.C,S24*%
X181216882Y-109203537D03*
D13*
X181138796Y-100067542D03*
D14*
X183025895Y-103403542D03*
D15*
X177926384Y-105463878D03*
D13*
X175716205Y-99993493D03*
D12*
X178157182Y-110439743D03*
D14*
X172826873Y-107524214D03*
%TD*%
D16*
%TO.C,S14*%
X233326810Y-114192899D03*
D13*
X233726965Y-105065333D03*
D14*
X235436886Y-108495522D03*
D15*
X230236534Y-110286149D03*
D13*
X228315682Y-104707589D03*
D16*
X230206599Y-115267274D03*
D14*
X225036182Y-112076776D03*
%TD*%
D17*
%TO.C,S8*%
X120785993Y-126190379D03*
D13*
X127076217Y-119564244D03*
D14*
X126116302Y-123274850D03*
D15*
X121016791Y-121214514D03*
D13*
X123226970Y-115744129D03*
D17*
X117726293Y-124954173D03*
D14*
X115917280Y-119154178D03*
%TD*%
D18*
%TO.C,S13*%
X248115078Y-110021687D03*
D13*
X249309234Y-100963734D03*
D14*
X250713687Y-104529902D03*
D15*
X245377061Y-105860472D03*
D13*
X243949722Y-100135727D03*
D18*
X244913103Y-110820047D03*
D14*
X240040435Y-107191042D03*
%TD*%
D12*
%TO.C,S19*%
X205604792Y-86812221D03*
D13*
X205526706Y-77676226D03*
D14*
X207413805Y-81012226D03*
D15*
X202314294Y-83072562D03*
D13*
X200104115Y-77602177D03*
D12*
X202545092Y-88048427D03*
D14*
X197214783Y-85132898D03*
%TD*%
D12*
%TO.C,S21*%
X198491444Y-110582808D03*
D13*
X198413358Y-101446813D03*
D14*
X200300457Y-104782813D03*
D15*
X195200946Y-106843149D03*
D13*
X192990767Y-101372764D03*
D12*
X195431744Y-111819014D03*
D14*
X190101435Y-108903485D03*
%TD*%
D12*
%TO.C,S22*%
X192685038Y-96211464D03*
D13*
X192606952Y-87075469D03*
D14*
X194494051Y-90411469D03*
D15*
X189394540Y-92471805D03*
D13*
X187184361Y-87001420D03*
D12*
X189625338Y-97447670D03*
D14*
X184295029Y-94532141D03*
%TD*%
D17*
%TO.C,S12*%
X143866948Y-110439738D03*
D13*
X150157172Y-103813603D03*
D14*
X149197257Y-107524209D03*
D15*
X144097746Y-105463873D03*
D13*
X146307925Y-99993488D03*
D17*
X140807248Y-109203532D03*
D14*
X138998235Y-103403537D03*
%TD*%
D19*
%TO.C,S2*%
X91817568Y-115267281D03*
D13*
X97752386Y-108321022D03*
D14*
X96987975Y-112076788D03*
D15*
X91787633Y-110286156D03*
D13*
X93708485Y-104707596D03*
D19*
X88697357Y-114192906D03*
D14*
X86587291Y-108495524D03*
%TD*%
D17*
%TO.C,S7*%
X119479053Y-88048417D03*
D13*
X125769277Y-81422282D03*
D14*
X124809362Y-85132888D03*
D15*
X119709851Y-83072552D03*
D13*
X121920030Y-77602167D03*
D17*
X116419353Y-86812211D03*
D14*
X114610340Y-81012216D03*
%TD*%
D20*
%TO.C,S26*%
X191819739Y-148899988D03*
D13*
X189379743Y-140095508D03*
D14*
X192065959Y-142829417D03*
D15*
X187673464Y-146139400D03*
D13*
X184122755Y-141427450D03*
D20*
X189184246Y-150885982D03*
D14*
X183280969Y-149449383D03*
%TD*%
D11*
%TO.C,PAD1*%
X130506437Y-129093064D03*
%TD*%
D21*
%TO.C,D9*%
X156364984Y-138943549D03*
X153824984Y-138943549D03*
%TD*%
D17*
%TO.C,S5*%
X107866268Y-116791127D03*
D13*
X114156492Y-110164992D03*
D14*
X113196577Y-113875598D03*
D15*
X108097066Y-111815262D03*
D13*
X110307245Y-106344877D03*
D17*
X104806568Y-115554921D03*
D14*
X102997555Y-109754926D03*
%TD*%
D12*
%TO.C,S17*%
X217217598Y-115554912D03*
D13*
X217139512Y-106418917D03*
D14*
X219026611Y-109754917D03*
D15*
X213927100Y-111815253D03*
D13*
X211716921Y-106344868D03*
D12*
X214157898Y-116791118D03*
D14*
X208827589Y-113875589D03*
%TD*%
D22*
%TO.C,U1*%
X169006505Y-118567203D03*
X169006485Y-121107183D03*
X169006469Y-123647189D03*
X169006484Y-126187203D03*
X169006493Y-128727169D03*
X169006505Y-131267173D03*
X169006466Y-133807196D03*
X152816473Y-133807157D03*
X152816493Y-131267177D03*
X152816509Y-128727171D03*
X152816494Y-126187157D03*
X152816485Y-123647191D03*
X152816473Y-121107187D03*
X152816512Y-118567164D03*
%TD*%
D16*
%TO.C,S16*%
X223234199Y-84881832D03*
D13*
X223634354Y-75754266D03*
D14*
X225344275Y-79184455D03*
D15*
X220143923Y-80975082D03*
D13*
X218223071Y-75396522D03*
D16*
X220113988Y-85956207D03*
D14*
X214943571Y-82765709D03*
%TD*%
D23*
%TO.C,S25*%
X132839913Y-150885978D03*
D13*
X140630761Y-146113654D03*
D14*
X138743190Y-149449379D03*
D15*
X134350695Y-146139396D03*
D13*
X137901404Y-141427446D03*
D23*
X130204421Y-148899984D03*
D14*
X129958200Y-142829413D03*
%TD*%
D19*
%TO.C,S3*%
X96863869Y-100611743D03*
D13*
X102798687Y-93665484D03*
D14*
X102034276Y-97421250D03*
D15*
X96833934Y-95630618D03*
D13*
X98754786Y-90052058D03*
D19*
X93743658Y-99537368D03*
D14*
X91633592Y-93839986D03*
%TD*%
D16*
%TO.C,S15*%
X228280503Y-99537361D03*
D13*
X228680658Y-90409795D03*
D14*
X230390579Y-93839984D03*
D15*
X225190227Y-95630611D03*
D13*
X223269375Y-90052051D03*
D16*
X225160292Y-100611736D03*
D14*
X219989875Y-97421238D03*
%TD*%
D12*
%TO.C,S20*%
X204297842Y-124954152D03*
D13*
X204219756Y-115818157D03*
D14*
X206106855Y-119154157D03*
D15*
X201007344Y-121214493D03*
D13*
X198797165Y-115744108D03*
D12*
X201238142Y-126190358D03*
D14*
X195907833Y-123274829D03*
%TD*%
D12*
%TO.C,S18*%
X211411206Y-101183579D03*
D13*
X211333120Y-92047584D03*
D14*
X213220219Y-95383584D03*
D15*
X208120708Y-97443920D03*
D13*
X205910529Y-91973535D03*
D12*
X208351506Y-102419785D03*
D14*
X203021197Y-99504256D03*
%TD*%
D17*
%TO.C,S9*%
X126592407Y-111819016D03*
D13*
X132882631Y-105192881D03*
D14*
X131922716Y-108903487D03*
D15*
X126823205Y-106843151D03*
D13*
X129033384Y-101372766D03*
D17*
X123532707Y-110582810D03*
D14*
X121723694Y-104782815D03*
%TD*%
D24*
%TO.C,*%
X156570499Y-125766147D03*
%TD*%
D17*
%TO.C,S6*%
X113672645Y-102419766D03*
D13*
X119962869Y-95793631D03*
D14*
X119002954Y-99504237D03*
D15*
X113903443Y-97443901D03*
D13*
X116113622Y-91973516D03*
D17*
X110612945Y-101183560D03*
D14*
X108803932Y-95383565D03*
%TD*%
D12*
%TO.C,S23*%
X187023283Y-123574884D03*
D13*
X186945197Y-114438889D03*
D14*
X188832296Y-117774889D03*
D15*
X183732785Y-119835225D03*
D13*
X181522606Y-114364840D03*
D12*
X183963583Y-124811090D03*
D14*
X178633274Y-121895561D03*
%TD*%
D17*
%TO.C,S10*%
X132398803Y-97447652D03*
D13*
X138689027Y-90821517D03*
D14*
X137729112Y-94532123D03*
D15*
X132629601Y-92471787D03*
D13*
X134839780Y-87001402D03*
D17*
X129339103Y-96211446D03*
D14*
X127530090Y-90411451D03*
%TD*%
D25*
%TO.C,S1*%
X77111054Y-110820016D03*
D13*
X82417874Y-103382936D03*
D14*
X81983720Y-107191026D03*
D15*
X76647094Y-105860456D03*
D13*
X78074433Y-100135711D03*
D25*
X73909077Y-110021671D03*
D14*
X71310468Y-104529886D03*
%TD*%
D17*
%TO.C,S11*%
X138060556Y-124811097D03*
D13*
X144350780Y-118184962D03*
D14*
X143390865Y-121895568D03*
D15*
X138291354Y-119835232D03*
D13*
X140501533Y-114364847D03*
D17*
X135000856Y-123574891D03*
D14*
X133191843Y-117774896D03*
%TD*%
D19*
%TO.C,S4*%
X101910172Y-85956199D03*
D13*
X107844990Y-79009940D03*
D14*
X107080579Y-82765706D03*
D15*
X101880237Y-80975074D03*
D13*
X103801089Y-75396514D03*
D19*
X98789961Y-84881824D03*
D14*
X96679895Y-79184442D03*
%TD*%
M02*
