%TF.GenerationSoftware,KiCad,Pcbnew,8.0.5*%
%TF.CreationDate,2024-09-08T16:16:31+10:00*%
%TF.ProjectId,akohekohe,616b6f68-656b-46f6-9865-2e6b69636164,0.1*%
%TF.SameCoordinates,Original*%
%TF.FileFunction,Drillmap*%
%TF.FilePolarity,Positive*%
%FSLAX45Y45*%
G04 Gerber Fmt 4.5, Leading zero omitted, Abs format (unit mm)*
G04 Created by KiCad (PCBNEW 8.0.5) date 2024-09-08 16:16:31*
%MOMM*%
%LPD*%
G01*
G04 APERTURE LIST*
%ADD10C,0.150000*%
%ADD11C,0.200000*%
%ADD12C,0.100000*%
%ADD13C,0.109220*%
%ADD14C,0.127000*%
G04 APERTURE END LIST*
D10*
X6840478Y-11205032D02*
G75*
G02*
X6731227Y-11023199I36291J145543D01*
G01*
X15310314Y-11553888D02*
G75*
G02*
X15032157Y-11141504I-5J299998D01*
G01*
X23654137Y-9981853D02*
G75*
G02*
X23476022Y-9885143I-36288J145544D01*
G01*
X8726395Y-9885143D02*
G75*
G02*
X8548281Y-9981850I-141825J48833D01*
G01*
X11472732Y-7404902D02*
X11423597Y-7526514D01*
X17954214Y-8944197D02*
G75*
G02*
X18037099Y-8748921I139076J56198D01*
G01*
X17622836Y-14294982D02*
G75*
G02*
X17680073Y-14516285I-14748J-121868D01*
G01*
X19406650Y-13468358D02*
X20116887Y-14410875D01*
X13006335Y-8280669D02*
X14165316Y-8748927D01*
X19406650Y-13468359D02*
G75*
G02*
X19470256Y-13239012I119798J90270D01*
G01*
X14712843Y-14661126D02*
G75*
G02*
X14742360Y-14871190I-90294J-119794D01*
G01*
X12115048Y-14620940D02*
X13792185Y-15884754D01*
X12923451Y-8085400D02*
X12956226Y-8004272D01*
X8259981Y-11558953D02*
G75*
G02*
X8272528Y-11562669I-36232J-145386D01*
G01*
X20116887Y-14410875D02*
G75*
G02*
X20087368Y-14620944I-119799J-90274D01*
G01*
X12732159Y-13239007D02*
G75*
G02*
X12795757Y-13468353I-56190J-139072D01*
G01*
X14070263Y-9384609D02*
X14248202Y-8944196D01*
X12085526Y-14410874D02*
X12795763Y-13468357D01*
X9960237Y-11701144D02*
X11066332Y-12148037D01*
X9833891Y-7129474D02*
X11235684Y-7612148D01*
X14165316Y-8748927D02*
G75*
G02*
X14248199Y-8944195I-56187J-139074D01*
G01*
X23476020Y-9885143D02*
X22559186Y-7222466D01*
X7045721Y-9761816D02*
X6731224Y-11023198D01*
X18200162Y-15855230D02*
X17460049Y-14871197D01*
X11066332Y-12148037D02*
G75*
G02*
X11149211Y-12343304I-56192J-139072D01*
G01*
X14153149Y-9579877D02*
G75*
G02*
X14070269Y-9384611I56201J139077D01*
G01*
X15032160Y-11141505D02*
X15395016Y-10243403D01*
X9643226Y-7222466D02*
G75*
G02*
X9833889Y-7129479I141823J-48834D01*
G01*
X23929887Y-11562671D02*
G75*
G02*
X23942437Y-11558955I48592J-141059D01*
G01*
X7045722Y-9761816D02*
G75*
G02*
X7227554Y-9652561I145547J-36294D01*
G01*
X22368523Y-7129473D02*
G75*
G02*
X22559187Y-7222465I48837J-141826D01*
G01*
X14002251Y-15855229D02*
X14742366Y-14871195D01*
X23929887Y-11562671D02*
X22669520Y-11996652D01*
X20534412Y-7322014D02*
X19329074Y-7809003D01*
X21085977Y-12424434D02*
G75*
G02*
X21003096Y-12619708I-139078J-56196D01*
G01*
X16890284Y-10048136D02*
X18049264Y-9579877D01*
X14712843Y-14661126D02*
X14522142Y-14516530D01*
X16892100Y-11553887D02*
X15310314Y-11553888D01*
X15312128Y-10048136D02*
G75*
G02*
X15395024Y-10243406I-56189J-139084D01*
G01*
X19246189Y-8004272D02*
X19278965Y-8085401D01*
X24974862Y-9652559D02*
X23654137Y-9981853D01*
X25156694Y-9761816D02*
X25471192Y-11023201D01*
X16807399Y-10243403D02*
G75*
G02*
X16890283Y-10048132I139081J56193D01*
G01*
X25471192Y-11023201D02*
G75*
G02*
X25361936Y-11205041I-145553J-36289D01*
G01*
X9723557Y-11903655D02*
X9762215Y-11791387D01*
X8272528Y-11562669D02*
X9532895Y-11996651D01*
X22669520Y-11996652D02*
G75*
G02*
X22478853Y-11903660I-48840J141824D01*
G01*
X11472732Y-7404902D02*
G75*
G02*
X11667998Y-7322016I139076J-56188D01*
G01*
X12115048Y-14620940D02*
G75*
G02*
X12085531Y-14410878I90271J119790D01*
G01*
X14522344Y-14516283D02*
G75*
G02*
X14579579Y-14294983I71985J99434D01*
G01*
X17622836Y-14294982D02*
X14579579Y-14294980D01*
X11199324Y-12619702D02*
G75*
G02*
X11116446Y-12424438I56195J139072D01*
G01*
X17954214Y-8944197D02*
X18132153Y-9384610D01*
X22478858Y-11903658D02*
X22440200Y-11791386D01*
X24974862Y-9652559D02*
G75*
G02*
X25156697Y-9761815I36287J-145551D01*
G01*
X25361934Y-11205034D02*
X23942434Y-11558955D01*
X16807399Y-10243403D02*
X17170255Y-11141506D01*
X6840478Y-11205032D02*
X8259981Y-11558953D01*
X8726394Y-9885144D02*
X9643230Y-7222465D01*
X13006335Y-8280669D02*
G75*
G02*
X12923445Y-8085397I56185J139079D01*
G01*
X12873339Y-7809003D02*
G75*
G02*
X12956226Y-8004272I-56190J-139077D01*
G01*
X9723557Y-11903655D02*
G75*
G02*
X9532895Y-11996650I-141829J48835D01*
G01*
X11149217Y-12343307D02*
X11116438Y-12424434D01*
X18410232Y-15884755D02*
G75*
G02*
X18200162Y-15855230I-90273J119796D01*
G01*
X7227555Y-9652558D02*
X8548280Y-9981853D01*
X11423597Y-7526514D02*
G75*
G02*
X11235684Y-7612150I-139078J56194D01*
G01*
X14153149Y-9579877D02*
X15312128Y-10048136D01*
X11199324Y-12619702D02*
X12732159Y-13239007D01*
X12873340Y-7809003D02*
X11667999Y-7322014D01*
X20729683Y-7404902D02*
X20778819Y-7526515D01*
X22242181Y-11701148D02*
X21136087Y-12148036D01*
X22368523Y-7129473D02*
X20966732Y-7612149D01*
X21053200Y-12343305D02*
G75*
G02*
X21136089Y-12148042I139080J56185D01*
G01*
X18037102Y-8748928D02*
X19196080Y-8280668D01*
X9762215Y-11791387D02*
G75*
G02*
X9960237Y-11701142I141834J-48844D01*
G01*
X19470254Y-13239007D02*
X21003093Y-12619702D01*
X19278965Y-8085401D02*
G75*
G02*
X19196079Y-8280665I-139076J-56189D01*
G01*
X20534412Y-7322014D02*
G75*
G02*
X20729688Y-7404901I56197J-139075D01*
G01*
X17460049Y-14871197D02*
G75*
G02*
X17489575Y-14661131I119819J90267D01*
G01*
X22242181Y-11701148D02*
G75*
G02*
X22440198Y-11791386I56189J-139082D01*
G01*
X17170255Y-11141506D02*
G75*
G02*
X16892100Y-11553891I-278157J-112383D01*
G01*
X21085977Y-12424434D02*
X21053200Y-12343305D01*
X19246189Y-8004272D02*
G75*
G02*
X19329073Y-7809001I139080J56192D01*
G01*
X18132153Y-9384609D02*
G75*
G02*
X18049266Y-9579883I-139084J-56191D01*
G01*
X20966732Y-7612149D02*
G75*
G02*
X20778815Y-7526516I-48843J141819D01*
G01*
X14002251Y-15855229D02*
G75*
G02*
X13792187Y-15884750I-119792J90270D01*
G01*
X17489571Y-14661126D02*
X17680272Y-14516530D01*
X20087366Y-14620942D02*
X18410232Y-15884755D01*
D11*
D12*
X7993388Y-10483129D02*
X8033388Y-10523129D01*
X8033388Y-10483129D02*
X7993388Y-10523129D01*
X9714674Y-10397895D02*
X9754674Y-10437895D01*
X9754674Y-10397895D02*
X9714674Y-10437895D01*
X9834417Y-10121608D02*
X9874417Y-10161608D01*
X9874417Y-10121608D02*
X9834417Y-10161608D01*
X9968593Y-10184577D02*
X10008593Y-10224577D01*
X10008593Y-10184577D02*
X9968593Y-10224577D01*
X10340484Y-8651881D02*
X10380484Y-8691881D01*
X10380484Y-8651881D02*
X10340484Y-8691881D01*
X10406065Y-8474768D02*
X10446065Y-8514768D01*
X10446065Y-8474768D02*
X10406065Y-8514768D01*
X10498531Y-8653421D02*
X10538531Y-8693421D01*
X10538531Y-8653421D02*
X10498531Y-8693421D01*
X11380699Y-10395469D02*
X11420699Y-10435469D01*
X11420699Y-10395469D02*
X11380699Y-10435469D01*
X11524010Y-10234968D02*
X11564010Y-10274968D01*
X11564010Y-10234968D02*
X11524010Y-10274968D01*
X11686129Y-10273504D02*
X11726129Y-10313504D01*
X11726129Y-10273504D02*
X11686129Y-10313504D01*
X12149341Y-8703124D02*
X12189341Y-8743124D01*
X12189341Y-8703124D02*
X12149341Y-8743124D01*
X12243172Y-8898801D02*
X12283172Y-8938801D01*
X12283172Y-8898801D02*
X12243172Y-8938801D01*
X12932214Y-11327009D02*
X12972214Y-11367009D01*
X12972214Y-11327009D02*
X12932214Y-11367009D01*
X13418087Y-10131126D02*
X13458087Y-10171126D01*
X13458087Y-10131126D02*
X13418087Y-10171126D01*
X13885634Y-12704467D02*
X13925634Y-12744467D01*
X13925634Y-12704467D02*
X13885634Y-12744467D01*
X14066089Y-12785874D02*
X14106089Y-12825874D01*
X14106089Y-12785874D02*
X14066089Y-12825874D01*
X14122948Y-12638439D02*
X14162948Y-12678439D01*
X14162948Y-12638439D02*
X14122948Y-12678439D01*
X14513940Y-11052867D02*
X14553940Y-11092867D01*
X14553940Y-11052867D02*
X14513940Y-11092867D01*
X14596799Y-11348719D02*
X14636799Y-11388719D01*
X14636799Y-11348719D02*
X14596799Y-11388719D01*
X15738345Y-12089202D02*
X15778345Y-12129202D01*
X15778345Y-12089202D02*
X15738345Y-12129202D01*
X18035158Y-12389822D02*
X18075158Y-12429822D01*
X18075158Y-12389822D02*
X18035158Y-12429822D01*
X18133935Y-12611722D02*
X18173935Y-12651722D01*
X18173935Y-12611722D02*
X18133935Y-12651722D01*
X18269094Y-10854360D02*
X18309094Y-10894360D01*
X18309094Y-10854360D02*
X18269094Y-10894360D01*
X18440558Y-10840401D02*
X18480558Y-10880401D01*
X18480558Y-10840401D02*
X18440558Y-10880401D01*
X18871628Y-12418680D02*
X18911628Y-12458680D01*
X18911628Y-12418680D02*
X18871628Y-12458680D01*
X19332131Y-9326206D02*
X19372131Y-9366206D01*
X19372131Y-9326206D02*
X19332131Y-9366206D01*
X19534825Y-9407745D02*
X19574825Y-9447745D01*
X19574825Y-9407745D02*
X19534825Y-9447745D01*
X19968345Y-10939656D02*
X20008345Y-10979656D01*
X20008345Y-10939656D02*
X19968345Y-10979656D01*
X20027111Y-11085102D02*
X20067111Y-11125102D01*
X20067111Y-11085102D02*
X20027111Y-11125102D01*
X20159428Y-10944660D02*
X20199428Y-10984660D01*
X20199428Y-10944660D02*
X20159428Y-10984660D01*
X20625073Y-8425056D02*
X20665073Y-8465056D01*
X20665073Y-8425056D02*
X20625073Y-8465056D01*
X20837204Y-8496962D02*
X20877204Y-8536962D01*
X20877204Y-8496962D02*
X20837204Y-8536962D01*
X21267687Y-10023094D02*
X21307687Y-10063094D01*
X21307687Y-10023094D02*
X21267687Y-10063094D01*
X21395681Y-9884071D02*
X21435681Y-9924071D01*
X21435681Y-9884071D02*
X21395681Y-9924071D01*
X22408839Y-8275044D02*
X22448839Y-8315044D01*
X22448839Y-8275044D02*
X22408839Y-8315044D01*
X22483739Y-8415758D02*
X22523739Y-8455758D01*
X22523739Y-8415758D02*
X22483739Y-8455758D01*
X22595196Y-8286593D02*
X22635196Y-8326593D01*
X22635196Y-8286593D02*
X22595196Y-8326593D01*
X22967606Y-10054599D02*
X23007606Y-10094599D01*
X23007606Y-10054599D02*
X22967606Y-10094599D01*
X23015020Y-9958707D02*
X23055020Y-9998707D01*
X23055020Y-9958707D02*
X23015020Y-9998707D01*
X23046885Y-10116954D02*
X23086885Y-10156954D01*
X23086885Y-10116954D02*
X23046885Y-10156954D01*
X23273059Y-10250600D02*
X23313059Y-10290600D01*
X23313059Y-10250600D02*
X23273059Y-10290600D01*
X24789209Y-10233520D02*
X24829209Y-10273520D01*
X24829209Y-10233520D02*
X24789209Y-10273520D01*
X15702050Y-12576615D02*
G75*
G02*
X15612050Y-12576615I-45000J0D01*
G01*
X15612050Y-12576615D02*
G75*
G02*
X15702050Y-12576615I45000J0D01*
G01*
X15329147Y-12060719D02*
X15329147Y-12160719D01*
X15279147Y-12110719D02*
X15379147Y-12110719D01*
X15329147Y-13330716D02*
X15329147Y-13430716D01*
X15279147Y-13380716D02*
X15379147Y-13380716D01*
X15329148Y-12314719D02*
X15329148Y-12414719D01*
X15279148Y-12364719D02*
X15379148Y-12364719D01*
X15329149Y-13076718D02*
X15329149Y-13176718D01*
X15279149Y-13126718D02*
X15379149Y-13126718D01*
X15329149Y-12568716D02*
X15329149Y-12668716D01*
X15279149Y-12618716D02*
X15379149Y-12618716D01*
X15329151Y-12822717D02*
X15329151Y-12922717D01*
X15279151Y-12872717D02*
X15379151Y-12872717D01*
X15329151Y-11806716D02*
X15329151Y-11906716D01*
X15279151Y-11856716D02*
X15379151Y-11856716D01*
X16853147Y-13330720D02*
X16853147Y-13430720D01*
X16803147Y-13380720D02*
X16903147Y-13380720D01*
X16853147Y-12314719D02*
X16853147Y-12414719D01*
X16803147Y-12364719D02*
X16903147Y-12364719D01*
X16853148Y-12568720D02*
X16853148Y-12668720D01*
X16803148Y-12618720D02*
X16903148Y-12618720D01*
X16853149Y-12060718D02*
X16853149Y-12160718D01*
X16803149Y-12110718D02*
X16903149Y-12110718D01*
X16853149Y-12822717D02*
X16853149Y-12922717D01*
X16803149Y-12872717D02*
X16903149Y-12872717D01*
X16853151Y-11806720D02*
X16853151Y-11906720D01*
X16803151Y-11856720D02*
X16903151Y-11856720D01*
X16853151Y-13076717D02*
X16853151Y-13176717D01*
X16803151Y-13126717D02*
X16903151Y-13126717D01*
D13*
X15421114Y-13932970D02*
X15421114Y-13855739D01*
X15343883Y-13855739D01*
X15343883Y-13932970D01*
X15421114Y-13932970D01*
X15675114Y-13932970D02*
X15675114Y-13855739D01*
X15597883Y-13855739D01*
X15597883Y-13932970D01*
X15675114Y-13932970D01*
D14*
X7807443Y-10077071D02*
X7870943Y-10013571D01*
X7807443Y-9950071D01*
X7743943Y-10013571D01*
X7807443Y-10077071D01*
X8241787Y-10401794D02*
X8305287Y-10338294D01*
X8241787Y-10274794D01*
X8178287Y-10338294D01*
X8241787Y-10401794D01*
X9370849Y-10534260D02*
X9434349Y-10470760D01*
X9370849Y-10407260D01*
X9307349Y-10470760D01*
X9370849Y-10534260D01*
X9775239Y-10895602D02*
X9838739Y-10832102D01*
X9775239Y-10768602D01*
X9711739Y-10832102D01*
X9775239Y-10895602D01*
X9875479Y-9068706D02*
X9938979Y-9005206D01*
X9875479Y-8941706D01*
X9811979Y-9005206D01*
X9875479Y-9068706D01*
X10279869Y-9430048D02*
X10343369Y-9366548D01*
X10279869Y-9303048D01*
X10216369Y-9366548D01*
X10279869Y-9430048D01*
X10380109Y-7603151D02*
X10443609Y-7539651D01*
X10380109Y-7476151D01*
X10316609Y-7539651D01*
X10380109Y-7603151D01*
X10784499Y-7964494D02*
X10847999Y-7900994D01*
X10784499Y-7837494D01*
X10720999Y-7900994D01*
X10784499Y-7964494D01*
X11030725Y-10697988D02*
X11094225Y-10634488D01*
X11030725Y-10570988D01*
X10967225Y-10634488D01*
X11030725Y-10697988D01*
X11415649Y-11079999D02*
X11479149Y-11016499D01*
X11415649Y-10952999D01*
X11352149Y-11016499D01*
X11415649Y-11079999D01*
X11611362Y-9260852D02*
X11674862Y-9197352D01*
X11611362Y-9133852D01*
X11547862Y-9197352D01*
X11611362Y-9260852D01*
X11996287Y-9642863D02*
X12059787Y-9579363D01*
X11996287Y-9515863D01*
X11932787Y-9579363D01*
X11996287Y-9642863D01*
X12192003Y-7823717D02*
X12255503Y-7760217D01*
X12192003Y-7696717D01*
X12128503Y-7760217D01*
X12192003Y-7823717D01*
X12322697Y-11637913D02*
X12386197Y-11574413D01*
X12322697Y-11510913D01*
X12259197Y-11574413D01*
X12322697Y-11637913D01*
X12576928Y-8205728D02*
X12640428Y-8142228D01*
X12576928Y-8078728D01*
X12513428Y-8142228D01*
X12576928Y-8205728D01*
X12707622Y-12019924D02*
X12771122Y-11956424D01*
X12707622Y-11892924D01*
X12644122Y-11956424D01*
X12707622Y-12019924D01*
X12903338Y-10200777D02*
X12966838Y-10137277D01*
X12903338Y-10073777D01*
X12839838Y-10137277D01*
X12903338Y-10200777D01*
X13288263Y-10582788D02*
X13351763Y-10519288D01*
X13288263Y-10455788D01*
X13224763Y-10519288D01*
X13288263Y-10582788D01*
X13483978Y-8763640D02*
X13547478Y-8700140D01*
X13483978Y-8636640D01*
X13420478Y-8700140D01*
X13483978Y-8763640D01*
X13790140Y-14206245D02*
X13853640Y-14142745D01*
X13790140Y-14079245D01*
X13726640Y-14142745D01*
X13790140Y-14206245D01*
X13868903Y-9145652D02*
X13932403Y-9082152D01*
X13868903Y-9018652D01*
X13805403Y-9082152D01*
X13868903Y-9145652D01*
X14050153Y-11499985D02*
X14113653Y-11436485D01*
X14050153Y-11372985D01*
X13986653Y-11436485D01*
X14050153Y-11499985D01*
X14063076Y-14674865D02*
X14126576Y-14611365D01*
X14063076Y-14547865D01*
X13999576Y-14611365D01*
X14063076Y-14674865D01*
X14435078Y-11881996D02*
X14498578Y-11818496D01*
X14435078Y-11754996D01*
X14371578Y-11818496D01*
X14435078Y-11881996D01*
X14630792Y-10062849D02*
X14694292Y-9999349D01*
X14630792Y-9935849D01*
X14567292Y-9999349D01*
X14630792Y-10062849D01*
X15015717Y-10444860D02*
X15079217Y-10381360D01*
X15015717Y-10317860D01*
X14952217Y-10381360D01*
X15015717Y-10444860D01*
X17571621Y-10062849D02*
X17635121Y-9999349D01*
X17571621Y-9935849D01*
X17508121Y-9999349D01*
X17571621Y-10062849D01*
X18113880Y-10070254D02*
X18177380Y-10006754D01*
X18113880Y-9943254D01*
X18050380Y-10006754D01*
X18113880Y-10070254D01*
X18152261Y-11499984D02*
X18215761Y-11436484D01*
X18152261Y-11372984D01*
X18088761Y-11436484D01*
X18152261Y-11499984D01*
X18412276Y-14206245D02*
X18475776Y-14142745D01*
X18412276Y-14079245D01*
X18348776Y-14142745D01*
X18412276Y-14206245D01*
X18694520Y-11507389D02*
X18758020Y-11443889D01*
X18694520Y-11380389D01*
X18631020Y-11443889D01*
X18694520Y-11507389D01*
X18718436Y-8763642D02*
X18781936Y-8700142D01*
X18718436Y-8636642D01*
X18654936Y-8700142D01*
X18718436Y-8763642D01*
X18937974Y-14073051D02*
X19001474Y-14009551D01*
X18937974Y-13946051D01*
X18874474Y-14009551D01*
X18937974Y-14073051D01*
X19260695Y-8771047D02*
X19324195Y-8707547D01*
X19260695Y-8644047D01*
X19197195Y-8707547D01*
X19260695Y-8771047D01*
X19299077Y-10200776D02*
X19362577Y-10137276D01*
X19299077Y-10073776D01*
X19235577Y-10137276D01*
X19299077Y-10200776D01*
X19841336Y-10208181D02*
X19904836Y-10144681D01*
X19841336Y-10081181D01*
X19777836Y-10144681D01*
X19841336Y-10208181D01*
X19879717Y-11637911D02*
X19943217Y-11574411D01*
X19879717Y-11510911D01*
X19816217Y-11574411D01*
X19879717Y-11637911D01*
X20010412Y-7823718D02*
X20073912Y-7760218D01*
X20010412Y-7696718D01*
X19946912Y-7760218D01*
X20010412Y-7823718D01*
X20421976Y-11645316D02*
X20485476Y-11581816D01*
X20421976Y-11518316D01*
X20358476Y-11581816D01*
X20421976Y-11645316D01*
X20552671Y-7831123D02*
X20616171Y-7767623D01*
X20552671Y-7704123D01*
X20489171Y-7767623D01*
X20552671Y-7831123D01*
X20591053Y-9260854D02*
X20654553Y-9197354D01*
X20591053Y-9133854D01*
X20527553Y-9197354D01*
X20591053Y-9260854D01*
X21133312Y-9268258D02*
X21196812Y-9204758D01*
X21133312Y-9141258D01*
X21069812Y-9204758D01*
X21133312Y-9268258D01*
X21171692Y-10697987D02*
X21235192Y-10634487D01*
X21171692Y-10570987D01*
X21108192Y-10634487D01*
X21171692Y-10697987D01*
X21713951Y-10705392D02*
X21777451Y-10641892D01*
X21713951Y-10578392D01*
X21650451Y-10641892D01*
X21713951Y-10705392D01*
X21822307Y-7603152D02*
X21885807Y-7539652D01*
X21822307Y-7476152D01*
X21758807Y-7539652D01*
X21822307Y-7603152D01*
X22326938Y-9068705D02*
X22390437Y-9005205D01*
X22326938Y-8941705D01*
X22263438Y-9005205D01*
X22326938Y-9068705D01*
X22363435Y-7638927D02*
X22426935Y-7575427D01*
X22363435Y-7511927D01*
X22299935Y-7575427D01*
X22363435Y-7638927D01*
X22831568Y-10534259D02*
X22895068Y-10470759D01*
X22831568Y-10407259D01*
X22768068Y-10470759D01*
X22831568Y-10534259D01*
X22868066Y-9104480D02*
X22931566Y-9040980D01*
X22868066Y-8977480D01*
X22804566Y-9040980D01*
X22868066Y-9104480D01*
X23372696Y-10570033D02*
X23436196Y-10506533D01*
X23372696Y-10443033D01*
X23309196Y-10506533D01*
X23372696Y-10570033D01*
X24394972Y-10077073D02*
X24458472Y-10013573D01*
X24394972Y-9950073D01*
X24331472Y-10013573D01*
X24394972Y-10077073D01*
X24930923Y-10159873D02*
X24994423Y-10096373D01*
X24930923Y-10032873D01*
X24867423Y-10096373D01*
X24930923Y-10159873D01*
D11*
X6980047Y-16233944D02*
X6980047Y-16033944D01*
X6980047Y-16033944D02*
X7027666Y-16033944D01*
X7027666Y-16033944D02*
X7056238Y-16043468D01*
X7056238Y-16043468D02*
X7075285Y-16062516D01*
X7075285Y-16062516D02*
X7084809Y-16081563D01*
X7084809Y-16081563D02*
X7094333Y-16119658D01*
X7094333Y-16119658D02*
X7094333Y-16148230D01*
X7094333Y-16148230D02*
X7084809Y-16186325D01*
X7084809Y-16186325D02*
X7075285Y-16205373D01*
X7075285Y-16205373D02*
X7056238Y-16224420D01*
X7056238Y-16224420D02*
X7027666Y-16233944D01*
X7027666Y-16233944D02*
X6980047Y-16233944D01*
X7180047Y-16233944D02*
X7180047Y-16100611D01*
X7180047Y-16138706D02*
X7189571Y-16119658D01*
X7189571Y-16119658D02*
X7199095Y-16110135D01*
X7199095Y-16110135D02*
X7218142Y-16100611D01*
X7218142Y-16100611D02*
X7237190Y-16100611D01*
X7303857Y-16233944D02*
X7303857Y-16100611D01*
X7303857Y-16033944D02*
X7294333Y-16043468D01*
X7294333Y-16043468D02*
X7303857Y-16052992D01*
X7303857Y-16052992D02*
X7313380Y-16043468D01*
X7313380Y-16043468D02*
X7303857Y-16033944D01*
X7303857Y-16033944D02*
X7303857Y-16052992D01*
X7427666Y-16233944D02*
X7408618Y-16224420D01*
X7408618Y-16224420D02*
X7399095Y-16205373D01*
X7399095Y-16205373D02*
X7399095Y-16033944D01*
X7532428Y-16233944D02*
X7513380Y-16224420D01*
X7513380Y-16224420D02*
X7503857Y-16205373D01*
X7503857Y-16205373D02*
X7503857Y-16033944D01*
X7760999Y-16233944D02*
X7760999Y-16033944D01*
X7760999Y-16033944D02*
X7827666Y-16176801D01*
X7827666Y-16176801D02*
X7894333Y-16033944D01*
X7894333Y-16033944D02*
X7894333Y-16233944D01*
X8075285Y-16233944D02*
X8075285Y-16129182D01*
X8075285Y-16129182D02*
X8065761Y-16110135D01*
X8065761Y-16110135D02*
X8046714Y-16100611D01*
X8046714Y-16100611D02*
X8008618Y-16100611D01*
X8008618Y-16100611D02*
X7989571Y-16110135D01*
X8075285Y-16224420D02*
X8056238Y-16233944D01*
X8056238Y-16233944D02*
X8008618Y-16233944D01*
X8008618Y-16233944D02*
X7989571Y-16224420D01*
X7989571Y-16224420D02*
X7980047Y-16205373D01*
X7980047Y-16205373D02*
X7980047Y-16186325D01*
X7980047Y-16186325D02*
X7989571Y-16167277D01*
X7989571Y-16167277D02*
X8008618Y-16157754D01*
X8008618Y-16157754D02*
X8056238Y-16157754D01*
X8056238Y-16157754D02*
X8075285Y-16148230D01*
X8170523Y-16100611D02*
X8170523Y-16300611D01*
X8170523Y-16110135D02*
X8189571Y-16100611D01*
X8189571Y-16100611D02*
X8227666Y-16100611D01*
X8227666Y-16100611D02*
X8246714Y-16110135D01*
X8246714Y-16110135D02*
X8256238Y-16119658D01*
X8256238Y-16119658D02*
X8265761Y-16138706D01*
X8265761Y-16138706D02*
X8265761Y-16195849D01*
X8265761Y-16195849D02*
X8256238Y-16214896D01*
X8256238Y-16214896D02*
X8246714Y-16224420D01*
X8246714Y-16224420D02*
X8227666Y-16233944D01*
X8227666Y-16233944D02*
X8189571Y-16233944D01*
X8189571Y-16233944D02*
X8170523Y-16224420D01*
X8351476Y-16214896D02*
X8360999Y-16224420D01*
X8360999Y-16224420D02*
X8351476Y-16233944D01*
X8351476Y-16233944D02*
X8341952Y-16224420D01*
X8341952Y-16224420D02*
X8351476Y-16214896D01*
X8351476Y-16214896D02*
X8351476Y-16233944D01*
X8351476Y-16110135D02*
X8360999Y-16119658D01*
X8360999Y-16119658D02*
X8351476Y-16129182D01*
X8351476Y-16129182D02*
X8341952Y-16119658D01*
X8341952Y-16119658D02*
X8351476Y-16110135D01*
X8351476Y-16110135D02*
X8351476Y-16129182D01*
D12*
X6679270Y-16542460D02*
X6719270Y-16582460D01*
X6719270Y-16542460D02*
X6679270Y-16582460D01*
D11*
X7018142Y-16453944D02*
X7037190Y-16453944D01*
X7037190Y-16453944D02*
X7056238Y-16463468D01*
X7056238Y-16463468D02*
X7065761Y-16472992D01*
X7065761Y-16472992D02*
X7075285Y-16492039D01*
X7075285Y-16492039D02*
X7084809Y-16530135D01*
X7084809Y-16530135D02*
X7084809Y-16577754D01*
X7084809Y-16577754D02*
X7075285Y-16615849D01*
X7075285Y-16615849D02*
X7065761Y-16634896D01*
X7065761Y-16634896D02*
X7056238Y-16644420D01*
X7056238Y-16644420D02*
X7037190Y-16653944D01*
X7037190Y-16653944D02*
X7018142Y-16653944D01*
X7018142Y-16653944D02*
X6999095Y-16644420D01*
X6999095Y-16644420D02*
X6989571Y-16634896D01*
X6989571Y-16634896D02*
X6980047Y-16615849D01*
X6980047Y-16615849D02*
X6970523Y-16577754D01*
X6970523Y-16577754D02*
X6970523Y-16530135D01*
X6970523Y-16530135D02*
X6980047Y-16492039D01*
X6980047Y-16492039D02*
X6989571Y-16472992D01*
X6989571Y-16472992D02*
X6999095Y-16463468D01*
X6999095Y-16463468D02*
X7018142Y-16453944D01*
X7170523Y-16634896D02*
X7180047Y-16644420D01*
X7180047Y-16644420D02*
X7170523Y-16653944D01*
X7170523Y-16653944D02*
X7160999Y-16644420D01*
X7160999Y-16644420D02*
X7170523Y-16634896D01*
X7170523Y-16634896D02*
X7170523Y-16653944D01*
X7351476Y-16520611D02*
X7351476Y-16653944D01*
X7303857Y-16444420D02*
X7256238Y-16587277D01*
X7256238Y-16587277D02*
X7380047Y-16587277D01*
X7494333Y-16453944D02*
X7513380Y-16453944D01*
X7513380Y-16453944D02*
X7532428Y-16463468D01*
X7532428Y-16463468D02*
X7541952Y-16472992D01*
X7541952Y-16472992D02*
X7551476Y-16492039D01*
X7551476Y-16492039D02*
X7560999Y-16530135D01*
X7560999Y-16530135D02*
X7560999Y-16577754D01*
X7560999Y-16577754D02*
X7551476Y-16615849D01*
X7551476Y-16615849D02*
X7541952Y-16634896D01*
X7541952Y-16634896D02*
X7532428Y-16644420D01*
X7532428Y-16644420D02*
X7513380Y-16653944D01*
X7513380Y-16653944D02*
X7494333Y-16653944D01*
X7494333Y-16653944D02*
X7475285Y-16644420D01*
X7475285Y-16644420D02*
X7465761Y-16634896D01*
X7465761Y-16634896D02*
X7456238Y-16615849D01*
X7456238Y-16615849D02*
X7446714Y-16577754D01*
X7446714Y-16577754D02*
X7446714Y-16530135D01*
X7446714Y-16530135D02*
X7456238Y-16492039D01*
X7456238Y-16492039D02*
X7465761Y-16472992D01*
X7465761Y-16472992D02*
X7475285Y-16463468D01*
X7475285Y-16463468D02*
X7494333Y-16453944D01*
X7684809Y-16453944D02*
X7703857Y-16453944D01*
X7703857Y-16453944D02*
X7722904Y-16463468D01*
X7722904Y-16463468D02*
X7732428Y-16472992D01*
X7732428Y-16472992D02*
X7741952Y-16492039D01*
X7741952Y-16492039D02*
X7751476Y-16530135D01*
X7751476Y-16530135D02*
X7751476Y-16577754D01*
X7751476Y-16577754D02*
X7741952Y-16615849D01*
X7741952Y-16615849D02*
X7732428Y-16634896D01*
X7732428Y-16634896D02*
X7722904Y-16644420D01*
X7722904Y-16644420D02*
X7703857Y-16653944D01*
X7703857Y-16653944D02*
X7684809Y-16653944D01*
X7684809Y-16653944D02*
X7665761Y-16644420D01*
X7665761Y-16644420D02*
X7656238Y-16634896D01*
X7656238Y-16634896D02*
X7646714Y-16615849D01*
X7646714Y-16615849D02*
X7637190Y-16577754D01*
X7637190Y-16577754D02*
X7637190Y-16530135D01*
X7637190Y-16530135D02*
X7646714Y-16492039D01*
X7646714Y-16492039D02*
X7656238Y-16472992D01*
X7656238Y-16472992D02*
X7665761Y-16463468D01*
X7665761Y-16463468D02*
X7684809Y-16453944D01*
X7837190Y-16653944D02*
X7837190Y-16520611D01*
X7837190Y-16539658D02*
X7846714Y-16530135D01*
X7846714Y-16530135D02*
X7865761Y-16520611D01*
X7865761Y-16520611D02*
X7894333Y-16520611D01*
X7894333Y-16520611D02*
X7913380Y-16530135D01*
X7913380Y-16530135D02*
X7922904Y-16549182D01*
X7922904Y-16549182D02*
X7922904Y-16653944D01*
X7922904Y-16549182D02*
X7932428Y-16530135D01*
X7932428Y-16530135D02*
X7951476Y-16520611D01*
X7951476Y-16520611D02*
X7980047Y-16520611D01*
X7980047Y-16520611D02*
X7999095Y-16530135D01*
X7999095Y-16530135D02*
X8008619Y-16549182D01*
X8008619Y-16549182D02*
X8008619Y-16653944D01*
X8103857Y-16653944D02*
X8103857Y-16520611D01*
X8103857Y-16539658D02*
X8113380Y-16530135D01*
X8113380Y-16530135D02*
X8132428Y-16520611D01*
X8132428Y-16520611D02*
X8161000Y-16520611D01*
X8161000Y-16520611D02*
X8180047Y-16530135D01*
X8180047Y-16530135D02*
X8189571Y-16549182D01*
X8189571Y-16549182D02*
X8189571Y-16653944D01*
X8189571Y-16549182D02*
X8199095Y-16530135D01*
X8199095Y-16530135D02*
X8218142Y-16520611D01*
X8218142Y-16520611D02*
X8246714Y-16520611D01*
X8246714Y-16520611D02*
X8265761Y-16530135D01*
X8265761Y-16530135D02*
X8275285Y-16549182D01*
X8275285Y-16549182D02*
X8275285Y-16653944D01*
X8665762Y-16444420D02*
X8494333Y-16701563D01*
X8922904Y-16453944D02*
X8941952Y-16453944D01*
X8941952Y-16453944D02*
X8961000Y-16463468D01*
X8961000Y-16463468D02*
X8970524Y-16472992D01*
X8970524Y-16472992D02*
X8980047Y-16492039D01*
X8980047Y-16492039D02*
X8989571Y-16530135D01*
X8989571Y-16530135D02*
X8989571Y-16577754D01*
X8989571Y-16577754D02*
X8980047Y-16615849D01*
X8980047Y-16615849D02*
X8970524Y-16634896D01*
X8970524Y-16634896D02*
X8961000Y-16644420D01*
X8961000Y-16644420D02*
X8941952Y-16653944D01*
X8941952Y-16653944D02*
X8922904Y-16653944D01*
X8922904Y-16653944D02*
X8903857Y-16644420D01*
X8903857Y-16644420D02*
X8894333Y-16634896D01*
X8894333Y-16634896D02*
X8884809Y-16615849D01*
X8884809Y-16615849D02*
X8875285Y-16577754D01*
X8875285Y-16577754D02*
X8875285Y-16530135D01*
X8875285Y-16530135D02*
X8884809Y-16492039D01*
X8884809Y-16492039D02*
X8894333Y-16472992D01*
X8894333Y-16472992D02*
X8903857Y-16463468D01*
X8903857Y-16463468D02*
X8922904Y-16453944D01*
X9075285Y-16634896D02*
X9084809Y-16644420D01*
X9084809Y-16644420D02*
X9075285Y-16653944D01*
X9075285Y-16653944D02*
X9065762Y-16644420D01*
X9065762Y-16644420D02*
X9075285Y-16634896D01*
X9075285Y-16634896D02*
X9075285Y-16653944D01*
X9208619Y-16453944D02*
X9227666Y-16453944D01*
X9227666Y-16453944D02*
X9246714Y-16463468D01*
X9246714Y-16463468D02*
X9256238Y-16472992D01*
X9256238Y-16472992D02*
X9265762Y-16492039D01*
X9265762Y-16492039D02*
X9275285Y-16530135D01*
X9275285Y-16530135D02*
X9275285Y-16577754D01*
X9275285Y-16577754D02*
X9265762Y-16615849D01*
X9265762Y-16615849D02*
X9256238Y-16634896D01*
X9256238Y-16634896D02*
X9246714Y-16644420D01*
X9246714Y-16644420D02*
X9227666Y-16653944D01*
X9227666Y-16653944D02*
X9208619Y-16653944D01*
X9208619Y-16653944D02*
X9189571Y-16644420D01*
X9189571Y-16644420D02*
X9180047Y-16634896D01*
X9180047Y-16634896D02*
X9170524Y-16615849D01*
X9170524Y-16615849D02*
X9161000Y-16577754D01*
X9161000Y-16577754D02*
X9161000Y-16530135D01*
X9161000Y-16530135D02*
X9170524Y-16492039D01*
X9170524Y-16492039D02*
X9180047Y-16472992D01*
X9180047Y-16472992D02*
X9189571Y-16463468D01*
X9189571Y-16463468D02*
X9208619Y-16453944D01*
X9465762Y-16653944D02*
X9351476Y-16653944D01*
X9408619Y-16653944D02*
X9408619Y-16453944D01*
X9408619Y-16453944D02*
X9389571Y-16482516D01*
X9389571Y-16482516D02*
X9370524Y-16501563D01*
X9370524Y-16501563D02*
X9351476Y-16511087D01*
X9646714Y-16453944D02*
X9551476Y-16453944D01*
X9551476Y-16453944D02*
X9541952Y-16549182D01*
X9541952Y-16549182D02*
X9551476Y-16539658D01*
X9551476Y-16539658D02*
X9570524Y-16530135D01*
X9570524Y-16530135D02*
X9618143Y-16530135D01*
X9618143Y-16530135D02*
X9637190Y-16539658D01*
X9637190Y-16539658D02*
X9646714Y-16549182D01*
X9646714Y-16549182D02*
X9656238Y-16568230D01*
X9656238Y-16568230D02*
X9656238Y-16615849D01*
X9656238Y-16615849D02*
X9646714Y-16634896D01*
X9646714Y-16634896D02*
X9637190Y-16644420D01*
X9637190Y-16644420D02*
X9618143Y-16653944D01*
X9618143Y-16653944D02*
X9570524Y-16653944D01*
X9570524Y-16653944D02*
X9551476Y-16644420D01*
X9551476Y-16644420D02*
X9541952Y-16634896D01*
X9722905Y-16453944D02*
X9856238Y-16453944D01*
X9856238Y-16453944D02*
X9770524Y-16653944D01*
X9922905Y-16453944D02*
X9922905Y-16492039D01*
X9999095Y-16453944D02*
X9999095Y-16492039D01*
X10294333Y-16730135D02*
X10284809Y-16720611D01*
X10284809Y-16720611D02*
X10265762Y-16692039D01*
X10265762Y-16692039D02*
X10256238Y-16672992D01*
X10256238Y-16672992D02*
X10246714Y-16644420D01*
X10246714Y-16644420D02*
X10237190Y-16596801D01*
X10237190Y-16596801D02*
X10237190Y-16558706D01*
X10237190Y-16558706D02*
X10246714Y-16511087D01*
X10246714Y-16511087D02*
X10256238Y-16482516D01*
X10256238Y-16482516D02*
X10265762Y-16463468D01*
X10265762Y-16463468D02*
X10284809Y-16434896D01*
X10284809Y-16434896D02*
X10294333Y-16425373D01*
X10456238Y-16520611D02*
X10456238Y-16653944D01*
X10408619Y-16444420D02*
X10361000Y-16587277D01*
X10361000Y-16587277D02*
X10484809Y-16587277D01*
X10551476Y-16472992D02*
X10561000Y-16463468D01*
X10561000Y-16463468D02*
X10580047Y-16453944D01*
X10580047Y-16453944D02*
X10627667Y-16453944D01*
X10627667Y-16453944D02*
X10646714Y-16463468D01*
X10646714Y-16463468D02*
X10656238Y-16472992D01*
X10656238Y-16472992D02*
X10665762Y-16492039D01*
X10665762Y-16492039D02*
X10665762Y-16511087D01*
X10665762Y-16511087D02*
X10656238Y-16539658D01*
X10656238Y-16539658D02*
X10541952Y-16653944D01*
X10541952Y-16653944D02*
X10665762Y-16653944D01*
X10903857Y-16653944D02*
X10903857Y-16453944D01*
X10989571Y-16653944D02*
X10989571Y-16549182D01*
X10989571Y-16549182D02*
X10980048Y-16530135D01*
X10980048Y-16530135D02*
X10961000Y-16520611D01*
X10961000Y-16520611D02*
X10932428Y-16520611D01*
X10932428Y-16520611D02*
X10913381Y-16530135D01*
X10913381Y-16530135D02*
X10903857Y-16539658D01*
X11113381Y-16653944D02*
X11094333Y-16644420D01*
X11094333Y-16644420D02*
X11084809Y-16634896D01*
X11084809Y-16634896D02*
X11075286Y-16615849D01*
X11075286Y-16615849D02*
X11075286Y-16558706D01*
X11075286Y-16558706D02*
X11084809Y-16539658D01*
X11084809Y-16539658D02*
X11094333Y-16530135D01*
X11094333Y-16530135D02*
X11113381Y-16520611D01*
X11113381Y-16520611D02*
X11141952Y-16520611D01*
X11141952Y-16520611D02*
X11161000Y-16530135D01*
X11161000Y-16530135D02*
X11170524Y-16539658D01*
X11170524Y-16539658D02*
X11180048Y-16558706D01*
X11180048Y-16558706D02*
X11180048Y-16615849D01*
X11180048Y-16615849D02*
X11170524Y-16634896D01*
X11170524Y-16634896D02*
X11161000Y-16644420D01*
X11161000Y-16644420D02*
X11141952Y-16653944D01*
X11141952Y-16653944D02*
X11113381Y-16653944D01*
X11294333Y-16653944D02*
X11275286Y-16644420D01*
X11275286Y-16644420D02*
X11265762Y-16625373D01*
X11265762Y-16625373D02*
X11265762Y-16453944D01*
X11446714Y-16644420D02*
X11427667Y-16653944D01*
X11427667Y-16653944D02*
X11389571Y-16653944D01*
X11389571Y-16653944D02*
X11370524Y-16644420D01*
X11370524Y-16644420D02*
X11361000Y-16625373D01*
X11361000Y-16625373D02*
X11361000Y-16549182D01*
X11361000Y-16549182D02*
X11370524Y-16530135D01*
X11370524Y-16530135D02*
X11389571Y-16520611D01*
X11389571Y-16520611D02*
X11427667Y-16520611D01*
X11427667Y-16520611D02*
X11446714Y-16530135D01*
X11446714Y-16530135D02*
X11456238Y-16549182D01*
X11456238Y-16549182D02*
X11456238Y-16568230D01*
X11456238Y-16568230D02*
X11361000Y-16587277D01*
X11532428Y-16644420D02*
X11551476Y-16653944D01*
X11551476Y-16653944D02*
X11589571Y-16653944D01*
X11589571Y-16653944D02*
X11608619Y-16644420D01*
X11608619Y-16644420D02*
X11618143Y-16625373D01*
X11618143Y-16625373D02*
X11618143Y-16615849D01*
X11618143Y-16615849D02*
X11608619Y-16596801D01*
X11608619Y-16596801D02*
X11589571Y-16587277D01*
X11589571Y-16587277D02*
X11561000Y-16587277D01*
X11561000Y-16587277D02*
X11541952Y-16577754D01*
X11541952Y-16577754D02*
X11532428Y-16558706D01*
X11532428Y-16558706D02*
X11532428Y-16549182D01*
X11532428Y-16549182D02*
X11541952Y-16530135D01*
X11541952Y-16530135D02*
X11561000Y-16520611D01*
X11561000Y-16520611D02*
X11589571Y-16520611D01*
X11589571Y-16520611D02*
X11608619Y-16530135D01*
X11684809Y-16730135D02*
X11694333Y-16720611D01*
X11694333Y-16720611D02*
X11713381Y-16692039D01*
X11713381Y-16692039D02*
X11722905Y-16672992D01*
X11722905Y-16672992D02*
X11732428Y-16644420D01*
X11732428Y-16644420D02*
X11741952Y-16596801D01*
X11741952Y-16596801D02*
X11741952Y-16558706D01*
X11741952Y-16558706D02*
X11732428Y-16511087D01*
X11732428Y-16511087D02*
X11722905Y-16482516D01*
X11722905Y-16482516D02*
X11713381Y-16463468D01*
X11713381Y-16463468D02*
X11694333Y-16434896D01*
X11694333Y-16434896D02*
X11684809Y-16425373D01*
D12*
X6719270Y-16826460D02*
G75*
G02*
X6629270Y-16826460I-45000J0D01*
G01*
X6629270Y-16826460D02*
G75*
G02*
X6719270Y-16826460I45000J0D01*
G01*
D11*
X7018142Y-16717944D02*
X7037190Y-16717944D01*
X7037190Y-16717944D02*
X7056238Y-16727468D01*
X7056238Y-16727468D02*
X7065761Y-16736992D01*
X7065761Y-16736992D02*
X7075285Y-16756039D01*
X7075285Y-16756039D02*
X7084809Y-16794135D01*
X7084809Y-16794135D02*
X7084809Y-16841754D01*
X7084809Y-16841754D02*
X7075285Y-16879849D01*
X7075285Y-16879849D02*
X7065761Y-16898897D01*
X7065761Y-16898897D02*
X7056238Y-16908420D01*
X7056238Y-16908420D02*
X7037190Y-16917944D01*
X7037190Y-16917944D02*
X7018142Y-16917944D01*
X7018142Y-16917944D02*
X6999095Y-16908420D01*
X6999095Y-16908420D02*
X6989571Y-16898897D01*
X6989571Y-16898897D02*
X6980047Y-16879849D01*
X6980047Y-16879849D02*
X6970523Y-16841754D01*
X6970523Y-16841754D02*
X6970523Y-16794135D01*
X6970523Y-16794135D02*
X6980047Y-16756039D01*
X6980047Y-16756039D02*
X6989571Y-16736992D01*
X6989571Y-16736992D02*
X6999095Y-16727468D01*
X6999095Y-16727468D02*
X7018142Y-16717944D01*
X7170523Y-16898897D02*
X7180047Y-16908420D01*
X7180047Y-16908420D02*
X7170523Y-16917944D01*
X7170523Y-16917944D02*
X7160999Y-16908420D01*
X7160999Y-16908420D02*
X7170523Y-16898897D01*
X7170523Y-16898897D02*
X7170523Y-16917944D01*
X7275285Y-16917944D02*
X7313380Y-16917944D01*
X7313380Y-16917944D02*
X7332428Y-16908420D01*
X7332428Y-16908420D02*
X7341952Y-16898897D01*
X7341952Y-16898897D02*
X7360999Y-16870325D01*
X7360999Y-16870325D02*
X7370523Y-16832230D01*
X7370523Y-16832230D02*
X7370523Y-16756039D01*
X7370523Y-16756039D02*
X7360999Y-16736992D01*
X7360999Y-16736992D02*
X7351476Y-16727468D01*
X7351476Y-16727468D02*
X7332428Y-16717944D01*
X7332428Y-16717944D02*
X7294333Y-16717944D01*
X7294333Y-16717944D02*
X7275285Y-16727468D01*
X7275285Y-16727468D02*
X7265761Y-16736992D01*
X7265761Y-16736992D02*
X7256238Y-16756039D01*
X7256238Y-16756039D02*
X7256238Y-16803658D01*
X7256238Y-16803658D02*
X7265761Y-16822706D01*
X7265761Y-16822706D02*
X7275285Y-16832230D01*
X7275285Y-16832230D02*
X7294333Y-16841754D01*
X7294333Y-16841754D02*
X7332428Y-16841754D01*
X7332428Y-16841754D02*
X7351476Y-16832230D01*
X7351476Y-16832230D02*
X7360999Y-16822706D01*
X7360999Y-16822706D02*
X7370523Y-16803658D01*
X7494333Y-16717944D02*
X7513380Y-16717944D01*
X7513380Y-16717944D02*
X7532428Y-16727468D01*
X7532428Y-16727468D02*
X7541952Y-16736992D01*
X7541952Y-16736992D02*
X7551476Y-16756039D01*
X7551476Y-16756039D02*
X7560999Y-16794135D01*
X7560999Y-16794135D02*
X7560999Y-16841754D01*
X7560999Y-16841754D02*
X7551476Y-16879849D01*
X7551476Y-16879849D02*
X7541952Y-16898897D01*
X7541952Y-16898897D02*
X7532428Y-16908420D01*
X7532428Y-16908420D02*
X7513380Y-16917944D01*
X7513380Y-16917944D02*
X7494333Y-16917944D01*
X7494333Y-16917944D02*
X7475285Y-16908420D01*
X7475285Y-16908420D02*
X7465761Y-16898897D01*
X7465761Y-16898897D02*
X7456238Y-16879849D01*
X7456238Y-16879849D02*
X7446714Y-16841754D01*
X7446714Y-16841754D02*
X7446714Y-16794135D01*
X7446714Y-16794135D02*
X7456238Y-16756039D01*
X7456238Y-16756039D02*
X7465761Y-16736992D01*
X7465761Y-16736992D02*
X7475285Y-16727468D01*
X7475285Y-16727468D02*
X7494333Y-16717944D01*
X7684809Y-16717944D02*
X7703857Y-16717944D01*
X7703857Y-16717944D02*
X7722904Y-16727468D01*
X7722904Y-16727468D02*
X7732428Y-16736992D01*
X7732428Y-16736992D02*
X7741952Y-16756039D01*
X7741952Y-16756039D02*
X7751476Y-16794135D01*
X7751476Y-16794135D02*
X7751476Y-16841754D01*
X7751476Y-16841754D02*
X7741952Y-16879849D01*
X7741952Y-16879849D02*
X7732428Y-16898897D01*
X7732428Y-16898897D02*
X7722904Y-16908420D01*
X7722904Y-16908420D02*
X7703857Y-16917944D01*
X7703857Y-16917944D02*
X7684809Y-16917944D01*
X7684809Y-16917944D02*
X7665761Y-16908420D01*
X7665761Y-16908420D02*
X7656238Y-16898897D01*
X7656238Y-16898897D02*
X7646714Y-16879849D01*
X7646714Y-16879849D02*
X7637190Y-16841754D01*
X7637190Y-16841754D02*
X7637190Y-16794135D01*
X7637190Y-16794135D02*
X7646714Y-16756039D01*
X7646714Y-16756039D02*
X7656238Y-16736992D01*
X7656238Y-16736992D02*
X7665761Y-16727468D01*
X7665761Y-16727468D02*
X7684809Y-16717944D01*
X7837190Y-16917944D02*
X7837190Y-16784611D01*
X7837190Y-16803658D02*
X7846714Y-16794135D01*
X7846714Y-16794135D02*
X7865761Y-16784611D01*
X7865761Y-16784611D02*
X7894333Y-16784611D01*
X7894333Y-16784611D02*
X7913380Y-16794135D01*
X7913380Y-16794135D02*
X7922904Y-16813182D01*
X7922904Y-16813182D02*
X7922904Y-16917944D01*
X7922904Y-16813182D02*
X7932428Y-16794135D01*
X7932428Y-16794135D02*
X7951476Y-16784611D01*
X7951476Y-16784611D02*
X7980047Y-16784611D01*
X7980047Y-16784611D02*
X7999095Y-16794135D01*
X7999095Y-16794135D02*
X8008619Y-16813182D01*
X8008619Y-16813182D02*
X8008619Y-16917944D01*
X8103857Y-16917944D02*
X8103857Y-16784611D01*
X8103857Y-16803658D02*
X8113380Y-16794135D01*
X8113380Y-16794135D02*
X8132428Y-16784611D01*
X8132428Y-16784611D02*
X8161000Y-16784611D01*
X8161000Y-16784611D02*
X8180047Y-16794135D01*
X8180047Y-16794135D02*
X8189571Y-16813182D01*
X8189571Y-16813182D02*
X8189571Y-16917944D01*
X8189571Y-16813182D02*
X8199095Y-16794135D01*
X8199095Y-16794135D02*
X8218142Y-16784611D01*
X8218142Y-16784611D02*
X8246714Y-16784611D01*
X8246714Y-16784611D02*
X8265761Y-16794135D01*
X8265761Y-16794135D02*
X8275285Y-16813182D01*
X8275285Y-16813182D02*
X8275285Y-16917944D01*
X8665762Y-16708420D02*
X8494333Y-16965563D01*
X8922904Y-16717944D02*
X8941952Y-16717944D01*
X8941952Y-16717944D02*
X8961000Y-16727468D01*
X8961000Y-16727468D02*
X8970524Y-16736992D01*
X8970524Y-16736992D02*
X8980047Y-16756039D01*
X8980047Y-16756039D02*
X8989571Y-16794135D01*
X8989571Y-16794135D02*
X8989571Y-16841754D01*
X8989571Y-16841754D02*
X8980047Y-16879849D01*
X8980047Y-16879849D02*
X8970524Y-16898897D01*
X8970524Y-16898897D02*
X8961000Y-16908420D01*
X8961000Y-16908420D02*
X8941952Y-16917944D01*
X8941952Y-16917944D02*
X8922904Y-16917944D01*
X8922904Y-16917944D02*
X8903857Y-16908420D01*
X8903857Y-16908420D02*
X8894333Y-16898897D01*
X8894333Y-16898897D02*
X8884809Y-16879849D01*
X8884809Y-16879849D02*
X8875285Y-16841754D01*
X8875285Y-16841754D02*
X8875285Y-16794135D01*
X8875285Y-16794135D02*
X8884809Y-16756039D01*
X8884809Y-16756039D02*
X8894333Y-16736992D01*
X8894333Y-16736992D02*
X8903857Y-16727468D01*
X8903857Y-16727468D02*
X8922904Y-16717944D01*
X9075285Y-16898897D02*
X9084809Y-16908420D01*
X9084809Y-16908420D02*
X9075285Y-16917944D01*
X9075285Y-16917944D02*
X9065762Y-16908420D01*
X9065762Y-16908420D02*
X9075285Y-16898897D01*
X9075285Y-16898897D02*
X9075285Y-16917944D01*
X9208619Y-16717944D02*
X9227666Y-16717944D01*
X9227666Y-16717944D02*
X9246714Y-16727468D01*
X9246714Y-16727468D02*
X9256238Y-16736992D01*
X9256238Y-16736992D02*
X9265762Y-16756039D01*
X9265762Y-16756039D02*
X9275285Y-16794135D01*
X9275285Y-16794135D02*
X9275285Y-16841754D01*
X9275285Y-16841754D02*
X9265762Y-16879849D01*
X9265762Y-16879849D02*
X9256238Y-16898897D01*
X9256238Y-16898897D02*
X9246714Y-16908420D01*
X9246714Y-16908420D02*
X9227666Y-16917944D01*
X9227666Y-16917944D02*
X9208619Y-16917944D01*
X9208619Y-16917944D02*
X9189571Y-16908420D01*
X9189571Y-16908420D02*
X9180047Y-16898897D01*
X9180047Y-16898897D02*
X9170524Y-16879849D01*
X9170524Y-16879849D02*
X9161000Y-16841754D01*
X9161000Y-16841754D02*
X9161000Y-16794135D01*
X9161000Y-16794135D02*
X9170524Y-16756039D01*
X9170524Y-16756039D02*
X9180047Y-16736992D01*
X9180047Y-16736992D02*
X9189571Y-16727468D01*
X9189571Y-16727468D02*
X9208619Y-16717944D01*
X9341952Y-16717944D02*
X9465762Y-16717944D01*
X9465762Y-16717944D02*
X9399095Y-16794135D01*
X9399095Y-16794135D02*
X9427666Y-16794135D01*
X9427666Y-16794135D02*
X9446714Y-16803658D01*
X9446714Y-16803658D02*
X9456238Y-16813182D01*
X9456238Y-16813182D02*
X9465762Y-16832230D01*
X9465762Y-16832230D02*
X9465762Y-16879849D01*
X9465762Y-16879849D02*
X9456238Y-16898897D01*
X9456238Y-16898897D02*
X9446714Y-16908420D01*
X9446714Y-16908420D02*
X9427666Y-16917944D01*
X9427666Y-16917944D02*
X9370524Y-16917944D01*
X9370524Y-16917944D02*
X9351476Y-16908420D01*
X9351476Y-16908420D02*
X9341952Y-16898897D01*
X9646714Y-16717944D02*
X9551476Y-16717944D01*
X9551476Y-16717944D02*
X9541952Y-16813182D01*
X9541952Y-16813182D02*
X9551476Y-16803658D01*
X9551476Y-16803658D02*
X9570524Y-16794135D01*
X9570524Y-16794135D02*
X9618143Y-16794135D01*
X9618143Y-16794135D02*
X9637190Y-16803658D01*
X9637190Y-16803658D02*
X9646714Y-16813182D01*
X9646714Y-16813182D02*
X9656238Y-16832230D01*
X9656238Y-16832230D02*
X9656238Y-16879849D01*
X9656238Y-16879849D02*
X9646714Y-16898897D01*
X9646714Y-16898897D02*
X9637190Y-16908420D01*
X9637190Y-16908420D02*
X9618143Y-16917944D01*
X9618143Y-16917944D02*
X9570524Y-16917944D01*
X9570524Y-16917944D02*
X9551476Y-16908420D01*
X9551476Y-16908420D02*
X9541952Y-16898897D01*
X9827666Y-16784611D02*
X9827666Y-16917944D01*
X9780047Y-16708420D02*
X9732428Y-16851278D01*
X9732428Y-16851278D02*
X9856238Y-16851278D01*
X9922905Y-16717944D02*
X9922905Y-16756039D01*
X9999095Y-16717944D02*
X9999095Y-16756039D01*
X10294333Y-16994135D02*
X10284809Y-16984611D01*
X10284809Y-16984611D02*
X10265762Y-16956039D01*
X10265762Y-16956039D02*
X10256238Y-16936992D01*
X10256238Y-16936992D02*
X10246714Y-16908420D01*
X10246714Y-16908420D02*
X10237190Y-16860801D01*
X10237190Y-16860801D02*
X10237190Y-16822706D01*
X10237190Y-16822706D02*
X10246714Y-16775087D01*
X10246714Y-16775087D02*
X10256238Y-16746516D01*
X10256238Y-16746516D02*
X10265762Y-16727468D01*
X10265762Y-16727468D02*
X10284809Y-16698896D01*
X10284809Y-16698896D02*
X10294333Y-16689373D01*
X10475286Y-16917944D02*
X10361000Y-16917944D01*
X10418143Y-16917944D02*
X10418143Y-16717944D01*
X10418143Y-16717944D02*
X10399095Y-16746516D01*
X10399095Y-16746516D02*
X10380047Y-16765563D01*
X10380047Y-16765563D02*
X10361000Y-16775087D01*
X10713381Y-16917944D02*
X10713381Y-16717944D01*
X10799095Y-16917944D02*
X10799095Y-16813182D01*
X10799095Y-16813182D02*
X10789571Y-16794135D01*
X10789571Y-16794135D02*
X10770524Y-16784611D01*
X10770524Y-16784611D02*
X10741952Y-16784611D01*
X10741952Y-16784611D02*
X10722905Y-16794135D01*
X10722905Y-16794135D02*
X10713381Y-16803658D01*
X10922905Y-16917944D02*
X10903857Y-16908420D01*
X10903857Y-16908420D02*
X10894333Y-16898897D01*
X10894333Y-16898897D02*
X10884809Y-16879849D01*
X10884809Y-16879849D02*
X10884809Y-16822706D01*
X10884809Y-16822706D02*
X10894333Y-16803658D01*
X10894333Y-16803658D02*
X10903857Y-16794135D01*
X10903857Y-16794135D02*
X10922905Y-16784611D01*
X10922905Y-16784611D02*
X10951476Y-16784611D01*
X10951476Y-16784611D02*
X10970524Y-16794135D01*
X10970524Y-16794135D02*
X10980048Y-16803658D01*
X10980048Y-16803658D02*
X10989571Y-16822706D01*
X10989571Y-16822706D02*
X10989571Y-16879849D01*
X10989571Y-16879849D02*
X10980048Y-16898897D01*
X10980048Y-16898897D02*
X10970524Y-16908420D01*
X10970524Y-16908420D02*
X10951476Y-16917944D01*
X10951476Y-16917944D02*
X10922905Y-16917944D01*
X11103857Y-16917944D02*
X11084809Y-16908420D01*
X11084809Y-16908420D02*
X11075286Y-16889373D01*
X11075286Y-16889373D02*
X11075286Y-16717944D01*
X11256238Y-16908420D02*
X11237190Y-16917944D01*
X11237190Y-16917944D02*
X11199095Y-16917944D01*
X11199095Y-16917944D02*
X11180048Y-16908420D01*
X11180048Y-16908420D02*
X11170524Y-16889373D01*
X11170524Y-16889373D02*
X11170524Y-16813182D01*
X11170524Y-16813182D02*
X11180048Y-16794135D01*
X11180048Y-16794135D02*
X11199095Y-16784611D01*
X11199095Y-16784611D02*
X11237190Y-16784611D01*
X11237190Y-16784611D02*
X11256238Y-16794135D01*
X11256238Y-16794135D02*
X11265762Y-16813182D01*
X11265762Y-16813182D02*
X11265762Y-16832230D01*
X11265762Y-16832230D02*
X11170524Y-16851278D01*
X11332428Y-16994135D02*
X11341952Y-16984611D01*
X11341952Y-16984611D02*
X11361000Y-16956039D01*
X11361000Y-16956039D02*
X11370524Y-16936992D01*
X11370524Y-16936992D02*
X11380047Y-16908420D01*
X11380047Y-16908420D02*
X11389571Y-16860801D01*
X11389571Y-16860801D02*
X11389571Y-16822706D01*
X11389571Y-16822706D02*
X11380047Y-16775087D01*
X11380047Y-16775087D02*
X11370524Y-16746516D01*
X11370524Y-16746516D02*
X11361000Y-16727468D01*
X11361000Y-16727468D02*
X11341952Y-16698896D01*
X11341952Y-16698896D02*
X11332428Y-16689373D01*
D12*
X6669270Y-17040460D02*
X6669270Y-17140460D01*
X6619270Y-17090460D02*
X6719270Y-17090460D01*
D11*
X7084809Y-17181944D02*
X6970523Y-17181944D01*
X7027666Y-17181944D02*
X7027666Y-16981944D01*
X7027666Y-16981944D02*
X7008618Y-17010516D01*
X7008618Y-17010516D02*
X6989571Y-17029563D01*
X6989571Y-17029563D02*
X6970523Y-17039087D01*
X7170523Y-17162897D02*
X7180047Y-17172420D01*
X7180047Y-17172420D02*
X7170523Y-17181944D01*
X7170523Y-17181944D02*
X7160999Y-17172420D01*
X7160999Y-17172420D02*
X7170523Y-17162897D01*
X7170523Y-17162897D02*
X7170523Y-17181944D01*
X7303857Y-16981944D02*
X7322904Y-16981944D01*
X7322904Y-16981944D02*
X7341952Y-16991468D01*
X7341952Y-16991468D02*
X7351476Y-17000992D01*
X7351476Y-17000992D02*
X7360999Y-17020039D01*
X7360999Y-17020039D02*
X7370523Y-17058135D01*
X7370523Y-17058135D02*
X7370523Y-17105754D01*
X7370523Y-17105754D02*
X7360999Y-17143849D01*
X7360999Y-17143849D02*
X7351476Y-17162897D01*
X7351476Y-17162897D02*
X7341952Y-17172420D01*
X7341952Y-17172420D02*
X7322904Y-17181944D01*
X7322904Y-17181944D02*
X7303857Y-17181944D01*
X7303857Y-17181944D02*
X7284809Y-17172420D01*
X7284809Y-17172420D02*
X7275285Y-17162897D01*
X7275285Y-17162897D02*
X7265761Y-17143849D01*
X7265761Y-17143849D02*
X7256238Y-17105754D01*
X7256238Y-17105754D02*
X7256238Y-17058135D01*
X7256238Y-17058135D02*
X7265761Y-17020039D01*
X7265761Y-17020039D02*
X7275285Y-17000992D01*
X7275285Y-17000992D02*
X7284809Y-16991468D01*
X7284809Y-16991468D02*
X7303857Y-16981944D01*
X7494333Y-16981944D02*
X7513380Y-16981944D01*
X7513380Y-16981944D02*
X7532428Y-16991468D01*
X7532428Y-16991468D02*
X7541952Y-17000992D01*
X7541952Y-17000992D02*
X7551476Y-17020039D01*
X7551476Y-17020039D02*
X7560999Y-17058135D01*
X7560999Y-17058135D02*
X7560999Y-17105754D01*
X7560999Y-17105754D02*
X7551476Y-17143849D01*
X7551476Y-17143849D02*
X7541952Y-17162897D01*
X7541952Y-17162897D02*
X7532428Y-17172420D01*
X7532428Y-17172420D02*
X7513380Y-17181944D01*
X7513380Y-17181944D02*
X7494333Y-17181944D01*
X7494333Y-17181944D02*
X7475285Y-17172420D01*
X7475285Y-17172420D02*
X7465761Y-17162897D01*
X7465761Y-17162897D02*
X7456238Y-17143849D01*
X7456238Y-17143849D02*
X7446714Y-17105754D01*
X7446714Y-17105754D02*
X7446714Y-17058135D01*
X7446714Y-17058135D02*
X7456238Y-17020039D01*
X7456238Y-17020039D02*
X7465761Y-17000992D01*
X7465761Y-17000992D02*
X7475285Y-16991468D01*
X7475285Y-16991468D02*
X7494333Y-16981944D01*
X7684809Y-16981944D02*
X7703857Y-16981944D01*
X7703857Y-16981944D02*
X7722904Y-16991468D01*
X7722904Y-16991468D02*
X7732428Y-17000992D01*
X7732428Y-17000992D02*
X7741952Y-17020039D01*
X7741952Y-17020039D02*
X7751476Y-17058135D01*
X7751476Y-17058135D02*
X7751476Y-17105754D01*
X7751476Y-17105754D02*
X7741952Y-17143849D01*
X7741952Y-17143849D02*
X7732428Y-17162897D01*
X7732428Y-17162897D02*
X7722904Y-17172420D01*
X7722904Y-17172420D02*
X7703857Y-17181944D01*
X7703857Y-17181944D02*
X7684809Y-17181944D01*
X7684809Y-17181944D02*
X7665761Y-17172420D01*
X7665761Y-17172420D02*
X7656238Y-17162897D01*
X7656238Y-17162897D02*
X7646714Y-17143849D01*
X7646714Y-17143849D02*
X7637190Y-17105754D01*
X7637190Y-17105754D02*
X7637190Y-17058135D01*
X7637190Y-17058135D02*
X7646714Y-17020039D01*
X7646714Y-17020039D02*
X7656238Y-17000992D01*
X7656238Y-17000992D02*
X7665761Y-16991468D01*
X7665761Y-16991468D02*
X7684809Y-16981944D01*
X7837190Y-17181944D02*
X7837190Y-17048611D01*
X7837190Y-17067658D02*
X7846714Y-17058135D01*
X7846714Y-17058135D02*
X7865761Y-17048611D01*
X7865761Y-17048611D02*
X7894333Y-17048611D01*
X7894333Y-17048611D02*
X7913380Y-17058135D01*
X7913380Y-17058135D02*
X7922904Y-17077182D01*
X7922904Y-17077182D02*
X7922904Y-17181944D01*
X7922904Y-17077182D02*
X7932428Y-17058135D01*
X7932428Y-17058135D02*
X7951476Y-17048611D01*
X7951476Y-17048611D02*
X7980047Y-17048611D01*
X7980047Y-17048611D02*
X7999095Y-17058135D01*
X7999095Y-17058135D02*
X8008619Y-17077182D01*
X8008619Y-17077182D02*
X8008619Y-17181944D01*
X8103857Y-17181944D02*
X8103857Y-17048611D01*
X8103857Y-17067658D02*
X8113380Y-17058135D01*
X8113380Y-17058135D02*
X8132428Y-17048611D01*
X8132428Y-17048611D02*
X8161000Y-17048611D01*
X8161000Y-17048611D02*
X8180047Y-17058135D01*
X8180047Y-17058135D02*
X8189571Y-17077182D01*
X8189571Y-17077182D02*
X8189571Y-17181944D01*
X8189571Y-17077182D02*
X8199095Y-17058135D01*
X8199095Y-17058135D02*
X8218142Y-17048611D01*
X8218142Y-17048611D02*
X8246714Y-17048611D01*
X8246714Y-17048611D02*
X8265761Y-17058135D01*
X8265761Y-17058135D02*
X8275285Y-17077182D01*
X8275285Y-17077182D02*
X8275285Y-17181944D01*
X8665762Y-16972420D02*
X8494333Y-17229563D01*
X8922904Y-16981944D02*
X8941952Y-16981944D01*
X8941952Y-16981944D02*
X8961000Y-16991468D01*
X8961000Y-16991468D02*
X8970524Y-17000992D01*
X8970524Y-17000992D02*
X8980047Y-17020039D01*
X8980047Y-17020039D02*
X8989571Y-17058135D01*
X8989571Y-17058135D02*
X8989571Y-17105754D01*
X8989571Y-17105754D02*
X8980047Y-17143849D01*
X8980047Y-17143849D02*
X8970524Y-17162897D01*
X8970524Y-17162897D02*
X8961000Y-17172420D01*
X8961000Y-17172420D02*
X8941952Y-17181944D01*
X8941952Y-17181944D02*
X8922904Y-17181944D01*
X8922904Y-17181944D02*
X8903857Y-17172420D01*
X8903857Y-17172420D02*
X8894333Y-17162897D01*
X8894333Y-17162897D02*
X8884809Y-17143849D01*
X8884809Y-17143849D02*
X8875285Y-17105754D01*
X8875285Y-17105754D02*
X8875285Y-17058135D01*
X8875285Y-17058135D02*
X8884809Y-17020039D01*
X8884809Y-17020039D02*
X8894333Y-17000992D01*
X8894333Y-17000992D02*
X8903857Y-16991468D01*
X8903857Y-16991468D02*
X8922904Y-16981944D01*
X9075285Y-17162897D02*
X9084809Y-17172420D01*
X9084809Y-17172420D02*
X9075285Y-17181944D01*
X9075285Y-17181944D02*
X9065762Y-17172420D01*
X9065762Y-17172420D02*
X9075285Y-17162897D01*
X9075285Y-17162897D02*
X9075285Y-17181944D01*
X9208619Y-16981944D02*
X9227666Y-16981944D01*
X9227666Y-16981944D02*
X9246714Y-16991468D01*
X9246714Y-16991468D02*
X9256238Y-17000992D01*
X9256238Y-17000992D02*
X9265762Y-17020039D01*
X9265762Y-17020039D02*
X9275285Y-17058135D01*
X9275285Y-17058135D02*
X9275285Y-17105754D01*
X9275285Y-17105754D02*
X9265762Y-17143849D01*
X9265762Y-17143849D02*
X9256238Y-17162897D01*
X9256238Y-17162897D02*
X9246714Y-17172420D01*
X9246714Y-17172420D02*
X9227666Y-17181944D01*
X9227666Y-17181944D02*
X9208619Y-17181944D01*
X9208619Y-17181944D02*
X9189571Y-17172420D01*
X9189571Y-17172420D02*
X9180047Y-17162897D01*
X9180047Y-17162897D02*
X9170524Y-17143849D01*
X9170524Y-17143849D02*
X9161000Y-17105754D01*
X9161000Y-17105754D02*
X9161000Y-17058135D01*
X9161000Y-17058135D02*
X9170524Y-17020039D01*
X9170524Y-17020039D02*
X9180047Y-17000992D01*
X9180047Y-17000992D02*
X9189571Y-16991468D01*
X9189571Y-16991468D02*
X9208619Y-16981944D01*
X9341952Y-16981944D02*
X9465762Y-16981944D01*
X9465762Y-16981944D02*
X9399095Y-17058135D01*
X9399095Y-17058135D02*
X9427666Y-17058135D01*
X9427666Y-17058135D02*
X9446714Y-17067658D01*
X9446714Y-17067658D02*
X9456238Y-17077182D01*
X9456238Y-17077182D02*
X9465762Y-17096230D01*
X9465762Y-17096230D02*
X9465762Y-17143849D01*
X9465762Y-17143849D02*
X9456238Y-17162897D01*
X9456238Y-17162897D02*
X9446714Y-17172420D01*
X9446714Y-17172420D02*
X9427666Y-17181944D01*
X9427666Y-17181944D02*
X9370524Y-17181944D01*
X9370524Y-17181944D02*
X9351476Y-17172420D01*
X9351476Y-17172420D02*
X9341952Y-17162897D01*
X9561000Y-17181944D02*
X9599095Y-17181944D01*
X9599095Y-17181944D02*
X9618143Y-17172420D01*
X9618143Y-17172420D02*
X9627666Y-17162897D01*
X9627666Y-17162897D02*
X9646714Y-17134325D01*
X9646714Y-17134325D02*
X9656238Y-17096230D01*
X9656238Y-17096230D02*
X9656238Y-17020039D01*
X9656238Y-17020039D02*
X9646714Y-17000992D01*
X9646714Y-17000992D02*
X9637190Y-16991468D01*
X9637190Y-16991468D02*
X9618143Y-16981944D01*
X9618143Y-16981944D02*
X9580047Y-16981944D01*
X9580047Y-16981944D02*
X9561000Y-16991468D01*
X9561000Y-16991468D02*
X9551476Y-17000992D01*
X9551476Y-17000992D02*
X9541952Y-17020039D01*
X9541952Y-17020039D02*
X9541952Y-17067658D01*
X9541952Y-17067658D02*
X9551476Y-17086706D01*
X9551476Y-17086706D02*
X9561000Y-17096230D01*
X9561000Y-17096230D02*
X9580047Y-17105754D01*
X9580047Y-17105754D02*
X9618143Y-17105754D01*
X9618143Y-17105754D02*
X9637190Y-17096230D01*
X9637190Y-17096230D02*
X9646714Y-17086706D01*
X9646714Y-17086706D02*
X9656238Y-17067658D01*
X9827666Y-17048611D02*
X9827666Y-17181944D01*
X9780047Y-16972420D02*
X9732428Y-17115278D01*
X9732428Y-17115278D02*
X9856238Y-17115278D01*
X9922905Y-16981944D02*
X9922905Y-17020039D01*
X9999095Y-16981944D02*
X9999095Y-17020039D01*
X10294333Y-17258135D02*
X10284809Y-17248611D01*
X10284809Y-17248611D02*
X10265762Y-17220039D01*
X10265762Y-17220039D02*
X10256238Y-17200992D01*
X10256238Y-17200992D02*
X10246714Y-17172420D01*
X10246714Y-17172420D02*
X10237190Y-17124801D01*
X10237190Y-17124801D02*
X10237190Y-17086706D01*
X10237190Y-17086706D02*
X10246714Y-17039087D01*
X10246714Y-17039087D02*
X10256238Y-17010516D01*
X10256238Y-17010516D02*
X10265762Y-16991468D01*
X10265762Y-16991468D02*
X10284809Y-16962897D01*
X10284809Y-16962897D02*
X10294333Y-16953373D01*
X10475286Y-17181944D02*
X10361000Y-17181944D01*
X10418143Y-17181944D02*
X10418143Y-16981944D01*
X10418143Y-16981944D02*
X10399095Y-17010516D01*
X10399095Y-17010516D02*
X10380047Y-17029563D01*
X10380047Y-17029563D02*
X10361000Y-17039087D01*
X10646714Y-17048611D02*
X10646714Y-17181944D01*
X10599095Y-16972420D02*
X10551476Y-17115278D01*
X10551476Y-17115278D02*
X10675286Y-17115278D01*
X10903857Y-17181944D02*
X10903857Y-16981944D01*
X10989571Y-17181944D02*
X10989571Y-17077182D01*
X10989571Y-17077182D02*
X10980048Y-17058135D01*
X10980048Y-17058135D02*
X10961000Y-17048611D01*
X10961000Y-17048611D02*
X10932428Y-17048611D01*
X10932428Y-17048611D02*
X10913381Y-17058135D01*
X10913381Y-17058135D02*
X10903857Y-17067658D01*
X11113381Y-17181944D02*
X11094333Y-17172420D01*
X11094333Y-17172420D02*
X11084809Y-17162897D01*
X11084809Y-17162897D02*
X11075286Y-17143849D01*
X11075286Y-17143849D02*
X11075286Y-17086706D01*
X11075286Y-17086706D02*
X11084809Y-17067658D01*
X11084809Y-17067658D02*
X11094333Y-17058135D01*
X11094333Y-17058135D02*
X11113381Y-17048611D01*
X11113381Y-17048611D02*
X11141952Y-17048611D01*
X11141952Y-17048611D02*
X11161000Y-17058135D01*
X11161000Y-17058135D02*
X11170524Y-17067658D01*
X11170524Y-17067658D02*
X11180048Y-17086706D01*
X11180048Y-17086706D02*
X11180048Y-17143849D01*
X11180048Y-17143849D02*
X11170524Y-17162897D01*
X11170524Y-17162897D02*
X11161000Y-17172420D01*
X11161000Y-17172420D02*
X11141952Y-17181944D01*
X11141952Y-17181944D02*
X11113381Y-17181944D01*
X11294333Y-17181944D02*
X11275286Y-17172420D01*
X11275286Y-17172420D02*
X11265762Y-17153373D01*
X11265762Y-17153373D02*
X11265762Y-16981944D01*
X11446714Y-17172420D02*
X11427667Y-17181944D01*
X11427667Y-17181944D02*
X11389571Y-17181944D01*
X11389571Y-17181944D02*
X11370524Y-17172420D01*
X11370524Y-17172420D02*
X11361000Y-17153373D01*
X11361000Y-17153373D02*
X11361000Y-17077182D01*
X11361000Y-17077182D02*
X11370524Y-17058135D01*
X11370524Y-17058135D02*
X11389571Y-17048611D01*
X11389571Y-17048611D02*
X11427667Y-17048611D01*
X11427667Y-17048611D02*
X11446714Y-17058135D01*
X11446714Y-17058135D02*
X11456238Y-17077182D01*
X11456238Y-17077182D02*
X11456238Y-17096230D01*
X11456238Y-17096230D02*
X11361000Y-17115278D01*
X11532428Y-17172420D02*
X11551476Y-17181944D01*
X11551476Y-17181944D02*
X11589571Y-17181944D01*
X11589571Y-17181944D02*
X11608619Y-17172420D01*
X11608619Y-17172420D02*
X11618143Y-17153373D01*
X11618143Y-17153373D02*
X11618143Y-17143849D01*
X11618143Y-17143849D02*
X11608619Y-17124801D01*
X11608619Y-17124801D02*
X11589571Y-17115278D01*
X11589571Y-17115278D02*
X11561000Y-17115278D01*
X11561000Y-17115278D02*
X11541952Y-17105754D01*
X11541952Y-17105754D02*
X11532428Y-17086706D01*
X11532428Y-17086706D02*
X11532428Y-17077182D01*
X11532428Y-17077182D02*
X11541952Y-17058135D01*
X11541952Y-17058135D02*
X11561000Y-17048611D01*
X11561000Y-17048611D02*
X11589571Y-17048611D01*
X11589571Y-17048611D02*
X11608619Y-17058135D01*
X11684809Y-17258135D02*
X11694333Y-17248611D01*
X11694333Y-17248611D02*
X11713381Y-17220039D01*
X11713381Y-17220039D02*
X11722905Y-17200992D01*
X11722905Y-17200992D02*
X11732428Y-17172420D01*
X11732428Y-17172420D02*
X11741952Y-17124801D01*
X11741952Y-17124801D02*
X11741952Y-17086706D01*
X11741952Y-17086706D02*
X11732428Y-17039087D01*
X11732428Y-17039087D02*
X11722905Y-17010516D01*
X11722905Y-17010516D02*
X11713381Y-16991468D01*
X11713381Y-16991468D02*
X11694333Y-16962897D01*
X11694333Y-16962897D02*
X11684809Y-16953373D01*
D13*
X6703276Y-17393076D02*
X6703276Y-17315845D01*
X6626045Y-17315845D01*
X6626045Y-17393076D01*
X6703276Y-17393076D01*
D11*
X7084809Y-17445944D02*
X6970523Y-17445944D01*
X7027666Y-17445944D02*
X7027666Y-17245944D01*
X7027666Y-17245944D02*
X7008618Y-17274516D01*
X7008618Y-17274516D02*
X6989571Y-17293563D01*
X6989571Y-17293563D02*
X6970523Y-17303087D01*
X7170523Y-17426897D02*
X7180047Y-17436420D01*
X7180047Y-17436420D02*
X7170523Y-17445944D01*
X7170523Y-17445944D02*
X7160999Y-17436420D01*
X7160999Y-17436420D02*
X7170523Y-17426897D01*
X7170523Y-17426897D02*
X7170523Y-17445944D01*
X7303857Y-17245944D02*
X7322904Y-17245944D01*
X7322904Y-17245944D02*
X7341952Y-17255468D01*
X7341952Y-17255468D02*
X7351476Y-17264992D01*
X7351476Y-17264992D02*
X7360999Y-17284039D01*
X7360999Y-17284039D02*
X7370523Y-17322135D01*
X7370523Y-17322135D02*
X7370523Y-17369754D01*
X7370523Y-17369754D02*
X7360999Y-17407849D01*
X7360999Y-17407849D02*
X7351476Y-17426897D01*
X7351476Y-17426897D02*
X7341952Y-17436420D01*
X7341952Y-17436420D02*
X7322904Y-17445944D01*
X7322904Y-17445944D02*
X7303857Y-17445944D01*
X7303857Y-17445944D02*
X7284809Y-17436420D01*
X7284809Y-17436420D02*
X7275285Y-17426897D01*
X7275285Y-17426897D02*
X7265761Y-17407849D01*
X7265761Y-17407849D02*
X7256238Y-17369754D01*
X7256238Y-17369754D02*
X7256238Y-17322135D01*
X7256238Y-17322135D02*
X7265761Y-17284039D01*
X7265761Y-17284039D02*
X7275285Y-17264992D01*
X7275285Y-17264992D02*
X7284809Y-17255468D01*
X7284809Y-17255468D02*
X7303857Y-17245944D01*
X7465761Y-17445944D02*
X7503857Y-17445944D01*
X7503857Y-17445944D02*
X7522904Y-17436420D01*
X7522904Y-17436420D02*
X7532428Y-17426897D01*
X7532428Y-17426897D02*
X7551476Y-17398325D01*
X7551476Y-17398325D02*
X7560999Y-17360230D01*
X7560999Y-17360230D02*
X7560999Y-17284039D01*
X7560999Y-17284039D02*
X7551476Y-17264992D01*
X7551476Y-17264992D02*
X7541952Y-17255468D01*
X7541952Y-17255468D02*
X7522904Y-17245944D01*
X7522904Y-17245944D02*
X7484809Y-17245944D01*
X7484809Y-17245944D02*
X7465761Y-17255468D01*
X7465761Y-17255468D02*
X7456238Y-17264992D01*
X7456238Y-17264992D02*
X7446714Y-17284039D01*
X7446714Y-17284039D02*
X7446714Y-17331658D01*
X7446714Y-17331658D02*
X7456238Y-17350706D01*
X7456238Y-17350706D02*
X7465761Y-17360230D01*
X7465761Y-17360230D02*
X7484809Y-17369754D01*
X7484809Y-17369754D02*
X7522904Y-17369754D01*
X7522904Y-17369754D02*
X7541952Y-17360230D01*
X7541952Y-17360230D02*
X7551476Y-17350706D01*
X7551476Y-17350706D02*
X7560999Y-17331658D01*
X7637190Y-17264992D02*
X7646714Y-17255468D01*
X7646714Y-17255468D02*
X7665761Y-17245944D01*
X7665761Y-17245944D02*
X7713380Y-17245944D01*
X7713380Y-17245944D02*
X7732428Y-17255468D01*
X7732428Y-17255468D02*
X7741952Y-17264992D01*
X7741952Y-17264992D02*
X7751476Y-17284039D01*
X7751476Y-17284039D02*
X7751476Y-17303087D01*
X7751476Y-17303087D02*
X7741952Y-17331658D01*
X7741952Y-17331658D02*
X7627666Y-17445944D01*
X7627666Y-17445944D02*
X7751476Y-17445944D01*
X7837190Y-17445944D02*
X7837190Y-17312611D01*
X7837190Y-17331658D02*
X7846714Y-17322135D01*
X7846714Y-17322135D02*
X7865761Y-17312611D01*
X7865761Y-17312611D02*
X7894333Y-17312611D01*
X7894333Y-17312611D02*
X7913380Y-17322135D01*
X7913380Y-17322135D02*
X7922904Y-17341182D01*
X7922904Y-17341182D02*
X7922904Y-17445944D01*
X7922904Y-17341182D02*
X7932428Y-17322135D01*
X7932428Y-17322135D02*
X7951476Y-17312611D01*
X7951476Y-17312611D02*
X7980047Y-17312611D01*
X7980047Y-17312611D02*
X7999095Y-17322135D01*
X7999095Y-17322135D02*
X8008619Y-17341182D01*
X8008619Y-17341182D02*
X8008619Y-17445944D01*
X8103857Y-17445944D02*
X8103857Y-17312611D01*
X8103857Y-17331658D02*
X8113380Y-17322135D01*
X8113380Y-17322135D02*
X8132428Y-17312611D01*
X8132428Y-17312611D02*
X8161000Y-17312611D01*
X8161000Y-17312611D02*
X8180047Y-17322135D01*
X8180047Y-17322135D02*
X8189571Y-17341182D01*
X8189571Y-17341182D02*
X8189571Y-17445944D01*
X8189571Y-17341182D02*
X8199095Y-17322135D01*
X8199095Y-17322135D02*
X8218142Y-17312611D01*
X8218142Y-17312611D02*
X8246714Y-17312611D01*
X8246714Y-17312611D02*
X8265761Y-17322135D01*
X8265761Y-17322135D02*
X8275285Y-17341182D01*
X8275285Y-17341182D02*
X8275285Y-17445944D01*
X8665762Y-17236420D02*
X8494333Y-17493563D01*
X8922904Y-17245944D02*
X8941952Y-17245944D01*
X8941952Y-17245944D02*
X8961000Y-17255468D01*
X8961000Y-17255468D02*
X8970524Y-17264992D01*
X8970524Y-17264992D02*
X8980047Y-17284039D01*
X8980047Y-17284039D02*
X8989571Y-17322135D01*
X8989571Y-17322135D02*
X8989571Y-17369754D01*
X8989571Y-17369754D02*
X8980047Y-17407849D01*
X8980047Y-17407849D02*
X8970524Y-17426897D01*
X8970524Y-17426897D02*
X8961000Y-17436420D01*
X8961000Y-17436420D02*
X8941952Y-17445944D01*
X8941952Y-17445944D02*
X8922904Y-17445944D01*
X8922904Y-17445944D02*
X8903857Y-17436420D01*
X8903857Y-17436420D02*
X8894333Y-17426897D01*
X8894333Y-17426897D02*
X8884809Y-17407849D01*
X8884809Y-17407849D02*
X8875285Y-17369754D01*
X8875285Y-17369754D02*
X8875285Y-17322135D01*
X8875285Y-17322135D02*
X8884809Y-17284039D01*
X8884809Y-17284039D02*
X8894333Y-17264992D01*
X8894333Y-17264992D02*
X8903857Y-17255468D01*
X8903857Y-17255468D02*
X8922904Y-17245944D01*
X9075285Y-17426897D02*
X9084809Y-17436420D01*
X9084809Y-17436420D02*
X9075285Y-17445944D01*
X9075285Y-17445944D02*
X9065762Y-17436420D01*
X9065762Y-17436420D02*
X9075285Y-17426897D01*
X9075285Y-17426897D02*
X9075285Y-17445944D01*
X9208619Y-17245944D02*
X9227666Y-17245944D01*
X9227666Y-17245944D02*
X9246714Y-17255468D01*
X9246714Y-17255468D02*
X9256238Y-17264992D01*
X9256238Y-17264992D02*
X9265762Y-17284039D01*
X9265762Y-17284039D02*
X9275285Y-17322135D01*
X9275285Y-17322135D02*
X9275285Y-17369754D01*
X9275285Y-17369754D02*
X9265762Y-17407849D01*
X9265762Y-17407849D02*
X9256238Y-17426897D01*
X9256238Y-17426897D02*
X9246714Y-17436420D01*
X9246714Y-17436420D02*
X9227666Y-17445944D01*
X9227666Y-17445944D02*
X9208619Y-17445944D01*
X9208619Y-17445944D02*
X9189571Y-17436420D01*
X9189571Y-17436420D02*
X9180047Y-17426897D01*
X9180047Y-17426897D02*
X9170524Y-17407849D01*
X9170524Y-17407849D02*
X9161000Y-17369754D01*
X9161000Y-17369754D02*
X9161000Y-17322135D01*
X9161000Y-17322135D02*
X9170524Y-17284039D01*
X9170524Y-17284039D02*
X9180047Y-17264992D01*
X9180047Y-17264992D02*
X9189571Y-17255468D01*
X9189571Y-17255468D02*
X9208619Y-17245944D01*
X9446714Y-17312611D02*
X9446714Y-17445944D01*
X9399095Y-17236420D02*
X9351476Y-17379278D01*
X9351476Y-17379278D02*
X9475285Y-17379278D01*
X9532428Y-17245944D02*
X9656238Y-17245944D01*
X9656238Y-17245944D02*
X9589571Y-17322135D01*
X9589571Y-17322135D02*
X9618143Y-17322135D01*
X9618143Y-17322135D02*
X9637190Y-17331658D01*
X9637190Y-17331658D02*
X9646714Y-17341182D01*
X9646714Y-17341182D02*
X9656238Y-17360230D01*
X9656238Y-17360230D02*
X9656238Y-17407849D01*
X9656238Y-17407849D02*
X9646714Y-17426897D01*
X9646714Y-17426897D02*
X9637190Y-17436420D01*
X9637190Y-17436420D02*
X9618143Y-17445944D01*
X9618143Y-17445944D02*
X9561000Y-17445944D01*
X9561000Y-17445944D02*
X9541952Y-17436420D01*
X9541952Y-17436420D02*
X9532428Y-17426897D01*
X9780047Y-17245944D02*
X9799095Y-17245944D01*
X9799095Y-17245944D02*
X9818143Y-17255468D01*
X9818143Y-17255468D02*
X9827666Y-17264992D01*
X9827666Y-17264992D02*
X9837190Y-17284039D01*
X9837190Y-17284039D02*
X9846714Y-17322135D01*
X9846714Y-17322135D02*
X9846714Y-17369754D01*
X9846714Y-17369754D02*
X9837190Y-17407849D01*
X9837190Y-17407849D02*
X9827666Y-17426897D01*
X9827666Y-17426897D02*
X9818143Y-17436420D01*
X9818143Y-17436420D02*
X9799095Y-17445944D01*
X9799095Y-17445944D02*
X9780047Y-17445944D01*
X9780047Y-17445944D02*
X9761000Y-17436420D01*
X9761000Y-17436420D02*
X9751476Y-17426897D01*
X9751476Y-17426897D02*
X9741952Y-17407849D01*
X9741952Y-17407849D02*
X9732428Y-17369754D01*
X9732428Y-17369754D02*
X9732428Y-17322135D01*
X9732428Y-17322135D02*
X9741952Y-17284039D01*
X9741952Y-17284039D02*
X9751476Y-17264992D01*
X9751476Y-17264992D02*
X9761000Y-17255468D01*
X9761000Y-17255468D02*
X9780047Y-17245944D01*
X9922905Y-17245944D02*
X9922905Y-17284039D01*
X9999095Y-17245944D02*
X9999095Y-17284039D01*
X10294333Y-17522135D02*
X10284809Y-17512611D01*
X10284809Y-17512611D02*
X10265762Y-17484039D01*
X10265762Y-17484039D02*
X10256238Y-17464992D01*
X10256238Y-17464992D02*
X10246714Y-17436420D01*
X10246714Y-17436420D02*
X10237190Y-17388801D01*
X10237190Y-17388801D02*
X10237190Y-17350706D01*
X10237190Y-17350706D02*
X10246714Y-17303087D01*
X10246714Y-17303087D02*
X10256238Y-17274516D01*
X10256238Y-17274516D02*
X10265762Y-17255468D01*
X10265762Y-17255468D02*
X10284809Y-17226897D01*
X10284809Y-17226897D02*
X10294333Y-17217373D01*
X10361000Y-17264992D02*
X10370524Y-17255468D01*
X10370524Y-17255468D02*
X10389571Y-17245944D01*
X10389571Y-17245944D02*
X10437190Y-17245944D01*
X10437190Y-17245944D02*
X10456238Y-17255468D01*
X10456238Y-17255468D02*
X10465762Y-17264992D01*
X10465762Y-17264992D02*
X10475286Y-17284039D01*
X10475286Y-17284039D02*
X10475286Y-17303087D01*
X10475286Y-17303087D02*
X10465762Y-17331658D01*
X10465762Y-17331658D02*
X10351476Y-17445944D01*
X10351476Y-17445944D02*
X10475286Y-17445944D01*
X10713381Y-17445944D02*
X10713381Y-17245944D01*
X10799095Y-17445944D02*
X10799095Y-17341182D01*
X10799095Y-17341182D02*
X10789571Y-17322135D01*
X10789571Y-17322135D02*
X10770524Y-17312611D01*
X10770524Y-17312611D02*
X10741952Y-17312611D01*
X10741952Y-17312611D02*
X10722905Y-17322135D01*
X10722905Y-17322135D02*
X10713381Y-17331658D01*
X10922905Y-17445944D02*
X10903857Y-17436420D01*
X10903857Y-17436420D02*
X10894333Y-17426897D01*
X10894333Y-17426897D02*
X10884809Y-17407849D01*
X10884809Y-17407849D02*
X10884809Y-17350706D01*
X10884809Y-17350706D02*
X10894333Y-17331658D01*
X10894333Y-17331658D02*
X10903857Y-17322135D01*
X10903857Y-17322135D02*
X10922905Y-17312611D01*
X10922905Y-17312611D02*
X10951476Y-17312611D01*
X10951476Y-17312611D02*
X10970524Y-17322135D01*
X10970524Y-17322135D02*
X10980048Y-17331658D01*
X10980048Y-17331658D02*
X10989571Y-17350706D01*
X10989571Y-17350706D02*
X10989571Y-17407849D01*
X10989571Y-17407849D02*
X10980048Y-17426897D01*
X10980048Y-17426897D02*
X10970524Y-17436420D01*
X10970524Y-17436420D02*
X10951476Y-17445944D01*
X10951476Y-17445944D02*
X10922905Y-17445944D01*
X11103857Y-17445944D02*
X11084809Y-17436420D01*
X11084809Y-17436420D02*
X11075286Y-17417373D01*
X11075286Y-17417373D02*
X11075286Y-17245944D01*
X11256238Y-17436420D02*
X11237190Y-17445944D01*
X11237190Y-17445944D02*
X11199095Y-17445944D01*
X11199095Y-17445944D02*
X11180048Y-17436420D01*
X11180048Y-17436420D02*
X11170524Y-17417373D01*
X11170524Y-17417373D02*
X11170524Y-17341182D01*
X11170524Y-17341182D02*
X11180048Y-17322135D01*
X11180048Y-17322135D02*
X11199095Y-17312611D01*
X11199095Y-17312611D02*
X11237190Y-17312611D01*
X11237190Y-17312611D02*
X11256238Y-17322135D01*
X11256238Y-17322135D02*
X11265762Y-17341182D01*
X11265762Y-17341182D02*
X11265762Y-17360230D01*
X11265762Y-17360230D02*
X11170524Y-17379278D01*
X11341952Y-17436420D02*
X11361000Y-17445944D01*
X11361000Y-17445944D02*
X11399095Y-17445944D01*
X11399095Y-17445944D02*
X11418143Y-17436420D01*
X11418143Y-17436420D02*
X11427667Y-17417373D01*
X11427667Y-17417373D02*
X11427667Y-17407849D01*
X11427667Y-17407849D02*
X11418143Y-17388801D01*
X11418143Y-17388801D02*
X11399095Y-17379278D01*
X11399095Y-17379278D02*
X11370524Y-17379278D01*
X11370524Y-17379278D02*
X11351476Y-17369754D01*
X11351476Y-17369754D02*
X11341952Y-17350706D01*
X11341952Y-17350706D02*
X11341952Y-17341182D01*
X11341952Y-17341182D02*
X11351476Y-17322135D01*
X11351476Y-17322135D02*
X11370524Y-17312611D01*
X11370524Y-17312611D02*
X11399095Y-17312611D01*
X11399095Y-17312611D02*
X11418143Y-17322135D01*
X11494333Y-17522135D02*
X11503857Y-17512611D01*
X11503857Y-17512611D02*
X11522905Y-17484039D01*
X11522905Y-17484039D02*
X11532428Y-17464992D01*
X11532428Y-17464992D02*
X11541952Y-17436420D01*
X11541952Y-17436420D02*
X11551476Y-17388801D01*
X11551476Y-17388801D02*
X11551476Y-17350706D01*
X11551476Y-17350706D02*
X11541952Y-17303087D01*
X11541952Y-17303087D02*
X11532428Y-17274516D01*
X11532428Y-17274516D02*
X11522905Y-17255468D01*
X11522905Y-17255468D02*
X11503857Y-17226897D01*
X11503857Y-17226897D02*
X11494333Y-17217373D01*
D14*
X6655770Y-17681960D02*
X6719270Y-17618460D01*
X6655770Y-17554960D01*
X6592270Y-17618460D01*
X6655770Y-17681960D01*
D11*
X7084809Y-17709944D02*
X6970523Y-17709944D01*
X7027666Y-17709944D02*
X7027666Y-17509944D01*
X7027666Y-17509944D02*
X7008618Y-17538516D01*
X7008618Y-17538516D02*
X6989571Y-17557563D01*
X6989571Y-17557563D02*
X6970523Y-17567087D01*
X7170523Y-17690897D02*
X7180047Y-17700420D01*
X7180047Y-17700420D02*
X7170523Y-17709944D01*
X7170523Y-17709944D02*
X7160999Y-17700420D01*
X7160999Y-17700420D02*
X7170523Y-17690897D01*
X7170523Y-17690897D02*
X7170523Y-17709944D01*
X7256238Y-17528992D02*
X7265761Y-17519468D01*
X7265761Y-17519468D02*
X7284809Y-17509944D01*
X7284809Y-17509944D02*
X7332428Y-17509944D01*
X7332428Y-17509944D02*
X7351476Y-17519468D01*
X7351476Y-17519468D02*
X7360999Y-17528992D01*
X7360999Y-17528992D02*
X7370523Y-17548039D01*
X7370523Y-17548039D02*
X7370523Y-17567087D01*
X7370523Y-17567087D02*
X7360999Y-17595658D01*
X7360999Y-17595658D02*
X7246714Y-17709944D01*
X7246714Y-17709944D02*
X7370523Y-17709944D01*
X7437190Y-17509944D02*
X7570523Y-17509944D01*
X7570523Y-17509944D02*
X7484809Y-17709944D01*
X7684809Y-17509944D02*
X7703857Y-17509944D01*
X7703857Y-17509944D02*
X7722904Y-17519468D01*
X7722904Y-17519468D02*
X7732428Y-17528992D01*
X7732428Y-17528992D02*
X7741952Y-17548039D01*
X7741952Y-17548039D02*
X7751476Y-17586135D01*
X7751476Y-17586135D02*
X7751476Y-17633754D01*
X7751476Y-17633754D02*
X7741952Y-17671849D01*
X7741952Y-17671849D02*
X7732428Y-17690897D01*
X7732428Y-17690897D02*
X7722904Y-17700420D01*
X7722904Y-17700420D02*
X7703857Y-17709944D01*
X7703857Y-17709944D02*
X7684809Y-17709944D01*
X7684809Y-17709944D02*
X7665761Y-17700420D01*
X7665761Y-17700420D02*
X7656238Y-17690897D01*
X7656238Y-17690897D02*
X7646714Y-17671849D01*
X7646714Y-17671849D02*
X7637190Y-17633754D01*
X7637190Y-17633754D02*
X7637190Y-17586135D01*
X7637190Y-17586135D02*
X7646714Y-17548039D01*
X7646714Y-17548039D02*
X7656238Y-17528992D01*
X7656238Y-17528992D02*
X7665761Y-17519468D01*
X7665761Y-17519468D02*
X7684809Y-17509944D01*
X7837190Y-17709944D02*
X7837190Y-17576611D01*
X7837190Y-17595658D02*
X7846714Y-17586135D01*
X7846714Y-17586135D02*
X7865761Y-17576611D01*
X7865761Y-17576611D02*
X7894333Y-17576611D01*
X7894333Y-17576611D02*
X7913380Y-17586135D01*
X7913380Y-17586135D02*
X7922904Y-17605182D01*
X7922904Y-17605182D02*
X7922904Y-17709944D01*
X7922904Y-17605182D02*
X7932428Y-17586135D01*
X7932428Y-17586135D02*
X7951476Y-17576611D01*
X7951476Y-17576611D02*
X7980047Y-17576611D01*
X7980047Y-17576611D02*
X7999095Y-17586135D01*
X7999095Y-17586135D02*
X8008619Y-17605182D01*
X8008619Y-17605182D02*
X8008619Y-17709944D01*
X8103857Y-17709944D02*
X8103857Y-17576611D01*
X8103857Y-17595658D02*
X8113380Y-17586135D01*
X8113380Y-17586135D02*
X8132428Y-17576611D01*
X8132428Y-17576611D02*
X8161000Y-17576611D01*
X8161000Y-17576611D02*
X8180047Y-17586135D01*
X8180047Y-17586135D02*
X8189571Y-17605182D01*
X8189571Y-17605182D02*
X8189571Y-17709944D01*
X8189571Y-17605182D02*
X8199095Y-17586135D01*
X8199095Y-17586135D02*
X8218142Y-17576611D01*
X8218142Y-17576611D02*
X8246714Y-17576611D01*
X8246714Y-17576611D02*
X8265761Y-17586135D01*
X8265761Y-17586135D02*
X8275285Y-17605182D01*
X8275285Y-17605182D02*
X8275285Y-17709944D01*
X8665762Y-17500420D02*
X8494333Y-17757563D01*
X8922904Y-17509944D02*
X8941952Y-17509944D01*
X8941952Y-17509944D02*
X8961000Y-17519468D01*
X8961000Y-17519468D02*
X8970524Y-17528992D01*
X8970524Y-17528992D02*
X8980047Y-17548039D01*
X8980047Y-17548039D02*
X8989571Y-17586135D01*
X8989571Y-17586135D02*
X8989571Y-17633754D01*
X8989571Y-17633754D02*
X8980047Y-17671849D01*
X8980047Y-17671849D02*
X8970524Y-17690897D01*
X8970524Y-17690897D02*
X8961000Y-17700420D01*
X8961000Y-17700420D02*
X8941952Y-17709944D01*
X8941952Y-17709944D02*
X8922904Y-17709944D01*
X8922904Y-17709944D02*
X8903857Y-17700420D01*
X8903857Y-17700420D02*
X8894333Y-17690897D01*
X8894333Y-17690897D02*
X8884809Y-17671849D01*
X8884809Y-17671849D02*
X8875285Y-17633754D01*
X8875285Y-17633754D02*
X8875285Y-17586135D01*
X8875285Y-17586135D02*
X8884809Y-17548039D01*
X8884809Y-17548039D02*
X8894333Y-17528992D01*
X8894333Y-17528992D02*
X8903857Y-17519468D01*
X8903857Y-17519468D02*
X8922904Y-17509944D01*
X9075285Y-17690897D02*
X9084809Y-17700420D01*
X9084809Y-17700420D02*
X9075285Y-17709944D01*
X9075285Y-17709944D02*
X9065762Y-17700420D01*
X9065762Y-17700420D02*
X9075285Y-17690897D01*
X9075285Y-17690897D02*
X9075285Y-17709944D01*
X9208619Y-17509944D02*
X9227666Y-17509944D01*
X9227666Y-17509944D02*
X9246714Y-17519468D01*
X9246714Y-17519468D02*
X9256238Y-17528992D01*
X9256238Y-17528992D02*
X9265762Y-17548039D01*
X9265762Y-17548039D02*
X9275285Y-17586135D01*
X9275285Y-17586135D02*
X9275285Y-17633754D01*
X9275285Y-17633754D02*
X9265762Y-17671849D01*
X9265762Y-17671849D02*
X9256238Y-17690897D01*
X9256238Y-17690897D02*
X9246714Y-17700420D01*
X9246714Y-17700420D02*
X9227666Y-17709944D01*
X9227666Y-17709944D02*
X9208619Y-17709944D01*
X9208619Y-17709944D02*
X9189571Y-17700420D01*
X9189571Y-17700420D02*
X9180047Y-17690897D01*
X9180047Y-17690897D02*
X9170524Y-17671849D01*
X9170524Y-17671849D02*
X9161000Y-17633754D01*
X9161000Y-17633754D02*
X9161000Y-17586135D01*
X9161000Y-17586135D02*
X9170524Y-17548039D01*
X9170524Y-17548039D02*
X9180047Y-17528992D01*
X9180047Y-17528992D02*
X9189571Y-17519468D01*
X9189571Y-17519468D02*
X9208619Y-17509944D01*
X9456238Y-17509944D02*
X9361000Y-17509944D01*
X9361000Y-17509944D02*
X9351476Y-17605182D01*
X9351476Y-17605182D02*
X9361000Y-17595658D01*
X9361000Y-17595658D02*
X9380047Y-17586135D01*
X9380047Y-17586135D02*
X9427666Y-17586135D01*
X9427666Y-17586135D02*
X9446714Y-17595658D01*
X9446714Y-17595658D02*
X9456238Y-17605182D01*
X9456238Y-17605182D02*
X9465762Y-17624230D01*
X9465762Y-17624230D02*
X9465762Y-17671849D01*
X9465762Y-17671849D02*
X9456238Y-17690897D01*
X9456238Y-17690897D02*
X9446714Y-17700420D01*
X9446714Y-17700420D02*
X9427666Y-17709944D01*
X9427666Y-17709944D02*
X9380047Y-17709944D01*
X9380047Y-17709944D02*
X9361000Y-17700420D01*
X9361000Y-17700420D02*
X9351476Y-17690897D01*
X9589571Y-17509944D02*
X9608619Y-17509944D01*
X9608619Y-17509944D02*
X9627666Y-17519468D01*
X9627666Y-17519468D02*
X9637190Y-17528992D01*
X9637190Y-17528992D02*
X9646714Y-17548039D01*
X9646714Y-17548039D02*
X9656238Y-17586135D01*
X9656238Y-17586135D02*
X9656238Y-17633754D01*
X9656238Y-17633754D02*
X9646714Y-17671849D01*
X9646714Y-17671849D02*
X9637190Y-17690897D01*
X9637190Y-17690897D02*
X9627666Y-17700420D01*
X9627666Y-17700420D02*
X9608619Y-17709944D01*
X9608619Y-17709944D02*
X9589571Y-17709944D01*
X9589571Y-17709944D02*
X9570524Y-17700420D01*
X9570524Y-17700420D02*
X9561000Y-17690897D01*
X9561000Y-17690897D02*
X9551476Y-17671849D01*
X9551476Y-17671849D02*
X9541952Y-17633754D01*
X9541952Y-17633754D02*
X9541952Y-17586135D01*
X9541952Y-17586135D02*
X9551476Y-17548039D01*
X9551476Y-17548039D02*
X9561000Y-17528992D01*
X9561000Y-17528992D02*
X9570524Y-17519468D01*
X9570524Y-17519468D02*
X9589571Y-17509944D01*
X9780047Y-17509944D02*
X9799095Y-17509944D01*
X9799095Y-17509944D02*
X9818143Y-17519468D01*
X9818143Y-17519468D02*
X9827666Y-17528992D01*
X9827666Y-17528992D02*
X9837190Y-17548039D01*
X9837190Y-17548039D02*
X9846714Y-17586135D01*
X9846714Y-17586135D02*
X9846714Y-17633754D01*
X9846714Y-17633754D02*
X9837190Y-17671849D01*
X9837190Y-17671849D02*
X9827666Y-17690897D01*
X9827666Y-17690897D02*
X9818143Y-17700420D01*
X9818143Y-17700420D02*
X9799095Y-17709944D01*
X9799095Y-17709944D02*
X9780047Y-17709944D01*
X9780047Y-17709944D02*
X9761000Y-17700420D01*
X9761000Y-17700420D02*
X9751476Y-17690897D01*
X9751476Y-17690897D02*
X9741952Y-17671849D01*
X9741952Y-17671849D02*
X9732428Y-17633754D01*
X9732428Y-17633754D02*
X9732428Y-17586135D01*
X9732428Y-17586135D02*
X9741952Y-17548039D01*
X9741952Y-17548039D02*
X9751476Y-17528992D01*
X9751476Y-17528992D02*
X9761000Y-17519468D01*
X9761000Y-17519468D02*
X9780047Y-17509944D01*
X9922905Y-17509944D02*
X9922905Y-17548039D01*
X9999095Y-17509944D02*
X9999095Y-17548039D01*
X10294333Y-17786135D02*
X10284809Y-17776611D01*
X10284809Y-17776611D02*
X10265762Y-17748039D01*
X10265762Y-17748039D02*
X10256238Y-17728992D01*
X10256238Y-17728992D02*
X10246714Y-17700420D01*
X10246714Y-17700420D02*
X10237190Y-17652801D01*
X10237190Y-17652801D02*
X10237190Y-17614706D01*
X10237190Y-17614706D02*
X10246714Y-17567087D01*
X10246714Y-17567087D02*
X10256238Y-17538516D01*
X10256238Y-17538516D02*
X10265762Y-17519468D01*
X10265762Y-17519468D02*
X10284809Y-17490897D01*
X10284809Y-17490897D02*
X10294333Y-17481373D01*
X10465762Y-17509944D02*
X10370524Y-17509944D01*
X10370524Y-17509944D02*
X10361000Y-17605182D01*
X10361000Y-17605182D02*
X10370524Y-17595658D01*
X10370524Y-17595658D02*
X10389571Y-17586135D01*
X10389571Y-17586135D02*
X10437190Y-17586135D01*
X10437190Y-17586135D02*
X10456238Y-17595658D01*
X10456238Y-17595658D02*
X10465762Y-17605182D01*
X10465762Y-17605182D02*
X10475286Y-17624230D01*
X10475286Y-17624230D02*
X10475286Y-17671849D01*
X10475286Y-17671849D02*
X10465762Y-17690897D01*
X10465762Y-17690897D02*
X10456238Y-17700420D01*
X10456238Y-17700420D02*
X10437190Y-17709944D01*
X10437190Y-17709944D02*
X10389571Y-17709944D01*
X10389571Y-17709944D02*
X10370524Y-17700420D01*
X10370524Y-17700420D02*
X10361000Y-17690897D01*
X10551476Y-17528992D02*
X10561000Y-17519468D01*
X10561000Y-17519468D02*
X10580047Y-17509944D01*
X10580047Y-17509944D02*
X10627667Y-17509944D01*
X10627667Y-17509944D02*
X10646714Y-17519468D01*
X10646714Y-17519468D02*
X10656238Y-17528992D01*
X10656238Y-17528992D02*
X10665762Y-17548039D01*
X10665762Y-17548039D02*
X10665762Y-17567087D01*
X10665762Y-17567087D02*
X10656238Y-17595658D01*
X10656238Y-17595658D02*
X10541952Y-17709944D01*
X10541952Y-17709944D02*
X10665762Y-17709944D01*
X10903857Y-17709944D02*
X10903857Y-17509944D01*
X10989571Y-17709944D02*
X10989571Y-17605182D01*
X10989571Y-17605182D02*
X10980048Y-17586135D01*
X10980048Y-17586135D02*
X10961000Y-17576611D01*
X10961000Y-17576611D02*
X10932428Y-17576611D01*
X10932428Y-17576611D02*
X10913381Y-17586135D01*
X10913381Y-17586135D02*
X10903857Y-17595658D01*
X11113381Y-17709944D02*
X11094333Y-17700420D01*
X11094333Y-17700420D02*
X11084809Y-17690897D01*
X11084809Y-17690897D02*
X11075286Y-17671849D01*
X11075286Y-17671849D02*
X11075286Y-17614706D01*
X11075286Y-17614706D02*
X11084809Y-17595658D01*
X11084809Y-17595658D02*
X11094333Y-17586135D01*
X11094333Y-17586135D02*
X11113381Y-17576611D01*
X11113381Y-17576611D02*
X11141952Y-17576611D01*
X11141952Y-17576611D02*
X11161000Y-17586135D01*
X11161000Y-17586135D02*
X11170524Y-17595658D01*
X11170524Y-17595658D02*
X11180048Y-17614706D01*
X11180048Y-17614706D02*
X11180048Y-17671849D01*
X11180048Y-17671849D02*
X11170524Y-17690897D01*
X11170524Y-17690897D02*
X11161000Y-17700420D01*
X11161000Y-17700420D02*
X11141952Y-17709944D01*
X11141952Y-17709944D02*
X11113381Y-17709944D01*
X11294333Y-17709944D02*
X11275286Y-17700420D01*
X11275286Y-17700420D02*
X11265762Y-17681373D01*
X11265762Y-17681373D02*
X11265762Y-17509944D01*
X11446714Y-17700420D02*
X11427667Y-17709944D01*
X11427667Y-17709944D02*
X11389571Y-17709944D01*
X11389571Y-17709944D02*
X11370524Y-17700420D01*
X11370524Y-17700420D02*
X11361000Y-17681373D01*
X11361000Y-17681373D02*
X11361000Y-17605182D01*
X11361000Y-17605182D02*
X11370524Y-17586135D01*
X11370524Y-17586135D02*
X11389571Y-17576611D01*
X11389571Y-17576611D02*
X11427667Y-17576611D01*
X11427667Y-17576611D02*
X11446714Y-17586135D01*
X11446714Y-17586135D02*
X11456238Y-17605182D01*
X11456238Y-17605182D02*
X11456238Y-17624230D01*
X11456238Y-17624230D02*
X11361000Y-17643278D01*
X11532428Y-17700420D02*
X11551476Y-17709944D01*
X11551476Y-17709944D02*
X11589571Y-17709944D01*
X11589571Y-17709944D02*
X11608619Y-17700420D01*
X11608619Y-17700420D02*
X11618143Y-17681373D01*
X11618143Y-17681373D02*
X11618143Y-17671849D01*
X11618143Y-17671849D02*
X11608619Y-17652801D01*
X11608619Y-17652801D02*
X11589571Y-17643278D01*
X11589571Y-17643278D02*
X11561000Y-17643278D01*
X11561000Y-17643278D02*
X11541952Y-17633754D01*
X11541952Y-17633754D02*
X11532428Y-17614706D01*
X11532428Y-17614706D02*
X11532428Y-17605182D01*
X11532428Y-17605182D02*
X11541952Y-17586135D01*
X11541952Y-17586135D02*
X11561000Y-17576611D01*
X11561000Y-17576611D02*
X11589571Y-17576611D01*
X11589571Y-17576611D02*
X11608619Y-17586135D01*
X11684809Y-17786135D02*
X11694333Y-17776611D01*
X11694333Y-17776611D02*
X11713381Y-17748039D01*
X11713381Y-17748039D02*
X11722905Y-17728992D01*
X11722905Y-17728992D02*
X11732428Y-17700420D01*
X11732428Y-17700420D02*
X11741952Y-17652801D01*
X11741952Y-17652801D02*
X11741952Y-17614706D01*
X11741952Y-17614706D02*
X11732428Y-17567087D01*
X11732428Y-17567087D02*
X11722905Y-17538516D01*
X11722905Y-17538516D02*
X11713381Y-17519468D01*
X11713381Y-17519468D02*
X11694333Y-17490897D01*
X11694333Y-17490897D02*
X11684809Y-17481373D01*
M02*
