M48
; DRILL file {KiCad 8.0.5} date 2024-09-08T16:16:32+1000
; FORMAT={-:-/ absolute / inch / decimal}
; #@! TF.CreationDate,2024-09-08T16:16:32+10:00
; #@! TF.GenerationSoftware,Kicad,Pcbnew,8.0.5
; #@! TF.FileFunction,Plated,1,2,PTH
FMAT,2
INCH
; #@! TA.AperFunction,Plated,PTH,ViaDrill
T1C0.0157
; #@! TA.AperFunction,Plated,PTH,ComponentDrill
T2C0.0354
; #@! TA.AperFunction,Plated,PTH,ComponentDrill
T3C0.0394
; #@! TA.AperFunction,Plated,PTH,ComponentDrill
T4C0.0430
; #@! TA.AperFunction,Plated,PTH,ComponentDrill
T5C0.0500
%
G90
G05
T1
X3.1549Y-4.1351
X3.8325Y-4.1015
X3.8797Y-3.9928
X3.9325Y-4.0176
X4.0789Y-3.4141
X4.1047Y-3.3444
X4.1412Y-3.4147
X4.4885Y-4.1006
X4.5449Y-4.0374
X4.6087Y-4.0526
X4.7911Y-3.4343
X4.828Y-3.5113
X5.0993Y-4.4673
X5.2906Y-3.9965
X5.4747Y-5.0096
X5.5457Y-5.0417
X5.5681Y-4.9836
X5.722Y-4.3594
X5.7546Y-4.4759
X6.2041Y-4.7674
X7.1083Y-4.8858
X7.1472Y-4.9731
X7.2004Y-4.2812
X7.2679Y-4.2757
X7.4376Y-4.8971
X7.6189Y-3.6796
X7.6987Y-3.7117
X7.8694Y-4.3148
X7.8926Y-4.3721
X7.9447Y-4.3168
X8.128Y-3.3248
X8.2115Y-3.3531
X8.381Y-3.954
X8.4314Y-3.8992
X8.8303Y-3.2658
X8.8597Y-3.3212
X8.9036Y-3.2703
X9.0502Y-3.9664
X9.0689Y-3.9286
X9.0815Y-3.9909
X9.1705Y-4.0435
X9.7674Y-4.0368
T2
X6.1642Y-4.9514
T3
X6.0351Y-4.768
X6.0351Y-5.268
X6.0351Y-4.868
X6.0351Y-5.168
X6.0351Y-4.968
X6.0351Y-5.068
X6.0351Y-4.668
X6.6351Y-5.268
X6.6351Y-4.868
X6.6351Y-4.968
X6.6351Y-4.768
X6.6351Y-5.068
X6.6351Y-4.668
X6.6351Y-5.168
T4
X6.0561Y-5.4702
X6.1561Y-5.4702
T5
X3.0738Y-3.9424
X3.2448Y-4.0702
X3.6893Y-4.1223
X3.8485Y-4.2646
X3.888Y-3.5454
X4.0472Y-3.6876
X4.0867Y-2.9684
X4.2459Y-3.1106
X4.3428Y-4.1868
X4.4944Y-4.3372
X4.5714Y-3.621
X4.7229Y-3.7714
X4.8Y-3.0552
X4.8515Y-4.5569
X4.9515Y-3.2056
X5.003Y-4.7073
X5.0801Y-3.9911
X5.2316Y-4.1415
X5.3087Y-3.4253
X5.4292Y-5.568
X5.4602Y-3.5757
X5.5316Y-4.5026
X5.5366Y-5.7525
X5.6831Y-4.653
X5.7602Y-3.9368
X5.9117Y-4.0871
X6.918Y-3.9368
X7.1314Y-3.9397
X7.1466Y-4.5026
X7.2489Y-5.568
X7.36Y-4.5055
X7.3695Y-3.4253
X7.4559Y-5.5156
X7.583Y-3.4282
X7.5981Y-3.9911
X7.8115Y-3.994
X7.8267Y-4.5569
X7.8781Y-3.0552
X8.0401Y-4.5598
X8.0916Y-3.0581
X8.1067Y-3.621
X8.3202Y-3.6239
X8.3353Y-4.1868
X8.5488Y-4.1897
X8.5915Y-2.9684
X8.7901Y-3.5454
X8.8045Y-2.9825
X8.9888Y-4.1223
X9.0032Y-3.5594
X9.2018Y-4.1364
X9.6043Y-3.9424
X9.8153Y-3.975
M30
