%TF.GenerationSoftware,KiCad,Pcbnew,8.0.5*%
%TF.CreationDate,2024-09-08T16:42:39+10:00*%
%TF.ProjectId,akohekohe_min_choc,616b6f68-656b-46f6-9865-5f6d696e5f63,0.1*%
%TF.SameCoordinates,Original*%
%TF.FileFunction,Soldermask,Bot*%
%TF.FilePolarity,Negative*%
%FSLAX46Y46*%
G04 Gerber Fmt 4.6, Leading zero omitted, Abs format (unit mm)*
G04 Created by KiCad (PCBNEW 8.0.5) date 2024-09-08 16:42:39*
%MOMM*%
%LPD*%
G01*
G04 APERTURE LIST*
%ADD10C,1.801800*%
%ADD11C,2.132000*%
%ADD12C,3.529000*%
%ADD13C,2.300000*%
%ADD14C,1.852600*%
%ADD15O,2.850000X1.900000*%
%ADD16O,1.600000X1.600000*%
G04 APERTURE END LIST*
D10*
%TO.C,S24*%
X172864601Y-107532793D03*
D11*
X175753933Y-100002072D03*
D12*
X177964112Y-105472457D03*
D10*
X183063623Y-103412121D03*
D11*
X181176523Y-100076121D03*
%TD*%
D10*
%TO.C,S14*%
X225073914Y-112085354D03*
D11*
X228353414Y-104716167D03*
D12*
X230274266Y-110294727D03*
D10*
X235474618Y-108504100D03*
D11*
X233764697Y-105073911D03*
%TD*%
D10*
%TO.C,S8*%
X115955007Y-119162757D03*
D11*
X123264697Y-115752708D03*
D12*
X121054518Y-121223093D03*
D10*
X126154029Y-123283429D03*
D11*
X127113944Y-119572823D03*
%TD*%
D10*
%TO.C,S13*%
X240078166Y-107199623D03*
D11*
X243987453Y-100144308D03*
D12*
X245414792Y-105869053D03*
D10*
X250751418Y-104538483D03*
D11*
X249346965Y-100972316D03*
%TD*%
D10*
%TO.C,S19*%
X197252516Y-85141478D03*
D11*
X200141848Y-77610757D03*
D12*
X202352027Y-83081142D03*
D10*
X207451538Y-81020806D03*
D11*
X205564438Y-77684806D03*
%TD*%
D10*
%TO.C,S21*%
X190139162Y-108912064D03*
D11*
X193028494Y-101381343D03*
D12*
X195238673Y-106851728D03*
D10*
X200338184Y-104791392D03*
D11*
X198451084Y-101455392D03*
%TD*%
D10*
%TO.C,S22*%
X184332750Y-94540724D03*
D11*
X187222082Y-87010003D03*
D12*
X189432261Y-92480388D03*
D10*
X194531772Y-90420052D03*
D11*
X192644672Y-87084052D03*
%TD*%
D10*
%TO.C,S12*%
X139035960Y-103412114D03*
D11*
X146345650Y-100002065D03*
D12*
X144135471Y-105472450D03*
D10*
X149234982Y-107532786D03*
D11*
X150194897Y-103822180D03*
%TD*%
D10*
%TO.C,S2*%
X86625021Y-108504106D03*
D11*
X93746214Y-104716176D03*
D12*
X91825362Y-110294736D03*
D10*
X97025703Y-112085366D03*
D11*
X97790115Y-108329602D03*
%TD*%
D10*
%TO.C,S7*%
X114648066Y-81020796D03*
D11*
X121957756Y-77610747D03*
D12*
X119747577Y-83081132D03*
D10*
X124847088Y-85141468D03*
D11*
X125807003Y-81430862D03*
%TD*%
D10*
%TO.C,S26*%
X183318693Y-149457963D03*
D11*
X184160479Y-141436030D03*
D12*
X187711188Y-146147980D03*
D10*
X192103683Y-142837997D03*
D11*
X189417466Y-140104088D03*
%TD*%
D13*
%TO.C,PAD1*%
X130544164Y-129101640D03*
%TD*%
D14*
%TO.C,D9*%
X153862711Y-138952131D03*
X156402711Y-138952131D03*
%TD*%
D10*
%TO.C,S5*%
X103035284Y-109763509D03*
D11*
X110344974Y-106353460D03*
D12*
X108134795Y-111823845D03*
D10*
X113234306Y-113884181D03*
D11*
X114194221Y-110173575D03*
%TD*%
D10*
%TO.C,S17*%
X208865316Y-113884168D03*
D11*
X211754648Y-106353447D03*
D12*
X213964827Y-111823832D03*
D10*
X219064338Y-109763496D03*
D11*
X217177238Y-106427496D03*
%TD*%
D15*
%TO.C,U1*%
X152854238Y-118575740D03*
X152854200Y-121115763D03*
X152854210Y-123655766D03*
X152854220Y-126195734D03*
X152854236Y-128735747D03*
X152854219Y-131275753D03*
X152854199Y-133815733D03*
X169044192Y-133815772D03*
X169044230Y-131275749D03*
X169044220Y-128735746D03*
X169044210Y-126195778D03*
X169044194Y-123655765D03*
X169044211Y-121115759D03*
X169044231Y-118575779D03*
%TD*%
D10*
%TO.C,S16*%
X214981296Y-82774287D03*
D11*
X218260796Y-75405100D03*
D12*
X220181648Y-80983660D03*
D10*
X225382000Y-79193033D03*
D11*
X223672079Y-75762844D03*
%TD*%
D10*
%TO.C,S25*%
X129995928Y-142837994D03*
D11*
X137939132Y-141436027D03*
D12*
X134388423Y-146147977D03*
D10*
X138780918Y-149457960D03*
D11*
X140668490Y-146122235D03*
%TD*%
D10*
%TO.C,S3*%
X91671322Y-93848562D03*
D11*
X98792515Y-90060632D03*
D12*
X96871663Y-95639192D03*
D10*
X102072004Y-97429822D03*
D11*
X102836416Y-93674058D03*
%TD*%
D13*
%TO.C,PAD1*%
X191554931Y-129101663D03*
%TD*%
D10*
%TO.C,S15*%
X220027601Y-97429812D03*
D11*
X223307101Y-90060625D03*
D12*
X225227953Y-95639185D03*
D10*
X230428305Y-93848558D03*
D11*
X228718384Y-90418369D03*
%TD*%
D10*
%TO.C,S20*%
X195945563Y-123283412D03*
D11*
X198834895Y-115752691D03*
D12*
X201045074Y-121223076D03*
D10*
X206144585Y-119162740D03*
D11*
X204257485Y-115826740D03*
%TD*%
D10*
%TO.C,S18*%
X203058927Y-99512833D03*
D11*
X205948259Y-91982112D03*
D12*
X208158438Y-97452497D03*
D10*
X213257949Y-95392161D03*
D11*
X211370849Y-92056161D03*
%TD*%
D10*
%TO.C,S9*%
X121761423Y-104791390D03*
D11*
X129071113Y-101381341D03*
D12*
X126860934Y-106851726D03*
D10*
X131960445Y-108912062D03*
D11*
X132920360Y-105201456D03*
%TD*%
D16*
%TO.C,*%
X156608230Y-125774724D03*
%TD*%
D10*
%TO.C,S6*%
X108841662Y-95392148D03*
D11*
X116151352Y-91982099D03*
D12*
X113941173Y-97452484D03*
D10*
X119040684Y-99512820D03*
D11*
X120000599Y-95802214D03*
%TD*%
D10*
%TO.C,S23*%
X178671000Y-121904136D03*
D11*
X181560332Y-114373415D03*
D12*
X183770511Y-119843800D03*
D10*
X188870022Y-117783464D03*
D11*
X186982922Y-114447464D03*
%TD*%
D10*
%TO.C,S10*%
X127567819Y-90420028D03*
D11*
X134877509Y-87009979D03*
D12*
X132667330Y-92480364D03*
D10*
X137766841Y-94540700D03*
D11*
X138726756Y-90830094D03*
%TD*%
D10*
%TO.C,S1*%
X71348199Y-104538469D03*
D11*
X78112164Y-100144294D03*
D12*
X76684825Y-105869039D03*
D10*
X82021451Y-107199609D03*
D11*
X82455605Y-103391519D03*
%TD*%
D10*
%TO.C,S11*%
X133229575Y-117783481D03*
D11*
X140539265Y-114373432D03*
D12*
X138329086Y-119843817D03*
D10*
X143428597Y-121904153D03*
D11*
X144388512Y-118193547D03*
%TD*%
D10*
%TO.C,S4*%
X96717617Y-79193027D03*
D11*
X103838810Y-75405097D03*
D12*
X101917958Y-80983657D03*
D10*
X107118299Y-82774287D03*
D11*
X107882711Y-79018523D03*
%TD*%
M02*
