%TF.GenerationSoftware,KiCad,Pcbnew,8.0.5*%
%TF.CreationDate,2024-09-08T16:42:39+10:00*%
%TF.ProjectId,akohekohe_min_choc,616b6f68-656b-46f6-9865-5f6d696e5f63,0.1*%
%TF.SameCoordinates,Original*%
%TF.FileFunction,Profile,NP*%
%FSLAX46Y46*%
G04 Gerber Fmt 4.6, Leading zero omitted, Abs format (unit mm)*
G04 Created by KiCad (PCBNEW 8.0.5) date 2024-09-08 16:42:39*
%MOMM*%
%LPD*%
G01*
G04 APERTURE LIST*
%TA.AperFunction,Profile*%
%ADD10C,0.150000*%
%TD*%
G04 APERTURE END LIST*
D10*
X68442519Y-112058903D02*
G75*
G02*
X67349962Y-110240561I362981J1455503D01*
G01*
X153140877Y-115547458D02*
G75*
G02*
X150359316Y-111423624I-77J2999958D01*
G01*
X236579104Y-99827112D02*
G75*
G02*
X234797874Y-98860033I-362904J1455512D01*
G01*
X87301680Y-98860004D02*
G75*
G02*
X85520525Y-99827131I-1418280J488304D01*
G01*
X114765052Y-74057602D02*
X114273697Y-75273720D01*
X179579868Y-89450548D02*
G75*
G02*
X180408759Y-87497884I1390632J561948D01*
G01*
X176266086Y-142958390D02*
G75*
G02*
X176838409Y-145171360I-147386J-1218610D01*
G01*
X194104232Y-134692162D02*
X201206603Y-144117334D01*
X130101084Y-82815280D02*
X141690889Y-87497844D01*
X194104225Y-134692167D02*
G75*
G02*
X194740293Y-132398695I1198075J902667D01*
G01*
X147166156Y-146619839D02*
G75*
G02*
X147461350Y-148720505I-902956J-1197961D01*
G01*
X121188205Y-146217979D02*
X137959575Y-158856122D01*
X129272242Y-80862579D02*
X129599986Y-80051297D01*
X82637534Y-115598116D02*
G75*
G02*
X82763012Y-115635260I-363834J-1459584D01*
G01*
X201206603Y-144117334D02*
G75*
G02*
X200911422Y-146218036I-1197903J-902766D01*
G01*
X127359320Y-132398646D02*
G75*
G02*
X127995329Y-134692127I-561920J-1390754D01*
G01*
X140740363Y-93854666D02*
X142519746Y-89450537D01*
X120892990Y-144117328D02*
X127995354Y-134692146D01*
X99640097Y-117020019D02*
X110701043Y-121488942D01*
X98376633Y-71303321D02*
X112394569Y-76130061D01*
X141690889Y-87497844D02*
G75*
G02*
X142519738Y-89450534I-561889J-1390756D01*
G01*
X234797930Y-98860005D02*
X225629594Y-72233244D01*
X70494944Y-97626736D02*
X67349968Y-110240563D01*
X182039353Y-158560878D02*
X174638218Y-148720552D01*
X110701043Y-121488942D02*
G75*
G02*
X111529861Y-123441635I-561943J-1390758D01*
G01*
X141569216Y-95807352D02*
G75*
G02*
X140740349Y-93854660I562084J1390852D01*
G01*
X150359333Y-111423631D02*
X153987892Y-102442609D01*
X96469991Y-72233241D02*
G75*
G02*
X98376625Y-71303345I1418309J-488459D01*
G01*
X239336599Y-115635296D02*
G75*
G02*
X239462087Y-115598116I489601J-1422104D01*
G01*
X70494957Y-97626747D02*
G75*
G02*
X72313290Y-96534116I1455543J-362953D01*
G01*
X223722963Y-71303309D02*
G75*
G02*
X225629525Y-72233261I488337J-1418191D01*
G01*
X140060237Y-158560873D02*
X147461384Y-148720531D01*
X239336599Y-115635296D02*
X226732927Y-119975095D01*
X205381851Y-73228720D02*
X193328471Y-78098613D01*
X210897497Y-124252924D02*
G75*
G02*
X210068676Y-126205637I-1390697J-561976D01*
G01*
X168940566Y-100489936D02*
X180530367Y-95807346D01*
X147166156Y-146619839D02*
X145259152Y-145173886D01*
X168958726Y-115547452D02*
X153140877Y-115547458D01*
X153159009Y-100489937D02*
G75*
G02*
X153987970Y-102442640I-561709J-1390763D01*
G01*
X192499623Y-80051299D02*
X192827378Y-80862587D01*
X249786346Y-96534166D02*
X236579104Y-99827112D01*
X251604664Y-97626733D02*
X254749653Y-110240589D01*
X168111716Y-102442605D02*
G75*
G02*
X168940585Y-100489980I1390684J561905D01*
G01*
X254749653Y-110240589D02*
G75*
G02*
X253657081Y-112058960I-1455453J-362911D01*
G01*
X97273302Y-119045120D02*
X97659883Y-117922446D01*
X82763011Y-115635264D02*
X95366674Y-119975090D01*
X226732927Y-119975095D02*
G75*
G02*
X224826253Y-119045177I-488427J1418195D01*
G01*
X114765052Y-74057602D02*
G75*
G02*
X116717710Y-73228757I1390748J-561898D01*
G01*
X121188207Y-146217982D02*
G75*
G02*
X120892981Y-144117321I902993J1197982D01*
G01*
X145261167Y-145171411D02*
G75*
G02*
X145833522Y-142958421I719933J994311D01*
G01*
X176266086Y-142958390D02*
X145833517Y-142958377D01*
X112030968Y-126205598D02*
G75*
G02*
X111202186Y-124252955I562132J1390798D01*
G01*
X179579868Y-89450548D02*
X181359258Y-93854675D01*
X224826303Y-119045160D02*
X224439724Y-117922436D01*
X249786346Y-96534166D02*
G75*
G02*
X251604632Y-97626739I362854J-1455434D01*
G01*
X253657071Y-112058920D02*
X239462068Y-115598127D01*
X168111718Y-102442606D02*
X171740284Y-111423636D01*
X68442519Y-112058903D02*
X82637534Y-115598116D01*
X87301669Y-98860017D02*
X96470027Y-72233221D01*
X130101084Y-82815280D02*
G75*
G02*
X129272243Y-80862579I561716J1390680D01*
G01*
X128771129Y-78098607D02*
G75*
G02*
X129600054Y-80051325I-561829J-1390793D01*
G01*
X97273304Y-119045129D02*
G75*
G02*
X95366690Y-119975045I-1418304J488429D01*
G01*
X111529898Y-123441650D02*
X111202103Y-124252922D01*
X184140041Y-158856132D02*
G75*
G02*
X182039332Y-158560894I-902741J1197932D01*
G01*
X72313280Y-96534156D02*
X85520532Y-99827104D01*
X114273697Y-75273720D02*
G75*
G02*
X112394554Y-76130105I-1390797J561920D01*
G01*
X141569216Y-95807352D02*
X153159009Y-100489937D01*
X112030968Y-126205598D02*
X127359313Y-132398641D01*
X128771133Y-78098605D02*
X116717726Y-73228716D01*
X207334562Y-74057605D02*
X207825913Y-75273722D01*
X222459536Y-117020058D02*
X211398606Y-121488940D01*
X223722963Y-71303309D02*
X209705046Y-76130073D01*
X210569723Y-123441629D02*
G75*
G02*
X211398617Y-121488985I1390877J561829D01*
G01*
X180408748Y-87497857D02*
X191998519Y-82815250D01*
X97659883Y-117922446D02*
G75*
G02*
X99640089Y-117020040I1418317J-488454D01*
G01*
X194740274Y-132398647D02*
X210068662Y-126205602D01*
X192827378Y-80862587D02*
G75*
G02*
X191998528Y-82815272I-1390778J-561913D01*
G01*
X205381851Y-73228720D02*
G75*
G02*
X207334547Y-74057616I561949J-1390680D01*
G01*
X174638218Y-148720552D02*
G75*
G02*
X174933470Y-146619878I1198382J902652D01*
G01*
X222459536Y-117020058D02*
G75*
G02*
X224439690Y-117922448I561864J-1390842D01*
G01*
X171740284Y-111423636D02*
G75*
G02*
X168958726Y-115547454I-2781484J-1123864D01*
G01*
X210897497Y-124252924D02*
X210569723Y-123441629D01*
X192499616Y-80051291D02*
G75*
G02*
X193328477Y-78098629I1390784J561891D01*
G01*
X181359256Y-93854671D02*
G75*
G02*
X180530379Y-95807376I-1390756J-561929D01*
G01*
X209705046Y-76130073D02*
G75*
G02*
X207825870Y-75273739I-488446J1418173D01*
G01*
X140060237Y-158560873D02*
G75*
G02*
X137959587Y-158856107I-1197937J902673D01*
G01*
X174933444Y-146619844D02*
X176840449Y-145173879D01*
X200911391Y-146217995D02*
X184140041Y-158856132D01*
M02*
