%TF.GenerationSoftware,KiCad,Pcbnew,8.0.5*%
%TF.CreationDate,2024-09-08T16:42:37+10:00*%
%TF.ProjectId,akohekohe_min_choc,616b6f68-656b-46f6-9865-5f6d696e5f63,0.1*%
%TF.SameCoordinates,Original*%
%TF.FileFunction,Drillmap*%
%TF.FilePolarity,Positive*%
%FSLAX45Y45*%
G04 Gerber Fmt 4.5, Leading zero omitted, Abs format (unit mm)*
G04 Created by KiCad (PCBNEW 8.0.5) date 2024-09-08 16:42:37*
%MOMM*%
%LPD*%
G01*
G04 APERTURE LIST*
%ADD10C,0.150000*%
%ADD11C,0.200000*%
%ADD12C,0.170180*%
%ADD13C,0.220000*%
%ADD14C,0.342900*%
G04 APERTURE END LIST*
D10*
X6844252Y-11205890D02*
G75*
G02*
X6734996Y-11024056I36298J145550D01*
G01*
X15314088Y-11554746D02*
G75*
G02*
X15035932Y-11142362I-8J299996D01*
G01*
X23657910Y-9982711D02*
G75*
G02*
X23479787Y-9886003I-36290J145551D01*
G01*
X8730168Y-9886000D02*
G75*
G02*
X8552053Y-9982713I-141828J48830D01*
G01*
X11476505Y-7405760D02*
X11427370Y-7527372D01*
X17957987Y-8945055D02*
G75*
G02*
X18040876Y-8749788I139063J56195D01*
G01*
X17626609Y-14295839D02*
G75*
G02*
X17683841Y-14517136I-14739J-121861D01*
G01*
X19410423Y-13469216D02*
X20120660Y-14411733D01*
X13010108Y-8281528D02*
X14169089Y-8749784D01*
X19410423Y-13469217D02*
G75*
G02*
X19474029Y-13239869I119808J90267D01*
G01*
X14716616Y-14661984D02*
G75*
G02*
X14746135Y-14872050I-90296J-119796D01*
G01*
X12118820Y-14621798D02*
X13795957Y-15885612D01*
X12927224Y-8086258D02*
X12959999Y-8005130D01*
X8263753Y-11559812D02*
G75*
G02*
X8276301Y-11563526I-36383J-145958D01*
G01*
X20120660Y-14411733D02*
G75*
G02*
X20091142Y-14621804I-119790J-90277D01*
G01*
X12735932Y-13239865D02*
G75*
G02*
X12799533Y-13469213I-56192J-139075D01*
G01*
X14074036Y-9385467D02*
X14251975Y-8945054D01*
X12089299Y-14411733D02*
X12799535Y-13469215D01*
X9964010Y-11702002D02*
X11070104Y-12148894D01*
X9837663Y-7130332D02*
X11239457Y-7613006D01*
X14169089Y-8749784D02*
G75*
G02*
X14251974Y-8945053I-56189J-139076D01*
G01*
X23479793Y-9886001D02*
X22562959Y-7223324D01*
X7049494Y-9762674D02*
X6734997Y-11024056D01*
X18203935Y-15856088D02*
X17463822Y-14872055D01*
X11070104Y-12148894D02*
G75*
G02*
X11152986Y-12344163I-56194J-139076D01*
G01*
X14156922Y-9580735D02*
G75*
G02*
X14074035Y-9385466I56208J139085D01*
G01*
X15035933Y-11142363D02*
X15398789Y-10244261D01*
X9646999Y-7223324D02*
G75*
G02*
X9837663Y-7130334I141831J-48846D01*
G01*
X23933660Y-11563530D02*
G75*
G02*
X23946209Y-11559812I48960J-142210D01*
G01*
X7049496Y-9762675D02*
G75*
G02*
X7231329Y-9653412I145554J-36295D01*
G01*
X22372296Y-7130331D02*
G75*
G02*
X22562952Y-7223326I48834J-141819D01*
G01*
X14006024Y-15856087D02*
X14746138Y-14872053D01*
X23933660Y-11563530D02*
X22673293Y-11997509D01*
X20538185Y-7322872D02*
X19332847Y-7809861D01*
X21089750Y-12425292D02*
G75*
G02*
X21006868Y-12620564I-139070J-56198D01*
G01*
X16894057Y-10048994D02*
X18053037Y-9580735D01*
X14716616Y-14661984D02*
X14525915Y-14517389D01*
X16895873Y-11554745D02*
X15314088Y-11554746D01*
X15315901Y-10048994D02*
G75*
G02*
X15398797Y-10244264I-56171J-139076D01*
G01*
X19249962Y-8005130D02*
X19282738Y-8086259D01*
X24978635Y-9653417D02*
X23657910Y-9982711D01*
X25160466Y-9762673D02*
X25474965Y-11024059D01*
X16811172Y-10244261D02*
G75*
G02*
X16894059Y-10048998I139068J56191D01*
G01*
X25474965Y-11024059D02*
G75*
G02*
X25365708Y-11205896I-145545J-36291D01*
G01*
X9727330Y-11904512D02*
X9765988Y-11792245D01*
X8276301Y-11563526D02*
X9536667Y-11997509D01*
X22673293Y-11997509D02*
G75*
G02*
X22482625Y-11904518I-48843J141820D01*
G01*
X11476505Y-7405760D02*
G75*
G02*
X11671771Y-7322876I139075J-56190D01*
G01*
X12118821Y-14621798D02*
G75*
G02*
X12089298Y-14411732I90299J119798D01*
G01*
X14526117Y-14517141D02*
G75*
G02*
X14583352Y-14295842I71993J99431D01*
G01*
X17626609Y-14295839D02*
X14583352Y-14295838D01*
X11203097Y-12620560D02*
G75*
G02*
X11120219Y-12425295I56213J139080D01*
G01*
X17957987Y-8945055D02*
X18135926Y-9385468D01*
X22482630Y-11904516D02*
X22443972Y-11792244D01*
X24978635Y-9653417D02*
G75*
G02*
X25160463Y-9762674I36285J-145543D01*
G01*
X25365707Y-11205892D02*
X23946207Y-11559813D01*
X16811172Y-10244261D02*
X17174028Y-11142364D01*
X6844252Y-11205890D02*
X8263753Y-11559812D01*
X8730167Y-9886002D02*
X9647003Y-7223322D01*
X13010108Y-8281528D02*
G75*
G02*
X12927224Y-8086258I56172J139068D01*
G01*
X12877113Y-7809861D02*
G75*
G02*
X12960005Y-8005132I-56183J-139079D01*
G01*
X9727330Y-11904513D02*
G75*
G02*
X9536669Y-11997504I-141830J48843D01*
G01*
X11152990Y-12344165D02*
X11120210Y-12425292D01*
X18414004Y-15885613D02*
G75*
G02*
X18203933Y-15856089I-90274J119793D01*
G01*
X7231328Y-9653416D02*
X8552053Y-9982710D01*
X11427370Y-7527372D02*
G75*
G02*
X11239455Y-7613010I-139080J56192D01*
G01*
X14156922Y-9580735D02*
X15315901Y-10048994D01*
X11203097Y-12620560D02*
X12735931Y-13239864D01*
X12877113Y-7809860D02*
X11671773Y-7322872D01*
X20733456Y-7405760D02*
X20782591Y-7527372D01*
X22245954Y-11702006D02*
X21139861Y-12148894D01*
X22372296Y-7130331D02*
X20970505Y-7613007D01*
X21056972Y-12344163D02*
G75*
G02*
X21139862Y-12148898I139088J56183D01*
G01*
X18040875Y-8749786D02*
X19199852Y-8281525D01*
X9765988Y-11792245D02*
G75*
G02*
X9964009Y-11702004I141832J-48845D01*
G01*
X19474027Y-13239865D02*
X21006866Y-12620560D01*
X19282738Y-8086259D02*
G75*
G02*
X19199853Y-8281527I-139078J-56191D01*
G01*
X20538185Y-7322872D02*
G75*
G02*
X20733455Y-7405762I56195J-139068D01*
G01*
X17463822Y-14872055D02*
G75*
G02*
X17493347Y-14661988I119838J90265D01*
G01*
X22245954Y-11702006D02*
G75*
G02*
X22443969Y-11792245I56186J-139084D01*
G01*
X17174028Y-11142364D02*
G75*
G02*
X16895873Y-11554745I-278148J-112386D01*
G01*
X21089750Y-12425292D02*
X21056972Y-12344163D01*
X19249962Y-8005129D02*
G75*
G02*
X19332848Y-7809863I139078J56189D01*
G01*
X18135926Y-9385467D02*
G75*
G02*
X18053038Y-9580738I-139076J-56193D01*
G01*
X20970505Y-7613007D02*
G75*
G02*
X20782587Y-7527374I-48845J141817D01*
G01*
X14006024Y-15856087D02*
G75*
G02*
X13795959Y-15885611I-119794J90267D01*
G01*
X17493344Y-14661984D02*
X17684045Y-14517388D01*
X20091139Y-14621799D02*
X18414004Y-15885613D01*
D11*
D12*
X7049730Y-10368757D02*
X7219910Y-10538937D01*
X7219910Y-10368757D02*
X7049730Y-10538937D01*
X8117055Y-10634871D02*
X8287235Y-10805051D01*
X8287235Y-10634871D02*
X8117055Y-10805051D01*
X8577412Y-10765321D02*
X8747592Y-10935501D01*
X8747592Y-10765321D02*
X8577412Y-10935501D01*
X9082042Y-9299766D02*
X9252222Y-9469946D01*
X9252222Y-9299766D02*
X9082042Y-9469946D01*
X9586672Y-7834213D02*
X9756852Y-8004393D01*
X9756852Y-7834213D02*
X9586672Y-8004393D01*
X9617480Y-11123447D02*
X9787660Y-11293627D01*
X9787660Y-11123447D02*
X9617480Y-11293627D01*
X10122110Y-9657892D02*
X10292290Y-9828072D01*
X10292290Y-9657892D02*
X10122110Y-9828072D01*
X10218438Y-10891261D02*
X10388618Y-11061441D01*
X10388618Y-10891261D02*
X10218438Y-11061441D01*
X10626740Y-8192339D02*
X10796920Y-8362519D01*
X10796920Y-8192339D02*
X10626740Y-8362519D01*
X10799076Y-9454125D02*
X10969256Y-9624305D01*
X10969256Y-9454125D02*
X10799076Y-9624305D01*
X11238341Y-11303328D02*
X11408521Y-11473508D01*
X11408521Y-11303328D02*
X11238341Y-11473508D01*
X11379717Y-8016990D02*
X11549897Y-8187170D01*
X11549897Y-8016990D02*
X11379717Y-8187170D01*
X11510411Y-11831186D02*
X11680591Y-12001366D01*
X11680591Y-11831186D02*
X11510411Y-12001366D01*
X11818978Y-9866192D02*
X11989158Y-10036372D01*
X11989158Y-9866192D02*
X11818978Y-10036372D01*
X12091052Y-10394049D02*
X12261232Y-10564229D01*
X12261232Y-10394049D02*
X12091052Y-10564229D01*
X12399619Y-8429057D02*
X12569799Y-8599237D01*
X12569799Y-8429057D02*
X12399619Y-8599237D01*
X12530313Y-12243253D02*
X12700493Y-12413433D01*
X12700493Y-12243253D02*
X12530313Y-12413433D01*
X12671692Y-8956913D02*
X12841872Y-9127093D01*
X12841872Y-8956913D02*
X12671692Y-9127093D01*
X12914503Y-14198709D02*
X13084683Y-14368889D01*
X13084683Y-14198709D02*
X12914503Y-14368889D01*
X13110954Y-10806116D02*
X13281134Y-10976296D01*
X13281134Y-10806116D02*
X13110954Y-10976296D01*
X13237867Y-11693258D02*
X13408047Y-11863438D01*
X13408047Y-11693258D02*
X13237867Y-11863438D01*
X13691594Y-9368980D02*
X13861774Y-9539160D01*
X13861774Y-9368980D02*
X13691594Y-9539160D01*
X13793002Y-14860706D02*
X13963182Y-15030886D01*
X13963182Y-14860706D02*
X13793002Y-15030886D01*
X13818506Y-10256121D02*
X13988686Y-10426301D01*
X13988686Y-10256121D02*
X13818506Y-10426301D01*
X14257770Y-12105325D02*
X14427950Y-12275505D01*
X14427950Y-12105325D02*
X14257770Y-12275505D01*
X14838408Y-10668189D02*
X15008588Y-10838369D01*
X15008588Y-10668189D02*
X14838408Y-10838369D01*
X17201370Y-10668189D02*
X17371550Y-10838369D01*
X17371550Y-10668189D02*
X17201370Y-10838369D01*
X17782010Y-12105324D02*
X17952190Y-12275504D01*
X17952190Y-12105324D02*
X17782010Y-12275504D01*
X18221272Y-10256122D02*
X18391452Y-10426302D01*
X18391452Y-10256122D02*
X18221272Y-10426302D01*
X18246779Y-14860706D02*
X18416959Y-15030886D01*
X18416959Y-14860706D02*
X18246779Y-15030886D01*
X18348185Y-9368982D02*
X18518365Y-9539162D01*
X18518365Y-9368982D02*
X18348185Y-9539162D01*
X18801912Y-11693256D02*
X18972092Y-11863436D01*
X18972092Y-11693256D02*
X18801912Y-11863436D01*
X18928826Y-10806116D02*
X19099006Y-10976296D01*
X19099006Y-10806116D02*
X18928826Y-10976296D01*
X19125278Y-14198710D02*
X19295458Y-14368890D01*
X19295458Y-14198710D02*
X19125278Y-14368890D01*
X19368087Y-8956915D02*
X19538267Y-9127095D01*
X19538267Y-8956915D02*
X19368087Y-9127095D01*
X19509466Y-12243251D02*
X19679646Y-12413431D01*
X19679646Y-12243251D02*
X19509466Y-12413431D01*
X19640162Y-8429058D02*
X19810342Y-8599238D01*
X19810342Y-8429058D02*
X19640162Y-8599238D01*
X19948728Y-10394049D02*
X20118908Y-10564229D01*
X20118908Y-10394049D02*
X19948728Y-10564229D01*
X20220803Y-9866193D02*
X20390983Y-10036373D01*
X20390983Y-9866193D02*
X20220803Y-10036373D01*
X20529369Y-11831184D02*
X20699549Y-12001364D01*
X20699549Y-11831184D02*
X20529369Y-12001364D01*
X20660064Y-8016991D02*
X20830244Y-8187171D01*
X20830244Y-8016991D02*
X20660064Y-8187171D01*
X20801442Y-11303327D02*
X20971622Y-11473507D01*
X20971622Y-11303327D02*
X20801442Y-11473507D01*
X21240705Y-9454126D02*
X21410885Y-9624306D01*
X21410885Y-9454126D02*
X21240705Y-9624306D01*
X21413040Y-8192339D02*
X21583220Y-8362519D01*
X21583220Y-8192339D02*
X21413040Y-8362519D01*
X21821344Y-10891260D02*
X21991524Y-11061440D01*
X21991524Y-10891260D02*
X21821344Y-11061440D01*
X21917670Y-9657891D02*
X22087850Y-9828071D01*
X22087850Y-9657891D02*
X21917670Y-9828071D01*
X22422301Y-11123445D02*
X22592481Y-11293625D01*
X22592481Y-11123445D02*
X22422301Y-11293625D01*
X22453110Y-7834213D02*
X22623290Y-8004393D01*
X22623290Y-7834213D02*
X22453110Y-8004393D01*
X22957740Y-9299766D02*
X23127920Y-9469946D01*
X23127920Y-9299766D02*
X22957740Y-9469946D01*
X23462372Y-10765320D02*
X23632552Y-10935500D01*
X23632552Y-10765320D02*
X23462372Y-10935500D01*
X23922727Y-10634872D02*
X24092907Y-10805052D01*
X24092907Y-10634872D02*
X23922727Y-10805052D01*
X24990052Y-10368758D02*
X25160232Y-10538938D01*
X25160232Y-10368758D02*
X24990052Y-10538938D01*
D13*
X13164416Y-12910164D02*
G75*
G02*
X12944416Y-12910164I-110000J0D01*
G01*
X12944416Y-12910164D02*
G75*
G02*
X13164416Y-12910164I110000J0D01*
G01*
X19265493Y-12910166D02*
G75*
G02*
X19045493Y-12910166I-110000J0D01*
G01*
X19045493Y-12910166D02*
G75*
G02*
X19265493Y-12910166I110000J0D01*
G01*
D14*
X7668482Y-10415454D02*
X7668482Y-10758354D01*
X7497032Y-10586904D02*
X7839932Y-10586904D01*
X9182536Y-10858024D02*
X9182536Y-11200924D01*
X9011086Y-11029474D02*
X9353986Y-11029474D01*
X9687166Y-9392469D02*
X9687166Y-9735369D01*
X9515716Y-9563919D02*
X9858616Y-9563919D01*
X10191796Y-7926916D02*
X10191796Y-8269816D01*
X10020346Y-8098366D02*
X10363246Y-8098366D01*
X10813480Y-11010935D02*
X10813480Y-11353834D01*
X10642030Y-11182385D02*
X10984930Y-11182385D01*
X11394117Y-9573798D02*
X11394117Y-9916698D01*
X11222667Y-9745248D02*
X11565567Y-9745248D01*
X11974758Y-8136663D02*
X11974758Y-8479563D01*
X11803308Y-8308113D02*
X12146208Y-8308113D01*
X12105452Y-11950859D02*
X12105452Y-12293759D01*
X11934002Y-12122309D02*
X12276902Y-12122309D01*
X12686093Y-10513723D02*
X12686093Y-10856623D01*
X12514643Y-10685173D02*
X12857543Y-10685173D01*
X13266733Y-9076586D02*
X13266733Y-9419486D01*
X13095283Y-9248036D02*
X13438183Y-9248036D01*
X13438842Y-14443348D02*
X13438842Y-14786248D01*
X13267392Y-14614798D02*
X13610292Y-14614798D01*
X13832909Y-11812932D02*
X13832909Y-12155832D01*
X13661459Y-11984382D02*
X14004359Y-11984382D01*
X14413547Y-10375795D02*
X14413547Y-10718695D01*
X14242097Y-10547245D02*
X14584997Y-10547245D01*
X17796411Y-10375796D02*
X17796411Y-10718696D01*
X17624961Y-10547246D02*
X17967861Y-10547246D01*
X18377051Y-11812930D02*
X18377051Y-12155830D01*
X18205601Y-11984380D02*
X18548501Y-11984380D01*
X18771119Y-14443348D02*
X18771119Y-14786248D01*
X18599669Y-14614798D02*
X18942569Y-14614798D01*
X18943226Y-9076589D02*
X18943226Y-9419489D01*
X18771776Y-9248039D02*
X19114676Y-9248039D01*
X19523867Y-10513723D02*
X19523867Y-10856623D01*
X19352417Y-10685173D02*
X19695317Y-10685173D01*
X20104507Y-11950858D02*
X20104507Y-12293758D01*
X19933057Y-12122308D02*
X20275957Y-12122308D01*
X20235203Y-8136664D02*
X20235203Y-8479564D01*
X20063753Y-8308114D02*
X20406653Y-8308114D01*
X20815844Y-9573800D02*
X20815844Y-9916700D01*
X20644394Y-9745250D02*
X20987294Y-9745250D01*
X21396483Y-11010933D02*
X21396483Y-11353833D01*
X21225033Y-11182383D02*
X21567933Y-11182383D01*
X22018165Y-7926916D02*
X22018165Y-8269816D01*
X21846715Y-8098366D02*
X22189615Y-8098366D01*
X22522795Y-9392469D02*
X22522795Y-9735369D01*
X22351345Y-9563919D02*
X22694245Y-9563919D01*
X23027427Y-10858023D02*
X23027427Y-11200923D01*
X22855977Y-11029473D02*
X23198877Y-11029473D01*
X24541479Y-10415455D02*
X24541479Y-10758355D01*
X24370029Y-10586905D02*
X24712929Y-10586905D01*
D11*
X6983819Y-16234803D02*
X6983819Y-16034803D01*
X6983819Y-16034803D02*
X7031438Y-16034803D01*
X7031438Y-16034803D02*
X7060009Y-16044327D01*
X7060009Y-16044327D02*
X7079057Y-16063375D01*
X7079057Y-16063375D02*
X7088581Y-16082422D01*
X7088581Y-16082422D02*
X7098104Y-16120517D01*
X7098104Y-16120517D02*
X7098104Y-16149089D01*
X7098104Y-16149089D02*
X7088581Y-16187184D01*
X7088581Y-16187184D02*
X7079057Y-16206232D01*
X7079057Y-16206232D02*
X7060009Y-16225279D01*
X7060009Y-16225279D02*
X7031438Y-16234803D01*
X7031438Y-16234803D02*
X6983819Y-16234803D01*
X7183819Y-16234803D02*
X7183819Y-16101470D01*
X7183819Y-16139565D02*
X7193342Y-16120517D01*
X7193342Y-16120517D02*
X7202866Y-16110994D01*
X7202866Y-16110994D02*
X7221914Y-16101470D01*
X7221914Y-16101470D02*
X7240962Y-16101470D01*
X7307628Y-16234803D02*
X7307628Y-16101470D01*
X7307628Y-16034803D02*
X7298104Y-16044327D01*
X7298104Y-16044327D02*
X7307628Y-16053851D01*
X7307628Y-16053851D02*
X7317152Y-16044327D01*
X7317152Y-16044327D02*
X7307628Y-16034803D01*
X7307628Y-16034803D02*
X7307628Y-16053851D01*
X7431438Y-16234803D02*
X7412390Y-16225279D01*
X7412390Y-16225279D02*
X7402866Y-16206232D01*
X7402866Y-16206232D02*
X7402866Y-16034803D01*
X7536200Y-16234803D02*
X7517152Y-16225279D01*
X7517152Y-16225279D02*
X7507628Y-16206232D01*
X7507628Y-16206232D02*
X7507628Y-16034803D01*
X7764771Y-16234803D02*
X7764771Y-16034803D01*
X7764771Y-16034803D02*
X7831438Y-16177660D01*
X7831438Y-16177660D02*
X7898104Y-16034803D01*
X7898104Y-16034803D02*
X7898104Y-16234803D01*
X8079057Y-16234803D02*
X8079057Y-16130041D01*
X8079057Y-16130041D02*
X8069533Y-16110994D01*
X8069533Y-16110994D02*
X8050485Y-16101470D01*
X8050485Y-16101470D02*
X8012390Y-16101470D01*
X8012390Y-16101470D02*
X7993342Y-16110994D01*
X8079057Y-16225279D02*
X8060009Y-16234803D01*
X8060009Y-16234803D02*
X8012390Y-16234803D01*
X8012390Y-16234803D02*
X7993342Y-16225279D01*
X7993342Y-16225279D02*
X7983819Y-16206232D01*
X7983819Y-16206232D02*
X7983819Y-16187184D01*
X7983819Y-16187184D02*
X7993342Y-16168136D01*
X7993342Y-16168136D02*
X8012390Y-16158613D01*
X8012390Y-16158613D02*
X8060009Y-16158613D01*
X8060009Y-16158613D02*
X8079057Y-16149089D01*
X8174295Y-16101470D02*
X8174295Y-16301470D01*
X8174295Y-16110994D02*
X8193342Y-16101470D01*
X8193342Y-16101470D02*
X8231438Y-16101470D01*
X8231438Y-16101470D02*
X8250485Y-16110994D01*
X8250485Y-16110994D02*
X8260009Y-16120517D01*
X8260009Y-16120517D02*
X8269533Y-16139565D01*
X8269533Y-16139565D02*
X8269533Y-16196708D01*
X8269533Y-16196708D02*
X8260009Y-16215755D01*
X8260009Y-16215755D02*
X8250485Y-16225279D01*
X8250485Y-16225279D02*
X8231438Y-16234803D01*
X8231438Y-16234803D02*
X8193342Y-16234803D01*
X8193342Y-16234803D02*
X8174295Y-16225279D01*
X8355247Y-16215755D02*
X8364771Y-16225279D01*
X8364771Y-16225279D02*
X8355247Y-16234803D01*
X8355247Y-16234803D02*
X8345723Y-16225279D01*
X8345723Y-16225279D02*
X8355247Y-16215755D01*
X8355247Y-16215755D02*
X8355247Y-16234803D01*
X8355247Y-16110994D02*
X8364771Y-16120517D01*
X8364771Y-16120517D02*
X8355247Y-16130041D01*
X8355247Y-16130041D02*
X8345723Y-16120517D01*
X8345723Y-16120517D02*
X8355247Y-16110994D01*
X8355247Y-16110994D02*
X8355247Y-16130041D01*
D12*
X6552862Y-16478229D02*
X6723042Y-16648409D01*
X6723042Y-16478229D02*
X6552862Y-16648409D01*
D11*
X7088581Y-16654803D02*
X6974295Y-16654803D01*
X7031438Y-16654803D02*
X7031438Y-16454803D01*
X7031438Y-16454803D02*
X7012390Y-16483375D01*
X7012390Y-16483375D02*
X6993342Y-16502422D01*
X6993342Y-16502422D02*
X6974295Y-16511946D01*
X7174295Y-16635755D02*
X7183819Y-16645279D01*
X7183819Y-16645279D02*
X7174295Y-16654803D01*
X7174295Y-16654803D02*
X7164771Y-16645279D01*
X7164771Y-16645279D02*
X7174295Y-16635755D01*
X7174295Y-16635755D02*
X7174295Y-16654803D01*
X7250485Y-16454803D02*
X7383819Y-16454803D01*
X7383819Y-16454803D02*
X7298104Y-16654803D01*
X7498104Y-16454803D02*
X7517152Y-16454803D01*
X7517152Y-16454803D02*
X7536200Y-16464327D01*
X7536200Y-16464327D02*
X7545723Y-16473851D01*
X7545723Y-16473851D02*
X7555247Y-16492898D01*
X7555247Y-16492898D02*
X7564771Y-16530994D01*
X7564771Y-16530994D02*
X7564771Y-16578613D01*
X7564771Y-16578613D02*
X7555247Y-16616708D01*
X7555247Y-16616708D02*
X7545723Y-16635755D01*
X7545723Y-16635755D02*
X7536200Y-16645279D01*
X7536200Y-16645279D02*
X7517152Y-16654803D01*
X7517152Y-16654803D02*
X7498104Y-16654803D01*
X7498104Y-16654803D02*
X7479057Y-16645279D01*
X7479057Y-16645279D02*
X7469533Y-16635755D01*
X7469533Y-16635755D02*
X7460009Y-16616708D01*
X7460009Y-16616708D02*
X7450485Y-16578613D01*
X7450485Y-16578613D02*
X7450485Y-16530994D01*
X7450485Y-16530994D02*
X7460009Y-16492898D01*
X7460009Y-16492898D02*
X7469533Y-16473851D01*
X7469533Y-16473851D02*
X7479057Y-16464327D01*
X7479057Y-16464327D02*
X7498104Y-16454803D01*
X7640962Y-16473851D02*
X7650485Y-16464327D01*
X7650485Y-16464327D02*
X7669533Y-16454803D01*
X7669533Y-16454803D02*
X7717152Y-16454803D01*
X7717152Y-16454803D02*
X7736200Y-16464327D01*
X7736200Y-16464327D02*
X7745723Y-16473851D01*
X7745723Y-16473851D02*
X7755247Y-16492898D01*
X7755247Y-16492898D02*
X7755247Y-16511946D01*
X7755247Y-16511946D02*
X7745723Y-16540517D01*
X7745723Y-16540517D02*
X7631438Y-16654803D01*
X7631438Y-16654803D02*
X7755247Y-16654803D01*
X7840962Y-16654803D02*
X7840962Y-16521470D01*
X7840962Y-16540517D02*
X7850485Y-16530994D01*
X7850485Y-16530994D02*
X7869533Y-16521470D01*
X7869533Y-16521470D02*
X7898104Y-16521470D01*
X7898104Y-16521470D02*
X7917152Y-16530994D01*
X7917152Y-16530994D02*
X7926676Y-16550041D01*
X7926676Y-16550041D02*
X7926676Y-16654803D01*
X7926676Y-16550041D02*
X7936200Y-16530994D01*
X7936200Y-16530994D02*
X7955247Y-16521470D01*
X7955247Y-16521470D02*
X7983819Y-16521470D01*
X7983819Y-16521470D02*
X8002866Y-16530994D01*
X8002866Y-16530994D02*
X8012390Y-16550041D01*
X8012390Y-16550041D02*
X8012390Y-16654803D01*
X8107628Y-16654803D02*
X8107628Y-16521470D01*
X8107628Y-16540517D02*
X8117152Y-16530994D01*
X8117152Y-16530994D02*
X8136200Y-16521470D01*
X8136200Y-16521470D02*
X8164771Y-16521470D01*
X8164771Y-16521470D02*
X8183819Y-16530994D01*
X8183819Y-16530994D02*
X8193343Y-16550041D01*
X8193343Y-16550041D02*
X8193343Y-16654803D01*
X8193343Y-16550041D02*
X8202866Y-16530994D01*
X8202866Y-16530994D02*
X8221914Y-16521470D01*
X8221914Y-16521470D02*
X8250485Y-16521470D01*
X8250485Y-16521470D02*
X8269533Y-16530994D01*
X8269533Y-16530994D02*
X8279057Y-16550041D01*
X8279057Y-16550041D02*
X8279057Y-16654803D01*
X8669533Y-16445279D02*
X8498105Y-16702422D01*
X8926676Y-16454803D02*
X8945724Y-16454803D01*
X8945724Y-16454803D02*
X8964771Y-16464327D01*
X8964771Y-16464327D02*
X8974295Y-16473851D01*
X8974295Y-16473851D02*
X8983819Y-16492898D01*
X8983819Y-16492898D02*
X8993343Y-16530994D01*
X8993343Y-16530994D02*
X8993343Y-16578613D01*
X8993343Y-16578613D02*
X8983819Y-16616708D01*
X8983819Y-16616708D02*
X8974295Y-16635755D01*
X8974295Y-16635755D02*
X8964771Y-16645279D01*
X8964771Y-16645279D02*
X8945724Y-16654803D01*
X8945724Y-16654803D02*
X8926676Y-16654803D01*
X8926676Y-16654803D02*
X8907628Y-16645279D01*
X8907628Y-16645279D02*
X8898105Y-16635755D01*
X8898105Y-16635755D02*
X8888581Y-16616708D01*
X8888581Y-16616708D02*
X8879057Y-16578613D01*
X8879057Y-16578613D02*
X8879057Y-16530994D01*
X8879057Y-16530994D02*
X8888581Y-16492898D01*
X8888581Y-16492898D02*
X8898105Y-16473851D01*
X8898105Y-16473851D02*
X8907628Y-16464327D01*
X8907628Y-16464327D02*
X8926676Y-16454803D01*
X9079057Y-16635755D02*
X9088581Y-16645279D01*
X9088581Y-16645279D02*
X9079057Y-16654803D01*
X9079057Y-16654803D02*
X9069533Y-16645279D01*
X9069533Y-16645279D02*
X9079057Y-16635755D01*
X9079057Y-16635755D02*
X9079057Y-16654803D01*
X9212390Y-16454803D02*
X9231438Y-16454803D01*
X9231438Y-16454803D02*
X9250486Y-16464327D01*
X9250486Y-16464327D02*
X9260009Y-16473851D01*
X9260009Y-16473851D02*
X9269533Y-16492898D01*
X9269533Y-16492898D02*
X9279057Y-16530994D01*
X9279057Y-16530994D02*
X9279057Y-16578613D01*
X9279057Y-16578613D02*
X9269533Y-16616708D01*
X9269533Y-16616708D02*
X9260009Y-16635755D01*
X9260009Y-16635755D02*
X9250486Y-16645279D01*
X9250486Y-16645279D02*
X9231438Y-16654803D01*
X9231438Y-16654803D02*
X9212390Y-16654803D01*
X9212390Y-16654803D02*
X9193343Y-16645279D01*
X9193343Y-16645279D02*
X9183819Y-16635755D01*
X9183819Y-16635755D02*
X9174295Y-16616708D01*
X9174295Y-16616708D02*
X9164771Y-16578613D01*
X9164771Y-16578613D02*
X9164771Y-16530994D01*
X9164771Y-16530994D02*
X9174295Y-16492898D01*
X9174295Y-16492898D02*
X9183819Y-16473851D01*
X9183819Y-16473851D02*
X9193343Y-16464327D01*
X9193343Y-16464327D02*
X9212390Y-16454803D01*
X9450486Y-16454803D02*
X9412390Y-16454803D01*
X9412390Y-16454803D02*
X9393343Y-16464327D01*
X9393343Y-16464327D02*
X9383819Y-16473851D01*
X9383819Y-16473851D02*
X9364771Y-16502422D01*
X9364771Y-16502422D02*
X9355248Y-16540517D01*
X9355248Y-16540517D02*
X9355248Y-16616708D01*
X9355248Y-16616708D02*
X9364771Y-16635755D01*
X9364771Y-16635755D02*
X9374295Y-16645279D01*
X9374295Y-16645279D02*
X9393343Y-16654803D01*
X9393343Y-16654803D02*
X9431438Y-16654803D01*
X9431438Y-16654803D02*
X9450486Y-16645279D01*
X9450486Y-16645279D02*
X9460009Y-16635755D01*
X9460009Y-16635755D02*
X9469533Y-16616708D01*
X9469533Y-16616708D02*
X9469533Y-16569089D01*
X9469533Y-16569089D02*
X9460009Y-16550041D01*
X9460009Y-16550041D02*
X9450486Y-16540517D01*
X9450486Y-16540517D02*
X9431438Y-16530994D01*
X9431438Y-16530994D02*
X9393343Y-16530994D01*
X9393343Y-16530994D02*
X9374295Y-16540517D01*
X9374295Y-16540517D02*
X9364771Y-16550041D01*
X9364771Y-16550041D02*
X9355248Y-16569089D01*
X9536200Y-16454803D02*
X9669533Y-16454803D01*
X9669533Y-16454803D02*
X9583819Y-16654803D01*
X9783819Y-16454803D02*
X9802867Y-16454803D01*
X9802867Y-16454803D02*
X9821914Y-16464327D01*
X9821914Y-16464327D02*
X9831438Y-16473851D01*
X9831438Y-16473851D02*
X9840962Y-16492898D01*
X9840962Y-16492898D02*
X9850486Y-16530994D01*
X9850486Y-16530994D02*
X9850486Y-16578613D01*
X9850486Y-16578613D02*
X9840962Y-16616708D01*
X9840962Y-16616708D02*
X9831438Y-16635755D01*
X9831438Y-16635755D02*
X9821914Y-16645279D01*
X9821914Y-16645279D02*
X9802867Y-16654803D01*
X9802867Y-16654803D02*
X9783819Y-16654803D01*
X9783819Y-16654803D02*
X9764771Y-16645279D01*
X9764771Y-16645279D02*
X9755248Y-16635755D01*
X9755248Y-16635755D02*
X9745724Y-16616708D01*
X9745724Y-16616708D02*
X9736200Y-16578613D01*
X9736200Y-16578613D02*
X9736200Y-16530994D01*
X9736200Y-16530994D02*
X9745724Y-16492898D01*
X9745724Y-16492898D02*
X9755248Y-16473851D01*
X9755248Y-16473851D02*
X9764771Y-16464327D01*
X9764771Y-16464327D02*
X9783819Y-16454803D01*
X9926676Y-16454803D02*
X9926676Y-16492898D01*
X10002867Y-16454803D02*
X10002867Y-16492898D01*
X10298105Y-16730994D02*
X10288581Y-16721470D01*
X10288581Y-16721470D02*
X10269533Y-16692898D01*
X10269533Y-16692898D02*
X10260010Y-16673851D01*
X10260010Y-16673851D02*
X10250486Y-16645279D01*
X10250486Y-16645279D02*
X10240962Y-16597660D01*
X10240962Y-16597660D02*
X10240962Y-16559565D01*
X10240962Y-16559565D02*
X10250486Y-16511946D01*
X10250486Y-16511946D02*
X10260010Y-16483375D01*
X10260010Y-16483375D02*
X10269533Y-16464327D01*
X10269533Y-16464327D02*
X10288581Y-16435755D01*
X10288581Y-16435755D02*
X10298105Y-16426232D01*
X10469533Y-16454803D02*
X10374295Y-16454803D01*
X10374295Y-16454803D02*
X10364771Y-16550041D01*
X10364771Y-16550041D02*
X10374295Y-16540517D01*
X10374295Y-16540517D02*
X10393343Y-16530994D01*
X10393343Y-16530994D02*
X10440962Y-16530994D01*
X10440962Y-16530994D02*
X10460010Y-16540517D01*
X10460010Y-16540517D02*
X10469533Y-16550041D01*
X10469533Y-16550041D02*
X10479057Y-16569089D01*
X10479057Y-16569089D02*
X10479057Y-16616708D01*
X10479057Y-16616708D02*
X10469533Y-16635755D01*
X10469533Y-16635755D02*
X10460010Y-16645279D01*
X10460010Y-16645279D02*
X10440962Y-16654803D01*
X10440962Y-16654803D02*
X10393343Y-16654803D01*
X10393343Y-16654803D02*
X10374295Y-16645279D01*
X10374295Y-16645279D02*
X10364771Y-16635755D01*
X10555248Y-16473851D02*
X10564771Y-16464327D01*
X10564771Y-16464327D02*
X10583819Y-16454803D01*
X10583819Y-16454803D02*
X10631438Y-16454803D01*
X10631438Y-16454803D02*
X10650486Y-16464327D01*
X10650486Y-16464327D02*
X10660010Y-16473851D01*
X10660010Y-16473851D02*
X10669533Y-16492898D01*
X10669533Y-16492898D02*
X10669533Y-16511946D01*
X10669533Y-16511946D02*
X10660010Y-16540517D01*
X10660010Y-16540517D02*
X10545724Y-16654803D01*
X10545724Y-16654803D02*
X10669533Y-16654803D01*
X10907629Y-16654803D02*
X10907629Y-16454803D01*
X10993343Y-16654803D02*
X10993343Y-16550041D01*
X10993343Y-16550041D02*
X10983819Y-16530994D01*
X10983819Y-16530994D02*
X10964772Y-16521470D01*
X10964772Y-16521470D02*
X10936200Y-16521470D01*
X10936200Y-16521470D02*
X10917152Y-16530994D01*
X10917152Y-16530994D02*
X10907629Y-16540517D01*
X11117152Y-16654803D02*
X11098105Y-16645279D01*
X11098105Y-16645279D02*
X11088581Y-16635755D01*
X11088581Y-16635755D02*
X11079057Y-16616708D01*
X11079057Y-16616708D02*
X11079057Y-16559565D01*
X11079057Y-16559565D02*
X11088581Y-16540517D01*
X11088581Y-16540517D02*
X11098105Y-16530994D01*
X11098105Y-16530994D02*
X11117152Y-16521470D01*
X11117152Y-16521470D02*
X11145724Y-16521470D01*
X11145724Y-16521470D02*
X11164772Y-16530994D01*
X11164772Y-16530994D02*
X11174295Y-16540517D01*
X11174295Y-16540517D02*
X11183819Y-16559565D01*
X11183819Y-16559565D02*
X11183819Y-16616708D01*
X11183819Y-16616708D02*
X11174295Y-16635755D01*
X11174295Y-16635755D02*
X11164772Y-16645279D01*
X11164772Y-16645279D02*
X11145724Y-16654803D01*
X11145724Y-16654803D02*
X11117152Y-16654803D01*
X11298105Y-16654803D02*
X11279057Y-16645279D01*
X11279057Y-16645279D02*
X11269533Y-16626232D01*
X11269533Y-16626232D02*
X11269533Y-16454803D01*
X11450486Y-16645279D02*
X11431438Y-16654803D01*
X11431438Y-16654803D02*
X11393343Y-16654803D01*
X11393343Y-16654803D02*
X11374295Y-16645279D01*
X11374295Y-16645279D02*
X11364771Y-16626232D01*
X11364771Y-16626232D02*
X11364771Y-16550041D01*
X11364771Y-16550041D02*
X11374295Y-16530994D01*
X11374295Y-16530994D02*
X11393343Y-16521470D01*
X11393343Y-16521470D02*
X11431438Y-16521470D01*
X11431438Y-16521470D02*
X11450486Y-16530994D01*
X11450486Y-16530994D02*
X11460010Y-16550041D01*
X11460010Y-16550041D02*
X11460010Y-16569089D01*
X11460010Y-16569089D02*
X11364771Y-16588136D01*
X11536200Y-16645279D02*
X11555248Y-16654803D01*
X11555248Y-16654803D02*
X11593343Y-16654803D01*
X11593343Y-16654803D02*
X11612391Y-16645279D01*
X11612391Y-16645279D02*
X11621914Y-16626232D01*
X11621914Y-16626232D02*
X11621914Y-16616708D01*
X11621914Y-16616708D02*
X11612391Y-16597660D01*
X11612391Y-16597660D02*
X11593343Y-16588136D01*
X11593343Y-16588136D02*
X11564771Y-16588136D01*
X11564771Y-16588136D02*
X11545724Y-16578613D01*
X11545724Y-16578613D02*
X11536200Y-16559565D01*
X11536200Y-16559565D02*
X11536200Y-16550041D01*
X11536200Y-16550041D02*
X11545724Y-16530994D01*
X11545724Y-16530994D02*
X11564771Y-16521470D01*
X11564771Y-16521470D02*
X11593343Y-16521470D01*
X11593343Y-16521470D02*
X11612391Y-16530994D01*
X11688581Y-16730994D02*
X11698105Y-16721470D01*
X11698105Y-16721470D02*
X11717152Y-16692898D01*
X11717152Y-16692898D02*
X11726676Y-16673851D01*
X11726676Y-16673851D02*
X11736200Y-16645279D01*
X11736200Y-16645279D02*
X11745724Y-16597660D01*
X11745724Y-16597660D02*
X11745724Y-16559565D01*
X11745724Y-16559565D02*
X11736200Y-16511946D01*
X11736200Y-16511946D02*
X11726676Y-16483375D01*
X11726676Y-16483375D02*
X11717152Y-16464327D01*
X11717152Y-16464327D02*
X11698105Y-16435755D01*
X11698105Y-16435755D02*
X11688581Y-16426232D01*
X12050486Y-16730994D02*
X12040962Y-16721470D01*
X12040962Y-16721470D02*
X12021914Y-16692898D01*
X12021914Y-16692898D02*
X12012391Y-16673851D01*
X12012391Y-16673851D02*
X12002867Y-16645279D01*
X12002867Y-16645279D02*
X11993343Y-16597660D01*
X11993343Y-16597660D02*
X11993343Y-16559565D01*
X11993343Y-16559565D02*
X12002867Y-16511946D01*
X12002867Y-16511946D02*
X12012391Y-16483375D01*
X12012391Y-16483375D02*
X12021914Y-16464327D01*
X12021914Y-16464327D02*
X12040962Y-16435755D01*
X12040962Y-16435755D02*
X12050486Y-16426232D01*
X12126676Y-16521470D02*
X12126676Y-16654803D01*
X12126676Y-16540517D02*
X12136200Y-16530994D01*
X12136200Y-16530994D02*
X12155248Y-16521470D01*
X12155248Y-16521470D02*
X12183819Y-16521470D01*
X12183819Y-16521470D02*
X12202867Y-16530994D01*
X12202867Y-16530994D02*
X12212391Y-16550041D01*
X12212391Y-16550041D02*
X12212391Y-16654803D01*
X12336200Y-16654803D02*
X12317152Y-16645279D01*
X12317152Y-16645279D02*
X12307629Y-16635755D01*
X12307629Y-16635755D02*
X12298105Y-16616708D01*
X12298105Y-16616708D02*
X12298105Y-16559565D01*
X12298105Y-16559565D02*
X12307629Y-16540517D01*
X12307629Y-16540517D02*
X12317152Y-16530994D01*
X12317152Y-16530994D02*
X12336200Y-16521470D01*
X12336200Y-16521470D02*
X12364772Y-16521470D01*
X12364772Y-16521470D02*
X12383819Y-16530994D01*
X12383819Y-16530994D02*
X12393343Y-16540517D01*
X12393343Y-16540517D02*
X12402867Y-16559565D01*
X12402867Y-16559565D02*
X12402867Y-16616708D01*
X12402867Y-16616708D02*
X12393343Y-16635755D01*
X12393343Y-16635755D02*
X12383819Y-16645279D01*
X12383819Y-16645279D02*
X12364772Y-16654803D01*
X12364772Y-16654803D02*
X12336200Y-16654803D01*
X12460010Y-16521470D02*
X12536200Y-16521470D01*
X12488581Y-16454803D02*
X12488581Y-16626232D01*
X12488581Y-16626232D02*
X12498105Y-16645279D01*
X12498105Y-16645279D02*
X12517152Y-16654803D01*
X12517152Y-16654803D02*
X12536200Y-16654803D01*
X12755248Y-16521470D02*
X12755248Y-16721470D01*
X12755248Y-16530994D02*
X12774295Y-16521470D01*
X12774295Y-16521470D02*
X12812391Y-16521470D01*
X12812391Y-16521470D02*
X12831438Y-16530994D01*
X12831438Y-16530994D02*
X12840962Y-16540517D01*
X12840962Y-16540517D02*
X12850486Y-16559565D01*
X12850486Y-16559565D02*
X12850486Y-16616708D01*
X12850486Y-16616708D02*
X12840962Y-16635755D01*
X12840962Y-16635755D02*
X12831438Y-16645279D01*
X12831438Y-16645279D02*
X12812391Y-16654803D01*
X12812391Y-16654803D02*
X12774295Y-16654803D01*
X12774295Y-16654803D02*
X12755248Y-16645279D01*
X12964772Y-16654803D02*
X12945724Y-16645279D01*
X12945724Y-16645279D02*
X12936200Y-16626232D01*
X12936200Y-16626232D02*
X12936200Y-16454803D01*
X13126676Y-16654803D02*
X13126676Y-16550041D01*
X13126676Y-16550041D02*
X13117153Y-16530994D01*
X13117153Y-16530994D02*
X13098105Y-16521470D01*
X13098105Y-16521470D02*
X13060010Y-16521470D01*
X13060010Y-16521470D02*
X13040962Y-16530994D01*
X13126676Y-16645279D02*
X13107629Y-16654803D01*
X13107629Y-16654803D02*
X13060010Y-16654803D01*
X13060010Y-16654803D02*
X13040962Y-16645279D01*
X13040962Y-16645279D02*
X13031438Y-16626232D01*
X13031438Y-16626232D02*
X13031438Y-16607184D01*
X13031438Y-16607184D02*
X13040962Y-16588136D01*
X13040962Y-16588136D02*
X13060010Y-16578613D01*
X13060010Y-16578613D02*
X13107629Y-16578613D01*
X13107629Y-16578613D02*
X13126676Y-16569089D01*
X13193343Y-16521470D02*
X13269533Y-16521470D01*
X13221914Y-16454803D02*
X13221914Y-16626232D01*
X13221914Y-16626232D02*
X13231438Y-16645279D01*
X13231438Y-16645279D02*
X13250486Y-16654803D01*
X13250486Y-16654803D02*
X13269533Y-16654803D01*
X13412391Y-16645279D02*
X13393343Y-16654803D01*
X13393343Y-16654803D02*
X13355248Y-16654803D01*
X13355248Y-16654803D02*
X13336200Y-16645279D01*
X13336200Y-16645279D02*
X13326676Y-16626232D01*
X13326676Y-16626232D02*
X13326676Y-16550041D01*
X13326676Y-16550041D02*
X13336200Y-16530994D01*
X13336200Y-16530994D02*
X13355248Y-16521470D01*
X13355248Y-16521470D02*
X13393343Y-16521470D01*
X13393343Y-16521470D02*
X13412391Y-16530994D01*
X13412391Y-16530994D02*
X13421914Y-16550041D01*
X13421914Y-16550041D02*
X13421914Y-16569089D01*
X13421914Y-16569089D02*
X13326676Y-16588136D01*
X13593343Y-16654803D02*
X13593343Y-16454803D01*
X13593343Y-16645279D02*
X13574295Y-16654803D01*
X13574295Y-16654803D02*
X13536200Y-16654803D01*
X13536200Y-16654803D02*
X13517153Y-16645279D01*
X13517153Y-16645279D02*
X13507629Y-16635755D01*
X13507629Y-16635755D02*
X13498105Y-16616708D01*
X13498105Y-16616708D02*
X13498105Y-16559565D01*
X13498105Y-16559565D02*
X13507629Y-16540517D01*
X13507629Y-16540517D02*
X13517153Y-16530994D01*
X13517153Y-16530994D02*
X13536200Y-16521470D01*
X13536200Y-16521470D02*
X13574295Y-16521470D01*
X13574295Y-16521470D02*
X13593343Y-16530994D01*
X13669534Y-16730994D02*
X13679057Y-16721470D01*
X13679057Y-16721470D02*
X13698105Y-16692898D01*
X13698105Y-16692898D02*
X13707629Y-16673851D01*
X13707629Y-16673851D02*
X13717153Y-16645279D01*
X13717153Y-16645279D02*
X13726676Y-16597660D01*
X13726676Y-16597660D02*
X13726676Y-16559565D01*
X13726676Y-16559565D02*
X13717153Y-16511946D01*
X13717153Y-16511946D02*
X13707629Y-16483375D01*
X13707629Y-16483375D02*
X13698105Y-16464327D01*
X13698105Y-16464327D02*
X13679057Y-16435755D01*
X13679057Y-16435755D02*
X13669534Y-16426232D01*
X6723042Y-16853499D02*
G75*
G02*
X6523042Y-16853499I-100000J0D01*
G01*
X6523042Y-16853499D02*
G75*
G02*
X6723042Y-16853499I100000J0D01*
G01*
X6974295Y-16764031D02*
X6983819Y-16754507D01*
X6983819Y-16754507D02*
X7002866Y-16744983D01*
X7002866Y-16744983D02*
X7050485Y-16744983D01*
X7050485Y-16744983D02*
X7069533Y-16754507D01*
X7069533Y-16754507D02*
X7079057Y-16764031D01*
X7079057Y-16764031D02*
X7088581Y-16783078D01*
X7088581Y-16783078D02*
X7088581Y-16802126D01*
X7088581Y-16802126D02*
X7079057Y-16830697D01*
X7079057Y-16830697D02*
X6964771Y-16944983D01*
X6964771Y-16944983D02*
X7088581Y-16944983D01*
X7174295Y-16925936D02*
X7183819Y-16935459D01*
X7183819Y-16935459D02*
X7174295Y-16944983D01*
X7174295Y-16944983D02*
X7164771Y-16935459D01*
X7164771Y-16935459D02*
X7174295Y-16925936D01*
X7174295Y-16925936D02*
X7174295Y-16944983D01*
X7260009Y-16764031D02*
X7269533Y-16754507D01*
X7269533Y-16754507D02*
X7288581Y-16744983D01*
X7288581Y-16744983D02*
X7336200Y-16744983D01*
X7336200Y-16744983D02*
X7355247Y-16754507D01*
X7355247Y-16754507D02*
X7364771Y-16764031D01*
X7364771Y-16764031D02*
X7374295Y-16783078D01*
X7374295Y-16783078D02*
X7374295Y-16802126D01*
X7374295Y-16802126D02*
X7364771Y-16830697D01*
X7364771Y-16830697D02*
X7250485Y-16944983D01*
X7250485Y-16944983D02*
X7374295Y-16944983D01*
X7498104Y-16744983D02*
X7517152Y-16744983D01*
X7517152Y-16744983D02*
X7536200Y-16754507D01*
X7536200Y-16754507D02*
X7545723Y-16764031D01*
X7545723Y-16764031D02*
X7555247Y-16783078D01*
X7555247Y-16783078D02*
X7564771Y-16821174D01*
X7564771Y-16821174D02*
X7564771Y-16868793D01*
X7564771Y-16868793D02*
X7555247Y-16906888D01*
X7555247Y-16906888D02*
X7545723Y-16925936D01*
X7545723Y-16925936D02*
X7536200Y-16935459D01*
X7536200Y-16935459D02*
X7517152Y-16944983D01*
X7517152Y-16944983D02*
X7498104Y-16944983D01*
X7498104Y-16944983D02*
X7479057Y-16935459D01*
X7479057Y-16935459D02*
X7469533Y-16925936D01*
X7469533Y-16925936D02*
X7460009Y-16906888D01*
X7460009Y-16906888D02*
X7450485Y-16868793D01*
X7450485Y-16868793D02*
X7450485Y-16821174D01*
X7450485Y-16821174D02*
X7460009Y-16783078D01*
X7460009Y-16783078D02*
X7469533Y-16764031D01*
X7469533Y-16764031D02*
X7479057Y-16754507D01*
X7479057Y-16754507D02*
X7498104Y-16744983D01*
X7688581Y-16744983D02*
X7707628Y-16744983D01*
X7707628Y-16744983D02*
X7726676Y-16754507D01*
X7726676Y-16754507D02*
X7736200Y-16764031D01*
X7736200Y-16764031D02*
X7745723Y-16783078D01*
X7745723Y-16783078D02*
X7755247Y-16821174D01*
X7755247Y-16821174D02*
X7755247Y-16868793D01*
X7755247Y-16868793D02*
X7745723Y-16906888D01*
X7745723Y-16906888D02*
X7736200Y-16925936D01*
X7736200Y-16925936D02*
X7726676Y-16935459D01*
X7726676Y-16935459D02*
X7707628Y-16944983D01*
X7707628Y-16944983D02*
X7688581Y-16944983D01*
X7688581Y-16944983D02*
X7669533Y-16935459D01*
X7669533Y-16935459D02*
X7660009Y-16925936D01*
X7660009Y-16925936D02*
X7650485Y-16906888D01*
X7650485Y-16906888D02*
X7640962Y-16868793D01*
X7640962Y-16868793D02*
X7640962Y-16821174D01*
X7640962Y-16821174D02*
X7650485Y-16783078D01*
X7650485Y-16783078D02*
X7660009Y-16764031D01*
X7660009Y-16764031D02*
X7669533Y-16754507D01*
X7669533Y-16754507D02*
X7688581Y-16744983D01*
X7840962Y-16944983D02*
X7840962Y-16811650D01*
X7840962Y-16830697D02*
X7850485Y-16821174D01*
X7850485Y-16821174D02*
X7869533Y-16811650D01*
X7869533Y-16811650D02*
X7898104Y-16811650D01*
X7898104Y-16811650D02*
X7917152Y-16821174D01*
X7917152Y-16821174D02*
X7926676Y-16840221D01*
X7926676Y-16840221D02*
X7926676Y-16944983D01*
X7926676Y-16840221D02*
X7936200Y-16821174D01*
X7936200Y-16821174D02*
X7955247Y-16811650D01*
X7955247Y-16811650D02*
X7983819Y-16811650D01*
X7983819Y-16811650D02*
X8002866Y-16821174D01*
X8002866Y-16821174D02*
X8012390Y-16840221D01*
X8012390Y-16840221D02*
X8012390Y-16944983D01*
X8107628Y-16944983D02*
X8107628Y-16811650D01*
X8107628Y-16830697D02*
X8117152Y-16821174D01*
X8117152Y-16821174D02*
X8136200Y-16811650D01*
X8136200Y-16811650D02*
X8164771Y-16811650D01*
X8164771Y-16811650D02*
X8183819Y-16821174D01*
X8183819Y-16821174D02*
X8193343Y-16840221D01*
X8193343Y-16840221D02*
X8193343Y-16944983D01*
X8193343Y-16840221D02*
X8202866Y-16821174D01*
X8202866Y-16821174D02*
X8221914Y-16811650D01*
X8221914Y-16811650D02*
X8250485Y-16811650D01*
X8250485Y-16811650D02*
X8269533Y-16821174D01*
X8269533Y-16821174D02*
X8279057Y-16840221D01*
X8279057Y-16840221D02*
X8279057Y-16944983D01*
X8669533Y-16735459D02*
X8498105Y-16992602D01*
X8926676Y-16744983D02*
X8945724Y-16744983D01*
X8945724Y-16744983D02*
X8964771Y-16754507D01*
X8964771Y-16754507D02*
X8974295Y-16764031D01*
X8974295Y-16764031D02*
X8983819Y-16783078D01*
X8983819Y-16783078D02*
X8993343Y-16821174D01*
X8993343Y-16821174D02*
X8993343Y-16868793D01*
X8993343Y-16868793D02*
X8983819Y-16906888D01*
X8983819Y-16906888D02*
X8974295Y-16925936D01*
X8974295Y-16925936D02*
X8964771Y-16935459D01*
X8964771Y-16935459D02*
X8945724Y-16944983D01*
X8945724Y-16944983D02*
X8926676Y-16944983D01*
X8926676Y-16944983D02*
X8907628Y-16935459D01*
X8907628Y-16935459D02*
X8898105Y-16925936D01*
X8898105Y-16925936D02*
X8888581Y-16906888D01*
X8888581Y-16906888D02*
X8879057Y-16868793D01*
X8879057Y-16868793D02*
X8879057Y-16821174D01*
X8879057Y-16821174D02*
X8888581Y-16783078D01*
X8888581Y-16783078D02*
X8898105Y-16764031D01*
X8898105Y-16764031D02*
X8907628Y-16754507D01*
X8907628Y-16754507D02*
X8926676Y-16744983D01*
X9079057Y-16925936D02*
X9088581Y-16935459D01*
X9088581Y-16935459D02*
X9079057Y-16944983D01*
X9079057Y-16944983D02*
X9069533Y-16935459D01*
X9069533Y-16935459D02*
X9079057Y-16925936D01*
X9079057Y-16925936D02*
X9079057Y-16944983D01*
X9212390Y-16744983D02*
X9231438Y-16744983D01*
X9231438Y-16744983D02*
X9250486Y-16754507D01*
X9250486Y-16754507D02*
X9260009Y-16764031D01*
X9260009Y-16764031D02*
X9269533Y-16783078D01*
X9269533Y-16783078D02*
X9279057Y-16821174D01*
X9279057Y-16821174D02*
X9279057Y-16868793D01*
X9279057Y-16868793D02*
X9269533Y-16906888D01*
X9269533Y-16906888D02*
X9260009Y-16925936D01*
X9260009Y-16925936D02*
X9250486Y-16935459D01*
X9250486Y-16935459D02*
X9231438Y-16944983D01*
X9231438Y-16944983D02*
X9212390Y-16944983D01*
X9212390Y-16944983D02*
X9193343Y-16935459D01*
X9193343Y-16935459D02*
X9183819Y-16925936D01*
X9183819Y-16925936D02*
X9174295Y-16906888D01*
X9174295Y-16906888D02*
X9164771Y-16868793D01*
X9164771Y-16868793D02*
X9164771Y-16821174D01*
X9164771Y-16821174D02*
X9174295Y-16783078D01*
X9174295Y-16783078D02*
X9183819Y-16764031D01*
X9183819Y-16764031D02*
X9193343Y-16754507D01*
X9193343Y-16754507D02*
X9212390Y-16744983D01*
X9393343Y-16830697D02*
X9374295Y-16821174D01*
X9374295Y-16821174D02*
X9364771Y-16811650D01*
X9364771Y-16811650D02*
X9355248Y-16792602D01*
X9355248Y-16792602D02*
X9355248Y-16783078D01*
X9355248Y-16783078D02*
X9364771Y-16764031D01*
X9364771Y-16764031D02*
X9374295Y-16754507D01*
X9374295Y-16754507D02*
X9393343Y-16744983D01*
X9393343Y-16744983D02*
X9431438Y-16744983D01*
X9431438Y-16744983D02*
X9450486Y-16754507D01*
X9450486Y-16754507D02*
X9460009Y-16764031D01*
X9460009Y-16764031D02*
X9469533Y-16783078D01*
X9469533Y-16783078D02*
X9469533Y-16792602D01*
X9469533Y-16792602D02*
X9460009Y-16811650D01*
X9460009Y-16811650D02*
X9450486Y-16821174D01*
X9450486Y-16821174D02*
X9431438Y-16830697D01*
X9431438Y-16830697D02*
X9393343Y-16830697D01*
X9393343Y-16830697D02*
X9374295Y-16840221D01*
X9374295Y-16840221D02*
X9364771Y-16849745D01*
X9364771Y-16849745D02*
X9355248Y-16868793D01*
X9355248Y-16868793D02*
X9355248Y-16906888D01*
X9355248Y-16906888D02*
X9364771Y-16925936D01*
X9364771Y-16925936D02*
X9374295Y-16935459D01*
X9374295Y-16935459D02*
X9393343Y-16944983D01*
X9393343Y-16944983D02*
X9431438Y-16944983D01*
X9431438Y-16944983D02*
X9450486Y-16935459D01*
X9450486Y-16935459D02*
X9460009Y-16925936D01*
X9460009Y-16925936D02*
X9469533Y-16906888D01*
X9469533Y-16906888D02*
X9469533Y-16868793D01*
X9469533Y-16868793D02*
X9460009Y-16849745D01*
X9460009Y-16849745D02*
X9450486Y-16840221D01*
X9450486Y-16840221D02*
X9431438Y-16830697D01*
X9640962Y-16744983D02*
X9602867Y-16744983D01*
X9602867Y-16744983D02*
X9583819Y-16754507D01*
X9583819Y-16754507D02*
X9574295Y-16764031D01*
X9574295Y-16764031D02*
X9555248Y-16792602D01*
X9555248Y-16792602D02*
X9545724Y-16830697D01*
X9545724Y-16830697D02*
X9545724Y-16906888D01*
X9545724Y-16906888D02*
X9555248Y-16925936D01*
X9555248Y-16925936D02*
X9564771Y-16935459D01*
X9564771Y-16935459D02*
X9583819Y-16944983D01*
X9583819Y-16944983D02*
X9621914Y-16944983D01*
X9621914Y-16944983D02*
X9640962Y-16935459D01*
X9640962Y-16935459D02*
X9650486Y-16925936D01*
X9650486Y-16925936D02*
X9660009Y-16906888D01*
X9660009Y-16906888D02*
X9660009Y-16859269D01*
X9660009Y-16859269D02*
X9650486Y-16840221D01*
X9650486Y-16840221D02*
X9640962Y-16830697D01*
X9640962Y-16830697D02*
X9621914Y-16821174D01*
X9621914Y-16821174D02*
X9583819Y-16821174D01*
X9583819Y-16821174D02*
X9564771Y-16830697D01*
X9564771Y-16830697D02*
X9555248Y-16840221D01*
X9555248Y-16840221D02*
X9545724Y-16859269D01*
X9831438Y-16744983D02*
X9793343Y-16744983D01*
X9793343Y-16744983D02*
X9774295Y-16754507D01*
X9774295Y-16754507D02*
X9764771Y-16764031D01*
X9764771Y-16764031D02*
X9745724Y-16792602D01*
X9745724Y-16792602D02*
X9736200Y-16830697D01*
X9736200Y-16830697D02*
X9736200Y-16906888D01*
X9736200Y-16906888D02*
X9745724Y-16925936D01*
X9745724Y-16925936D02*
X9755248Y-16935459D01*
X9755248Y-16935459D02*
X9774295Y-16944983D01*
X9774295Y-16944983D02*
X9812390Y-16944983D01*
X9812390Y-16944983D02*
X9831438Y-16935459D01*
X9831438Y-16935459D02*
X9840962Y-16925936D01*
X9840962Y-16925936D02*
X9850486Y-16906888D01*
X9850486Y-16906888D02*
X9850486Y-16859269D01*
X9850486Y-16859269D02*
X9840962Y-16840221D01*
X9840962Y-16840221D02*
X9831438Y-16830697D01*
X9831438Y-16830697D02*
X9812390Y-16821174D01*
X9812390Y-16821174D02*
X9774295Y-16821174D01*
X9774295Y-16821174D02*
X9755248Y-16830697D01*
X9755248Y-16830697D02*
X9745724Y-16840221D01*
X9745724Y-16840221D02*
X9736200Y-16859269D01*
X9926676Y-16744983D02*
X9926676Y-16783078D01*
X10002867Y-16744983D02*
X10002867Y-16783078D01*
X10298105Y-17021174D02*
X10288581Y-17011650D01*
X10288581Y-17011650D02*
X10269533Y-16983078D01*
X10269533Y-16983078D02*
X10260010Y-16964031D01*
X10260010Y-16964031D02*
X10250486Y-16935459D01*
X10250486Y-16935459D02*
X10240962Y-16887840D01*
X10240962Y-16887840D02*
X10240962Y-16849745D01*
X10240962Y-16849745D02*
X10250486Y-16802126D01*
X10250486Y-16802126D02*
X10260010Y-16773555D01*
X10260010Y-16773555D02*
X10269533Y-16754507D01*
X10269533Y-16754507D02*
X10288581Y-16725935D01*
X10288581Y-16725935D02*
X10298105Y-16716412D01*
X10364771Y-16764031D02*
X10374295Y-16754507D01*
X10374295Y-16754507D02*
X10393343Y-16744983D01*
X10393343Y-16744983D02*
X10440962Y-16744983D01*
X10440962Y-16744983D02*
X10460010Y-16754507D01*
X10460010Y-16754507D02*
X10469533Y-16764031D01*
X10469533Y-16764031D02*
X10479057Y-16783078D01*
X10479057Y-16783078D02*
X10479057Y-16802126D01*
X10479057Y-16802126D02*
X10469533Y-16830697D01*
X10469533Y-16830697D02*
X10355248Y-16944983D01*
X10355248Y-16944983D02*
X10479057Y-16944983D01*
X10717152Y-16944983D02*
X10717152Y-16744983D01*
X10802867Y-16944983D02*
X10802867Y-16840221D01*
X10802867Y-16840221D02*
X10793343Y-16821174D01*
X10793343Y-16821174D02*
X10774295Y-16811650D01*
X10774295Y-16811650D02*
X10745724Y-16811650D01*
X10745724Y-16811650D02*
X10726676Y-16821174D01*
X10726676Y-16821174D02*
X10717152Y-16830697D01*
X10926676Y-16944983D02*
X10907629Y-16935459D01*
X10907629Y-16935459D02*
X10898105Y-16925936D01*
X10898105Y-16925936D02*
X10888581Y-16906888D01*
X10888581Y-16906888D02*
X10888581Y-16849745D01*
X10888581Y-16849745D02*
X10898105Y-16830697D01*
X10898105Y-16830697D02*
X10907629Y-16821174D01*
X10907629Y-16821174D02*
X10926676Y-16811650D01*
X10926676Y-16811650D02*
X10955248Y-16811650D01*
X10955248Y-16811650D02*
X10974295Y-16821174D01*
X10974295Y-16821174D02*
X10983819Y-16830697D01*
X10983819Y-16830697D02*
X10993343Y-16849745D01*
X10993343Y-16849745D02*
X10993343Y-16906888D01*
X10993343Y-16906888D02*
X10983819Y-16925936D01*
X10983819Y-16925936D02*
X10974295Y-16935459D01*
X10974295Y-16935459D02*
X10955248Y-16944983D01*
X10955248Y-16944983D02*
X10926676Y-16944983D01*
X11107629Y-16944983D02*
X11088581Y-16935459D01*
X11088581Y-16935459D02*
X11079057Y-16916412D01*
X11079057Y-16916412D02*
X11079057Y-16744983D01*
X11260010Y-16935459D02*
X11240962Y-16944983D01*
X11240962Y-16944983D02*
X11202867Y-16944983D01*
X11202867Y-16944983D02*
X11183819Y-16935459D01*
X11183819Y-16935459D02*
X11174295Y-16916412D01*
X11174295Y-16916412D02*
X11174295Y-16840221D01*
X11174295Y-16840221D02*
X11183819Y-16821174D01*
X11183819Y-16821174D02*
X11202867Y-16811650D01*
X11202867Y-16811650D02*
X11240962Y-16811650D01*
X11240962Y-16811650D02*
X11260010Y-16821174D01*
X11260010Y-16821174D02*
X11269533Y-16840221D01*
X11269533Y-16840221D02*
X11269533Y-16859269D01*
X11269533Y-16859269D02*
X11174295Y-16878317D01*
X11345724Y-16935459D02*
X11364771Y-16944983D01*
X11364771Y-16944983D02*
X11402867Y-16944983D01*
X11402867Y-16944983D02*
X11421914Y-16935459D01*
X11421914Y-16935459D02*
X11431438Y-16916412D01*
X11431438Y-16916412D02*
X11431438Y-16906888D01*
X11431438Y-16906888D02*
X11421914Y-16887840D01*
X11421914Y-16887840D02*
X11402867Y-16878317D01*
X11402867Y-16878317D02*
X11374295Y-16878317D01*
X11374295Y-16878317D02*
X11355248Y-16868793D01*
X11355248Y-16868793D02*
X11345724Y-16849745D01*
X11345724Y-16849745D02*
X11345724Y-16840221D01*
X11345724Y-16840221D02*
X11355248Y-16821174D01*
X11355248Y-16821174D02*
X11374295Y-16811650D01*
X11374295Y-16811650D02*
X11402867Y-16811650D01*
X11402867Y-16811650D02*
X11421914Y-16821174D01*
X11498105Y-17021174D02*
X11507629Y-17011650D01*
X11507629Y-17011650D02*
X11526676Y-16983078D01*
X11526676Y-16983078D02*
X11536200Y-16964031D01*
X11536200Y-16964031D02*
X11545724Y-16935459D01*
X11545724Y-16935459D02*
X11555248Y-16887840D01*
X11555248Y-16887840D02*
X11555248Y-16849745D01*
X11555248Y-16849745D02*
X11545724Y-16802126D01*
X11545724Y-16802126D02*
X11536200Y-16773555D01*
X11536200Y-16773555D02*
X11526676Y-16754507D01*
X11526676Y-16754507D02*
X11507629Y-16725935D01*
X11507629Y-16725935D02*
X11498105Y-16716412D01*
X11860010Y-17021174D02*
X11850486Y-17011650D01*
X11850486Y-17011650D02*
X11831438Y-16983078D01*
X11831438Y-16983078D02*
X11821914Y-16964031D01*
X11821914Y-16964031D02*
X11812391Y-16935459D01*
X11812391Y-16935459D02*
X11802867Y-16887840D01*
X11802867Y-16887840D02*
X11802867Y-16849745D01*
X11802867Y-16849745D02*
X11812391Y-16802126D01*
X11812391Y-16802126D02*
X11821914Y-16773555D01*
X11821914Y-16773555D02*
X11831438Y-16754507D01*
X11831438Y-16754507D02*
X11850486Y-16725935D01*
X11850486Y-16725935D02*
X11860010Y-16716412D01*
X11936200Y-16811650D02*
X11936200Y-16944983D01*
X11936200Y-16830697D02*
X11945724Y-16821174D01*
X11945724Y-16821174D02*
X11964771Y-16811650D01*
X11964771Y-16811650D02*
X11993343Y-16811650D01*
X11993343Y-16811650D02*
X12012391Y-16821174D01*
X12012391Y-16821174D02*
X12021914Y-16840221D01*
X12021914Y-16840221D02*
X12021914Y-16944983D01*
X12145724Y-16944983D02*
X12126676Y-16935459D01*
X12126676Y-16935459D02*
X12117152Y-16925936D01*
X12117152Y-16925936D02*
X12107629Y-16906888D01*
X12107629Y-16906888D02*
X12107629Y-16849745D01*
X12107629Y-16849745D02*
X12117152Y-16830697D01*
X12117152Y-16830697D02*
X12126676Y-16821174D01*
X12126676Y-16821174D02*
X12145724Y-16811650D01*
X12145724Y-16811650D02*
X12174295Y-16811650D01*
X12174295Y-16811650D02*
X12193343Y-16821174D01*
X12193343Y-16821174D02*
X12202867Y-16830697D01*
X12202867Y-16830697D02*
X12212391Y-16849745D01*
X12212391Y-16849745D02*
X12212391Y-16906888D01*
X12212391Y-16906888D02*
X12202867Y-16925936D01*
X12202867Y-16925936D02*
X12193343Y-16935459D01*
X12193343Y-16935459D02*
X12174295Y-16944983D01*
X12174295Y-16944983D02*
X12145724Y-16944983D01*
X12269533Y-16811650D02*
X12345724Y-16811650D01*
X12298105Y-16744983D02*
X12298105Y-16916412D01*
X12298105Y-16916412D02*
X12307629Y-16935459D01*
X12307629Y-16935459D02*
X12326676Y-16944983D01*
X12326676Y-16944983D02*
X12345724Y-16944983D01*
X12564772Y-16811650D02*
X12564772Y-17011650D01*
X12564772Y-16821174D02*
X12583819Y-16811650D01*
X12583819Y-16811650D02*
X12621914Y-16811650D01*
X12621914Y-16811650D02*
X12640962Y-16821174D01*
X12640962Y-16821174D02*
X12650486Y-16830697D01*
X12650486Y-16830697D02*
X12660010Y-16849745D01*
X12660010Y-16849745D02*
X12660010Y-16906888D01*
X12660010Y-16906888D02*
X12650486Y-16925936D01*
X12650486Y-16925936D02*
X12640962Y-16935459D01*
X12640962Y-16935459D02*
X12621914Y-16944983D01*
X12621914Y-16944983D02*
X12583819Y-16944983D01*
X12583819Y-16944983D02*
X12564772Y-16935459D01*
X12774295Y-16944983D02*
X12755248Y-16935459D01*
X12755248Y-16935459D02*
X12745724Y-16916412D01*
X12745724Y-16916412D02*
X12745724Y-16744983D01*
X12936200Y-16944983D02*
X12936200Y-16840221D01*
X12936200Y-16840221D02*
X12926676Y-16821174D01*
X12926676Y-16821174D02*
X12907629Y-16811650D01*
X12907629Y-16811650D02*
X12869533Y-16811650D01*
X12869533Y-16811650D02*
X12850486Y-16821174D01*
X12936200Y-16935459D02*
X12917153Y-16944983D01*
X12917153Y-16944983D02*
X12869533Y-16944983D01*
X12869533Y-16944983D02*
X12850486Y-16935459D01*
X12850486Y-16935459D02*
X12840962Y-16916412D01*
X12840962Y-16916412D02*
X12840962Y-16897364D01*
X12840962Y-16897364D02*
X12850486Y-16878317D01*
X12850486Y-16878317D02*
X12869533Y-16868793D01*
X12869533Y-16868793D02*
X12917153Y-16868793D01*
X12917153Y-16868793D02*
X12936200Y-16859269D01*
X13002867Y-16811650D02*
X13079057Y-16811650D01*
X13031438Y-16744983D02*
X13031438Y-16916412D01*
X13031438Y-16916412D02*
X13040962Y-16935459D01*
X13040962Y-16935459D02*
X13060010Y-16944983D01*
X13060010Y-16944983D02*
X13079057Y-16944983D01*
X13221914Y-16935459D02*
X13202867Y-16944983D01*
X13202867Y-16944983D02*
X13164772Y-16944983D01*
X13164772Y-16944983D02*
X13145724Y-16935459D01*
X13145724Y-16935459D02*
X13136200Y-16916412D01*
X13136200Y-16916412D02*
X13136200Y-16840221D01*
X13136200Y-16840221D02*
X13145724Y-16821174D01*
X13145724Y-16821174D02*
X13164772Y-16811650D01*
X13164772Y-16811650D02*
X13202867Y-16811650D01*
X13202867Y-16811650D02*
X13221914Y-16821174D01*
X13221914Y-16821174D02*
X13231438Y-16840221D01*
X13231438Y-16840221D02*
X13231438Y-16859269D01*
X13231438Y-16859269D02*
X13136200Y-16878317D01*
X13402867Y-16944983D02*
X13402867Y-16744983D01*
X13402867Y-16935459D02*
X13383819Y-16944983D01*
X13383819Y-16944983D02*
X13345724Y-16944983D01*
X13345724Y-16944983D02*
X13326676Y-16935459D01*
X13326676Y-16935459D02*
X13317153Y-16925936D01*
X13317153Y-16925936D02*
X13307629Y-16906888D01*
X13307629Y-16906888D02*
X13307629Y-16849745D01*
X13307629Y-16849745D02*
X13317153Y-16830697D01*
X13317153Y-16830697D02*
X13326676Y-16821174D01*
X13326676Y-16821174D02*
X13345724Y-16811650D01*
X13345724Y-16811650D02*
X13383819Y-16811650D01*
X13383819Y-16811650D02*
X13402867Y-16821174D01*
X13479057Y-17021174D02*
X13488581Y-17011650D01*
X13488581Y-17011650D02*
X13507629Y-16983078D01*
X13507629Y-16983078D02*
X13517153Y-16964031D01*
X13517153Y-16964031D02*
X13526676Y-16935459D01*
X13526676Y-16935459D02*
X13536200Y-16887840D01*
X13536200Y-16887840D02*
X13536200Y-16849745D01*
X13536200Y-16849745D02*
X13526676Y-16802126D01*
X13526676Y-16802126D02*
X13517153Y-16773555D01*
X13517153Y-16773555D02*
X13507629Y-16754507D01*
X13507629Y-16754507D02*
X13488581Y-16725935D01*
X13488581Y-16725935D02*
X13479057Y-16716412D01*
X6623042Y-17073499D02*
X6623042Y-17273499D01*
X6523042Y-17173499D02*
X6723042Y-17173499D01*
X6964771Y-17064983D02*
X7088581Y-17064983D01*
X7088581Y-17064983D02*
X7021914Y-17141174D01*
X7021914Y-17141174D02*
X7050485Y-17141174D01*
X7050485Y-17141174D02*
X7069533Y-17150697D01*
X7069533Y-17150697D02*
X7079057Y-17160221D01*
X7079057Y-17160221D02*
X7088581Y-17179269D01*
X7088581Y-17179269D02*
X7088581Y-17226888D01*
X7088581Y-17226888D02*
X7079057Y-17245936D01*
X7079057Y-17245936D02*
X7069533Y-17255459D01*
X7069533Y-17255459D02*
X7050485Y-17264983D01*
X7050485Y-17264983D02*
X6993342Y-17264983D01*
X6993342Y-17264983D02*
X6974295Y-17255459D01*
X6974295Y-17255459D02*
X6964771Y-17245936D01*
X7174295Y-17245936D02*
X7183819Y-17255459D01*
X7183819Y-17255459D02*
X7174295Y-17264983D01*
X7174295Y-17264983D02*
X7164771Y-17255459D01*
X7164771Y-17255459D02*
X7174295Y-17245936D01*
X7174295Y-17245936D02*
X7174295Y-17264983D01*
X7355247Y-17131650D02*
X7355247Y-17264983D01*
X7307628Y-17055459D02*
X7260009Y-17198317D01*
X7260009Y-17198317D02*
X7383819Y-17198317D01*
X7450485Y-17084031D02*
X7460009Y-17074507D01*
X7460009Y-17074507D02*
X7479057Y-17064983D01*
X7479057Y-17064983D02*
X7526676Y-17064983D01*
X7526676Y-17064983D02*
X7545723Y-17074507D01*
X7545723Y-17074507D02*
X7555247Y-17084031D01*
X7555247Y-17084031D02*
X7564771Y-17103078D01*
X7564771Y-17103078D02*
X7564771Y-17122126D01*
X7564771Y-17122126D02*
X7555247Y-17150697D01*
X7555247Y-17150697D02*
X7440962Y-17264983D01*
X7440962Y-17264983D02*
X7564771Y-17264983D01*
X7660009Y-17264983D02*
X7698104Y-17264983D01*
X7698104Y-17264983D02*
X7717152Y-17255459D01*
X7717152Y-17255459D02*
X7726676Y-17245936D01*
X7726676Y-17245936D02*
X7745723Y-17217364D01*
X7745723Y-17217364D02*
X7755247Y-17179269D01*
X7755247Y-17179269D02*
X7755247Y-17103078D01*
X7755247Y-17103078D02*
X7745723Y-17084031D01*
X7745723Y-17084031D02*
X7736200Y-17074507D01*
X7736200Y-17074507D02*
X7717152Y-17064983D01*
X7717152Y-17064983D02*
X7679057Y-17064983D01*
X7679057Y-17064983D02*
X7660009Y-17074507D01*
X7660009Y-17074507D02*
X7650485Y-17084031D01*
X7650485Y-17084031D02*
X7640962Y-17103078D01*
X7640962Y-17103078D02*
X7640962Y-17150697D01*
X7640962Y-17150697D02*
X7650485Y-17169745D01*
X7650485Y-17169745D02*
X7660009Y-17179269D01*
X7660009Y-17179269D02*
X7679057Y-17188793D01*
X7679057Y-17188793D02*
X7717152Y-17188793D01*
X7717152Y-17188793D02*
X7736200Y-17179269D01*
X7736200Y-17179269D02*
X7745723Y-17169745D01*
X7745723Y-17169745D02*
X7755247Y-17150697D01*
X7840962Y-17264983D02*
X7840962Y-17131650D01*
X7840962Y-17150697D02*
X7850485Y-17141174D01*
X7850485Y-17141174D02*
X7869533Y-17131650D01*
X7869533Y-17131650D02*
X7898104Y-17131650D01*
X7898104Y-17131650D02*
X7917152Y-17141174D01*
X7917152Y-17141174D02*
X7926676Y-17160221D01*
X7926676Y-17160221D02*
X7926676Y-17264983D01*
X7926676Y-17160221D02*
X7936200Y-17141174D01*
X7936200Y-17141174D02*
X7955247Y-17131650D01*
X7955247Y-17131650D02*
X7983819Y-17131650D01*
X7983819Y-17131650D02*
X8002866Y-17141174D01*
X8002866Y-17141174D02*
X8012390Y-17160221D01*
X8012390Y-17160221D02*
X8012390Y-17264983D01*
X8107628Y-17264983D02*
X8107628Y-17131650D01*
X8107628Y-17150697D02*
X8117152Y-17141174D01*
X8117152Y-17141174D02*
X8136200Y-17131650D01*
X8136200Y-17131650D02*
X8164771Y-17131650D01*
X8164771Y-17131650D02*
X8183819Y-17141174D01*
X8183819Y-17141174D02*
X8193343Y-17160221D01*
X8193343Y-17160221D02*
X8193343Y-17264983D01*
X8193343Y-17160221D02*
X8202866Y-17141174D01*
X8202866Y-17141174D02*
X8221914Y-17131650D01*
X8221914Y-17131650D02*
X8250485Y-17131650D01*
X8250485Y-17131650D02*
X8269533Y-17141174D01*
X8269533Y-17141174D02*
X8279057Y-17160221D01*
X8279057Y-17160221D02*
X8279057Y-17264983D01*
X8669533Y-17055459D02*
X8498105Y-17312602D01*
X8926676Y-17064983D02*
X8945724Y-17064983D01*
X8945724Y-17064983D02*
X8964771Y-17074507D01*
X8964771Y-17074507D02*
X8974295Y-17084031D01*
X8974295Y-17084031D02*
X8983819Y-17103078D01*
X8983819Y-17103078D02*
X8993343Y-17141174D01*
X8993343Y-17141174D02*
X8993343Y-17188793D01*
X8993343Y-17188793D02*
X8983819Y-17226888D01*
X8983819Y-17226888D02*
X8974295Y-17245936D01*
X8974295Y-17245936D02*
X8964771Y-17255459D01*
X8964771Y-17255459D02*
X8945724Y-17264983D01*
X8945724Y-17264983D02*
X8926676Y-17264983D01*
X8926676Y-17264983D02*
X8907628Y-17255459D01*
X8907628Y-17255459D02*
X8898105Y-17245936D01*
X8898105Y-17245936D02*
X8888581Y-17226888D01*
X8888581Y-17226888D02*
X8879057Y-17188793D01*
X8879057Y-17188793D02*
X8879057Y-17141174D01*
X8879057Y-17141174D02*
X8888581Y-17103078D01*
X8888581Y-17103078D02*
X8898105Y-17084031D01*
X8898105Y-17084031D02*
X8907628Y-17074507D01*
X8907628Y-17074507D02*
X8926676Y-17064983D01*
X9079057Y-17245936D02*
X9088581Y-17255459D01*
X9088581Y-17255459D02*
X9079057Y-17264983D01*
X9079057Y-17264983D02*
X9069533Y-17255459D01*
X9069533Y-17255459D02*
X9079057Y-17245936D01*
X9079057Y-17245936D02*
X9079057Y-17264983D01*
X9279057Y-17264983D02*
X9164771Y-17264983D01*
X9221914Y-17264983D02*
X9221914Y-17064983D01*
X9221914Y-17064983D02*
X9202867Y-17093555D01*
X9202867Y-17093555D02*
X9183819Y-17112602D01*
X9183819Y-17112602D02*
X9164771Y-17122126D01*
X9345724Y-17064983D02*
X9469533Y-17064983D01*
X9469533Y-17064983D02*
X9402867Y-17141174D01*
X9402867Y-17141174D02*
X9431438Y-17141174D01*
X9431438Y-17141174D02*
X9450486Y-17150697D01*
X9450486Y-17150697D02*
X9460009Y-17160221D01*
X9460009Y-17160221D02*
X9469533Y-17179269D01*
X9469533Y-17179269D02*
X9469533Y-17226888D01*
X9469533Y-17226888D02*
X9460009Y-17245936D01*
X9460009Y-17245936D02*
X9450486Y-17255459D01*
X9450486Y-17255459D02*
X9431438Y-17264983D01*
X9431438Y-17264983D02*
X9374295Y-17264983D01*
X9374295Y-17264983D02*
X9355248Y-17255459D01*
X9355248Y-17255459D02*
X9345724Y-17245936D01*
X9650486Y-17064983D02*
X9555248Y-17064983D01*
X9555248Y-17064983D02*
X9545724Y-17160221D01*
X9545724Y-17160221D02*
X9555248Y-17150697D01*
X9555248Y-17150697D02*
X9574295Y-17141174D01*
X9574295Y-17141174D02*
X9621914Y-17141174D01*
X9621914Y-17141174D02*
X9640962Y-17150697D01*
X9640962Y-17150697D02*
X9650486Y-17160221D01*
X9650486Y-17160221D02*
X9660009Y-17179269D01*
X9660009Y-17179269D02*
X9660009Y-17226888D01*
X9660009Y-17226888D02*
X9650486Y-17245936D01*
X9650486Y-17245936D02*
X9640962Y-17255459D01*
X9640962Y-17255459D02*
X9621914Y-17264983D01*
X9621914Y-17264983D02*
X9574295Y-17264983D01*
X9574295Y-17264983D02*
X9555248Y-17255459D01*
X9555248Y-17255459D02*
X9545724Y-17245936D01*
X9783819Y-17064983D02*
X9802867Y-17064983D01*
X9802867Y-17064983D02*
X9821914Y-17074507D01*
X9821914Y-17074507D02*
X9831438Y-17084031D01*
X9831438Y-17084031D02*
X9840962Y-17103078D01*
X9840962Y-17103078D02*
X9850486Y-17141174D01*
X9850486Y-17141174D02*
X9850486Y-17188793D01*
X9850486Y-17188793D02*
X9840962Y-17226888D01*
X9840962Y-17226888D02*
X9831438Y-17245936D01*
X9831438Y-17245936D02*
X9821914Y-17255459D01*
X9821914Y-17255459D02*
X9802867Y-17264983D01*
X9802867Y-17264983D02*
X9783819Y-17264983D01*
X9783819Y-17264983D02*
X9764771Y-17255459D01*
X9764771Y-17255459D02*
X9755248Y-17245936D01*
X9755248Y-17245936D02*
X9745724Y-17226888D01*
X9745724Y-17226888D02*
X9736200Y-17188793D01*
X9736200Y-17188793D02*
X9736200Y-17141174D01*
X9736200Y-17141174D02*
X9745724Y-17103078D01*
X9745724Y-17103078D02*
X9755248Y-17084031D01*
X9755248Y-17084031D02*
X9764771Y-17074507D01*
X9764771Y-17074507D02*
X9783819Y-17064983D01*
X9926676Y-17064983D02*
X9926676Y-17103078D01*
X10002867Y-17064983D02*
X10002867Y-17103078D01*
X10298105Y-17341174D02*
X10288581Y-17331650D01*
X10288581Y-17331650D02*
X10269533Y-17303078D01*
X10269533Y-17303078D02*
X10260010Y-17284031D01*
X10260010Y-17284031D02*
X10250486Y-17255459D01*
X10250486Y-17255459D02*
X10240962Y-17207840D01*
X10240962Y-17207840D02*
X10240962Y-17169745D01*
X10240962Y-17169745D02*
X10250486Y-17122126D01*
X10250486Y-17122126D02*
X10260010Y-17093555D01*
X10260010Y-17093555D02*
X10269533Y-17074507D01*
X10269533Y-17074507D02*
X10288581Y-17045936D01*
X10288581Y-17045936D02*
X10298105Y-17036412D01*
X10364771Y-17084031D02*
X10374295Y-17074507D01*
X10374295Y-17074507D02*
X10393343Y-17064983D01*
X10393343Y-17064983D02*
X10440962Y-17064983D01*
X10440962Y-17064983D02*
X10460010Y-17074507D01*
X10460010Y-17074507D02*
X10469533Y-17084031D01*
X10469533Y-17084031D02*
X10479057Y-17103078D01*
X10479057Y-17103078D02*
X10479057Y-17122126D01*
X10479057Y-17122126D02*
X10469533Y-17150697D01*
X10469533Y-17150697D02*
X10355248Y-17264983D01*
X10355248Y-17264983D02*
X10479057Y-17264983D01*
X10650486Y-17064983D02*
X10612390Y-17064983D01*
X10612390Y-17064983D02*
X10593343Y-17074507D01*
X10593343Y-17074507D02*
X10583819Y-17084031D01*
X10583819Y-17084031D02*
X10564771Y-17112602D01*
X10564771Y-17112602D02*
X10555248Y-17150697D01*
X10555248Y-17150697D02*
X10555248Y-17226888D01*
X10555248Y-17226888D02*
X10564771Y-17245936D01*
X10564771Y-17245936D02*
X10574295Y-17255459D01*
X10574295Y-17255459D02*
X10593343Y-17264983D01*
X10593343Y-17264983D02*
X10631438Y-17264983D01*
X10631438Y-17264983D02*
X10650486Y-17255459D01*
X10650486Y-17255459D02*
X10660010Y-17245936D01*
X10660010Y-17245936D02*
X10669533Y-17226888D01*
X10669533Y-17226888D02*
X10669533Y-17179269D01*
X10669533Y-17179269D02*
X10660010Y-17160221D01*
X10660010Y-17160221D02*
X10650486Y-17150697D01*
X10650486Y-17150697D02*
X10631438Y-17141174D01*
X10631438Y-17141174D02*
X10593343Y-17141174D01*
X10593343Y-17141174D02*
X10574295Y-17150697D01*
X10574295Y-17150697D02*
X10564771Y-17160221D01*
X10564771Y-17160221D02*
X10555248Y-17179269D01*
X10907629Y-17264983D02*
X10907629Y-17064983D01*
X10993343Y-17264983D02*
X10993343Y-17160221D01*
X10993343Y-17160221D02*
X10983819Y-17141174D01*
X10983819Y-17141174D02*
X10964772Y-17131650D01*
X10964772Y-17131650D02*
X10936200Y-17131650D01*
X10936200Y-17131650D02*
X10917152Y-17141174D01*
X10917152Y-17141174D02*
X10907629Y-17150697D01*
X11117152Y-17264983D02*
X11098105Y-17255459D01*
X11098105Y-17255459D02*
X11088581Y-17245936D01*
X11088581Y-17245936D02*
X11079057Y-17226888D01*
X11079057Y-17226888D02*
X11079057Y-17169745D01*
X11079057Y-17169745D02*
X11088581Y-17150697D01*
X11088581Y-17150697D02*
X11098105Y-17141174D01*
X11098105Y-17141174D02*
X11117152Y-17131650D01*
X11117152Y-17131650D02*
X11145724Y-17131650D01*
X11145724Y-17131650D02*
X11164772Y-17141174D01*
X11164772Y-17141174D02*
X11174295Y-17150697D01*
X11174295Y-17150697D02*
X11183819Y-17169745D01*
X11183819Y-17169745D02*
X11183819Y-17226888D01*
X11183819Y-17226888D02*
X11174295Y-17245936D01*
X11174295Y-17245936D02*
X11164772Y-17255459D01*
X11164772Y-17255459D02*
X11145724Y-17264983D01*
X11145724Y-17264983D02*
X11117152Y-17264983D01*
X11298105Y-17264983D02*
X11279057Y-17255459D01*
X11279057Y-17255459D02*
X11269533Y-17236412D01*
X11269533Y-17236412D02*
X11269533Y-17064983D01*
X11450486Y-17255459D02*
X11431438Y-17264983D01*
X11431438Y-17264983D02*
X11393343Y-17264983D01*
X11393343Y-17264983D02*
X11374295Y-17255459D01*
X11374295Y-17255459D02*
X11364771Y-17236412D01*
X11364771Y-17236412D02*
X11364771Y-17160221D01*
X11364771Y-17160221D02*
X11374295Y-17141174D01*
X11374295Y-17141174D02*
X11393343Y-17131650D01*
X11393343Y-17131650D02*
X11431438Y-17131650D01*
X11431438Y-17131650D02*
X11450486Y-17141174D01*
X11450486Y-17141174D02*
X11460010Y-17160221D01*
X11460010Y-17160221D02*
X11460010Y-17179269D01*
X11460010Y-17179269D02*
X11364771Y-17198317D01*
X11536200Y-17255459D02*
X11555248Y-17264983D01*
X11555248Y-17264983D02*
X11593343Y-17264983D01*
X11593343Y-17264983D02*
X11612391Y-17255459D01*
X11612391Y-17255459D02*
X11621914Y-17236412D01*
X11621914Y-17236412D02*
X11621914Y-17226888D01*
X11621914Y-17226888D02*
X11612391Y-17207840D01*
X11612391Y-17207840D02*
X11593343Y-17198317D01*
X11593343Y-17198317D02*
X11564771Y-17198317D01*
X11564771Y-17198317D02*
X11545724Y-17188793D01*
X11545724Y-17188793D02*
X11536200Y-17169745D01*
X11536200Y-17169745D02*
X11536200Y-17160221D01*
X11536200Y-17160221D02*
X11545724Y-17141174D01*
X11545724Y-17141174D02*
X11564771Y-17131650D01*
X11564771Y-17131650D02*
X11593343Y-17131650D01*
X11593343Y-17131650D02*
X11612391Y-17141174D01*
X11688581Y-17341174D02*
X11698105Y-17331650D01*
X11698105Y-17331650D02*
X11717152Y-17303078D01*
X11717152Y-17303078D02*
X11726676Y-17284031D01*
X11726676Y-17284031D02*
X11736200Y-17255459D01*
X11736200Y-17255459D02*
X11745724Y-17207840D01*
X11745724Y-17207840D02*
X11745724Y-17169745D01*
X11745724Y-17169745D02*
X11736200Y-17122126D01*
X11736200Y-17122126D02*
X11726676Y-17093555D01*
X11726676Y-17093555D02*
X11717152Y-17074507D01*
X11717152Y-17074507D02*
X11698105Y-17045936D01*
X11698105Y-17045936D02*
X11688581Y-17036412D01*
X12050486Y-17341174D02*
X12040962Y-17331650D01*
X12040962Y-17331650D02*
X12021914Y-17303078D01*
X12021914Y-17303078D02*
X12012391Y-17284031D01*
X12012391Y-17284031D02*
X12002867Y-17255459D01*
X12002867Y-17255459D02*
X11993343Y-17207840D01*
X11993343Y-17207840D02*
X11993343Y-17169745D01*
X11993343Y-17169745D02*
X12002867Y-17122126D01*
X12002867Y-17122126D02*
X12012391Y-17093555D01*
X12012391Y-17093555D02*
X12021914Y-17074507D01*
X12021914Y-17074507D02*
X12040962Y-17045936D01*
X12040962Y-17045936D02*
X12050486Y-17036412D01*
X12126676Y-17131650D02*
X12126676Y-17264983D01*
X12126676Y-17150697D02*
X12136200Y-17141174D01*
X12136200Y-17141174D02*
X12155248Y-17131650D01*
X12155248Y-17131650D02*
X12183819Y-17131650D01*
X12183819Y-17131650D02*
X12202867Y-17141174D01*
X12202867Y-17141174D02*
X12212391Y-17160221D01*
X12212391Y-17160221D02*
X12212391Y-17264983D01*
X12336200Y-17264983D02*
X12317152Y-17255459D01*
X12317152Y-17255459D02*
X12307629Y-17245936D01*
X12307629Y-17245936D02*
X12298105Y-17226888D01*
X12298105Y-17226888D02*
X12298105Y-17169745D01*
X12298105Y-17169745D02*
X12307629Y-17150697D01*
X12307629Y-17150697D02*
X12317152Y-17141174D01*
X12317152Y-17141174D02*
X12336200Y-17131650D01*
X12336200Y-17131650D02*
X12364772Y-17131650D01*
X12364772Y-17131650D02*
X12383819Y-17141174D01*
X12383819Y-17141174D02*
X12393343Y-17150697D01*
X12393343Y-17150697D02*
X12402867Y-17169745D01*
X12402867Y-17169745D02*
X12402867Y-17226888D01*
X12402867Y-17226888D02*
X12393343Y-17245936D01*
X12393343Y-17245936D02*
X12383819Y-17255459D01*
X12383819Y-17255459D02*
X12364772Y-17264983D01*
X12364772Y-17264983D02*
X12336200Y-17264983D01*
X12460010Y-17131650D02*
X12536200Y-17131650D01*
X12488581Y-17064983D02*
X12488581Y-17236412D01*
X12488581Y-17236412D02*
X12498105Y-17255459D01*
X12498105Y-17255459D02*
X12517152Y-17264983D01*
X12517152Y-17264983D02*
X12536200Y-17264983D01*
X12755248Y-17131650D02*
X12755248Y-17331650D01*
X12755248Y-17141174D02*
X12774295Y-17131650D01*
X12774295Y-17131650D02*
X12812391Y-17131650D01*
X12812391Y-17131650D02*
X12831438Y-17141174D01*
X12831438Y-17141174D02*
X12840962Y-17150697D01*
X12840962Y-17150697D02*
X12850486Y-17169745D01*
X12850486Y-17169745D02*
X12850486Y-17226888D01*
X12850486Y-17226888D02*
X12840962Y-17245936D01*
X12840962Y-17245936D02*
X12831438Y-17255459D01*
X12831438Y-17255459D02*
X12812391Y-17264983D01*
X12812391Y-17264983D02*
X12774295Y-17264983D01*
X12774295Y-17264983D02*
X12755248Y-17255459D01*
X12964772Y-17264983D02*
X12945724Y-17255459D01*
X12945724Y-17255459D02*
X12936200Y-17236412D01*
X12936200Y-17236412D02*
X12936200Y-17064983D01*
X13126676Y-17264983D02*
X13126676Y-17160221D01*
X13126676Y-17160221D02*
X13117153Y-17141174D01*
X13117153Y-17141174D02*
X13098105Y-17131650D01*
X13098105Y-17131650D02*
X13060010Y-17131650D01*
X13060010Y-17131650D02*
X13040962Y-17141174D01*
X13126676Y-17255459D02*
X13107629Y-17264983D01*
X13107629Y-17264983D02*
X13060010Y-17264983D01*
X13060010Y-17264983D02*
X13040962Y-17255459D01*
X13040962Y-17255459D02*
X13031438Y-17236412D01*
X13031438Y-17236412D02*
X13031438Y-17217364D01*
X13031438Y-17217364D02*
X13040962Y-17198317D01*
X13040962Y-17198317D02*
X13060010Y-17188793D01*
X13060010Y-17188793D02*
X13107629Y-17188793D01*
X13107629Y-17188793D02*
X13126676Y-17179269D01*
X13193343Y-17131650D02*
X13269533Y-17131650D01*
X13221914Y-17064983D02*
X13221914Y-17236412D01*
X13221914Y-17236412D02*
X13231438Y-17255459D01*
X13231438Y-17255459D02*
X13250486Y-17264983D01*
X13250486Y-17264983D02*
X13269533Y-17264983D01*
X13412391Y-17255459D02*
X13393343Y-17264983D01*
X13393343Y-17264983D02*
X13355248Y-17264983D01*
X13355248Y-17264983D02*
X13336200Y-17255459D01*
X13336200Y-17255459D02*
X13326676Y-17236412D01*
X13326676Y-17236412D02*
X13326676Y-17160221D01*
X13326676Y-17160221D02*
X13336200Y-17141174D01*
X13336200Y-17141174D02*
X13355248Y-17131650D01*
X13355248Y-17131650D02*
X13393343Y-17131650D01*
X13393343Y-17131650D02*
X13412391Y-17141174D01*
X13412391Y-17141174D02*
X13421914Y-17160221D01*
X13421914Y-17160221D02*
X13421914Y-17179269D01*
X13421914Y-17179269D02*
X13326676Y-17198317D01*
X13593343Y-17264983D02*
X13593343Y-17064983D01*
X13593343Y-17255459D02*
X13574295Y-17264983D01*
X13574295Y-17264983D02*
X13536200Y-17264983D01*
X13536200Y-17264983D02*
X13517153Y-17255459D01*
X13517153Y-17255459D02*
X13507629Y-17245936D01*
X13507629Y-17245936D02*
X13498105Y-17226888D01*
X13498105Y-17226888D02*
X13498105Y-17169745D01*
X13498105Y-17169745D02*
X13507629Y-17150697D01*
X13507629Y-17150697D02*
X13517153Y-17141174D01*
X13517153Y-17141174D02*
X13536200Y-17131650D01*
X13536200Y-17131650D02*
X13574295Y-17131650D01*
X13574295Y-17131650D02*
X13593343Y-17141174D01*
X13669534Y-17341174D02*
X13679057Y-17331650D01*
X13679057Y-17331650D02*
X13698105Y-17303078D01*
X13698105Y-17303078D02*
X13707629Y-17284031D01*
X13707629Y-17284031D02*
X13717153Y-17255459D01*
X13717153Y-17255459D02*
X13726676Y-17207840D01*
X13726676Y-17207840D02*
X13726676Y-17169745D01*
X13726676Y-17169745D02*
X13717153Y-17122126D01*
X13717153Y-17122126D02*
X13707629Y-17093555D01*
X13707629Y-17093555D02*
X13698105Y-17074507D01*
X13698105Y-17074507D02*
X13679057Y-17045936D01*
X13679057Y-17045936D02*
X13669534Y-17036412D01*
M02*
