%TF.GenerationSoftware,KiCad,Pcbnew,8.0.5*%
%TF.CreationDate,2024-09-08T16:16:33+10:00*%
%TF.ProjectId,akohekohe,616b6f68-656b-46f6-9865-2e6b69636164,0.1*%
%TF.SameCoordinates,Original*%
%TF.FileFunction,Legend,Top*%
%TF.FilePolarity,Positive*%
%FSLAX46Y46*%
G04 Gerber Fmt 4.6, Leading zero omitted, Abs format (unit mm)*
G04 Created by KiCad (PCBNEW 8.0.5) date 2024-09-08 16:16:33*
%MOMM*%
%LPD*%
G01*
G04 APERTURE LIST*
%ADD10C,0.200000*%
%ADD11C,0.100000*%
G04 APERTURE END LIST*
D10*
X158242191Y-121488223D02*
X158242191Y-120726319D01*
X158242191Y-118888223D02*
X158242191Y-118126319D01*
X158623144Y-118507271D02*
X157861239Y-118507271D01*
D11*
%TO.C,S24*%
X180382422Y-109540691D02*
X180011550Y-109690529D01*
X180011550Y-109690529D02*
X180217583Y-110200481D01*
X180011550Y-109690529D02*
X179805516Y-109180579D01*
X180011550Y-109690529D02*
X179605082Y-110286167D01*
X179605082Y-110286167D02*
X179305404Y-109544420D01*
X179455239Y-109915294D02*
X178991649Y-110102611D01*
X179305404Y-109544420D02*
X180011550Y-109690529D01*
%TO.C,S14*%
X232475842Y-114485916D02*
X232097636Y-114616137D01*
X232097636Y-114616137D02*
X232276698Y-115136173D01*
X232097636Y-114616137D02*
X231918573Y-114096102D01*
X232097636Y-114616137D02*
X231660542Y-115189685D01*
X231660542Y-115189685D02*
X231400105Y-114433271D01*
X231530325Y-114811478D02*
X231057565Y-114974270D01*
X231400105Y-114433271D02*
X232097636Y-114616137D01*
%TO.C,S8*%
X119951527Y-125853245D02*
X119580655Y-125703395D01*
X119580655Y-125703395D02*
X119786686Y-125193444D01*
X119580655Y-125703395D02*
X119374621Y-126213342D01*
X119580655Y-125703395D02*
X118874501Y-125849500D01*
X119174189Y-125107756D02*
X119580655Y-125703395D01*
X119024342Y-125478627D02*
X118560751Y-125291326D01*
X118874501Y-125849500D02*
X119174189Y-125107756D01*
%TO.C,S13*%
X247241822Y-110239435D02*
X246853697Y-110336190D01*
X246853697Y-110336190D02*
X246986754Y-110869852D01*
X246853697Y-110336190D02*
X246720640Y-109802527D01*
X246853697Y-110336190D02*
X246368285Y-110869456D01*
X246368285Y-110869456D02*
X246174749Y-110093229D01*
X246271520Y-110481342D02*
X245786369Y-110602310D01*
X246174749Y-110093229D02*
X246853697Y-110336190D01*
%TO.C,S19*%
X204770332Y-87149375D02*
X204399460Y-87299213D01*
X204399460Y-87299213D02*
X204605493Y-87809165D01*
X204399460Y-87299213D02*
X204193426Y-86789263D01*
X204399460Y-87299213D02*
X203992992Y-87894851D01*
X203992992Y-87894851D02*
X203693314Y-87153104D01*
X203843149Y-87523978D02*
X203379559Y-87711295D01*
X203693314Y-87153104D02*
X204399460Y-87299213D01*
%TO.C,S21*%
X197656984Y-110919962D02*
X197286112Y-111069800D01*
X197286112Y-111069800D02*
X197492145Y-111579752D01*
X197286112Y-111069800D02*
X197080078Y-110559850D01*
X197286112Y-111069800D02*
X196879644Y-111665438D01*
X196879644Y-111665438D02*
X196579966Y-110923691D01*
X196729801Y-111294565D02*
X196266211Y-111481882D01*
X196579966Y-110923691D02*
X197286112Y-111069800D01*
%TO.C,S22*%
X191850578Y-96548618D02*
X191479706Y-96698456D01*
X191479706Y-96698456D02*
X191685739Y-97208408D01*
X191479706Y-96698456D02*
X191273672Y-96188506D01*
X191479706Y-96698456D02*
X191073238Y-97294094D01*
X191073238Y-97294094D02*
X190773560Y-96552347D01*
X190923395Y-96923221D02*
X190459805Y-97110538D01*
X190773560Y-96552347D02*
X191479706Y-96698456D01*
%TO.C,S12*%
X143032482Y-110102604D02*
X142661610Y-109952754D01*
X142661610Y-109952754D02*
X142867641Y-109442803D01*
X142661610Y-109952754D02*
X142455576Y-110462701D01*
X142661610Y-109952754D02*
X141955456Y-110098859D01*
X142255144Y-109357115D02*
X142661610Y-109952754D01*
X142105297Y-109727986D02*
X141641706Y-109540685D01*
X141955456Y-110098859D02*
X142255144Y-109357115D01*
%TO.C,S2*%
X90966601Y-114974281D02*
X90588394Y-114844042D01*
X90588394Y-114844042D02*
X90767455Y-114324014D01*
X90588394Y-114844042D02*
X90409332Y-115364077D01*
X90588394Y-114844042D02*
X89890856Y-115026909D01*
X90151307Y-114270499D02*
X90588394Y-114844042D01*
X90021082Y-114648702D02*
X89548323Y-114485921D01*
X89890856Y-115026909D02*
X90151307Y-114270499D01*
%TO.C,S7*%
X118644587Y-87711283D02*
X118273715Y-87561433D01*
X118273715Y-87561433D02*
X118479746Y-87051482D01*
X118273715Y-87561433D02*
X118067681Y-88071380D01*
X118273715Y-87561433D02*
X117567561Y-87707538D01*
X117867249Y-86965794D02*
X118273715Y-87561433D01*
X117717402Y-87336665D02*
X117253811Y-87149364D01*
X117567561Y-87707538D02*
X117867249Y-86965794D01*
%TO.C,S26*%
X191100972Y-149441627D02*
X190781517Y-149682352D01*
X190781517Y-149682352D02*
X191112515Y-150121601D01*
X190781517Y-149682352D02*
X190543062Y-150362895D01*
X190781517Y-149682352D02*
X190450519Y-149243102D01*
X190543062Y-150362895D02*
X190061610Y-149723986D01*
X190302336Y-150043443D02*
X189903019Y-150344354D01*
X190061610Y-149723986D02*
X190781517Y-149682352D01*
%TO.C,S5*%
X107031802Y-116453993D02*
X106660930Y-116304143D01*
X106660930Y-116304143D02*
X106866961Y-115794192D01*
X106660930Y-116304143D02*
X106454896Y-116814090D01*
X106660930Y-116304143D02*
X105954776Y-116450248D01*
X106254464Y-115708504D02*
X106660930Y-116304143D01*
X106104617Y-116079375D02*
X105641026Y-115892074D01*
X105954776Y-116450248D02*
X106254464Y-115708504D01*
%TO.C,S17*%
X216383138Y-115892066D02*
X216012266Y-116041904D01*
X216012266Y-116041904D02*
X216218299Y-116551856D01*
X216012266Y-116041904D02*
X215806232Y-115531954D01*
X216012266Y-116041904D02*
X215605798Y-116637542D01*
X215605798Y-116637542D02*
X215306120Y-115895795D01*
X215455955Y-116266669D02*
X214992365Y-116453986D01*
X215306120Y-115895795D02*
X216012266Y-116041904D01*
%TO.C,S16*%
X222383231Y-85174849D02*
X222005025Y-85305070D01*
X222005025Y-85305070D02*
X222184087Y-85825106D01*
X222005025Y-85305070D02*
X221825962Y-84785035D01*
X222005025Y-85305070D02*
X221567931Y-85878618D01*
X221567931Y-85878618D02*
X221307494Y-85122204D01*
X221437714Y-85500411D02*
X220964954Y-85663203D01*
X221307494Y-85122204D02*
X222005025Y-85305070D01*
%TO.C,S25*%
X132121140Y-150344347D02*
X131801687Y-150103618D01*
X131801687Y-150103618D02*
X132132683Y-149664371D01*
X131801687Y-150103618D02*
X131470689Y-150542868D01*
X131801687Y-150103618D02*
X131081780Y-150061983D01*
X131563247Y-149423077D02*
X131801687Y-150103618D01*
X131322510Y-149742542D02*
X130923187Y-149441623D01*
X131081780Y-150061983D02*
X131563247Y-149423077D01*
%TO.C,S3*%
X96012902Y-100318743D02*
X95634695Y-100188504D01*
X95634695Y-100188504D02*
X95813756Y-99668476D01*
X95634695Y-100188504D02*
X95455633Y-100708539D01*
X95634695Y-100188504D02*
X94937157Y-100371371D01*
X95197608Y-99614961D02*
X95634695Y-100188504D01*
X95067383Y-99993164D02*
X94594624Y-99830383D01*
X94937157Y-100371371D02*
X95197608Y-99614961D01*
%TO.C,S15*%
X227429535Y-99830378D02*
X227051329Y-99960599D01*
X227051329Y-99960599D02*
X227230391Y-100480635D01*
X227051329Y-99960599D02*
X226872266Y-99440564D01*
X227051329Y-99960599D02*
X226614235Y-100534147D01*
X226614235Y-100534147D02*
X226353798Y-99777733D01*
X226484018Y-100155940D02*
X226011258Y-100318732D01*
X226353798Y-99777733D02*
X227051329Y-99960599D01*
%TO.C,S20*%
X203463382Y-125291306D02*
X203092510Y-125441144D01*
X203092510Y-125441144D02*
X203298543Y-125951096D01*
X203092510Y-125441144D02*
X202886476Y-124931194D01*
X203092510Y-125441144D02*
X202686042Y-126036782D01*
X202686042Y-126036782D02*
X202386364Y-125295035D01*
X202536199Y-125665909D02*
X202072609Y-125853226D01*
X202386364Y-125295035D02*
X203092510Y-125441144D01*
%TO.C,S18*%
X210576746Y-101520733D02*
X210205874Y-101670571D01*
X210205874Y-101670571D02*
X210411907Y-102180523D01*
X210205874Y-101670571D02*
X209999840Y-101160621D01*
X210205874Y-101670571D02*
X209799406Y-102266209D01*
X209799406Y-102266209D02*
X209499728Y-101524462D01*
X209649563Y-101895336D02*
X209185973Y-102082653D01*
X209499728Y-101524462D02*
X210205874Y-101670571D01*
%TO.C,S9*%
X125757941Y-111481882D02*
X125387069Y-111332032D01*
X125387069Y-111332032D02*
X125593100Y-110822081D01*
X125387069Y-111332032D02*
X125181035Y-111841979D01*
X125387069Y-111332032D02*
X124680915Y-111478137D01*
X124980603Y-110736393D02*
X125387069Y-111332032D01*
X124830756Y-111107264D02*
X124367165Y-110919963D01*
X124680915Y-111478137D02*
X124980603Y-110736393D01*
%TO.C,S6*%
X112838179Y-102082632D02*
X112467307Y-101932782D01*
X112467307Y-101932782D02*
X112673338Y-101422831D01*
X112467307Y-101932782D02*
X112261273Y-102442729D01*
X112467307Y-101932782D02*
X111761153Y-102078887D01*
X112060841Y-101337143D02*
X112467307Y-101932782D01*
X111910994Y-101708014D02*
X111447403Y-101520713D01*
X111761153Y-102078887D02*
X112060841Y-101337143D01*
%TO.C,S23*%
X186188823Y-123912038D02*
X185817951Y-124061876D01*
X185817951Y-124061876D02*
X186023984Y-124571828D01*
X185817951Y-124061876D02*
X185611917Y-123551926D01*
X185817951Y-124061876D02*
X185411483Y-124657514D01*
X185411483Y-124657514D02*
X185111805Y-123915767D01*
X185261640Y-124286641D02*
X184798050Y-124473958D01*
X185111805Y-123915767D02*
X185817951Y-124061876D01*
%TO.C,S10*%
X131564337Y-97110518D02*
X131193465Y-96960668D01*
X131193465Y-96960668D02*
X131399496Y-96450717D01*
X131193465Y-96960668D02*
X130987431Y-97470615D01*
X131193465Y-96960668D02*
X130487311Y-97106773D01*
X130786999Y-96365029D02*
X131193465Y-96960668D01*
X130637152Y-96735900D02*
X130173561Y-96548599D01*
X130487311Y-97106773D02*
X130786999Y-96365029D01*
%TO.C,S1*%
X76237789Y-110602296D02*
X75849665Y-110505519D01*
X75849665Y-110505519D02*
X75982722Y-109971863D01*
X75849665Y-110505519D02*
X75716608Y-111039181D01*
X75849665Y-110505519D02*
X75170716Y-110748483D01*
X75364253Y-109972258D02*
X75849665Y-110505519D01*
X75267487Y-110360365D02*
X74782344Y-110239412D01*
X75170716Y-110748483D02*
X75364253Y-109972258D01*
%TO.C,S11*%
X137226090Y-124473963D02*
X136855218Y-124324113D01*
X136855218Y-124324113D02*
X137061249Y-123814162D01*
X136855218Y-124324113D02*
X136649184Y-124834060D01*
X136855218Y-124324113D02*
X136149064Y-124470218D01*
X136448752Y-123728474D02*
X136855218Y-124324113D01*
X136298905Y-124099345D02*
X135835314Y-123912044D01*
X136149064Y-124470218D02*
X136448752Y-123728474D01*
%TO.C,S4*%
X101059205Y-85663199D02*
X100680998Y-85532960D01*
X100680998Y-85532960D02*
X100860059Y-85012932D01*
X100680998Y-85532960D02*
X100501936Y-86052995D01*
X100680998Y-85532960D02*
X99983460Y-85715827D01*
X100243911Y-84959417D02*
X100680998Y-85532960D01*
X100113686Y-85337620D02*
X99640927Y-85174839D01*
X99983460Y-85715827D02*
X100243911Y-84959417D01*
%TD*%
M02*
