M48
; DRILL file {KiCad 8.0.5} date 2024-09-08T16:42:37+1000
; FORMAT={-:-/ absolute / inch / decimal}
; #@! TF.CreationDate,2024-09-08T16:42:37+10:00
; #@! TF.GenerationSoftware,Kicad,Pcbnew,8.0.5
; #@! TF.FileFunction,NonPlated,1,2,NPTH
FMAT,2
INCH
; #@! TA.AperFunction,NonPlated,NPTH,ComponentDrill
T1C0.0670
; #@! TA.AperFunction,NonPlated,NPTH,ComponentDrill
T2C0.0866
; #@! TA.AperFunction,NonPlated,NPTH,ComponentDrill
T3C0.1350
%
G90
G05
T1
X2.809Y-4.1157
X3.2292Y-4.2205
X3.4104Y-4.2718
X3.6091Y-3.6948
X3.8078Y-3.1178
X3.8199Y-4.4128
X4.0186Y-3.8358
X4.0565Y-4.3214
X4.2173Y-3.2588
X4.2851Y-3.7556
X4.458Y-4.4836
X4.5137Y-3.1898
X4.5652Y-4.6914
X4.6866Y-3.9178
X4.7938Y-4.1256
X4.9152Y-3.352
X4.9667Y-4.8537
X5.0224Y-3.5598
X5.1179Y-5.6235
X5.1953Y-4.2879
X5.2453Y-4.6371
X5.4239Y-3.7221
X5.4638Y-5.8842
X5.4739Y-4.0713
X5.6468Y-4.7994
X5.8754Y-4.2336
X6.8057Y-4.2336
X7.0343Y-4.7994
X7.2072Y-4.0713
X7.2173Y-5.8842
X7.2572Y-3.7221
X7.4358Y-4.6371
X7.4858Y-4.2879
X7.5631Y-5.6235
X7.6587Y-3.5598
X7.7144Y-4.8537
X7.7658Y-3.352
X7.8873Y-4.1256
X7.9944Y-3.9178
X8.1159Y-4.6914
X8.1674Y-3.1898
X8.223Y-4.4836
X8.396Y-3.7556
X8.4638Y-3.2588
X8.6246Y-4.3214
X8.6625Y-3.8358
X8.8612Y-4.4128
X8.8733Y-3.1178
X9.072Y-3.6948
X9.2707Y-4.2718
X9.4519Y-4.2205
X9.8721Y-4.1157
T2
X5.1395Y-5.0827
X7.5415Y-5.0827
T3
X3.0191Y-4.1681
X3.6152Y-4.3423
X3.8138Y-3.7653
X4.0125Y-3.1883
X4.2573Y-4.4025
X4.4859Y-3.8367
X4.7145Y-3.2709
X4.7659Y-4.7726
X4.9945Y-4.2068
X5.2231Y-3.641
X5.2909Y-5.7539
X5.446Y-4.7183
X5.6746Y-4.1525
X7.0065Y-4.1525
X7.2351Y-4.7183
X7.3902Y-5.7539
X7.458Y-3.641
X7.6866Y-4.2068
X7.9152Y-4.7726
X7.9666Y-3.2709
X8.1952Y-3.8367
X8.4238Y-4.4025
X8.6686Y-3.1883
X8.8672Y-3.7653
X9.0659Y-4.3423
X9.662Y-4.1681
M30
