%TF.GenerationSoftware,KiCad,Pcbnew,8.0.5*%
%TF.CreationDate,2024-09-08T16:42:39+10:00*%
%TF.ProjectId,akohekohe_min_choc,616b6f68-656b-46f6-9865-5f6d696e5f63,0.1*%
%TF.SameCoordinates,Original*%
%TF.FileFunction,Legend,Top*%
%TF.FilePolarity,Positive*%
%FSLAX46Y46*%
G04 Gerber Fmt 4.6, Leading zero omitted, Abs format (unit mm)*
G04 Created by KiCad (PCBNEW 8.0.5) date 2024-09-08 16:42:39*
%MOMM*%
%LPD*%
G01*
G04 APERTURE LIST*
%ADD10C,0.200000*%
%ADD11C,0.100000*%
G04 APERTURE END LIST*
D10*
X158279919Y-118896795D02*
X158279919Y-118134891D01*
X158660872Y-118515843D02*
X157898967Y-118515843D01*
X158279919Y-121496795D02*
X158279919Y-120734891D01*
D11*
%TO.C,S24*%
X179343132Y-109552999D02*
X180049278Y-109699108D01*
X179492967Y-109923873D02*
X179029378Y-110111189D01*
X179642810Y-110294746D02*
X179343132Y-109552999D01*
X180049278Y-109699108D02*
X179642810Y-110294746D01*
X180049278Y-109699108D02*
X179843244Y-109189158D01*
X180049278Y-109699108D02*
X180255311Y-110209060D01*
X180420149Y-109549270D02*
X180049278Y-109699108D01*
%TO.C,S14*%
X231437837Y-114441849D02*
X232135369Y-114624715D01*
X231568057Y-114820056D02*
X231095297Y-114982848D01*
X231698274Y-115198263D02*
X231437837Y-114441849D01*
X232135369Y-114624715D02*
X231698274Y-115198263D01*
X232135369Y-114624715D02*
X231956305Y-114104680D01*
X232135369Y-114624715D02*
X232314430Y-115144751D01*
X232513573Y-114494494D02*
X232135369Y-114624715D01*
%TO.C,S8*%
X118912228Y-125858079D02*
X119211917Y-125116335D01*
X119062069Y-125487206D02*
X118598479Y-125299906D01*
X119211917Y-125116335D02*
X119618382Y-125711974D01*
X119618382Y-125711974D02*
X118912228Y-125858079D01*
X119618382Y-125711974D02*
X119412348Y-126221921D01*
X119618382Y-125711974D02*
X119824414Y-125202024D01*
X119989253Y-125861825D02*
X119618382Y-125711974D01*
%TO.C,S13*%
X246212480Y-110101810D02*
X246891429Y-110344771D01*
X246309251Y-110489923D02*
X245824101Y-110610891D01*
X246406017Y-110878037D02*
X246212480Y-110101810D01*
X246891429Y-110344771D02*
X246406017Y-110878037D01*
X246891429Y-110344771D02*
X246758371Y-109811108D01*
X246891429Y-110344771D02*
X247024485Y-110878433D01*
X247279552Y-110248016D02*
X246891429Y-110344771D01*
%TO.C,S19*%
X203731047Y-87161684D02*
X204437193Y-87307793D01*
X203880882Y-87532558D02*
X203417293Y-87719874D01*
X204030725Y-87903431D02*
X203731047Y-87161684D01*
X204437193Y-87307793D02*
X204030725Y-87903431D01*
X204437193Y-87307793D02*
X204231159Y-86797843D01*
X204437193Y-87307793D02*
X204643226Y-87817745D01*
X204808064Y-87157955D02*
X204437193Y-87307793D01*
%TO.C,S21*%
X196617693Y-110932270D02*
X197323839Y-111078379D01*
X196767528Y-111303144D02*
X196303939Y-111490460D01*
X196917371Y-111674017D02*
X196617693Y-110932270D01*
X197323839Y-111078379D02*
X196917371Y-111674017D01*
X197323839Y-111078379D02*
X197117805Y-110568429D01*
X197323839Y-111078379D02*
X197529872Y-111588331D01*
X197694710Y-110928541D02*
X197323839Y-111078379D01*
%TO.C,S22*%
X190811281Y-96560930D02*
X191517427Y-96707039D01*
X190961116Y-96931804D02*
X190497527Y-97119120D01*
X191110959Y-97302677D02*
X190811281Y-96560930D01*
X191517427Y-96707039D02*
X191110959Y-97302677D01*
X191517427Y-96707039D02*
X191311393Y-96197089D01*
X191517427Y-96707039D02*
X191723460Y-97216991D01*
X191888298Y-96557201D02*
X191517427Y-96707039D01*
%TO.C,S12*%
X141993181Y-110107436D02*
X142292870Y-109365692D01*
X142143022Y-109736563D02*
X141679432Y-109549263D01*
X142292870Y-109365692D02*
X142699335Y-109961331D01*
X142699335Y-109961331D02*
X141993181Y-110107436D01*
X142699335Y-109961331D02*
X142493301Y-110471278D01*
X142699335Y-109961331D02*
X142905367Y-109451381D01*
X143070206Y-110111182D02*
X142699335Y-109961331D01*
%TO.C,S2*%
X89928585Y-115035489D02*
X90189037Y-114279080D01*
X90058810Y-114657282D02*
X89586052Y-114494502D01*
X90189037Y-114279080D02*
X90626123Y-114852622D01*
X90626123Y-114852622D02*
X89928585Y-115035489D01*
X90626123Y-114852622D02*
X90447061Y-115372657D01*
X90626123Y-114852622D02*
X90805184Y-114332594D01*
X91004330Y-114982862D02*
X90626123Y-114852622D01*
%TO.C,S7*%
X117605287Y-87716118D02*
X117904976Y-86974374D01*
X117755128Y-87345245D02*
X117291538Y-87157945D01*
X117904976Y-86974374D02*
X118311441Y-87570013D01*
X118311441Y-87570013D02*
X117605287Y-87716118D01*
X118311441Y-87570013D02*
X118105407Y-88079960D01*
X118311441Y-87570013D02*
X118517473Y-87060063D01*
X118682312Y-87719864D02*
X118311441Y-87570013D01*
%TO.C,S26*%
X190099334Y-149732566D02*
X190819241Y-149690932D01*
X190340060Y-150052023D02*
X189940743Y-150352936D01*
X190580786Y-150371475D02*
X190099334Y-149732566D01*
X190819241Y-149690932D02*
X190488243Y-149251682D01*
X190819241Y-149690932D02*
X190580786Y-150371475D01*
X190819241Y-149690932D02*
X191150239Y-150130181D01*
X191138696Y-149450207D02*
X190819241Y-149690932D01*
%TO.C,S5*%
X105992505Y-116458831D02*
X106292194Y-115717087D01*
X106142346Y-116087958D02*
X105678756Y-115900658D01*
X106292194Y-115717087D02*
X106698659Y-116312726D01*
X106698659Y-116312726D02*
X105992505Y-116458831D01*
X106698659Y-116312726D02*
X106492625Y-116822673D01*
X106698659Y-116312726D02*
X106904691Y-115802776D01*
X107069530Y-116462577D02*
X106698659Y-116312726D01*
%TO.C,S17*%
X215343847Y-115904374D02*
X216049993Y-116050483D01*
X215493682Y-116275248D02*
X215030093Y-116462564D01*
X215643525Y-116646121D02*
X215343847Y-115904374D01*
X216049993Y-116050483D02*
X215643525Y-116646121D01*
X216049993Y-116050483D02*
X215843959Y-115540533D01*
X216049993Y-116050483D02*
X216256026Y-116560435D01*
X216420864Y-115900645D02*
X216049993Y-116050483D01*
%TO.C,S16*%
X221345219Y-85130782D02*
X222042751Y-85313648D01*
X221475439Y-85508989D02*
X221002679Y-85671781D01*
X221605656Y-85887196D02*
X221345219Y-85130782D01*
X222042751Y-85313648D02*
X221605656Y-85887196D01*
X222042751Y-85313648D02*
X221863687Y-84793613D01*
X222042751Y-85313648D02*
X222221812Y-85833684D01*
X222420955Y-85183427D02*
X222042751Y-85313648D01*
%TO.C,S25*%
X131119508Y-150070564D02*
X131600976Y-149431659D01*
X131360237Y-149751124D02*
X130960915Y-149450204D01*
X131600976Y-149431659D02*
X131839415Y-150112199D01*
X131839415Y-150112199D02*
X131119508Y-150070564D01*
X131839415Y-150112199D02*
X131508417Y-150551449D01*
X131839415Y-150112199D02*
X132170411Y-149672952D01*
X132158868Y-150352930D02*
X131839415Y-150112199D01*
%TO.C,S3*%
X94974886Y-100379945D02*
X95235338Y-99623536D01*
X95105111Y-100001738D02*
X94632353Y-99838958D01*
X95235338Y-99623536D02*
X95672424Y-100197078D01*
X95672424Y-100197078D02*
X94974886Y-100379945D01*
X95672424Y-100197078D02*
X95493362Y-100717113D01*
X95672424Y-100197078D02*
X95851485Y-99677050D01*
X96050631Y-100327318D02*
X95672424Y-100197078D01*
%TO.C,S15*%
X226391524Y-99786307D02*
X227089056Y-99969173D01*
X226521744Y-100164514D02*
X226048984Y-100327306D01*
X226651961Y-100542721D02*
X226391524Y-99786307D01*
X227089056Y-99969173D02*
X226651961Y-100542721D01*
X227089056Y-99969173D02*
X226909992Y-99449138D01*
X227089056Y-99969173D02*
X227268117Y-100489209D01*
X227467260Y-99838952D02*
X227089056Y-99969173D01*
%TO.C,S20*%
X202424094Y-125303618D02*
X203130240Y-125449727D01*
X202573929Y-125674492D02*
X202110340Y-125861808D01*
X202723772Y-126045365D02*
X202424094Y-125303618D01*
X203130240Y-125449727D02*
X202723772Y-126045365D01*
X203130240Y-125449727D02*
X202924206Y-124939777D01*
X203130240Y-125449727D02*
X203336273Y-125959679D01*
X203501111Y-125299889D02*
X203130240Y-125449727D01*
%TO.C,S18*%
X209537458Y-101533039D02*
X210243604Y-101679148D01*
X209687293Y-101903913D02*
X209223704Y-102091229D01*
X209837136Y-102274786D02*
X209537458Y-101533039D01*
X210243604Y-101679148D02*
X209837136Y-102274786D01*
X210243604Y-101679148D02*
X210037570Y-101169198D01*
X210243604Y-101679148D02*
X210449637Y-102189100D01*
X210614475Y-101529310D02*
X210243604Y-101679148D01*
%TO.C,S9*%
X124718644Y-111486712D02*
X125018333Y-110744968D01*
X124868485Y-111115839D02*
X124404895Y-110928539D01*
X125018333Y-110744968D02*
X125424798Y-111340607D01*
X125424798Y-111340607D02*
X124718644Y-111486712D01*
X125424798Y-111340607D02*
X125218764Y-111850554D01*
X125424798Y-111340607D02*
X125630830Y-110830657D01*
X125795669Y-111490458D02*
X125424798Y-111340607D01*
%TO.C,S6*%
X111798883Y-102087470D02*
X112098572Y-101345726D01*
X111948724Y-101716597D02*
X111485134Y-101529297D01*
X112098572Y-101345726D02*
X112505037Y-101941365D01*
X112505037Y-101941365D02*
X111798883Y-102087470D01*
X112505037Y-101941365D02*
X112299003Y-102451312D01*
X112505037Y-101941365D02*
X112711069Y-101431415D01*
X112875908Y-102091216D02*
X112505037Y-101941365D01*
%TO.C,S23*%
X185149531Y-123924342D02*
X185855677Y-124070451D01*
X185299366Y-124295216D02*
X184835777Y-124482532D01*
X185449209Y-124666089D02*
X185149531Y-123924342D01*
X185855677Y-124070451D02*
X185449209Y-124666089D01*
X185855677Y-124070451D02*
X185649643Y-123560501D01*
X185855677Y-124070451D02*
X186061710Y-124580403D01*
X186226548Y-123920613D02*
X185855677Y-124070451D01*
%TO.C,S10*%
X130525040Y-97115350D02*
X130824729Y-96373606D01*
X130674881Y-96744477D02*
X130211291Y-96557177D01*
X130824729Y-96373606D02*
X131231194Y-96969245D01*
X131231194Y-96969245D02*
X130525040Y-97115350D01*
X131231194Y-96969245D02*
X131025160Y-97479192D01*
X131231194Y-96969245D02*
X131437226Y-96459295D01*
X131602065Y-97119096D02*
X131231194Y-96969245D01*
%TO.C,S1*%
X75208446Y-110757066D02*
X75401984Y-109980841D01*
X75305218Y-110368949D02*
X74820075Y-110247996D01*
X75401984Y-109980841D02*
X75887396Y-110514102D01*
X75887396Y-110514102D02*
X75208446Y-110757066D01*
X75887396Y-110514102D02*
X75754339Y-111047764D01*
X75887396Y-110514102D02*
X76020453Y-109980446D01*
X76275520Y-110610879D02*
X75887396Y-110514102D01*
%TO.C,S11*%
X136186796Y-124478803D02*
X136486485Y-123737059D01*
X136336637Y-124107930D02*
X135873047Y-123920630D01*
X136486485Y-123737059D02*
X136892950Y-124332698D01*
X136892950Y-124332698D02*
X136186796Y-124478803D01*
X136892950Y-124332698D02*
X136686916Y-124842645D01*
X136892950Y-124332698D02*
X137098982Y-123822748D01*
X137263821Y-124482549D02*
X136892950Y-124332698D01*
%TO.C,S4*%
X100021181Y-85724410D02*
X100281633Y-84968001D01*
X100151406Y-85346203D02*
X99678648Y-85183423D01*
X100281633Y-84968001D02*
X100718719Y-85541543D01*
X100718719Y-85541543D02*
X100021181Y-85724410D01*
X100718719Y-85541543D02*
X100539657Y-86061578D01*
X100718719Y-85541543D02*
X100897780Y-85021515D01*
X101096926Y-85671783D02*
X100718719Y-85541543D01*
%TD*%
M02*
