%TF.GenerationSoftware,KiCad,Pcbnew,8.0.5*%
%TF.CreationDate,2024-09-08T16:42:39+10:00*%
%TF.ProjectId,akohekohe_min_choc,616b6f68-656b-46f6-9865-5f6d696e5f63,0.1*%
%TF.SameCoordinates,Original*%
%TF.FileFunction,Soldermask,Top*%
%TF.FilePolarity,Negative*%
%FSLAX46Y46*%
G04 Gerber Fmt 4.6, Leading zero omitted, Abs format (unit mm)*
G04 Created by KiCad (PCBNEW 8.0.5) date 2024-09-08 16:42:39*
%MOMM*%
%LPD*%
G01*
G04 APERTURE LIST*
G04 Aperture macros list*
%AMRoundRect*
0 Rectangle with rounded corners*
0 $1 Rounding radius*
0 $2 $3 $4 $5 $6 $7 $8 $9 X,Y pos of 4 corners*
0 Add a 4 corners polygon primitive as box body*
4,1,4,$2,$3,$4,$5,$6,$7,$8,$9,$2,$3,0*
0 Add four circle primitives for the rounded corners*
1,1,$1+$1,$2,$3*
1,1,$1+$1,$4,$5*
1,1,$1+$1,$6,$7*
1,1,$1+$1,$8,$9*
0 Add four rect primitives between the rounded corners*
20,1,$1+$1,$2,$3,$4,$5,0*
20,1,$1+$1,$4,$5,$6,$7,0*
20,1,$1+$1,$6,$7,$8,$9,0*
20,1,$1+$1,$8,$9,$2,$3,0*%
G04 Aperture macros list end*
%ADD10C,0.100000*%
%ADD11C,1.801800*%
%ADD12RoundRect,0.050000X0.154075X1.086858X-0.865827X0.674791X-0.154075X-1.086858X0.865827X-0.674791X0*%
%ADD13C,2.132000*%
%ADD14C,3.529000*%
%ADD15RoundRect,0.050000X0.210745X1.077305X-0.829325X0.719180X-0.210745X-1.077305X0.829325X-0.719180X0*%
%ADD16RoundRect,0.050000X0.865827X0.674791X-0.154075X1.086858X-0.865827X-0.674791X0.154075X-1.086858X0*%
%ADD17RoundRect,0.050000X0.303837X1.054838X-0.763488X0.788724X-0.303837X-1.054838X0.763488X-0.788724X0*%
%ADD18RoundRect,0.050000X0.829325X0.719180X-0.210745X1.077305X-0.829325X-0.719180X0.210745X-1.077305X0*%
%ADD19RoundRect,0.050000X-0.132475X1.089702X-1.010974X0.427705X0.132475X-1.089702X1.010974X-0.427705X0*%
%ADD20C,2.300000*%
%ADD21C,1.852600*%
%ADD22O,2.850000X1.900000*%
%ADD23RoundRect,0.050000X1.010974X0.427705X0.132475X1.089702X-1.010974X-0.427705X-0.132475X-1.089702X0*%
%ADD24O,1.600000X1.600000*%
%ADD25RoundRect,0.050000X0.763488X0.788724X-0.303837X1.054838X-0.763488X-0.788724X0.303837X-1.054838X0*%
G04 APERTURE END LIST*
D10*
%TO.C,BT1*%
X156922647Y-120415853D02*
X156922651Y-121815855D01*
X154922655Y-121815865D01*
X154922653Y-120415838D01*
X156922647Y-120415853D01*
G36*
X156922647Y-120415853D02*
G01*
X156922651Y-121815855D01*
X154922655Y-121815865D01*
X154922653Y-120415838D01*
X156922647Y-120415853D01*
G37*
X156922652Y-119214400D02*
X154922654Y-119214400D01*
X154922653Y-117814402D01*
X156922653Y-117814402D01*
X156922652Y-119214400D01*
G36*
X156922652Y-119214400D02*
G01*
X154922654Y-119214400D01*
X154922653Y-117814402D01*
X156922653Y-117814402D01*
X156922652Y-119214400D01*
G37*
%TD*%
D11*
%TO.C,S24*%
X172864601Y-107532793D03*
D12*
X178194910Y-110448322D03*
D13*
X175753933Y-100002072D03*
D14*
X177964112Y-105472457D03*
D11*
X183063623Y-103412121D03*
D13*
X181176523Y-100076121D03*
D12*
X181254610Y-109212116D03*
%TD*%
D11*
%TO.C,S14*%
X225073914Y-112085354D03*
D15*
X230244331Y-115275852D03*
D13*
X228353414Y-104716167D03*
D14*
X230274266Y-110294727D03*
D11*
X235474618Y-108504100D03*
D13*
X233764697Y-105073911D03*
D15*
X233364542Y-114201477D03*
%TD*%
D11*
%TO.C,S8*%
X115955007Y-119162757D03*
D16*
X117764020Y-124962752D03*
D13*
X123264697Y-115752708D03*
D14*
X121054518Y-121223093D03*
D11*
X126154029Y-123283429D03*
D13*
X127113944Y-119572823D03*
D16*
X120823720Y-126198958D03*
%TD*%
D11*
%TO.C,S13*%
X240078166Y-107199623D03*
D17*
X244950833Y-110828628D03*
D13*
X243987453Y-100144308D03*
D14*
X245414792Y-105869053D03*
D11*
X250751418Y-104538483D03*
D13*
X249346965Y-100972316D03*
D17*
X248152809Y-110030268D03*
%TD*%
D11*
%TO.C,S19*%
X197252516Y-85141478D03*
D12*
X202582825Y-88057007D03*
D13*
X200141848Y-77610757D03*
D14*
X202352027Y-83081142D03*
D11*
X207451538Y-81020806D03*
D13*
X205564438Y-77684806D03*
D12*
X205642525Y-86820801D03*
%TD*%
D11*
%TO.C,S21*%
X190139162Y-108912064D03*
D12*
X195469471Y-111827593D03*
D13*
X193028494Y-101381343D03*
D14*
X195238673Y-106851728D03*
D11*
X200338184Y-104791392D03*
D13*
X198451084Y-101455392D03*
D12*
X198529171Y-110591387D03*
%TD*%
D11*
%TO.C,S22*%
X184332750Y-94540724D03*
D12*
X189663059Y-97456253D03*
D13*
X187222082Y-87010003D03*
D14*
X189432261Y-92480388D03*
D11*
X194531772Y-90420052D03*
D13*
X192644672Y-87084052D03*
D12*
X192722759Y-96220047D03*
%TD*%
D11*
%TO.C,S12*%
X139035960Y-103412114D03*
D16*
X140844973Y-109212109D03*
D13*
X146345650Y-100002065D03*
D14*
X144135471Y-105472450D03*
D11*
X149234982Y-107532786D03*
D13*
X150194897Y-103822180D03*
D16*
X143904673Y-110448315D03*
%TD*%
D11*
%TO.C,S2*%
X86625021Y-108504106D03*
D18*
X88735086Y-114201486D03*
D13*
X93746214Y-104716176D03*
D14*
X91825362Y-110294736D03*
D11*
X97025703Y-112085366D03*
D13*
X97790115Y-108329602D03*
D18*
X91855297Y-115275861D03*
%TD*%
D11*
%TO.C,S7*%
X114648066Y-81020796D03*
D16*
X116457079Y-86820791D03*
D13*
X121957756Y-77610747D03*
D14*
X119747577Y-83081132D03*
D11*
X124847088Y-85141468D03*
D13*
X125807003Y-81430862D03*
D16*
X119516779Y-88056997D03*
%TD*%
D11*
%TO.C,S26*%
X183318693Y-149457963D03*
D19*
X189221970Y-150894562D03*
D13*
X184160479Y-141436030D03*
D14*
X187711188Y-146147980D03*
D11*
X192103683Y-142837997D03*
D13*
X189417466Y-140104088D03*
D19*
X191857462Y-148908569D03*
%TD*%
D20*
%TO.C,PAD1*%
X130544164Y-129101640D03*
%TD*%
D21*
%TO.C,D9*%
X153862711Y-138952131D03*
X156402711Y-138952131D03*
%TD*%
D11*
%TO.C,S5*%
X103035284Y-109763509D03*
D16*
X104844297Y-115563504D03*
D13*
X110344974Y-106353460D03*
D14*
X108134795Y-111823845D03*
D11*
X113234306Y-113884181D03*
D13*
X114194221Y-110173575D03*
D16*
X107903997Y-116799710D03*
%TD*%
D11*
%TO.C,S17*%
X208865316Y-113884168D03*
D12*
X214195625Y-116799697D03*
D13*
X211754648Y-106353447D03*
D14*
X213964827Y-111823832D03*
D11*
X219064338Y-109763496D03*
D13*
X217177238Y-106427496D03*
D12*
X217255325Y-115563491D03*
%TD*%
D22*
%TO.C,U1*%
X152854238Y-118575740D03*
X152854200Y-121115763D03*
X152854210Y-123655766D03*
X152854220Y-126195734D03*
X152854236Y-128735747D03*
X152854219Y-131275753D03*
X152854199Y-133815733D03*
X169044192Y-133815772D03*
X169044230Y-131275749D03*
X169044220Y-128735746D03*
X169044210Y-126195778D03*
X169044194Y-123655765D03*
X169044211Y-121115759D03*
X169044231Y-118575779D03*
%TD*%
D11*
%TO.C,S16*%
X214981296Y-82774287D03*
D15*
X220151713Y-85964785D03*
D13*
X218260796Y-75405100D03*
D14*
X220181648Y-80983660D03*
D11*
X225382000Y-79193033D03*
D13*
X223672079Y-75762844D03*
D15*
X223271924Y-84890410D03*
%TD*%
D11*
%TO.C,S25*%
X129995928Y-142837994D03*
D23*
X130242149Y-148908566D03*
D13*
X137939132Y-141436027D03*
D14*
X134388423Y-146147977D03*
D11*
X138780918Y-149457960D03*
D13*
X140668490Y-146122235D03*
D23*
X132877641Y-150894559D03*
%TD*%
D11*
%TO.C,S3*%
X91671322Y-93848562D03*
D18*
X93781387Y-99545942D03*
D13*
X98792515Y-90060632D03*
D14*
X96871663Y-95639192D03*
D11*
X102072004Y-97429822D03*
D13*
X102836416Y-93674058D03*
D18*
X96901598Y-100620317D03*
%TD*%
D20*
%TO.C,PAD1*%
X191554931Y-129101663D03*
%TD*%
D11*
%TO.C,S15*%
X220027601Y-97429812D03*
D15*
X225198018Y-100620310D03*
D13*
X223307101Y-90060625D03*
D14*
X225227953Y-95639185D03*
D11*
X230428305Y-93848558D03*
D13*
X228718384Y-90418369D03*
D15*
X228318229Y-99545935D03*
%TD*%
D11*
%TO.C,S20*%
X195945563Y-123283412D03*
D12*
X201275872Y-126198941D03*
D13*
X198834895Y-115752691D03*
D14*
X201045074Y-121223076D03*
D11*
X206144585Y-119162740D03*
D13*
X204257485Y-115826740D03*
D12*
X204335572Y-124962735D03*
%TD*%
D11*
%TO.C,S18*%
X203058927Y-99512833D03*
D12*
X208389236Y-102428362D03*
D13*
X205948259Y-91982112D03*
D14*
X208158438Y-97452497D03*
D11*
X213257949Y-95392161D03*
D13*
X211370849Y-92056161D03*
D12*
X211448936Y-101192156D03*
%TD*%
D11*
%TO.C,S9*%
X121761423Y-104791390D03*
D16*
X123570436Y-110591385D03*
D13*
X129071113Y-101381341D03*
D14*
X126860934Y-106851726D03*
D11*
X131960445Y-108912062D03*
D13*
X132920360Y-105201456D03*
D16*
X126630136Y-111827591D03*
%TD*%
D24*
%TO.C,*%
X156608230Y-125774724D03*
%TD*%
D11*
%TO.C,S6*%
X108841662Y-95392148D03*
D16*
X110650675Y-101192143D03*
D13*
X116151352Y-91982099D03*
D14*
X113941173Y-97452484D03*
D11*
X119040684Y-99512820D03*
D13*
X120000599Y-95802214D03*
D16*
X113710375Y-102428349D03*
%TD*%
D11*
%TO.C,S23*%
X178671000Y-121904136D03*
D12*
X184001309Y-124819665D03*
D13*
X181560332Y-114373415D03*
D14*
X183770511Y-119843800D03*
D11*
X188870022Y-117783464D03*
D13*
X186982922Y-114447464D03*
D12*
X187061009Y-123583459D03*
%TD*%
D11*
%TO.C,S10*%
X127567819Y-90420028D03*
D16*
X129376832Y-96220023D03*
D13*
X134877509Y-87009979D03*
D14*
X132667330Y-92480364D03*
D11*
X137766841Y-94540700D03*
D13*
X138726756Y-90830094D03*
D16*
X132436532Y-97456229D03*
%TD*%
D11*
%TO.C,S1*%
X71348199Y-104538469D03*
D25*
X73946808Y-110030254D03*
D13*
X78112164Y-100144294D03*
D14*
X76684825Y-105869039D03*
D11*
X82021451Y-107199609D03*
D13*
X82455605Y-103391519D03*
D25*
X77148784Y-110828597D03*
%TD*%
D11*
%TO.C,S11*%
X133229575Y-117783481D03*
D16*
X135038588Y-123583476D03*
D13*
X140539265Y-114373432D03*
D14*
X138329086Y-119843817D03*
D11*
X143428597Y-121904153D03*
D13*
X144388512Y-118193547D03*
D16*
X138098288Y-124819682D03*
%TD*%
D11*
%TO.C,S4*%
X96717617Y-79193027D03*
D18*
X98827682Y-84890407D03*
D13*
X103838810Y-75405097D03*
D14*
X101917958Y-80983657D03*
D11*
X107118299Y-82774287D03*
D13*
X107882711Y-79018523D03*
D18*
X101947893Y-85964782D03*
%TD*%
M02*
