%TF.GenerationSoftware,KiCad,Pcbnew,8.0.5*%
%TF.CreationDate,2024-09-08T16:16:33+10:00*%
%TF.ProjectId,akohekohe,616b6f68-656b-46f6-9865-2e6b69636164,0.1*%
%TF.SameCoordinates,Original*%
%TF.FileFunction,Profile,NP*%
%FSLAX46Y46*%
G04 Gerber Fmt 4.6, Leading zero omitted, Abs format (unit mm)*
G04 Created by KiCad (PCBNEW 8.0.5) date 2024-09-08 16:16:33*
%MOMM*%
%LPD*%
G01*
G04 APERTURE LIST*
%TA.AperFunction,Profile*%
%ADD10C,0.150000*%
%TD*%
G04 APERTURE END LIST*
D10*
X68404783Y-112050324D02*
G75*
G02*
X67312267Y-110231988I362910J1455426D01*
G01*
X153103141Y-115538876D02*
G75*
G02*
X150321573Y-111415041I-52J2999980D01*
G01*
X236541371Y-99818534D02*
G75*
G02*
X234760220Y-98851427I-362875J1455436D01*
G01*
X87263952Y-98851427D02*
G75*
G02*
X85482808Y-99818501I-1418249J488332D01*
G01*
X114727324Y-74049024D02*
X114235972Y-75265143D01*
X179542139Y-89441974D02*
G75*
G02*
X180370992Y-87489210I1390763J561975D01*
G01*
X176228358Y-142949816D02*
G75*
G02*
X176800732Y-145162853I-147477J-1218680D01*
G01*
X194066500Y-134683583D02*
X201168869Y-144108750D01*
X130063352Y-82806695D02*
X141653158Y-87489265D01*
X194066499Y-134683592D02*
G75*
G02*
X194702563Y-132390119I1197979J902695D01*
G01*
X147128433Y-146611258D02*
G75*
G02*
X147423600Y-148711904I-902942J-1197935D01*
G01*
X121150479Y-146209399D02*
X137921848Y-158847540D01*
X129234510Y-80853999D02*
X129562257Y-80042723D01*
X82599810Y-115589532D02*
G75*
G02*
X82725285Y-115626692I-362321J-1453858D01*
G01*
X201168869Y-144108750D02*
G75*
G02*
X200873680Y-146209441I-1197989J-902744D01*
G01*
X127321591Y-132390075D02*
G75*
G02*
X127957573Y-134683528I-561900J-1390723D01*
G01*
X140702628Y-93846087D02*
X142482016Y-89441958D01*
X120855265Y-144108745D02*
X127957628Y-134683570D01*
X99602368Y-117011438D02*
X110663318Y-121480366D01*
X98338905Y-71294739D02*
X112356842Y-76121484D01*
X141653158Y-87489265D02*
G75*
G02*
X142481994Y-89441949I-561866J-1390735D01*
G01*
X234760202Y-98851431D02*
X225591865Y-72224661D01*
X70457212Y-97618160D02*
X67312241Y-110231982D01*
X182001622Y-158552299D02*
X174600491Y-148711968D01*
X110663318Y-121480366D02*
G75*
G02*
X111492106Y-123433041I-561923J-1390723D01*
G01*
X141531492Y-95798771D02*
G75*
G02*
X140702689Y-93846112I562013J1390767D01*
G01*
X150321602Y-111415053D02*
X153950161Y-102434033D01*
X96432260Y-72224663D02*
G75*
G02*
X98338886Y-71294794I1418228J-488339D01*
G01*
X239298874Y-115626711D02*
G75*
G02*
X239424366Y-115589553I485922J-1410593D01*
G01*
X70457225Y-97618163D02*
G75*
G02*
X72275544Y-96525608I1455471J-362938D01*
G01*
X223685227Y-71294730D02*
G75*
G02*
X225591869Y-72224655I488369J-1418262D01*
G01*
X140022510Y-158552294D02*
X147423657Y-148711947D01*
X239298874Y-115626711D02*
X226695197Y-119966520D01*
X205344121Y-73220143D02*
X193290741Y-78090033D01*
X210859767Y-124244344D02*
G75*
G02*
X210030955Y-126197078I-1390782J-561957D01*
G01*
X168902841Y-100481358D02*
X180492636Y-95798774D01*
X147128433Y-146611258D02*
X145221422Y-145165303D01*
X168920998Y-115538873D02*
X153103141Y-115538876D01*
X153121282Y-100481361D02*
G75*
G02*
X153950237Y-102434064I-561894J-1390837D01*
G01*
X192461891Y-80042725D02*
X192789646Y-80854006D01*
X249748617Y-96525590D02*
X236541371Y-99818534D01*
X251566936Y-97618159D02*
X254711921Y-110232010D01*
X168073989Y-102434033D02*
G75*
G02*
X168902826Y-100481315I1390812J561926D01*
G01*
X254711921Y-110232010D02*
G75*
G02*
X253619359Y-112050410I-1455526J-362892D01*
G01*
X97235572Y-119036548D02*
X97622154Y-117913867D01*
X82725285Y-115626692D02*
X95328947Y-119966512D01*
X226695197Y-119966520D02*
G75*
G02*
X224788534Y-119036600I-488399J1418235D01*
G01*
X114727324Y-74049024D02*
G75*
G02*
X116679983Y-73220161I1390755J-561884D01*
G01*
X121150479Y-146209401D02*
G75*
G02*
X120855308Y-144108778I902712J1197895D01*
G01*
X145223437Y-145162829D02*
G75*
G02*
X145795790Y-142949834I719852J994335D01*
G01*
X176228358Y-142949816D02*
X145795786Y-142949803D01*
X111993245Y-126197022D02*
G75*
G02*
X111164462Y-124244376I561952J1390723D01*
G01*
X179542139Y-89441974D02*
X181321528Y-93846096D01*
X224788577Y-119036585D02*
X224401999Y-117913857D01*
X249748617Y-96525590D02*
G75*
G02*
X251566974Y-97618148I362868J-1455510D01*
G01*
X253619342Y-112050342D02*
X239424343Y-115589547D01*
X168073989Y-102434034D02*
X171702554Y-111415058D01*
X68404783Y-112050324D02*
X82599810Y-115589532D01*
X87263939Y-98851436D02*
X96432296Y-72224646D01*
X130063352Y-82806695D02*
G75*
G02*
X129234446Y-80853973I561846J1390788D01*
G01*
X128733394Y-78090030D02*
G75*
G02*
X129562256Y-80042723I-561902J-1390772D01*
G01*
X97235571Y-119036555D02*
G75*
G02*
X95328952Y-119966498I-1418288J488353D01*
G01*
X111492167Y-123433066D02*
X111164377Y-124244342D01*
X184102317Y-158847555D02*
G75*
G02*
X182001615Y-158552304I-902728J1197958D01*
G01*
X72275550Y-96525583D02*
X85482801Y-99818529D01*
X114235972Y-75265143D02*
G75*
G02*
X112356838Y-76121496I-1390782J561944D01*
G01*
X141531492Y-95798771D02*
X153121282Y-100481361D01*
X111993245Y-126197022D02*
X127321587Y-132390066D01*
X128733396Y-78090026D02*
X116679993Y-73220136D01*
X207296834Y-74049024D02*
X207788185Y-75265147D01*
X222421807Y-117011479D02*
X211360874Y-121480362D01*
X223685227Y-71294730D02*
X209667319Y-76121494D01*
X210531995Y-123433047D02*
G75*
G02*
X211360891Y-121480419I1390796J561852D01*
G01*
X180371020Y-87489279D02*
X191960795Y-82806676D01*
X97622154Y-117913867D02*
G75*
G02*
X99602374Y-117011424I1418339J-488436D01*
G01*
X194702544Y-132390072D02*
X210030933Y-126197023D01*
X192789646Y-80854006D02*
G75*
G02*
X191960785Y-82806651I-1390755J-561891D01*
G01*
X205344121Y-73220143D02*
G75*
G02*
X207296880Y-74049011I561974J-1390746D01*
G01*
X174600491Y-148711968D02*
G75*
G02*
X174895746Y-146611308I1198194J902669D01*
G01*
X222421807Y-117011479D02*
G75*
G02*
X224401978Y-117913864I561886J-1390823D01*
G01*
X171702554Y-111415058D02*
G75*
G02*
X168920998Y-115538908I-2781565J-1123833D01*
G01*
X210859767Y-124244344D02*
X210531995Y-123433047D01*
X192461891Y-80042722D02*
G75*
G02*
X193290733Y-78090013I1390801J561923D01*
G01*
X181321527Y-93846093D02*
G75*
G02*
X180492657Y-95798825I-1390841J-561914D01*
G01*
X209667319Y-76121494D02*
G75*
G02*
X207788151Y-75265161I-488431J1418192D01*
G01*
X140022510Y-158552294D02*
G75*
G02*
X137921874Y-158847505I-1197922J902700D01*
G01*
X174895712Y-146611263D02*
X176802722Y-145165305D01*
X200873662Y-146209417D02*
X184102317Y-158847555D01*
M02*
