M48
; DRILL file {KiCad 8.0.5} date 2024-09-08T16:16:32+1000
; FORMAT={-:-/ absolute / inch / decimal}
; #@! TF.CreationDate,2024-09-08T16:16:32+10:00
; #@! TF.GenerationSoftware,Kicad,Pcbnew,8.0.5
; #@! TF.FileFunction,NonPlated,1,2,NPTH
FMAT,2
INCH
; #@! TA.AperFunction,NonPlated,NPTH,ComponentDrill
T1C0.0670
; #@! TA.AperFunction,NonPlated,NPTH,ComponentDrill
T2C0.0866
; #@! TA.AperFunction,NonPlated,NPTH,ComponentDrill
T3C0.1350
%
G90
G05
T1
X2.8075Y-4.1153
X3.2277Y-4.2201
X3.4089Y-4.2715
X3.6076Y-3.6945
X3.8063Y-3.1175
X3.8184Y-4.4125
X4.0171Y-3.8355
X4.055Y-4.3211
X4.2158Y-3.2585
X4.2836Y-3.7553
X4.4566Y-4.4833
X4.5122Y-3.1895
X4.5637Y-4.6911
X4.6852Y-3.9175
X4.7923Y-4.1253
X4.9138Y-3.3517
X4.9652Y-4.8533
X5.0209Y-3.5595
X5.1165Y-5.6232
X5.1938Y-4.2875
X5.2438Y-4.6368
X5.4224Y-3.7217
X5.4623Y-5.8838
X5.4724Y-4.071
X5.6453Y-4.799
X5.8739Y-4.2332
X6.8042Y-4.2332
X7.0328Y-4.799
X7.2057Y-4.071
X7.2158Y-5.8838
X7.2557Y-3.7217
X7.4343Y-4.6368
X7.4843Y-4.2875
X7.5617Y-5.6232
X7.6572Y-3.5595
X7.7129Y-4.8533
X7.7644Y-3.3517
X7.8858Y-4.1253
X7.993Y-3.9175
X8.1144Y-4.6911
X8.1659Y-3.1895
X8.2216Y-4.4833
X8.3945Y-3.7553
X8.4623Y-3.2585
X8.6231Y-4.3211
X8.661Y-3.8355
X8.8597Y-4.4125
X8.8718Y-3.1175
X9.0705Y-3.6945
X9.2692Y-4.2715
X9.4504Y-4.2201
X9.8706Y-4.1154
T2
X5.138Y-5.0824
X7.54Y-5.0824
T3
X3.0176Y-4.1677
X3.6137Y-4.342
X3.8124Y-3.765
X4.011Y-3.188
X4.2558Y-4.4022
X4.4844Y-3.8364
X4.713Y-3.2706
X4.7644Y-4.7722
X4.993Y-4.2064
X5.2216Y-3.6406
X5.2894Y-5.7535
X5.4445Y-4.7179
X5.6731Y-4.1521
X7.005Y-4.1521
X7.2336Y-4.7179
X7.3887Y-5.7535
X7.4565Y-3.6406
X7.6851Y-4.2064
X7.9137Y-4.7722
X7.9651Y-3.2706
X8.1937Y-3.8364
X8.4223Y-4.4022
X8.6671Y-3.188
X8.8658Y-3.765
X9.0644Y-4.342
X9.6605Y-4.1677
M30
