M48
; DRILL file {KiCad 9.0.1-1.fc42} date 2025-04-18T11:19:55+1000
; FORMAT={-:-/ absolute / inch / decimal}
; #@! TF.CreationDate,2025-04-18T11:19:55+10:00
; #@! TF.GenerationSoftware,Kicad,Pcbnew,9.0.1-1.fc42
; #@! TF.FileFunction,Plated,1,2,PTH
FMAT,2
INCH
; #@! TA.AperFunction,Plated,PTH,ViaDrill
T1C0.0157
; #@! TA.AperFunction,Plated,PTH,ComponentDrill
T2C0.0354
; #@! TA.AperFunction,Plated,PTH,ComponentDrill
T3C0.0394
; #@! TA.AperFunction,Plated,PTH,ComponentDrill
T4C0.0430
; #@! TA.AperFunction,Plated,PTH,ComponentDrill
T5C0.0500
%
G90
G05
T1
X3.1673Y-4.0759
X3.2439Y-4.0646
X3.9823Y-4.0443
X4.0925Y-3.9663
X4.273Y-3.3188
X4.2922Y-3.3882
X4.7457Y-4.0702
X4.7829Y-4.1232
X4.8637Y-4.0814
X5.0986Y-3.3934
X5.1145Y-3.4629
X5.3444Y-4.5297
X5.487Y-4.4829
X5.6992Y-3.8505
X5.7116Y-3.9264
X5.9232Y-5.126
X6.1287Y-5.1988
X6.207Y-5.1417
X6.2252Y-4.4706
X6.2429Y-4.4162
X6.7322Y-4.8183
X7.6088Y-5.017
X7.7589Y-5.1094
X7.7592Y-4.2892
X7.8141Y-4.3224
X8.0213Y-5.0634
X8.2861Y-3.6742
X8.3468Y-3.6957
X8.5355Y-4.4697
X8.5508Y-4.3999
X8.6299Y-4.3927
X8.9275Y-3.2954
X8.986Y-3.3334
X9.1672Y-3.9772
X9.2245Y-3.9233
X9.7396Y-3.1833
X9.7857Y-3.1971
X9.9198Y-3.9383
X9.9433Y-3.8869
X10.0414Y-3.9426
X10.7875Y-3.9558
T2
X6.6923Y-5.0023
T3
X6.5632Y-5.3189
X6.5632Y-4.8189
X6.5632Y-4.9189
X6.5632Y-5.2189
X6.5632Y-5.0189
X6.5632Y-5.1189
X6.5632Y-4.7189
X7.1632Y-5.3189
X7.1632Y-4.9189
X7.1632Y-5.0189
X7.1632Y-4.8189
X7.1632Y-5.1189
X7.1632Y-5.2189
X7.1632Y-4.7189
T4
X6.5843Y-5.5211
X6.6843Y-5.5211
X6.7844Y-5.5211
T5
X3.0905Y-3.8786
X3.2615Y-4.0065
X3.8396Y-4.0961
X3.9988Y-4.2384
X4.0639Y-3.4447
X4.2231Y-3.5869
X4.2882Y-2.7932
X4.4474Y-2.9355
X4.6112Y-4.1804
X4.7627Y-4.3308
X4.8693Y-3.5416
X5.0208Y-3.692
X5.1274Y-2.9028
X5.222Y-4.6129
X5.2789Y-3.0532
X5.3735Y-4.7633
X5.4801Y-3.9741
X5.6316Y-4.1245
X5.7382Y-3.3353
X5.8757Y-5.6828
X5.8757Y-5.6828
X5.8897Y-3.4857
X5.9832Y-5.8673
X5.9832Y-5.8673
X6.0263Y-4.5664
X6.1779Y-4.7168
X6.2844Y-3.9276
X6.436Y-4.078
X7.4421Y-3.9275
X7.6556Y-3.9304
X7.7003Y-4.5664
X7.8509Y-5.6828
X7.8509Y-5.6828
X7.9138Y-4.5693
X7.9887Y-3.3355
X8.0579Y-5.6304
X8.0579Y-5.6304
X8.2022Y-3.3384
X8.2466Y-3.9741
X8.4601Y-3.977
X8.5047Y-4.6129
X8.5992Y-2.9027
X8.7182Y-4.6159
X8.8127Y-2.9056
X8.8574Y-3.5416
X9.0709Y-3.5445
X9.1155Y-4.1804
X9.329Y-4.1833
X9.4388Y-2.7935
X9.6518Y-2.8076
X9.6625Y-3.4444
X9.8755Y-3.4585
X9.887Y-4.0961
X10.1001Y-4.1102
X10.6362Y-3.8786
X10.8472Y-3.9112
M30
