%TF.GenerationSoftware,KiCad,Pcbnew,9.0.1-1.fc42*%
%TF.CreationDate,2025-04-18T11:19:57+10:00*%
%TF.ProjectId,'akohekohe,27616b6f-6865-46b6-9f68-652e6b696361,0.1*%
%TF.SameCoordinates,Original*%
%TF.FileFunction,Legend,Top*%
%TF.FilePolarity,Positive*%
%FSLAX46Y46*%
G04 Gerber Fmt 4.6, Leading zero omitted, Abs format (unit mm)*
G04 Created by KiCad (PCBNEW 9.0.1-1.fc42) date 2025-04-18 11:19:57*
%MOMM*%
%LPD*%
G01*
G04 APERTURE LIST*
%ADD10C,0.200000*%
%ADD11C,0.100000*%
%ADD12C,0.000000*%
G04 APERTURE END LIST*
D10*
X171657204Y-120181671D02*
X171657204Y-119419767D01*
X172038157Y-119800719D02*
X171276252Y-119800719D01*
X171657204Y-122781671D02*
X171657204Y-122019767D01*
D11*
%TO.C,SW22*%
X213052418Y-110493846D02*
X213758577Y-110639930D01*
X213202297Y-110864714D02*
X212738692Y-111052015D01*
X213352124Y-111235602D02*
X213052418Y-110493846D01*
X213758577Y-110639930D02*
X213352124Y-111235602D01*
X213758577Y-110639930D02*
X213552542Y-110129968D01*
X213758577Y-110639930D02*
X213964627Y-111149895D01*
X214129457Y-110490090D02*
X213758577Y-110639930D01*
%TO.C,SW23*%
X228566377Y-99507177D02*
X229272536Y-99653261D01*
X228716256Y-99878045D02*
X228252651Y-100065346D01*
X228866083Y-100248933D02*
X228566377Y-99507177D01*
X229272536Y-99653261D02*
X228866083Y-100248933D01*
X229272536Y-99653261D02*
X229066501Y-99143299D01*
X229272536Y-99653261D02*
X229478586Y-100163226D01*
X229643416Y-99503421D02*
X229272536Y-99653261D01*
%TO.C,SW27*%
X222009180Y-83278871D02*
X222715339Y-83424955D01*
X222159059Y-83649739D02*
X221695454Y-83837040D01*
X222308886Y-84020627D02*
X222009180Y-83278871D01*
X222715339Y-83424955D02*
X222308886Y-84020627D01*
X222715339Y-83424955D02*
X222509304Y-82914993D01*
X222715339Y-83424955D02*
X222921389Y-83934920D01*
X223086219Y-83275115D02*
X222715339Y-83424955D01*
%TO.C,SW20*%
X272383396Y-108474340D02*
X273062341Y-108717285D01*
X272480183Y-108862482D02*
X271995040Y-108983434D01*
X272576945Y-109250582D02*
X272383396Y-108474340D01*
X273062341Y-108717285D02*
X272576945Y-109250582D01*
X273062341Y-108717285D02*
X272929281Y-108183630D01*
X273062341Y-108717285D02*
X273195410Y-109250966D01*
X273450481Y-108620534D02*
X273062341Y-108717285D01*
%TO.C,SW24*%
X248511188Y-97213669D02*
X249208727Y-97396511D01*
X248641447Y-97591873D02*
X248168682Y-97754661D01*
X248771660Y-97970081D02*
X248511188Y-97213669D01*
X249208727Y-97396511D02*
X248771660Y-97970081D01*
X249208727Y-97396511D02*
X249029670Y-96876473D01*
X249208727Y-97396511D02*
X249387798Y-97916554D01*
X249586948Y-97266283D02*
X249208727Y-97396511D01*
%TO.C,SW11*%
X112771385Y-116287382D02*
X113071065Y-115545622D01*
X112921232Y-115916518D02*
X112457633Y-115729209D01*
X113071065Y-115545622D02*
X113477543Y-116141243D01*
X113477543Y-116141243D02*
X112771385Y-116287382D01*
X113477543Y-116141243D02*
X113271500Y-116651235D01*
X113477543Y-116141243D02*
X113683572Y-115631295D01*
X113848423Y-116291102D02*
X113477543Y-116141243D01*
%TO.C,SW12*%
X128285433Y-127274031D02*
X128585113Y-126532271D01*
X128435280Y-126903167D02*
X127971681Y-126715858D01*
X128585113Y-126532271D02*
X128991591Y-127127892D01*
X128991591Y-127127892D02*
X128285433Y-127274031D01*
X128991591Y-127127892D02*
X128785548Y-127637884D01*
X128991591Y-127127892D02*
X129197620Y-126617944D01*
X129362471Y-127277751D02*
X128991591Y-127127892D01*
%TO.C,SW3*%
X141396666Y-94822549D02*
X141696346Y-94080789D01*
X141546513Y-94451685D02*
X141082914Y-94264376D01*
X141696346Y-94080789D02*
X142102824Y-94676410D01*
X142102824Y-94676410D02*
X141396666Y-94822549D01*
X142102824Y-94676410D02*
X141896781Y-95186402D01*
X142102824Y-94676410D02*
X142308853Y-94166462D01*
X142473704Y-94826269D02*
X142102824Y-94676410D01*
D12*
%TO.C,G\u002A\u002A\u002A*%
G36*
X192118555Y-139067071D02*
G01*
X192036637Y-139135315D01*
X191942315Y-139190422D01*
X191857470Y-139199941D01*
X191803863Y-139164981D01*
X191804797Y-139117946D01*
X191863178Y-139083299D01*
X191967356Y-139066981D01*
X191997107Y-139066448D01*
X192118555Y-139067071D01*
G37*
G36*
X193240492Y-136541606D02*
G01*
X193257553Y-136554534D01*
X193263985Y-136596086D01*
X193220468Y-136637091D01*
X193145341Y-136664631D01*
X193094566Y-136669345D01*
X192986042Y-136668191D01*
X193067960Y-136599946D01*
X193166409Y-136539581D01*
X193240492Y-136541606D01*
G37*
G36*
X193813740Y-134436095D02*
G01*
X193778648Y-134488641D01*
X193766779Y-134501784D01*
X193687926Y-134572496D01*
X193641649Y-134582170D01*
X193627982Y-134537704D01*
X193657379Y-134482295D01*
X193726437Y-134434787D01*
X193805246Y-134415035D01*
X193813740Y-134436095D01*
G37*
G36*
X195011810Y-137092400D02*
G01*
X195009431Y-137112519D01*
X194969485Y-137169616D01*
X194934608Y-137185017D01*
X194892067Y-137185424D01*
X194897434Y-137149876D01*
X194910203Y-137124691D01*
X194955989Y-137067037D01*
X194995810Y-137055543D01*
X195011810Y-137092400D01*
G37*
G36*
X191940891Y-138658818D02*
G01*
X191998250Y-138682075D01*
X192008899Y-138710662D01*
X191979829Y-138730288D01*
X191886063Y-138750725D01*
X191804487Y-138744107D01*
X191777344Y-138729334D01*
X191754819Y-138681703D01*
X191795236Y-138653828D01*
X191849635Y-138648900D01*
X191940891Y-138658818D01*
G37*
G36*
X192531224Y-136103672D02*
G01*
X192562290Y-136129647D01*
X192562052Y-136132658D01*
X192525750Y-136163119D01*
X192456402Y-136178972D01*
X192389779Y-136174569D01*
X192368828Y-136163167D01*
X192343795Y-136114874D01*
X192380543Y-136088581D01*
X192456875Y-136087085D01*
X192531224Y-136103672D01*
G37*
G36*
X192577775Y-136963186D02*
G01*
X192574523Y-137006910D01*
X192523542Y-137064165D01*
X192462115Y-137112488D01*
X192423944Y-137115872D01*
X192403155Y-137099680D01*
X192396430Y-137052896D01*
X192430612Y-136996365D01*
X192486574Y-136955154D01*
X192518820Y-136948095D01*
X192577775Y-136963186D01*
G37*
G36*
X192799068Y-138307578D02*
G01*
X192916643Y-138318895D01*
X192805593Y-138379534D01*
X192697600Y-138424081D01*
X192602043Y-138439029D01*
X192536537Y-138423812D01*
X192517599Y-138388784D01*
X192549153Y-138340318D01*
X192634566Y-138310975D01*
X192759966Y-138304755D01*
X192799068Y-138307578D01*
G37*
G36*
X192940604Y-137069866D02*
G01*
X192956257Y-137104537D01*
X192951126Y-137175980D01*
X192915649Y-137213359D01*
X192838377Y-137256246D01*
X192800124Y-137242705D01*
X192795195Y-137213719D01*
X192818975Y-137156954D01*
X192863870Y-137104897D01*
X192915279Y-137063380D01*
X192940604Y-137069866D01*
G37*
G36*
X193033614Y-136292055D02*
G01*
X193055700Y-136332052D01*
X193034270Y-136380158D01*
X192981116Y-136413003D01*
X192910156Y-136426771D01*
X192850343Y-136419377D01*
X192829894Y-136394872D01*
X192855441Y-136352513D01*
X192905603Y-136309111D01*
X192977321Y-136280951D01*
X193033614Y-136292055D01*
G37*
G36*
X193331369Y-137202900D02*
G01*
X193380642Y-137242049D01*
X193366283Y-137288964D01*
X193296078Y-137330648D01*
X193217191Y-137358352D01*
X193183943Y-137360294D01*
X193177992Y-137338464D01*
X193204485Y-137275039D01*
X193260891Y-137221106D01*
X193320264Y-137200481D01*
X193331369Y-137202900D01*
G37*
G36*
X193667419Y-136800155D02*
G01*
X193691016Y-136864213D01*
X193657040Y-136934468D01*
X193595242Y-136981746D01*
X193541483Y-137002084D01*
X193525271Y-136974892D01*
X193524987Y-136957991D01*
X193543925Y-136878972D01*
X193586777Y-136816472D01*
X193636933Y-136788897D01*
X193667419Y-136800155D01*
G37*
G36*
X193685814Y-134738897D02*
G01*
X193684878Y-134778750D01*
X193664272Y-134828457D01*
X193615176Y-134883497D01*
X193561871Y-134899265D01*
X193527319Y-134872238D01*
X193523883Y-134849999D01*
X193548234Y-134802370D01*
X193602780Y-134757073D01*
X193659762Y-134733154D01*
X193685814Y-134738897D01*
G37*
G36*
X195032527Y-136009944D02*
G01*
X195026095Y-136056197D01*
X194980221Y-136114878D01*
X194916162Y-136164772D01*
X194857449Y-136184707D01*
X194828100Y-136175418D01*
X194838953Y-136138209D01*
X194877162Y-136080609D01*
X194946560Y-135999198D01*
X194997814Y-135979579D01*
X195032527Y-136009944D01*
G37*
G36*
X195652078Y-135448174D02*
G01*
X195662135Y-135512234D01*
X195634603Y-135588740D01*
X195629918Y-135595756D01*
X195581778Y-135642351D01*
X195554157Y-135630092D01*
X195542816Y-135570106D01*
X195555226Y-135494935D01*
X195583333Y-135436032D01*
X195607601Y-135421319D01*
X195652078Y-135448174D01*
G37*
G36*
X195657050Y-136183333D02*
G01*
X195667203Y-136247960D01*
X195642910Y-136316740D01*
X195597579Y-136356601D01*
X195586162Y-136358205D01*
X195545028Y-136329525D01*
X195536452Y-136293054D01*
X195554432Y-136226753D01*
X195595255Y-136179189D01*
X195639247Y-136168262D01*
X195657050Y-136183333D01*
G37*
G36*
X192161721Y-136584968D02*
G01*
X192163889Y-136628481D01*
X192119097Y-136678654D01*
X192082223Y-136699629D01*
X191989024Y-136734588D01*
X191935376Y-136731607D01*
X191911826Y-136707573D01*
X191921305Y-136667127D01*
X191973446Y-136619348D01*
X192045626Y-136580440D01*
X192108926Y-136566401D01*
X192161721Y-136584968D01*
G37*
G36*
X194016583Y-134850691D02*
G01*
X193985532Y-134911181D01*
X193955274Y-134952877D01*
X193879724Y-135034238D01*
X193816035Y-135071634D01*
X193775450Y-135060775D01*
X193766779Y-135024794D01*
X193794007Y-134968732D01*
X193859024Y-134903947D01*
X193936832Y-134851277D01*
X193998771Y-134831429D01*
X194016583Y-134850691D01*
G37*
G36*
X194106355Y-134491243D02*
G01*
X194058602Y-134556617D01*
X194016452Y-134599390D01*
X193928139Y-134669743D01*
X193865740Y-134690436D01*
X193837149Y-134659431D01*
X193836178Y-134645960D01*
X193865931Y-134579933D01*
X193940714Y-134514162D01*
X194035700Y-134468850D01*
X194098861Y-134461037D01*
X194106355Y-134491243D01*
G37*
G36*
X194111426Y-135025748D02*
G01*
X194089962Y-135088046D01*
X194041857Y-135156394D01*
X193970931Y-135230392D01*
X193919299Y-135243082D01*
X193888407Y-135213413D01*
X193896927Y-135170336D01*
X193941497Y-135107429D01*
X194002507Y-135046315D01*
X194060346Y-135008615D01*
X194077497Y-135004926D01*
X194111426Y-135025748D01*
G37*
G36*
X194334403Y-134682965D02*
G01*
X194332325Y-134713936D01*
X194291960Y-134765698D01*
X194232350Y-134819931D01*
X194172537Y-134858318D01*
X194143994Y-134866128D01*
X194119614Y-134838586D01*
X194120212Y-134806276D01*
X194156981Y-134748966D01*
X194226299Y-134700168D01*
X194299015Y-134676664D01*
X194334403Y-134682965D01*
G37*
G36*
X194404815Y-138362529D02*
G01*
X194380376Y-138427479D01*
X194374020Y-138440172D01*
X194322058Y-138510337D01*
X194267615Y-138542797D01*
X194227828Y-138531626D01*
X194217872Y-138494189D01*
X194244471Y-138441179D01*
X194305632Y-138382305D01*
X194373403Y-138341835D01*
X194399981Y-138336073D01*
X194404815Y-138362529D01*
G37*
G36*
X195312142Y-136054852D02*
G01*
X195311073Y-136121306D01*
X195278990Y-136201453D01*
X195231031Y-136266615D01*
X195188657Y-136288806D01*
X195160593Y-136259911D01*
X195154758Y-136223251D01*
X195175899Y-136149596D01*
X195221579Y-136075778D01*
X195269819Y-136023009D01*
X195295795Y-136022374D01*
X195312142Y-136054852D01*
G37*
G36*
X191974494Y-136391711D02*
G01*
X191991335Y-136433943D01*
X191948226Y-136481155D01*
X191947101Y-136481989D01*
X191874804Y-136517566D01*
X191798939Y-136530996D01*
X191742308Y-136521617D01*
X191727715Y-136488772D01*
X191727857Y-136488327D01*
X191772081Y-136433657D01*
X191847882Y-136392558D01*
X191926312Y-136376371D01*
X191974494Y-136391711D01*
G37*
G36*
X192717218Y-136407601D02*
G01*
X192710965Y-136451853D01*
X192642253Y-136525897D01*
X192619035Y-136545967D01*
X192522402Y-136612961D01*
X192451613Y-136633573D01*
X192415967Y-136605979D01*
X192413501Y-136586269D01*
X192441718Y-136527271D01*
X192509852Y-136462511D01*
X192593122Y-136411342D01*
X192661076Y-136392904D01*
X192717218Y-136407601D01*
G37*
G36*
X192794316Y-136692355D02*
G01*
X192805651Y-136702504D01*
X192823438Y-136743325D01*
X192788160Y-136792126D01*
X192765326Y-136811760D01*
X192678761Y-136865858D01*
X192615208Y-136874040D01*
X192587342Y-136835191D01*
X192586998Y-136827447D01*
X192613666Y-136773399D01*
X192675528Y-136718191D01*
X192747297Y-136682026D01*
X192794316Y-136692355D01*
G37*
G36*
X192983441Y-136830369D02*
G01*
X192984094Y-136882383D01*
X192938754Y-136948539D01*
X192913565Y-136971016D01*
X192810585Y-137038036D01*
X192740479Y-137046727D01*
X192710401Y-137020657D01*
X192722806Y-136983326D01*
X192772178Y-136924981D01*
X192838616Y-136864383D01*
X192902218Y-136820293D01*
X192934607Y-136809297D01*
X192983441Y-136830369D01*
G37*
G36*
X193364704Y-136866901D02*
G01*
X193366918Y-136920424D01*
X193325111Y-136981785D01*
X193317363Y-136988414D01*
X193224036Y-137043411D01*
X193152726Y-137044213D01*
X193126557Y-137020273D01*
X193138417Y-136982667D01*
X193187001Y-136927683D01*
X193250556Y-136875316D01*
X193307329Y-136845562D01*
X193318318Y-136843997D01*
X193364704Y-136866901D01*
G37*
G36*
X193743462Y-137351225D02*
G01*
X193705925Y-137405242D01*
X193680031Y-137433888D01*
X193597232Y-137502285D01*
X193521761Y-137535191D01*
X193469316Y-137528535D01*
X193454484Y-137492364D01*
X193483145Y-137452253D01*
X193552895Y-137402907D01*
X193639387Y-137358201D01*
X193718272Y-137332013D01*
X193739749Y-137329789D01*
X193743462Y-137351225D01*
G37*
G36*
X194587794Y-136959456D02*
G01*
X194580619Y-136994946D01*
X194538451Y-137055717D01*
X194478965Y-137121855D01*
X194419831Y-137173443D01*
X194382333Y-137190991D01*
X194361471Y-137163530D01*
X194362801Y-137133945D01*
X194393954Y-137078619D01*
X194454224Y-137019031D01*
X194521896Y-136972021D01*
X194575260Y-136954427D01*
X194587794Y-136959456D01*
G37*
G36*
X188313646Y-137172535D02*
G01*
X188392179Y-137211079D01*
X188460517Y-137256652D01*
X188492289Y-137293978D01*
X188492462Y-137295981D01*
X188464563Y-137323455D01*
X188394412Y-137321784D01*
X188302328Y-137291837D01*
X188292941Y-137287439D01*
X188237276Y-137243374D01*
X188214397Y-137193387D01*
X188231449Y-137159976D01*
X188251289Y-137156292D01*
X188313646Y-137172535D01*
G37*
G36*
X193710957Y-137935820D02*
G01*
X193680177Y-137987092D01*
X193660055Y-138009725D01*
X193575964Y-138085546D01*
X193486882Y-138144730D01*
X193411856Y-138176493D01*
X193372135Y-138172759D01*
X193352545Y-138133992D01*
X193378630Y-138090902D01*
X193458053Y-138033681D01*
X193500907Y-138007891D01*
X193617273Y-137946173D01*
X193688639Y-137922164D01*
X193710957Y-137935820D01*
G37*
G36*
X192493175Y-136251087D02*
G01*
X192508483Y-136288935D01*
X192478374Y-136339807D01*
X192421628Y-136395224D01*
X192333878Y-136467588D01*
X192277201Y-136494222D01*
X192236548Y-136481252D01*
X192228437Y-136473869D01*
X192207640Y-136434113D01*
X192230761Y-136387182D01*
X192305080Y-136320596D01*
X192328353Y-136302582D01*
X192412234Y-136246176D01*
X192464486Y-136234112D01*
X192493175Y-136251087D01*
G37*
G36*
X194140480Y-137414328D02*
G01*
X194131819Y-137448208D01*
X194085885Y-137505786D01*
X194020981Y-137569199D01*
X193955413Y-137620584D01*
X193907487Y-137642081D01*
X193907078Y-137642084D01*
X193860448Y-137616961D01*
X193854338Y-137608696D01*
X193867857Y-137572894D01*
X193922965Y-137520969D01*
X193998812Y-137467086D01*
X194074545Y-137425408D01*
X194129314Y-137410100D01*
X194140480Y-137414328D01*
G37*
G36*
X193654353Y-135054430D02*
G01*
X193646630Y-135089674D01*
X193612155Y-135164213D01*
X193561630Y-135258917D01*
X193505759Y-135354657D01*
X193455244Y-135432303D01*
X193420788Y-135472727D01*
X193420055Y-135473201D01*
X193377395Y-135467657D01*
X193368323Y-135456969D01*
X193366572Y-135401829D01*
X193398623Y-135319928D01*
X193452995Y-135227425D01*
X193518207Y-135140477D01*
X193582777Y-135075242D01*
X193635223Y-135047879D01*
X193654353Y-135054430D01*
G37*
G36*
X192778928Y-139137937D02*
G01*
X192782685Y-139141992D01*
X192776144Y-139188583D01*
X192730283Y-139241603D01*
X192654329Y-139303107D01*
X192768136Y-139314057D01*
X192881943Y-139325008D01*
X192795195Y-139381604D01*
X192637968Y-139450039D01*
X192479755Y-139456152D01*
X192448200Y-139449243D01*
X192383076Y-139412518D01*
X192361452Y-139369527D01*
X192388772Y-139325116D01*
X192458154Y-139269440D01*
X192550730Y-139212691D01*
X192647630Y-139165063D01*
X192729985Y-139136748D01*
X192778928Y-139137937D01*
G37*
G36*
X195387351Y-136528235D02*
G01*
X195397654Y-136599561D01*
X195397654Y-136707902D01*
X195475727Y-136634901D01*
X195531444Y-136589459D01*
X195557342Y-136592869D01*
X195564982Y-136615999D01*
X195552776Y-136681883D01*
X195507662Y-136764150D01*
X195447457Y-136837610D01*
X195389979Y-136877076D01*
X195379162Y-136878696D01*
X195325831Y-136851213D01*
X195293709Y-136809585D01*
X195274088Y-136711357D01*
X195285408Y-136629773D01*
X195320357Y-136540438D01*
X195357989Y-136505609D01*
X195387351Y-136528235D01*
G37*
G36*
X195464587Y-137330720D02*
G01*
X195465642Y-137359132D01*
X195442414Y-137461537D01*
X195381393Y-137557465D01*
X195300675Y-137624418D01*
X195238054Y-137642084D01*
X195165628Y-137624458D01*
X195133874Y-137593338D01*
X195124000Y-137526312D01*
X195125989Y-137431733D01*
X195126288Y-137428516D01*
X195150670Y-137341957D01*
X195191069Y-137310983D01*
X195231022Y-137337741D01*
X195252884Y-137411989D01*
X195264262Y-137511539D01*
X195364247Y-137394640D01*
X195425691Y-137325429D01*
X195455103Y-137305536D01*
X195464587Y-137330720D01*
G37*
G36*
X194896954Y-136620926D02*
G01*
X194897314Y-136689032D01*
X194897156Y-136689668D01*
X194886559Y-136750793D01*
X194909420Y-136757798D01*
X194948415Y-136738906D01*
X195019538Y-136714177D01*
X195043153Y-136736850D01*
X195016560Y-136801330D01*
X194994175Y-136833702D01*
X194921878Y-136915080D01*
X194863375Y-136937310D01*
X194804484Y-136904755D01*
X194794441Y-136895117D01*
X194750203Y-136840808D01*
X194742662Y-136785491D01*
X194768611Y-136699623D01*
X194772205Y-136690108D01*
X194815506Y-136621531D01*
X194863387Y-136598448D01*
X194896954Y-136620926D01*
G37*
G36*
X192623824Y-138598239D02*
G01*
X192639605Y-138633579D01*
X192621357Y-138666129D01*
X192597586Y-138706931D01*
X192630213Y-138717733D01*
X192634798Y-138717767D01*
X192685896Y-138730275D01*
X192677007Y-138763353D01*
X192611975Y-138810335D01*
X192568471Y-138832789D01*
X192403205Y-138884812D01*
X192259225Y-138875133D01*
X192166899Y-138825843D01*
X192113915Y-138773530D01*
X192113277Y-138731842D01*
X192132604Y-138704395D01*
X192200445Y-138662464D01*
X192276693Y-138648368D01*
X192386237Y-138635263D01*
X192469275Y-138612253D01*
X192562632Y-138589566D01*
X192623824Y-138598239D01*
G37*
G36*
X194867476Y-137346575D02*
G01*
X194863955Y-137402999D01*
X194826533Y-137509271D01*
X194823788Y-137515998D01*
X194811653Y-137560018D01*
X194840609Y-137556757D01*
X194869619Y-137542023D01*
X194951511Y-137508261D01*
X194983139Y-137518894D01*
X194964187Y-137570131D01*
X194894336Y-137658185D01*
X194880590Y-137673114D01*
X194780706Y-137758025D01*
X194699979Y-137779764D01*
X194657399Y-137757749D01*
X194636842Y-137693619D01*
X194650690Y-137597682D01*
X194689620Y-137492025D01*
X194744313Y-137398733D01*
X194805447Y-137339893D01*
X194837835Y-137330219D01*
X194867476Y-137346575D01*
G37*
G36*
X195301774Y-133220339D02*
G01*
X195289918Y-133253066D01*
X195239148Y-133318175D01*
X195174361Y-133387321D01*
X195069229Y-133511230D01*
X194970609Y-133669960D01*
X194870586Y-133877092D01*
X194822313Y-133991416D01*
X194791027Y-134044283D01*
X194756346Y-134036742D01*
X194746753Y-134027850D01*
X194714590Y-133983052D01*
X194708992Y-133927705D01*
X194732677Y-133846764D01*
X194788361Y-133725179D01*
X194808781Y-133684331D01*
X194907590Y-133511897D01*
X195011591Y-133370454D01*
X195113082Y-133267248D01*
X195204362Y-133209528D01*
X195277729Y-133204543D01*
X195301774Y-133220339D01*
G37*
G36*
X191604917Y-137854640D02*
G01*
X191666675Y-137870932D01*
X191676669Y-137892061D01*
X191658531Y-137916825D01*
X191615261Y-137938750D01*
X191536471Y-137960584D01*
X191411775Y-137985074D01*
X191230787Y-138014968D01*
X191184902Y-138022151D01*
X191049625Y-138044468D01*
X190938235Y-138065166D01*
X190870885Y-138080443D01*
X190863932Y-138082718D01*
X190823776Y-138072373D01*
X190817326Y-138046178D01*
X190827470Y-138016348D01*
X190864815Y-137989282D01*
X190939733Y-137961025D01*
X191062596Y-137927622D01*
X191233719Y-137887396D01*
X191373099Y-137862710D01*
X191501945Y-137851846D01*
X191604917Y-137854640D01*
G37*
G36*
X195625912Y-133318241D02*
G01*
X195671704Y-133357320D01*
X195655775Y-133404772D01*
X195596659Y-133440349D01*
X195502660Y-133495021D01*
X195386975Y-133588520D01*
X195267911Y-133702957D01*
X195163775Y-133820443D01*
X195092874Y-133923090D01*
X195083693Y-133941593D01*
X195044657Y-134023349D01*
X195019811Y-134048924D01*
X194996510Y-134026138D01*
X194983791Y-134003370D01*
X194966327Y-133925211D01*
X194995573Y-133833453D01*
X195075553Y-133720883D01*
X195210290Y-133580287D01*
X195230398Y-133561124D01*
X195378665Y-133428978D01*
X195491452Y-133348001D01*
X195575336Y-133314153D01*
X195625912Y-133318241D01*
G37*
G36*
X193982732Y-138815742D02*
G01*
X193994904Y-138874275D01*
X193975379Y-138925211D01*
X193948112Y-138994738D01*
X193969421Y-139019033D01*
X194043989Y-139001902D01*
X194061725Y-138995363D01*
X194145206Y-138973598D01*
X194178825Y-138986019D01*
X194167180Y-139023802D01*
X194114871Y-139078118D01*
X194026495Y-139140142D01*
X193970005Y-139171396D01*
X193844567Y-139219624D01*
X193729560Y-139236639D01*
X193642879Y-139221774D01*
X193605372Y-139185016D01*
X193617257Y-139136444D01*
X193667554Y-139063512D01*
X193741771Y-138980400D01*
X193825418Y-138901286D01*
X193904004Y-138840353D01*
X193963039Y-138811780D01*
X193982732Y-138815742D01*
G37*
G36*
X194368694Y-137597810D02*
G01*
X194373049Y-137660975D01*
X194342311Y-137729138D01*
X194297922Y-137803433D01*
X194299908Y-137830805D01*
X194354581Y-137817759D01*
X194407605Y-137796461D01*
X194518156Y-137756397D01*
X194569992Y-137752932D01*
X194562913Y-137785868D01*
X194496718Y-137855006D01*
X194481012Y-137869075D01*
X194353716Y-137958560D01*
X194246237Y-137986461D01*
X194162455Y-137951977D01*
X194149031Y-137937702D01*
X194129945Y-137894719D01*
X194143076Y-137834647D01*
X194192826Y-137738881D01*
X194198294Y-137729505D01*
X194255597Y-137641061D01*
X194302947Y-137584192D01*
X194321386Y-137572685D01*
X194368694Y-137597810D01*
G37*
G36*
X194466255Y-133435057D02*
G01*
X194481198Y-133485383D01*
X194447434Y-133552345D01*
X194409905Y-133645119D01*
X194391962Y-133773539D01*
X194391370Y-133801414D01*
X194396415Y-133907343D01*
X194416189Y-133963168D01*
X194457649Y-133987748D01*
X194460378Y-133988485D01*
X194508988Y-134015770D01*
X194499359Y-134046227D01*
X194440560Y-134066114D01*
X194407892Y-134068041D01*
X194326702Y-134041557D01*
X194288492Y-134000923D01*
X194260199Y-133907757D01*
X194256353Y-133794583D01*
X194272530Y-133675492D01*
X194304301Y-133564575D01*
X194347241Y-133475922D01*
X194396923Y-133423626D01*
X194448920Y-133421775D01*
X194466255Y-133435057D01*
G37*
G36*
X193175838Y-139374531D02*
G01*
X193176889Y-139386667D01*
X193154235Y-139450148D01*
X193135249Y-139474215D01*
X193109274Y-139507221D01*
X193129993Y-139511362D01*
X193203668Y-139486029D01*
X193263150Y-139461773D01*
X193347503Y-139431073D01*
X193400553Y-139420258D01*
X193407002Y-139422107D01*
X193411493Y-139468179D01*
X193367697Y-139528806D01*
X193289181Y-139587072D01*
X193264384Y-139599923D01*
X193167658Y-139641517D01*
X193105406Y-139650609D01*
X193051404Y-139628344D01*
X193025485Y-139610363D01*
X192984504Y-139547822D01*
X193007152Y-139473862D01*
X193090662Y-139397266D01*
X193093054Y-139395688D01*
X193153819Y-139362923D01*
X193175838Y-139374531D01*
G37*
G36*
X194724474Y-138112310D02*
G01*
X194714198Y-138198041D01*
X194689896Y-138273084D01*
X194632078Y-138422822D01*
X194791228Y-138258000D01*
X194885608Y-138161953D01*
X194942261Y-138111331D01*
X194970698Y-138100719D01*
X194980432Y-138124699D01*
X194981260Y-138149806D01*
X194956228Y-138238936D01*
X194893149Y-138343652D01*
X194810049Y-138438650D01*
X194736737Y-138493062D01*
X194661285Y-138530863D01*
X194618674Y-138539465D01*
X194579125Y-138519592D01*
X194549032Y-138497620D01*
X194506397Y-138436174D01*
X194513323Y-138345225D01*
X194570913Y-138217770D01*
X194601154Y-138166618D01*
X194662080Y-138089554D01*
X194705144Y-138073799D01*
X194724474Y-138112310D01*
G37*
G36*
X194021406Y-138068857D02*
G01*
X193995280Y-138139329D01*
X193941138Y-138225279D01*
X193839164Y-138366050D01*
X194011536Y-138258898D01*
X194107815Y-138205625D01*
X194180766Y-138177322D01*
X194209565Y-138177856D01*
X194200688Y-138213073D01*
X194150223Y-138275720D01*
X194072872Y-138352635D01*
X193983337Y-138430656D01*
X193896319Y-138496622D01*
X193826520Y-138537371D01*
X193800279Y-138544270D01*
X193732076Y-138516378D01*
X193698601Y-138477152D01*
X193669846Y-138416842D01*
X193662681Y-138393687D01*
X193684051Y-138356460D01*
X193737819Y-138287043D01*
X193808467Y-138203450D01*
X193880481Y-138123697D01*
X193938344Y-138065798D01*
X193959230Y-138049373D01*
X194009726Y-138035602D01*
X194021406Y-138068857D01*
G37*
G36*
X187469303Y-137857103D02*
G01*
X187433779Y-137908045D01*
X187348727Y-137970879D01*
X187252986Y-138028872D01*
X187175716Y-138071448D01*
X187152430Y-138082204D01*
X187132283Y-138106053D01*
X187161073Y-138151389D01*
X187213123Y-138201329D01*
X187276009Y-138266525D01*
X187303577Y-138313941D01*
X187301509Y-138324112D01*
X187253366Y-138338843D01*
X187156983Y-138348631D01*
X187033381Y-138352922D01*
X186903578Y-138351161D01*
X186788597Y-138342791D01*
X186757490Y-138338485D01*
X186673971Y-138315677D01*
X186643756Y-138271260D01*
X186648187Y-138199950D01*
X186681892Y-138159213D01*
X186763056Y-138099876D01*
X186875578Y-138031195D01*
X187003354Y-137962427D01*
X187130281Y-137902829D01*
X187232478Y-137864051D01*
X187364772Y-137831540D01*
X187445007Y-137830412D01*
X187469303Y-137857103D01*
G37*
G36*
X194035484Y-133742550D02*
G01*
X194031711Y-133773397D01*
X194029390Y-133866125D01*
X194077061Y-133961538D01*
X194160958Y-134034918D01*
X194183486Y-134045894D01*
X194253453Y-134086621D01*
X194256152Y-134118017D01*
X194193557Y-134135418D01*
X194144738Y-134137439D01*
X194066782Y-134148753D01*
X194027025Y-134172139D01*
X193972289Y-134203005D01*
X193881248Y-134208195D01*
X193780867Y-134190548D01*
X193698112Y-134152904D01*
X193678193Y-134135408D01*
X193635364Y-134063674D01*
X193646790Y-134011281D01*
X193697446Y-133959199D01*
X193736554Y-133965382D01*
X193749384Y-134015991D01*
X193764593Y-134064737D01*
X193821739Y-134089090D01*
X193877889Y-134096061D01*
X194006347Y-134106731D01*
X193952609Y-133999010D01*
X193920890Y-133897109D01*
X193922506Y-133803432D01*
X193954200Y-133738515D01*
X193996699Y-133721046D01*
X194035484Y-133742550D01*
G37*
G36*
X185889159Y-135467988D02*
G01*
X185981233Y-135523157D01*
X186116463Y-135627488D01*
X186170979Y-135672890D01*
X186466555Y-135913154D01*
X186777869Y-136149532D01*
X187089595Y-136371205D01*
X187386410Y-136567353D01*
X187652992Y-136727154D01*
X187703050Y-136754731D01*
X187854534Y-136843474D01*
X187956626Y-136917778D01*
X188005784Y-136973825D01*
X187998464Y-137007798D01*
X187945946Y-137016481D01*
X187889332Y-137000421D01*
X187789687Y-136958357D01*
X187664638Y-136898002D01*
X187607626Y-136868442D01*
X187476624Y-136792557D01*
X187315453Y-136688972D01*
X187132199Y-136563891D01*
X186934952Y-136423518D01*
X186731800Y-136274059D01*
X186530831Y-136121717D01*
X186340133Y-135972698D01*
X186167794Y-135833205D01*
X186021902Y-135709444D01*
X185910546Y-135607619D01*
X185841814Y-135533934D01*
X185822952Y-135499393D01*
X185837359Y-135460546D01*
X185889159Y-135467988D01*
G37*
G36*
X193358686Y-138503990D02*
G01*
X193371313Y-138542666D01*
X193339016Y-138600913D01*
X193281053Y-138665651D01*
X193208395Y-138743746D01*
X193188510Y-138778854D01*
X193224070Y-138776009D01*
X193317745Y-138740247D01*
X193320124Y-138739274D01*
X193426354Y-138698465D01*
X193521405Y-138666014D01*
X193523883Y-138665263D01*
X193610632Y-138639145D01*
X193541233Y-138718074D01*
X193475433Y-138772584D01*
X193373838Y-138836502D01*
X193259714Y-138897391D01*
X193156330Y-138942811D01*
X193088097Y-138960325D01*
X193033139Y-138941742D01*
X192985927Y-138912821D01*
X192943478Y-138874907D01*
X192943590Y-138835733D01*
X192980094Y-138774023D01*
X193029592Y-138710432D01*
X193066406Y-138683089D01*
X193067003Y-138683068D01*
X193106254Y-138660783D01*
X193173502Y-138604548D01*
X193206428Y-138573457D01*
X193284121Y-138506843D01*
X193334315Y-138490401D01*
X193358686Y-138503990D01*
G37*
G36*
X193196420Y-136031288D02*
G01*
X193251600Y-136110407D01*
X193282241Y-136169949D01*
X193359085Y-136328687D01*
X193467509Y-136224938D01*
X193573981Y-136145350D01*
X193674518Y-136109062D01*
X193732080Y-136114204D01*
X193830834Y-136131162D01*
X193931122Y-136117072D01*
X193980206Y-136091495D01*
X194028363Y-136062316D01*
X194058777Y-136083555D01*
X194077957Y-136163024D01*
X194084314Y-136216488D01*
X194079461Y-136300012D01*
X194053210Y-136349389D01*
X194017637Y-136352654D01*
X193989258Y-136310674D01*
X193962230Y-136276277D01*
X193911879Y-136292810D01*
X193901433Y-136299114D01*
X193842631Y-136322556D01*
X193804170Y-136293723D01*
X193800951Y-136288806D01*
X193774461Y-136256971D01*
X193767415Y-136290073D01*
X193767311Y-136297480D01*
X193745351Y-136348024D01*
X193697502Y-136353443D01*
X193648874Y-136315682D01*
X193634169Y-136287175D01*
X193614824Y-136250456D01*
X193591019Y-136257940D01*
X193551551Y-136317018D01*
X193528969Y-136356574D01*
X193472601Y-136440340D01*
X193420869Y-136490572D01*
X193403299Y-136497002D01*
X193353312Y-136472313D01*
X193285081Y-136410601D01*
X193262454Y-136385169D01*
X193157869Y-136240225D01*
X193113820Y-136126220D01*
X193119189Y-136065472D01*
X193153246Y-136016927D01*
X193196420Y-136031288D01*
G37*
G36*
X185520879Y-135414441D02*
G01*
X185649767Y-135499902D01*
X185815961Y-135628934D01*
X185998397Y-135783792D01*
X186134374Y-135900217D01*
X186305216Y-136042433D01*
X186490748Y-136193963D01*
X186670792Y-136338329D01*
X186825171Y-136459055D01*
X186826889Y-136460371D01*
X186929489Y-136534135D01*
X187077227Y-136633995D01*
X187255528Y-136750680D01*
X187449817Y-136874922D01*
X187645522Y-136997448D01*
X187828067Y-137108991D01*
X187982879Y-137200278D01*
X188045838Y-137235709D01*
X188176472Y-137316728D01*
X188241503Y-137380828D01*
X188242230Y-137429547D01*
X188223198Y-137446088D01*
X188176031Y-137445179D01*
X188097772Y-137420706D01*
X188093028Y-137418740D01*
X188014776Y-137379369D01*
X187900494Y-137314167D01*
X187771974Y-137235681D01*
X187742288Y-137216810D01*
X187585693Y-137117518D01*
X187412216Y-137009159D01*
X187259327Y-136915139D01*
X187258887Y-136914871D01*
X187147413Y-136845256D01*
X187035128Y-136770614D01*
X186915691Y-136685970D01*
X186782763Y-136586349D01*
X186630001Y-136466774D01*
X186451065Y-136322270D01*
X186239614Y-136147861D01*
X185989306Y-135938572D01*
X185693802Y-135689426D01*
X185649974Y-135652359D01*
X185536795Y-135552367D01*
X185449312Y-135466874D01*
X185397710Y-135406375D01*
X185388886Y-135383345D01*
X185432764Y-135374830D01*
X185520879Y-135414441D01*
G37*
G36*
X195262746Y-134271798D02*
G01*
X195333694Y-134339251D01*
X195398095Y-134459546D01*
X195399704Y-134463126D01*
X195435696Y-134611506D01*
X195404963Y-134744324D01*
X195308759Y-134859997D01*
X195148335Y-134956936D01*
X194955712Y-135025299D01*
X194847735Y-135059523D01*
X194760314Y-135101333D01*
X194675154Y-135163108D01*
X194573954Y-135257233D01*
X194495944Y-135336429D01*
X194393390Y-135445438D01*
X194312175Y-135537939D01*
X194262732Y-135601688D01*
X194252572Y-135622050D01*
X194282822Y-135656863D01*
X194358855Y-135697512D01*
X194458599Y-135735292D01*
X194559978Y-135761495D01*
X194623401Y-135768314D01*
X194690259Y-135750632D01*
X194777170Y-135693165D01*
X194893454Y-135589280D01*
X194941857Y-135541688D01*
X195073542Y-135420073D01*
X195171726Y-135351338D01*
X195234158Y-135336595D01*
X195258585Y-135376956D01*
X195258856Y-135385236D01*
X195235977Y-135424330D01*
X195174765Y-135498925D01*
X195086361Y-135595853D01*
X195040232Y-135643699D01*
X194910717Y-135767619D01*
X194808403Y-135844719D01*
X194719948Y-135884506D01*
X194693541Y-135890696D01*
X194616266Y-135912959D01*
X194582956Y-135938516D01*
X194584125Y-135944899D01*
X194584093Y-135995728D01*
X194564064Y-136047410D01*
X194543979Y-136125623D01*
X194561633Y-136163461D01*
X194577236Y-136218636D01*
X194557101Y-136247992D01*
X194494804Y-136282362D01*
X194429000Y-136284551D01*
X194389489Y-136255007D01*
X194387374Y-136245431D01*
X194386447Y-136175142D01*
X194388552Y-136132658D01*
X194386159Y-136094398D01*
X194362606Y-136102093D01*
X194306739Y-136159640D01*
X194304649Y-136161954D01*
X194226555Y-136227757D01*
X194163960Y-136240789D01*
X194162081Y-136240122D01*
X194132179Y-136218353D01*
X194143728Y-136178710D01*
X194183214Y-136124077D01*
X194265704Y-136039725D01*
X194366425Y-135962508D01*
X194375409Y-135956893D01*
X194492978Y-135885226D01*
X194317911Y-135822273D01*
X194216035Y-135778371D01*
X194144246Y-135733920D01*
X194124357Y-135711144D01*
X194126035Y-135621846D01*
X194184768Y-135500714D01*
X194298145Y-135351685D01*
X194431660Y-135209977D01*
X194552149Y-135095262D01*
X194647148Y-135019306D01*
X194737296Y-134969024D01*
X194843235Y-134931328D01*
X194893494Y-134917156D01*
X195072305Y-134853607D01*
X195203341Y-134775151D01*
X195278498Y-134687664D01*
X195293555Y-134627148D01*
X195279987Y-134531830D01*
X195246597Y-134444063D01*
X195204358Y-134388425D01*
X195183376Y-134380336D01*
X195158519Y-134390534D01*
X195182517Y-134421975D01*
X195221053Y-134504613D01*
X195214672Y-134610677D01*
X195166812Y-134713814D01*
X195140396Y-134744846D01*
X195017762Y-134832587D01*
X194894742Y-134854239D01*
X194786675Y-134814820D01*
X194727122Y-134755570D01*
X194710441Y-134674607D01*
X194715824Y-134648872D01*
X194853208Y-134648872D01*
X194861747Y-134695762D01*
X194896909Y-134724515D01*
X194952306Y-134708970D01*
X195008239Y-134673313D01*
X195069671Y-134607585D01*
X195082794Y-134545099D01*
X195054034Y-134503563D01*
X194989817Y-134500687D01*
X194951360Y-134516565D01*
X194884240Y-134575811D01*
X194853208Y-134648872D01*
X194715824Y-134648872D01*
X194735066Y-134556888D01*
X194754046Y-134501784D01*
X194754388Y-134481689D01*
X194724743Y-134514318D01*
X194707817Y-134538334D01*
X194662636Y-134619530D01*
X194654977Y-134694305D01*
X194673524Y-134779855D01*
X194689030Y-134831735D01*
X194697101Y-134870982D01*
X194690717Y-134906439D01*
X194662856Y-134946948D01*
X194606499Y-135001353D01*
X194514623Y-135078497D01*
X194380208Y-135187223D01*
X194296217Y-135255089D01*
X194175110Y-135357056D01*
X194065787Y-135455933D01*
X193986650Y-135534854D01*
X193969918Y-135554111D01*
X193823353Y-135693141D01*
X193653878Y-135770196D01*
X193510418Y-135791067D01*
X193392901Y-135798054D01*
X193295275Y-135806180D01*
X193263637Y-135809963D01*
X193195959Y-135806936D01*
X193183773Y-135775451D01*
X193224582Y-135725180D01*
X193298389Y-135675286D01*
X193400739Y-135628168D01*
X193471837Y-135623839D01*
X193497253Y-135633834D01*
X193568598Y-135653258D01*
X193650166Y-135633810D01*
X193751876Y-135570556D01*
X193883646Y-135458567D01*
X193922376Y-135422445D01*
X194058976Y-135299101D01*
X194214012Y-135167596D01*
X194349629Y-135059732D01*
X194568134Y-134894257D01*
X194545427Y-134742840D01*
X194538721Y-134621776D01*
X194567282Y-134524388D01*
X194593872Y-134477204D01*
X194678028Y-134369252D01*
X194779872Y-134301294D01*
X194919102Y-134262865D01*
X195020953Y-134250325D01*
X195165188Y-134245913D01*
X195262746Y-134271798D01*
G37*
G36*
X191477636Y-138262762D02*
G01*
X191502814Y-138292699D01*
X191487113Y-138328663D01*
X191453482Y-138336605D01*
X191415899Y-138346314D01*
X191428483Y-138362629D01*
X191459782Y-138418617D01*
X191453653Y-138496269D01*
X191416180Y-138563184D01*
X191387179Y-138582651D01*
X191350417Y-138601324D01*
X191374879Y-138609410D01*
X191415891Y-138611230D01*
X191490265Y-138629222D01*
X191511315Y-138663380D01*
X191481964Y-138716079D01*
X191403407Y-138737298D01*
X191289887Y-138723674D01*
X191274142Y-138719409D01*
X191177153Y-138704958D01*
X191085895Y-138730276D01*
X191039661Y-138754271D01*
X190946893Y-138798524D01*
X190870684Y-138821931D01*
X190859645Y-138822969D01*
X190809876Y-138835961D01*
X190750109Y-138865115D01*
X190700709Y-138897806D01*
X190682041Y-138921411D01*
X190693494Y-138925964D01*
X190699148Y-138947032D01*
X190680950Y-138975095D01*
X190662232Y-139017114D01*
X190703604Y-139044226D01*
X190713311Y-139047439D01*
X190769435Y-139080130D01*
X190766186Y-139114725D01*
X190712437Y-139140522D01*
X190630382Y-139147449D01*
X190544195Y-139148510D01*
X190524937Y-139159640D01*
X190573099Y-139181354D01*
X190689169Y-139214169D01*
X190695005Y-139215662D01*
X190790659Y-139246251D01*
X190851866Y-139277588D01*
X190862765Y-139290890D01*
X190839189Y-139318501D01*
X190768972Y-139331192D01*
X190673254Y-139328925D01*
X190573178Y-139311667D01*
X190513706Y-139291474D01*
X190427588Y-139243565D01*
X190404131Y-139198453D01*
X190436674Y-139146999D01*
X190436317Y-139114617D01*
X190370683Y-139078672D01*
X190332079Y-139064942D01*
X190224406Y-139019639D01*
X190152399Y-138970551D01*
X190126065Y-138926948D01*
X190152866Y-138898912D01*
X190150275Y-138874502D01*
X190143401Y-138868132D01*
X190585996Y-138868132D01*
X190590759Y-138888760D01*
X190609129Y-138891265D01*
X190637691Y-138878569D01*
X190632262Y-138868132D01*
X190591082Y-138863979D01*
X190585996Y-138868132D01*
X190143401Y-138868132D01*
X190096130Y-138824325D01*
X189999418Y-138756537D01*
X189996890Y-138754926D01*
X190314184Y-138754926D01*
X190314650Y-138769003D01*
X190363636Y-138803022D01*
X190366233Y-138804516D01*
X190440948Y-138840854D01*
X190487681Y-138854106D01*
X190487215Y-138840029D01*
X190438229Y-138806010D01*
X190435632Y-138804516D01*
X190360917Y-138768178D01*
X190314184Y-138754926D01*
X189996890Y-138754926D01*
X189988044Y-138749289D01*
X189967542Y-138735117D01*
X190227435Y-138735117D01*
X190244785Y-138752467D01*
X190262135Y-138735117D01*
X190244785Y-138717767D01*
X190227435Y-138735117D01*
X189967542Y-138735117D01*
X189917345Y-138700418D01*
X190158036Y-138700418D01*
X190175386Y-138717767D01*
X190192736Y-138700418D01*
X190175386Y-138683068D01*
X190158036Y-138700418D01*
X189917345Y-138700418D01*
X189866444Y-138665233D01*
X189795839Y-138600717D01*
X189790776Y-138588493D01*
X189992004Y-138588493D01*
X189997983Y-138599263D01*
X190034545Y-138629104D01*
X190096447Y-138674609D01*
X190120930Y-138678600D01*
X190123337Y-138666939D01*
X190122028Y-138665718D01*
X190435632Y-138665718D01*
X190452982Y-138683068D01*
X190470331Y-138665718D01*
X190452982Y-138648368D01*
X190435632Y-138665718D01*
X190122028Y-138665718D01*
X190096084Y-138641513D01*
X190077395Y-138631019D01*
X190366233Y-138631019D01*
X190383583Y-138648368D01*
X190400932Y-138631019D01*
X190383583Y-138613669D01*
X190366233Y-138631019D01*
X190077395Y-138631019D01*
X190045263Y-138612976D01*
X189992004Y-138588493D01*
X189790776Y-138588493D01*
X189778932Y-138559898D01*
X189818428Y-138546938D01*
X189859923Y-138552157D01*
X189920153Y-138553585D01*
X189925609Y-138521503D01*
X189932429Y-138482724D01*
X189993600Y-138480421D01*
X190104510Y-138514475D01*
X190135365Y-138526933D01*
X190214360Y-138557399D01*
X190244858Y-138558511D01*
X190241247Y-138530271D01*
X190239988Y-138526933D01*
X190239991Y-138526920D01*
X190747927Y-138526920D01*
X190765277Y-138544270D01*
X190782626Y-138526920D01*
X190765277Y-138509571D01*
X190747927Y-138526920D01*
X190239991Y-138526920D01*
X190248241Y-138486972D01*
X190306689Y-138477843D01*
X190402668Y-138500976D01*
X190418251Y-138506821D01*
X190493770Y-138509590D01*
X190525096Y-138482639D01*
X190563639Y-138450288D01*
X190618328Y-138461985D01*
X190646576Y-138476159D01*
X190702576Y-138503533D01*
X190706955Y-138494012D01*
X190685518Y-138466292D01*
X190657161Y-138412467D01*
X190687812Y-138392530D01*
X190775940Y-138406438D01*
X190920012Y-138454149D01*
X190972006Y-138474288D01*
X191118198Y-138529884D01*
X191221184Y-138564143D01*
X191276168Y-138576337D01*
X191278354Y-138565736D01*
X191222943Y-138531609D01*
X191169933Y-138504402D01*
X191055417Y-138434957D01*
X190997082Y-138370151D01*
X191000056Y-138316049D01*
X191005464Y-138309866D01*
X191049059Y-138307681D01*
X191096500Y-138329006D01*
X191148088Y-138353468D01*
X191163891Y-138330875D01*
X191164320Y-138318357D01*
X191182831Y-138282295D01*
X191247326Y-138286201D01*
X191251069Y-138287125D01*
X191320525Y-138291230D01*
X191337818Y-138268023D01*
X191363563Y-138240605D01*
X191420378Y-138240379D01*
X191477636Y-138262762D01*
G37*
G36*
X193717538Y-134289863D02*
G01*
X193758935Y-134326757D01*
X193744669Y-134368765D01*
X193683841Y-134396062D01*
X193667924Y-134397938D01*
X193553848Y-134437517D01*
X193425055Y-134537024D01*
X193289452Y-134690153D01*
X193223258Y-134788476D01*
X193197668Y-134851247D01*
X193210209Y-134871507D01*
X193258410Y-134842302D01*
X193320921Y-134778719D01*
X193407069Y-134696272D01*
X193475275Y-134660637D01*
X193516241Y-134674963D01*
X193523883Y-134709980D01*
X193505922Y-134756169D01*
X193490646Y-134762030D01*
X193455440Y-134789526D01*
X193402285Y-134859720D01*
X193369198Y-134912551D01*
X193306112Y-135027391D01*
X193283200Y-135088952D01*
X193299649Y-135099956D01*
X193315687Y-135091674D01*
X193370192Y-135080160D01*
X193392943Y-135116177D01*
X193373828Y-135181317D01*
X193369104Y-135188907D01*
X193331579Y-135272368D01*
X193300854Y-135384134D01*
X193295656Y-135412644D01*
X193274148Y-135514544D01*
X193247526Y-135554618D01*
X193207847Y-135540385D01*
X193183829Y-135518478D01*
X193148950Y-135496871D01*
X193142189Y-135505978D01*
X193166578Y-135548242D01*
X193202913Y-135582316D01*
X193243359Y-135621331D01*
X193229866Y-135653936D01*
X193196281Y-135681565D01*
X193112507Y-135727702D01*
X193056602Y-135720648D01*
X193038091Y-135667685D01*
X193029782Y-135637272D01*
X192998189Y-135648211D01*
X192933309Y-135705227D01*
X192909522Y-135728409D01*
X192819224Y-135839899D01*
X192793095Y-135936980D01*
X192829391Y-136026969D01*
X192836267Y-136035715D01*
X192854577Y-136092831D01*
X192848183Y-136113788D01*
X192794593Y-136147881D01*
X192732300Y-136134525D01*
X192704485Y-136100150D01*
X192661718Y-136066763D01*
X192634105Y-136069957D01*
X192584763Y-136059432D01*
X192563531Y-136015717D01*
X192546507Y-135957678D01*
X192539577Y-135942387D01*
X192507333Y-135953600D01*
X192427118Y-135982481D01*
X192316129Y-136022839D01*
X192313351Y-136023853D01*
X192200222Y-136067423D01*
X192145914Y-136095829D01*
X192142955Y-136114434D01*
X192171585Y-136125619D01*
X192225532Y-136148914D01*
X192219267Y-136184427D01*
X192209874Y-136196551D01*
X192130116Y-136253410D01*
X192039026Y-136266068D01*
X191992274Y-136249194D01*
X191967401Y-136217537D01*
X191997237Y-136176510D01*
X192014457Y-136162030D01*
X192083856Y-136105972D01*
X192014457Y-136129281D01*
X191948543Y-136153079D01*
X191840612Y-136193693D01*
X191713257Y-136242615D01*
X191704987Y-136245825D01*
X191585899Y-136294265D01*
X191525374Y-136325894D01*
X191516141Y-136345864D01*
X191546267Y-136358264D01*
X191622553Y-136388059D01*
X191632550Y-136422673D01*
X191578798Y-136458049D01*
X191463836Y-136490132D01*
X191463689Y-136490161D01*
X191305082Y-136528609D01*
X191170284Y-136573563D01*
X191073098Y-136619399D01*
X191027326Y-136660491D01*
X191025523Y-136668729D01*
X191057081Y-136693502D01*
X191142556Y-136703553D01*
X191268143Y-136699338D01*
X191420038Y-136681314D01*
X191582736Y-136650324D01*
X191708293Y-136625045D01*
X191809732Y-136610591D01*
X191865970Y-136609927D01*
X191867181Y-136610297D01*
X191879134Y-136633773D01*
X191837824Y-136670306D01*
X191756586Y-136713445D01*
X191648759Y-136756743D01*
X191527680Y-136793749D01*
X191453341Y-136810415D01*
X191263429Y-136834453D01*
X191100602Y-136832610D01*
X190973354Y-136807512D01*
X190890180Y-136761787D01*
X190859575Y-136698063D01*
X190880315Y-136633169D01*
X190907130Y-136584471D01*
X190888610Y-136582309D01*
X190844937Y-136603950D01*
X190728212Y-136672511D01*
X190635304Y-136740861D01*
X190581680Y-136796866D01*
X190574430Y-136816200D01*
X190605120Y-136837620D01*
X190688842Y-136834475D01*
X190695242Y-136833472D01*
X190791188Y-136831274D01*
X190840453Y-136856843D01*
X190834460Y-136901740D01*
X190799136Y-136935651D01*
X190758696Y-136980362D01*
X190759316Y-137005750D01*
X190806127Y-137012869D01*
X190903374Y-137003928D01*
X191034781Y-136981984D01*
X191184068Y-136950089D01*
X191334958Y-136911300D01*
X191448881Y-136876350D01*
X191569403Y-136839887D01*
X191673423Y-136815534D01*
X191723795Y-136809297D01*
X191775365Y-136813011D01*
X191773523Y-136835896D01*
X191736861Y-136878696D01*
X191701881Y-136930686D01*
X191722718Y-136945618D01*
X191796544Y-136923542D01*
X191898510Y-136875890D01*
X192001893Y-136829496D01*
X192091534Y-136799679D01*
X192113999Y-136795450D01*
X192204867Y-136771922D01*
X192263922Y-136746113D01*
X192335511Y-136727739D01*
X192370079Y-136755247D01*
X192353520Y-136813976D01*
X192342840Y-136828167D01*
X192283591Y-136867448D01*
X192214386Y-136877775D01*
X192167473Y-136855198D01*
X192164821Y-136849963D01*
X192134018Y-136853664D01*
X192066127Y-136892786D01*
X191997107Y-136942709D01*
X191925418Y-137002532D01*
X191894638Y-137037024D01*
X191907585Y-137039666D01*
X192002182Y-137010460D01*
X192111372Y-136984482D01*
X192212579Y-136966099D01*
X192283229Y-136959679D01*
X192301602Y-136963428D01*
X192296860Y-137000350D01*
X192270973Y-137040502D01*
X192241225Y-137082855D01*
X192262006Y-137084672D01*
X192283378Y-137077129D01*
X192334079Y-137072389D01*
X192337484Y-137106973D01*
X192294404Y-137170193D01*
X192274703Y-137190991D01*
X192205304Y-137260390D01*
X192311684Y-137260390D01*
X192408251Y-137250815D01*
X192476506Y-137230491D01*
X192553148Y-137200404D01*
X192638105Y-137175840D01*
X192741261Y-137151088D01*
X192673739Y-137225700D01*
X192591308Y-137300403D01*
X192512331Y-137355771D01*
X192439237Y-137417393D01*
X192399208Y-137486641D01*
X192401990Y-137543159D01*
X192416041Y-137556906D01*
X192466480Y-137558171D01*
X192553126Y-137518089D01*
X192681027Y-137433919D01*
X192787402Y-137355238D01*
X192883064Y-137287847D01*
X192956968Y-137245813D01*
X192992760Y-137238192D01*
X192997429Y-137287275D01*
X192955551Y-137362783D01*
X192877184Y-137450992D01*
X192773434Y-137537427D01*
X192688785Y-137603417D01*
X192633704Y-137656331D01*
X192621697Y-137676758D01*
X192651776Y-137691312D01*
X192726535Y-137689788D01*
X192751820Y-137686327D01*
X192875001Y-137668633D01*
X192945985Y-137666259D01*
X192980676Y-137681159D01*
X192994978Y-137715292D01*
X192995182Y-137716267D01*
X192973198Y-137759607D01*
X192902929Y-137797542D01*
X192805488Y-137824836D01*
X192701988Y-137836255D01*
X192613542Y-137826561D01*
X192589428Y-137816882D01*
X192496103Y-137797552D01*
X192457805Y-137810896D01*
X192435917Y-137832832D01*
X192467062Y-137850366D01*
X192559238Y-137867881D01*
X192562790Y-137868416D01*
X192663127Y-137888908D01*
X192731393Y-137912961D01*
X192745801Y-137923977D01*
X192741422Y-137961395D01*
X192684798Y-137984424D01*
X192592015Y-137990803D01*
X192479160Y-137978270D01*
X192433615Y-137967882D01*
X192319173Y-137942108D01*
X192256295Y-137937154D01*
X192249896Y-137951894D01*
X192304892Y-137985205D01*
X192322268Y-137993349D01*
X192388296Y-138037920D01*
X192413501Y-138081397D01*
X192385631Y-138116114D01*
X192321550Y-138126749D01*
X192250553Y-138112141D01*
X192215267Y-138089261D01*
X192159831Y-138068261D01*
X192136852Y-138075242D01*
X192123100Y-138109155D01*
X192159853Y-138147898D01*
X192201467Y-138188861D01*
X192186391Y-138219569D01*
X192170605Y-138230951D01*
X192103949Y-138252730D01*
X192075181Y-138248960D01*
X192003956Y-138220676D01*
X191977995Y-138210236D01*
X191942586Y-138206501D01*
X191940097Y-138247704D01*
X191948402Y-138284994D01*
X191960163Y-138350215D01*
X191937836Y-138370315D01*
X191864770Y-138359920D01*
X191863416Y-138359649D01*
X191786737Y-138353501D01*
X191754295Y-138370233D01*
X191754211Y-138371640D01*
X191780643Y-138404496D01*
X191788911Y-138405472D01*
X191819695Y-138433577D01*
X191823610Y-138457521D01*
X191799336Y-138500918D01*
X191740655Y-138504969D01*
X191668773Y-138471836D01*
X191630654Y-138437841D01*
X191596624Y-138395433D01*
X191592508Y-138359940D01*
X191625162Y-138314141D01*
X191701439Y-138240818D01*
X191713532Y-138229644D01*
X191797285Y-138155843D01*
X191861068Y-138106089D01*
X191885842Y-138092685D01*
X191920888Y-138070223D01*
X191992088Y-138011031D01*
X192085742Y-137926658D01*
X192112273Y-137901838D01*
X192211427Y-137812540D01*
X192294085Y-137745702D01*
X192345586Y-137712972D01*
X192351873Y-137711483D01*
X192360897Y-137690707D01*
X192332130Y-137648027D01*
X192287414Y-137583068D01*
X192274703Y-137543037D01*
X192255152Y-137523145D01*
X192190986Y-137545088D01*
X192172328Y-137554445D01*
X192073805Y-137592347D01*
X191986859Y-137607385D01*
X191895319Y-137579570D01*
X191820822Y-137511820D01*
X191788941Y-137427676D01*
X191788911Y-137425156D01*
X191782712Y-137406662D01*
X191927708Y-137406662D01*
X191938462Y-137454023D01*
X191983970Y-137460539D01*
X192023061Y-137452179D01*
X192096574Y-137430676D01*
X192131290Y-137415370D01*
X192120652Y-137384397D01*
X192090565Y-137348891D01*
X192020733Y-137313688D01*
X191958323Y-137332872D01*
X191928023Y-137397687D01*
X191927708Y-137406662D01*
X191782712Y-137406662D01*
X191779444Y-137396911D01*
X191741787Y-137382799D01*
X191662056Y-137380769D01*
X191537340Y-137387972D01*
X191338757Y-137391377D01*
X191196310Y-137366836D01*
X191101562Y-137311830D01*
X191054226Y-137243737D01*
X191012026Y-137183283D01*
X190960032Y-137164919D01*
X191166783Y-137164919D01*
X191192326Y-137217370D01*
X191225044Y-137236471D01*
X191314828Y-137254793D01*
X191356312Y-137252400D01*
X191341110Y-137230386D01*
X191329143Y-137222911D01*
X191278717Y-137171168D01*
X191268419Y-137137218D01*
X191240605Y-137092719D01*
X191232780Y-137090838D01*
X191357606Y-137090838D01*
X191400000Y-137106738D01*
X191489671Y-137115729D01*
X191574087Y-137116393D01*
X191665190Y-137111600D01*
X191696601Y-137104232D01*
X191667462Y-137095973D01*
X191580718Y-137075543D01*
X191567775Y-137069543D01*
X191788911Y-137069543D01*
X191806260Y-137086893D01*
X191823610Y-137069543D01*
X191806260Y-137052194D01*
X191788911Y-137069543D01*
X191567775Y-137069543D01*
X191526859Y-137050575D01*
X191476081Y-137035024D01*
X191412442Y-137041579D01*
X191364276Y-137063499D01*
X191357606Y-137090838D01*
X191232780Y-137090838D01*
X191216370Y-137086893D01*
X191174217Y-137111408D01*
X191166783Y-137164919D01*
X190960032Y-137164919D01*
X190943483Y-137159074D01*
X190883414Y-137156292D01*
X190739572Y-137142793D01*
X190633903Y-137105874D01*
X190579196Y-137050905D01*
X190574430Y-137026581D01*
X190545819Y-136965935D01*
X190496356Y-136929773D01*
X190449571Y-136923202D01*
X190374811Y-136935755D01*
X190266632Y-136969572D01*
X190119588Y-137026793D01*
X189928235Y-137109560D01*
X189687128Y-137220014D01*
X189390822Y-137360294D01*
X189342835Y-137383294D01*
X189177766Y-137465210D01*
X189075684Y-137522011D01*
X189035014Y-137554034D01*
X189054180Y-137561616D01*
X189131606Y-137545094D01*
X189265718Y-137504805D01*
X189454937Y-137441087D01*
X189697691Y-137354277D01*
X189992401Y-137244712D01*
X189994806Y-137243804D01*
X190195763Y-137170725D01*
X190339090Y-137125338D01*
X190430138Y-137106189D01*
X190474259Y-137111826D01*
X190475840Y-137113221D01*
X190498719Y-137157613D01*
X190469050Y-137200505D01*
X190380721Y-137247822D01*
X190306642Y-137277238D01*
X190197871Y-137318299D01*
X190050197Y-137374741D01*
X189889362Y-137436707D01*
X189828391Y-137460335D01*
X189662255Y-137522772D01*
X189491854Y-137583424D01*
X189346501Y-137631954D01*
X189307900Y-137643885D01*
X189210713Y-137675734D01*
X189156908Y-137699091D01*
X189157914Y-137708831D01*
X189210280Y-137699670D01*
X189315400Y-137672675D01*
X189460049Y-137631529D01*
X189631002Y-137579916D01*
X189713105Y-137554220D01*
X190049051Y-137450221D01*
X190324353Y-137370385D01*
X190543133Y-137313944D01*
X190709513Y-137280127D01*
X190827614Y-137268169D01*
X190901561Y-137277299D01*
X190935473Y-137306751D01*
X190938774Y-137325763D01*
X190904386Y-137359825D01*
X190801153Y-137400635D01*
X190628975Y-137448232D01*
X190601348Y-137454962D01*
X190411561Y-137504146D01*
X190193152Y-137566109D01*
X189982849Y-137630273D01*
X189907359Y-137654806D01*
X189721949Y-137713570D01*
X189523899Y-137771602D01*
X189344571Y-137819881D01*
X189273200Y-137837206D01*
X189139631Y-137870566D01*
X189070137Y-137893932D01*
X189060128Y-137907354D01*
X189105010Y-137910882D01*
X189200191Y-137904565D01*
X189341078Y-137888451D01*
X189523081Y-137862592D01*
X189709463Y-137832514D01*
X189936554Y-137792449D01*
X190724794Y-137792449D01*
X190729557Y-137813077D01*
X190747927Y-137815582D01*
X190776489Y-137802886D01*
X190771060Y-137792449D01*
X190729880Y-137788296D01*
X190724794Y-137792449D01*
X189936554Y-137792449D01*
X189951501Y-137789812D01*
X190123234Y-137757749D01*
X190898291Y-137757749D01*
X190903054Y-137778378D01*
X190921424Y-137780882D01*
X190949986Y-137768186D01*
X190944557Y-137757749D01*
X190903377Y-137753596D01*
X190898291Y-137757749D01*
X190123234Y-137757749D01*
X190223714Y-137738989D01*
X190494089Y-137686171D01*
X190730610Y-137637485D01*
X190747927Y-137633776D01*
X191003081Y-137580979D01*
X191197543Y-137545862D01*
X191337587Y-137527889D01*
X191429485Y-137526522D01*
X191479511Y-137541222D01*
X191493965Y-137569821D01*
X191459872Y-137607520D01*
X191359701Y-137648504D01*
X191251069Y-137678609D01*
X191129783Y-137709150D01*
X191070253Y-137727623D01*
X191066658Y-137737745D01*
X191113174Y-137743235D01*
X191146971Y-137745090D01*
X191285768Y-137751967D01*
X191112271Y-137832908D01*
X190978489Y-137884005D01*
X190789411Y-137940524D01*
X190558632Y-137999501D01*
X190299745Y-138057974D01*
X190026345Y-138112981D01*
X189752028Y-138161560D01*
X189490386Y-138200748D01*
X189340075Y-138219075D01*
X189106168Y-138242308D01*
X188910680Y-138255207D01*
X188726801Y-138258207D01*
X188527724Y-138251746D01*
X188286637Y-138236258D01*
X188286164Y-138236224D01*
X188041374Y-138220780D01*
X187864700Y-138215341D01*
X187755582Y-138219903D01*
X187715358Y-138231812D01*
X187647908Y-138263661D01*
X187549712Y-138271094D01*
X187440781Y-138258155D01*
X187341127Y-138228892D01*
X187270760Y-138187348D01*
X187249672Y-138137671D01*
X187268868Y-138104744D01*
X187636543Y-138104744D01*
X187641306Y-138125372D01*
X187659676Y-138127877D01*
X187685918Y-138116212D01*
X188478064Y-138116212D01*
X188484997Y-138125397D01*
X188492462Y-138126716D01*
X188549405Y-138134550D01*
X188605448Y-138138793D01*
X188672698Y-138138879D01*
X188763261Y-138134242D01*
X188889243Y-138124316D01*
X189062753Y-138108535D01*
X189238501Y-138091832D01*
X189442065Y-138068276D01*
X189671097Y-138035140D01*
X189908435Y-137995553D01*
X190136917Y-137952647D01*
X190339382Y-137909553D01*
X190498668Y-137869399D01*
X190557080Y-137851293D01*
X190622681Y-137828086D01*
X190626524Y-137822326D01*
X190565633Y-137831320D01*
X190539730Y-137835595D01*
X190465417Y-137848163D01*
X190336985Y-137870170D01*
X190168688Y-137899163D01*
X189974778Y-137932686D01*
X189828391Y-137958063D01*
X189591620Y-137995812D01*
X189337922Y-138030646D01*
X189092131Y-138059503D01*
X188879081Y-138079322D01*
X188804758Y-138084246D01*
X188644199Y-138094786D01*
X188533216Y-138105725D01*
X188478064Y-138116212D01*
X187685918Y-138116212D01*
X187688237Y-138115181D01*
X187682809Y-138104744D01*
X187641628Y-138100591D01*
X187636543Y-138104744D01*
X187268868Y-138104744D01*
X187285112Y-138076882D01*
X187358214Y-138012915D01*
X187366931Y-138007480D01*
X187980945Y-138007480D01*
X187987894Y-138021470D01*
X188020981Y-138057344D01*
X188027067Y-138032045D01*
X188018644Y-138004932D01*
X187993098Y-137967143D01*
X187981559Y-137967924D01*
X187980945Y-138007480D01*
X187366931Y-138007480D01*
X187451641Y-137954663D01*
X187470597Y-137946083D01*
X188889206Y-137946083D01*
X188923314Y-137951640D01*
X188968320Y-137945260D01*
X188968857Y-137933415D01*
X188922416Y-137925132D01*
X188902350Y-137930676D01*
X188889206Y-137946083D01*
X187470597Y-137946083D01*
X187548056Y-137911023D01*
X187630121Y-137890887D01*
X187680499Y-137903151D01*
X187686546Y-137913541D01*
X187723569Y-137926878D01*
X187792358Y-137902330D01*
X188457763Y-137902330D01*
X188475113Y-137919680D01*
X188492462Y-137902330D01*
X188475113Y-137884980D01*
X188457763Y-137902330D01*
X187792358Y-137902330D01*
X187811732Y-137895416D01*
X187839974Y-137881511D01*
X187946454Y-137837865D01*
X188008173Y-137839731D01*
X188016114Y-137845846D01*
X188073849Y-137862507D01*
X188122840Y-137843820D01*
X188151887Y-137822344D01*
X188147980Y-137798422D01*
X188102556Y-137764307D01*
X188007055Y-137712252D01*
X187939506Y-137677909D01*
X187807013Y-137613828D01*
X187712380Y-137578128D01*
X187632851Y-137565405D01*
X187545668Y-137570249D01*
X187507682Y-137575301D01*
X187386994Y-137589613D01*
X187227442Y-137604633D01*
X187059475Y-137617554D01*
X187024833Y-137619811D01*
X186874494Y-137627499D01*
X186776503Y-137626297D01*
X186714130Y-137614019D01*
X186670651Y-137588482D01*
X186651814Y-137571108D01*
X186595423Y-137497386D01*
X186595205Y-137489902D01*
X186772679Y-137489902D01*
X186809819Y-137490084D01*
X186865964Y-137482317D01*
X186964105Y-137468698D01*
X187098268Y-137451881D01*
X187208583Y-137439015D01*
X187434129Y-137413715D01*
X187301495Y-137343686D01*
X187168862Y-137273657D01*
X186973833Y-137372031D01*
X186850231Y-137435431D01*
X186784665Y-137473203D01*
X186772679Y-137489902D01*
X186595205Y-137489902D01*
X186593613Y-137435305D01*
X186650664Y-137376726D01*
X186770854Y-137313511D01*
X186792189Y-137304161D01*
X186898089Y-137255523D01*
X186972567Y-137215683D01*
X186998970Y-137193985D01*
X186970910Y-137167546D01*
X186897502Y-137115068D01*
X186792789Y-137046414D01*
X186755783Y-137023150D01*
X186672391Y-136968478D01*
X186546893Y-136882627D01*
X186388016Y-136771866D01*
X186204487Y-136642467D01*
X186005032Y-136500700D01*
X185798379Y-136352835D01*
X185593255Y-136205143D01*
X185398386Y-136063893D01*
X185222500Y-135935357D01*
X185074323Y-135825805D01*
X184962582Y-135741506D01*
X184896005Y-135688732D01*
X184885368Y-135679241D01*
X184851890Y-135607663D01*
X184836013Y-135501128D01*
X184953118Y-135501128D01*
X184972572Y-135551815D01*
X185034901Y-135619471D01*
X185146058Y-135709484D01*
X185311993Y-135827241D01*
X185317462Y-135830974D01*
X185423911Y-135904859D01*
X185568974Y-136007320D01*
X185735240Y-136125978D01*
X185905300Y-136248453D01*
X185942053Y-136275086D01*
X186259967Y-136503115D01*
X186537641Y-136695828D01*
X186788599Y-136861791D01*
X187026364Y-137009570D01*
X187264459Y-137147734D01*
X187516408Y-137284847D01*
X187630530Y-137344659D01*
X187815260Y-137441950D01*
X187979821Y-137531228D01*
X188113756Y-137606607D01*
X188206602Y-137662204D01*
X188247721Y-137691910D01*
X188310768Y-137723882D01*
X188351024Y-137722228D01*
X188416663Y-137727528D01*
X188441607Y-137748114D01*
X188471958Y-137758643D01*
X188494565Y-137728833D01*
X189012954Y-137728833D01*
X189030304Y-137746183D01*
X189047654Y-137728833D01*
X189030304Y-137711483D01*
X189012954Y-137728833D01*
X188494565Y-137728833D01*
X188513277Y-137704159D01*
X188517985Y-137695356D01*
X188552364Y-137651447D01*
X188616706Y-137600765D01*
X188634352Y-137590035D01*
X188943555Y-137590035D01*
X188960905Y-137607385D01*
X188978255Y-137590035D01*
X188960905Y-137572685D01*
X188943555Y-137590035D01*
X188634352Y-137590035D01*
X188719011Y-137538555D01*
X188867279Y-137460058D01*
X189069508Y-137360517D01*
X189128791Y-137332094D01*
X189340099Y-137232568D01*
X189558350Y-137132177D01*
X189764261Y-137039631D01*
X189938547Y-136963638D01*
X190019238Y-136929890D01*
X190167509Y-136867735D01*
X190298940Y-136809548D01*
X190395264Y-136763570D01*
X190429038Y-136745002D01*
X190482454Y-136703689D01*
X190480288Y-136668610D01*
X190457050Y-136642347D01*
X190424228Y-136618177D01*
X190378236Y-136609010D01*
X190303176Y-136615260D01*
X190183155Y-136637340D01*
X190116649Y-136651193D01*
X189963778Y-136684115D01*
X189776554Y-136725319D01*
X189568814Y-136771662D01*
X189354397Y-136820003D01*
X189147141Y-136867202D01*
X188960885Y-136910116D01*
X188809468Y-136945603D01*
X188706728Y-136970524D01*
X188683309Y-136976574D01*
X188589417Y-136977172D01*
X188454633Y-136946894D01*
X188296706Y-136891979D01*
X188133383Y-136818670D01*
X188087101Y-136792471D01*
X188478943Y-136792471D01*
X188509812Y-136809297D01*
X188602551Y-136836987D01*
X188673109Y-136836788D01*
X188700659Y-136809297D01*
X188670045Y-136787575D01*
X188594123Y-136777170D01*
X188570536Y-136777037D01*
X188493356Y-136781353D01*
X188478943Y-136792471D01*
X188087101Y-136792471D01*
X187982411Y-136733209D01*
X187971971Y-136726411D01*
X187873984Y-136663617D01*
X187748816Y-136585631D01*
X187659676Y-136531215D01*
X187357008Y-136344316D01*
X187045922Y-136144773D01*
X186743169Y-135943735D01*
X186465497Y-135752350D01*
X186229657Y-135581767D01*
X186202299Y-135561212D01*
X185973722Y-135388401D01*
X185793801Y-135252713D01*
X185655490Y-135149879D01*
X185551741Y-135075627D01*
X185475507Y-135025688D01*
X185419743Y-134995790D01*
X185377402Y-134981663D01*
X185341437Y-134979037D01*
X185304802Y-134983641D01*
X185261491Y-134991048D01*
X185130930Y-135015006D01*
X185065659Y-135041073D01*
X185061697Y-135075641D01*
X185115066Y-135125099D01*
X185159117Y-135155500D01*
X185241315Y-135216354D01*
X185292129Y-135266410D01*
X185300113Y-135283014D01*
X185273558Y-135313723D01*
X185204552Y-135309374D01*
X185109079Y-135272344D01*
X185065891Y-135248202D01*
X184989535Y-135210609D01*
X184954306Y-135213520D01*
X184953118Y-135219575D01*
X184977500Y-135279921D01*
X185032872Y-135344310D01*
X185092577Y-135383894D01*
X185107471Y-135386620D01*
X185151175Y-135407749D01*
X185231178Y-135463701D01*
X185331791Y-135543323D01*
X185353664Y-135561663D01*
X185471598Y-135656298D01*
X185624703Y-135771829D01*
X185790039Y-135891212D01*
X185897587Y-135965785D01*
X186086193Y-136096026D01*
X186221971Y-136195232D01*
X186311266Y-136268627D01*
X186360424Y-136321437D01*
X186375790Y-136358886D01*
X186375796Y-136359556D01*
X186370758Y-136386680D01*
X186351332Y-136396959D01*
X186311046Y-136386907D01*
X186243428Y-136353034D01*
X186142007Y-136291851D01*
X186000312Y-136199872D01*
X185811871Y-136073607D01*
X185681807Y-135985463D01*
X185613908Y-135935139D01*
X185512854Y-135855375D01*
X185398306Y-135761750D01*
X185375819Y-135742993D01*
X185213296Y-135613227D01*
X185086918Y-135525659D01*
X185000368Y-135482398D01*
X184957332Y-135485550D01*
X184953118Y-135501128D01*
X184836013Y-135501128D01*
X184832152Y-135475217D01*
X184828168Y-135398107D01*
X184829149Y-135255834D01*
X184835170Y-135219575D01*
X184845914Y-135154878D01*
X184884085Y-135067907D01*
X184902288Y-135037694D01*
X184953390Y-134966377D01*
X185009910Y-134919016D01*
X185089777Y-134887122D01*
X185210918Y-134862204D01*
X185302216Y-134848314D01*
X185398854Y-134839216D01*
X185470749Y-134852156D01*
X185546301Y-134896289D01*
X185614512Y-134948994D01*
X185726625Y-135035697D01*
X185863638Y-135137292D01*
X185976752Y-135218260D01*
X186105571Y-135310707D01*
X186234107Y-135406555D01*
X186323747Y-135476471D01*
X186412712Y-135543311D01*
X186548813Y-135639075D01*
X186720272Y-135756002D01*
X186915315Y-135886331D01*
X187122165Y-136022301D01*
X187329048Y-136156152D01*
X187524186Y-136280122D01*
X187695805Y-136386451D01*
X187791389Y-136443735D01*
X187917361Y-136519624D01*
X188019497Y-136584663D01*
X188083621Y-136629643D01*
X188097702Y-136642731D01*
X188138294Y-136653605D01*
X188231154Y-136657330D01*
X188359490Y-136653558D01*
X188422435Y-136649465D01*
X188573632Y-136639768D01*
X188674452Y-136639773D01*
X188743519Y-136651773D01*
X188799458Y-136678064D01*
X188832028Y-136699909D01*
X188935340Y-136773474D01*
X189528303Y-136634019D01*
X189852171Y-136560268D01*
X190114134Y-136506195D01*
X190318654Y-136471176D01*
X190470190Y-136454591D01*
X190573202Y-136455816D01*
X190632151Y-136474232D01*
X190638321Y-136479224D01*
X190668985Y-136492868D01*
X190721909Y-136488488D01*
X190807300Y-136463076D01*
X190935364Y-136413627D01*
X191039225Y-136369771D01*
X191384084Y-136369771D01*
X191388847Y-136390400D01*
X191407217Y-136392904D01*
X191435778Y-136380208D01*
X191430350Y-136369771D01*
X191389169Y-136365618D01*
X191384084Y-136369771D01*
X191039225Y-136369771D01*
X191106764Y-136341252D01*
X191306951Y-136256736D01*
X191525007Y-136167593D01*
X191732227Y-136085416D01*
X191875659Y-136030717D01*
X192156292Y-135925677D01*
X192378437Y-135839960D01*
X192549268Y-135770418D01*
X192675956Y-135713905D01*
X192765676Y-135667275D01*
X192825600Y-135627382D01*
X192853774Y-135601657D01*
X192901816Y-135532715D01*
X192913666Y-135478301D01*
X192913121Y-135476704D01*
X192916170Y-135413242D01*
X192916581Y-135411974D01*
X193059256Y-135411974D01*
X193059513Y-135448288D01*
X193086280Y-135456019D01*
X193129894Y-135426499D01*
X193170618Y-135354518D01*
X193173950Y-135345436D01*
X193194251Y-135245185D01*
X193177344Y-135199698D01*
X193146213Y-135179332D01*
X193142189Y-135184595D01*
X193129974Y-135226652D01*
X193099636Y-135306127D01*
X193089674Y-135330333D01*
X193059256Y-135411974D01*
X192916581Y-135411974D01*
X192948009Y-135315019D01*
X192998275Y-135204572D01*
X193056605Y-135104442D01*
X193112637Y-135037166D01*
X193116729Y-135033863D01*
X193191771Y-134976052D01*
X193108889Y-134908938D01*
X193026006Y-134841824D01*
X193101677Y-134719386D01*
X193210530Y-134572374D01*
X193337504Y-134446354D01*
X193469691Y-134350328D01*
X193594184Y-134293297D01*
X193698073Y-134284265D01*
X193717538Y-134289863D01*
G37*
G36*
X197290924Y-133476106D02*
G01*
X197357534Y-133501840D01*
X197357681Y-133546288D01*
X197291160Y-133609099D01*
X197157767Y-133689921D01*
X197097990Y-133721014D01*
X196920348Y-133825582D01*
X196718834Y-133968054D01*
X196513346Y-134132480D01*
X196323783Y-134302910D01*
X196170043Y-134463393D01*
X196166153Y-134467934D01*
X196043081Y-134634489D01*
X195974802Y-134791442D01*
X195954676Y-134961468D01*
X195970755Y-135135049D01*
X195980583Y-135241449D01*
X195986887Y-135401172D01*
X195989828Y-135598238D01*
X195989569Y-135816668D01*
X195986272Y-136040484D01*
X195980097Y-136253706D01*
X195971207Y-136440357D01*
X195959763Y-136584456D01*
X195955749Y-136617791D01*
X195928079Y-136821695D01*
X196128348Y-137060215D01*
X196317038Y-137325919D01*
X196448102Y-137610299D01*
X196528857Y-137930100D01*
X196539984Y-138002430D01*
X196566626Y-138229062D01*
X196574634Y-138409513D01*
X196563236Y-138564663D01*
X196531657Y-138715392D01*
X196510962Y-138786364D01*
X196479453Y-138885317D01*
X196463875Y-138945415D01*
X196472194Y-138966413D01*
X196512378Y-138948064D01*
X196592395Y-138890120D01*
X196720213Y-138792335D01*
X196737250Y-138779352D01*
X196877290Y-138689850D01*
X196992299Y-138651348D01*
X197011178Y-138650246D01*
X197115277Y-138650403D01*
X197006379Y-138744809D01*
X196935528Y-138803542D01*
X196825094Y-138891974D01*
X196690677Y-138997724D01*
X196559507Y-139099461D01*
X196287388Y-139309923D01*
X196066867Y-139482820D01*
X195893749Y-139621856D01*
X195763839Y-139730737D01*
X195672942Y-139813167D01*
X195616861Y-139872851D01*
X195591401Y-139913493D01*
X195592367Y-139938799D01*
X195600499Y-139946291D01*
X195614721Y-139949060D01*
X195638413Y-139940473D01*
X195676994Y-139916122D01*
X195735881Y-139871601D01*
X195820492Y-139802503D01*
X195936245Y-139704421D01*
X196088556Y-139572948D01*
X196282843Y-139403677D01*
X196485278Y-139226578D01*
X196691261Y-139051459D01*
X196851262Y-138927242D01*
X196965961Y-138853460D01*
X197036040Y-138829646D01*
X197054673Y-138836444D01*
X197056482Y-138854376D01*
X197036460Y-138887647D01*
X196990760Y-138939800D01*
X196915539Y-139014380D01*
X196806952Y-139114931D01*
X196661152Y-139244996D01*
X196474295Y-139408120D01*
X196242536Y-139607845D01*
X195962030Y-139847716D01*
X195900796Y-139899921D01*
X195727299Y-140047774D01*
X195875728Y-140027884D01*
X196017768Y-139985023D01*
X196155624Y-139889104D01*
X196165830Y-139880001D01*
X196245405Y-139812201D01*
X196323518Y-139758165D01*
X196413445Y-139712294D01*
X196528458Y-139668989D01*
X196681833Y-139622651D01*
X196886843Y-139567681D01*
X196937190Y-139554648D01*
X197249115Y-139485253D01*
X197554540Y-139442728D01*
X197789134Y-139425339D01*
X198024114Y-139416898D01*
X198202652Y-139421321D01*
X198336895Y-139440901D01*
X198438988Y-139477934D01*
X198521079Y-139534711D01*
X198557715Y-139570470D01*
X198610243Y-139637231D01*
X198614642Y-139686226D01*
X198597303Y-139716936D01*
X198532011Y-139827109D01*
X198474166Y-139969794D01*
X198418508Y-140159308D01*
X198386424Y-140290838D01*
X198335980Y-140478392D01*
X198279209Y-140620231D01*
X198206266Y-140739950D01*
X198189872Y-140762006D01*
X198087945Y-140881452D01*
X197981527Y-140969409D01*
X197851792Y-141037114D01*
X197679919Y-141095808D01*
X197588566Y-141121023D01*
X197407971Y-141156230D01*
X197193264Y-141178834D01*
X196963441Y-141188745D01*
X196737498Y-141185874D01*
X196534430Y-141170132D01*
X196373233Y-141141429D01*
X196326507Y-141126957D01*
X196198880Y-141080956D01*
X196055523Y-141030702D01*
X196008368Y-141014521D01*
X195884865Y-140960108D01*
X195771760Y-140890382D01*
X195736212Y-140861253D01*
X195676956Y-140798588D01*
X195648528Y-140737385D01*
X195642431Y-140650640D01*
X195645990Y-140574547D01*
X195651112Y-140465369D01*
X195643974Y-140408429D01*
X195617146Y-140386735D01*
X195563201Y-140383293D01*
X195562377Y-140383294D01*
X195504026Y-140395975D01*
X195433489Y-140439270D01*
X195340301Y-140521137D01*
X195218252Y-140645055D01*
X195102735Y-140762207D01*
X194993384Y-140865332D01*
X194905700Y-140940177D01*
X194869189Y-140966025D01*
X194792343Y-141035387D01*
X194721034Y-141137864D01*
X194702192Y-141175594D01*
X194639031Y-141295889D01*
X194564063Y-141409527D01*
X194544299Y-141434477D01*
X194454675Y-141516042D01*
X194337276Y-141591687D01*
X194218151Y-141646902D01*
X194126443Y-141667221D01*
X194098477Y-141677262D01*
X194105802Y-141718199D01*
X194133185Y-141775306D01*
X194166962Y-141870197D01*
X194154838Y-141917633D01*
X194099272Y-141930078D01*
X194020302Y-141903313D01*
X193941402Y-141849296D01*
X193886496Y-141780901D01*
X193861258Y-141736923D01*
X193834928Y-141729747D01*
X193790640Y-141764061D01*
X193731450Y-141824019D01*
X193646827Y-141900881D01*
X193568700Y-141955113D01*
X193543350Y-141966513D01*
X193475174Y-142002546D01*
X193385605Y-142067917D01*
X193345547Y-142102012D01*
X193252910Y-142175523D01*
X193166170Y-142229129D01*
X193137853Y-142241138D01*
X193025331Y-142298369D01*
X192905246Y-142391712D01*
X192802030Y-142499426D01*
X192742969Y-142592531D01*
X192693409Y-142674362D01*
X192619280Y-142709186D01*
X192581099Y-142714474D01*
X192493857Y-142735954D01*
X192457635Y-142784855D01*
X192455354Y-142796818D01*
X192423017Y-142878113D01*
X192354327Y-142983561D01*
X192264644Y-143095100D01*
X192169327Y-143194664D01*
X192083734Y-143264191D01*
X192040496Y-143284741D01*
X191947970Y-143319160D01*
X191889194Y-143355785D01*
X191821150Y-143392415D01*
X191718297Y-143425699D01*
X191680997Y-143434071D01*
X191528665Y-143463989D01*
X191672318Y-143467791D01*
X191821953Y-143481310D01*
X192007400Y-143511900D01*
X192206666Y-143554488D01*
X192397757Y-143604000D01*
X192558679Y-143655363D01*
X192647921Y-143692844D01*
X192771044Y-143744161D01*
X192936264Y-143793314D01*
X193151120Y-143842099D01*
X193423152Y-143892312D01*
X193618170Y-143924064D01*
X193833368Y-143976658D01*
X194000474Y-144057338D01*
X194112699Y-144161784D01*
X194160502Y-144269101D01*
X194164833Y-144369454D01*
X194144754Y-144450128D01*
X194105921Y-144496112D01*
X194042466Y-144509000D01*
X193973180Y-144502856D01*
X193853066Y-144470360D01*
X193742444Y-144415719D01*
X193735997Y-144411267D01*
X193522825Y-144300882D01*
X193271334Y-144243202D01*
X193123407Y-144234980D01*
X193034882Y-144237240D01*
X192955973Y-144247206D01*
X192872976Y-144269662D01*
X192772189Y-144309390D01*
X192639910Y-144371175D01*
X192462436Y-144459798D01*
X192425105Y-144478730D01*
X192233556Y-144572604D01*
X192039004Y-144662094D01*
X191860825Y-144738662D01*
X191718397Y-144793767D01*
X191684091Y-144805296D01*
X191429740Y-144868509D01*
X191163351Y-144904339D01*
X190908792Y-144910921D01*
X190689934Y-144886389D01*
X190678459Y-144883887D01*
X190473571Y-144813697D01*
X190321377Y-144709562D01*
X190226353Y-144575805D01*
X190194401Y-144423557D01*
X190331534Y-144423557D01*
X190359774Y-144499588D01*
X190431342Y-144585904D01*
X190526507Y-144663810D01*
X190625537Y-144714609D01*
X190644328Y-144719931D01*
X190737024Y-144733894D01*
X190872755Y-144745073D01*
X191025158Y-144751415D01*
X191055104Y-144751920D01*
X191225318Y-144748614D01*
X191372320Y-144730390D01*
X191528244Y-144691868D01*
X191655650Y-144651372D01*
X191808393Y-144594089D01*
X191998392Y-144513772D01*
X192202086Y-144420815D01*
X192395912Y-144325612D01*
X192406806Y-144320007D01*
X192641645Y-144204327D01*
X192826275Y-144126040D01*
X192967201Y-144082538D01*
X193021870Y-144073174D01*
X193231795Y-144076337D01*
X193460870Y-144124045D01*
X193681733Y-144209333D01*
X193787001Y-144267957D01*
X193901884Y-144337290D01*
X193970241Y-144366969D01*
X194001533Y-144358347D01*
X194005222Y-144312778D01*
X194003414Y-144298898D01*
X193961591Y-144223930D01*
X193858421Y-144159478D01*
X193691570Y-144104598D01*
X193458708Y-144058344D01*
X193380805Y-144046732D01*
X193226970Y-144024910D01*
X193098556Y-144006246D01*
X193011203Y-143993041D01*
X192981761Y-143988040D01*
X192924803Y-143992541D01*
X192899293Y-144000065D01*
X192747266Y-144044388D01*
X192548608Y-144086373D01*
X192326072Y-144122179D01*
X192102410Y-144147962D01*
X191966563Y-144157558D01*
X191700172Y-144160962D01*
X191441576Y-144142279D01*
X191166672Y-144098783D01*
X190879032Y-144034608D01*
X190782581Y-144010876D01*
X191555595Y-144010876D01*
X191599191Y-144016321D01*
X191650113Y-144017333D01*
X191725162Y-144014626D01*
X191745765Y-144007705D01*
X191728187Y-144002295D01*
X191627073Y-143996554D01*
X191572039Y-144002295D01*
X191555595Y-144010876D01*
X190782581Y-144010876D01*
X190664284Y-143981769D01*
X191359483Y-143981769D01*
X191407217Y-143986605D01*
X191456477Y-143981152D01*
X191450591Y-143969104D01*
X191379549Y-143964520D01*
X191363842Y-143969104D01*
X191359483Y-143981769D01*
X190664284Y-143981769D01*
X190645792Y-143977219D01*
X190537614Y-144080075D01*
X190433906Y-144197416D01*
X190361139Y-144316916D01*
X190331657Y-144417997D01*
X190331534Y-144423557D01*
X190194401Y-144423557D01*
X190192972Y-144416747D01*
X190192964Y-144414871D01*
X190206717Y-144296642D01*
X190255263Y-144187534D01*
X190348763Y-144067249D01*
X190388208Y-144024785D01*
X190506077Y-143901338D01*
X190387526Y-143844805D01*
X190355153Y-143835937D01*
X190713227Y-143835937D01*
X190730577Y-143853286D01*
X190747927Y-143835937D01*
X190730577Y-143818587D01*
X190713227Y-143835937D01*
X190355153Y-143835937D01*
X190240084Y-143804416D01*
X190140384Y-143804222D01*
X189992549Y-143830006D01*
X189800447Y-143874036D01*
X189584908Y-143930516D01*
X189366766Y-143993650D01*
X189166854Y-144057641D01*
X189006004Y-144116694D01*
X188983296Y-144126143D01*
X188818675Y-144192499D01*
X188709624Y-144226613D01*
X188650804Y-144229503D01*
X188636874Y-144202185D01*
X188639500Y-144191606D01*
X188680412Y-144149610D01*
X188773001Y-144092100D01*
X188903146Y-144025618D01*
X189056721Y-143956706D01*
X189219605Y-143891905D01*
X189377674Y-143837756D01*
X189446697Y-143817737D01*
X189718095Y-143745477D01*
X189931182Y-143691372D01*
X190094396Y-143654577D01*
X190216173Y-143634246D01*
X190304949Y-143629532D01*
X190369163Y-143639591D01*
X190417249Y-143663577D01*
X190457646Y-143700644D01*
X190470331Y-143715135D01*
X190545327Y-143774045D01*
X190607347Y-143802068D01*
X190692314Y-143827639D01*
X190598794Y-143716497D01*
X190886725Y-143716497D01*
X190919666Y-143737520D01*
X191011590Y-143760497D01*
X191152152Y-143784308D01*
X191331004Y-143807833D01*
X191537799Y-143829952D01*
X191762189Y-143849547D01*
X191993829Y-143865497D01*
X192222371Y-143876683D01*
X192413501Y-143881707D01*
X192543711Y-143882704D01*
X192613539Y-143879533D01*
X192631986Y-143869546D01*
X192608052Y-143850094D01*
X192578039Y-143833290D01*
X192457620Y-143783626D01*
X192290003Y-143734903D01*
X192097275Y-143691952D01*
X191901529Y-143659601D01*
X191724855Y-143642681D01*
X191702162Y-143641796D01*
X191556623Y-143641346D01*
X191396284Y-143647093D01*
X191235931Y-143657682D01*
X191090346Y-143671759D01*
X190974313Y-143687970D01*
X190902617Y-143704960D01*
X190886725Y-143716497D01*
X190598794Y-143716497D01*
X190598672Y-143716352D01*
X190539780Y-143635760D01*
X190507269Y-143570667D01*
X190505031Y-143557727D01*
X190523332Y-143499939D01*
X190570163Y-143498391D01*
X190633413Y-143553065D01*
X190637286Y-143557905D01*
X190689707Y-143615327D01*
X190736655Y-143623496D01*
X190804887Y-143593149D01*
X190913797Y-143554842D01*
X191012510Y-143541205D01*
X191131541Y-143533608D01*
X191228443Y-143519492D01*
X191299798Y-143500824D01*
X191313695Y-143473883D01*
X191284830Y-143425023D01*
X191244562Y-143339395D01*
X191233719Y-143279148D01*
X191240290Y-143238926D01*
X191270567Y-143216980D01*
X191340399Y-143207897D01*
X191447115Y-143206244D01*
X191570995Y-143202584D01*
X191649096Y-143186623D01*
X191704872Y-143150891D01*
X191741043Y-143112620D01*
X191797789Y-143023035D01*
X191804226Y-142927968D01*
X191800823Y-142906975D01*
X191771941Y-142812312D01*
X191732595Y-142744296D01*
X191701554Y-142723915D01*
X191662842Y-142734779D01*
X191603902Y-142784424D01*
X191520142Y-142871768D01*
X191414946Y-142972319D01*
X191314629Y-143045979D01*
X191251069Y-143075239D01*
X191172111Y-143099001D01*
X191050001Y-143140858D01*
X190906115Y-143193371D01*
X190844659Y-143216688D01*
X190633592Y-143289923D01*
X190477154Y-143326750D01*
X190376624Y-143327021D01*
X190333284Y-143290588D01*
X190331534Y-143276096D01*
X190341156Y-143207756D01*
X190365058Y-143108549D01*
X190372971Y-143081093D01*
X190414408Y-142942787D01*
X190242848Y-142786741D01*
X190142647Y-142696206D01*
X190053605Y-142616788D01*
X190001889Y-142571624D01*
X189937363Y-142516109D01*
X189844764Y-142435768D01*
X189776390Y-142376157D01*
X189742166Y-142350178D01*
X189752001Y-142369580D01*
X189802036Y-142429544D01*
X189888411Y-142525250D01*
X189941212Y-142582007D01*
X190081638Y-142734503D01*
X190177763Y-142850293D01*
X190234206Y-142941890D01*
X190255590Y-143021809D01*
X190246536Y-143102564D01*
X190211664Y-143196671D01*
X190187593Y-143249235D01*
X190123647Y-143356138D01*
X190034733Y-143447495D01*
X189910283Y-143530203D01*
X189739731Y-143611159D01*
X189512509Y-143697257D01*
X189487883Y-143705853D01*
X189312557Y-143759129D01*
X189115195Y-143806797D01*
X188909897Y-143846806D01*
X188710761Y-143877108D01*
X188531888Y-143895651D01*
X188387377Y-143900386D01*
X188291326Y-143889263D01*
X188273773Y-143882370D01*
X188233387Y-143852147D01*
X188239521Y-143826317D01*
X188297616Y-143802869D01*
X188413115Y-143779791D01*
X188591459Y-143755071D01*
X188631260Y-143750220D01*
X188895862Y-143707102D01*
X189177095Y-143641856D01*
X189451245Y-143561180D01*
X189694593Y-143471770D01*
X189820692Y-143414336D01*
X189946313Y-143334420D01*
X190030796Y-143233268D01*
X190061291Y-143176673D01*
X190104303Y-143082853D01*
X190116995Y-143027141D01*
X190100825Y-142985949D01*
X190074986Y-142955188D01*
X190036006Y-142917220D01*
X189999447Y-142909730D01*
X189944195Y-142935775D01*
X189869087Y-142985002D01*
X189616856Y-143129055D01*
X189374769Y-143211310D01*
X189129013Y-143235104D01*
X188920015Y-143214205D01*
X188780613Y-143185713D01*
X188667521Y-143149393D01*
X188562895Y-143095615D01*
X188448893Y-143014747D01*
X188307670Y-142897157D01*
X188266916Y-142861677D01*
X188034254Y-142613791D01*
X187860313Y-142329385D01*
X187758757Y-142057051D01*
X187712372Y-141858869D01*
X187698772Y-141700795D01*
X187701768Y-141679916D01*
X187844955Y-141679916D01*
X187865426Y-141895321D01*
X187866679Y-141900991D01*
X187964412Y-142203468D01*
X188117597Y-142476074D01*
X188330820Y-142725531D01*
X188566636Y-142927382D01*
X188741665Y-143020815D01*
X188952471Y-143072940D01*
X189177460Y-143081499D01*
X189395036Y-143044231D01*
X189462463Y-143021124D01*
X189598589Y-142960299D01*
X189736685Y-142887809D01*
X189783292Y-142859965D01*
X189929640Y-142767580D01*
X189306474Y-142162370D01*
X189128895Y-141992184D01*
X189116362Y-141980490D01*
X189354782Y-141980490D01*
X189360477Y-141996866D01*
X189413719Y-142060968D01*
X189480664Y-142128269D01*
X189545072Y-142184348D01*
X189590707Y-142214784D01*
X189602845Y-142212105D01*
X189579746Y-142184828D01*
X189519954Y-142124846D01*
X189457016Y-142064632D01*
X189388860Y-142003854D01*
X189354782Y-141980490D01*
X189116362Y-141980490D01*
X188961258Y-141835773D01*
X188811891Y-141700577D01*
X188689124Y-141594039D01*
X188601287Y-141523598D01*
X188564365Y-141499418D01*
X188467087Y-141439833D01*
X188433511Y-141388286D01*
X188465246Y-141348307D01*
X188490787Y-141338108D01*
X188573366Y-141342929D01*
X188701133Y-141396472D01*
X188761617Y-141429529D01*
X188896460Y-141504857D01*
X189035112Y-141579376D01*
X189117121Y-141621604D01*
X189206309Y-141677912D01*
X189326842Y-141770018D01*
X189461498Y-141884147D01*
X189568214Y-141982428D01*
X189702366Y-142109324D01*
X189835160Y-142231857D01*
X189949168Y-142334101D01*
X190013256Y-142389043D01*
X190163422Y-142512781D01*
X190377600Y-142468619D01*
X190497285Y-142439854D01*
X190592017Y-142409697D01*
X190635154Y-142388585D01*
X190662056Y-142333430D01*
X190675751Y-142240122D01*
X190676224Y-142209489D01*
X190649221Y-142061202D01*
X190570057Y-141919318D01*
X190434103Y-141778453D01*
X190236730Y-141633223D01*
X190117637Y-141559684D01*
X189974536Y-141477920D01*
X189845328Y-141408779D01*
X189746432Y-141360786D01*
X189701608Y-141343692D01*
X189616458Y-141309903D01*
X189515453Y-141253845D01*
X189494418Y-141240074D01*
X189340530Y-141160778D01*
X189149074Y-141097797D01*
X188949568Y-141058470D01*
X188771529Y-141050135D01*
X188741250Y-141052815D01*
X188596753Y-141081373D01*
X188430630Y-141131579D01*
X188263539Y-141195282D01*
X188116136Y-141264331D01*
X188009077Y-141330574D01*
X187985529Y-141351018D01*
X187884988Y-141498490D01*
X187844955Y-141679916D01*
X187701768Y-141679916D01*
X187718783Y-141561330D01*
X187773233Y-141418980D01*
X187784157Y-141396580D01*
X187836763Y-141300787D01*
X187892212Y-141233146D01*
X187969558Y-141176877D01*
X188087856Y-141115203D01*
X188122477Y-141098671D01*
X188262956Y-141035696D01*
X188399360Y-140980486D01*
X188503803Y-140944278D01*
X188509812Y-140942575D01*
X188755862Y-140906042D01*
X189023866Y-140920233D01*
X189292073Y-140981965D01*
X189538729Y-141088057D01*
X189550796Y-141094863D01*
X189654276Y-141149301D01*
X189746263Y-141190057D01*
X189769211Y-141198003D01*
X189849543Y-141232062D01*
X189969866Y-141294754D01*
X190112765Y-141375713D01*
X190260823Y-141464576D01*
X190396626Y-141550979D01*
X190502759Y-141624556D01*
X190549562Y-141662407D01*
X190679686Y-141813305D01*
X190769177Y-141980222D01*
X190814902Y-142149417D01*
X190813731Y-142307152D01*
X190762529Y-142439689D01*
X190734790Y-142474833D01*
X190612315Y-142556388D01*
X190491894Y-142587938D01*
X190397542Y-142606764D01*
X190339902Y-142627278D01*
X190331534Y-142636254D01*
X190354504Y-142673045D01*
X190412126Y-142736337D01*
X190438789Y-142762437D01*
X190504260Y-142832885D01*
X190532356Y-142898491D01*
X190533836Y-142990784D01*
X190530456Y-143031000D01*
X190526551Y-143138749D01*
X190541442Y-143182281D01*
X190553323Y-143182094D01*
X190776378Y-143091848D01*
X190943926Y-143022841D01*
X191064621Y-142969864D01*
X191147117Y-142927707D01*
X191200068Y-142891160D01*
X191232130Y-142855014D01*
X191251954Y-142814058D01*
X191268197Y-142763084D01*
X191272389Y-142749220D01*
X191273376Y-142746616D01*
X191407217Y-142746616D01*
X191419314Y-142775709D01*
X191458791Y-142746046D01*
X191477275Y-142724760D01*
X191502592Y-142687141D01*
X191475176Y-142689685D01*
X191464174Y-142693773D01*
X191415293Y-142727661D01*
X191407217Y-142746616D01*
X191273376Y-142746616D01*
X191311073Y-142647144D01*
X191362507Y-142587699D01*
X191450699Y-142545039D01*
X191467870Y-142538746D01*
X191561634Y-142493945D01*
X191623838Y-142443711D01*
X191634306Y-142425747D01*
X191626706Y-142366540D01*
X191587689Y-142259603D01*
X191523163Y-142115716D01*
X191439036Y-141945656D01*
X191341215Y-141760200D01*
X191235609Y-141570128D01*
X191128125Y-141386218D01*
X191024671Y-141219247D01*
X190931154Y-141079993D01*
X190877705Y-141010658D01*
X191085748Y-141010658D01*
X191123481Y-141102236D01*
X191202573Y-141244008D01*
X191241833Y-141308562D01*
X191338163Y-141470394D01*
X191449383Y-141666496D01*
X191559817Y-141868830D01*
X191631612Y-142005688D01*
X191714112Y-142168359D01*
X191767928Y-142281779D01*
X191796873Y-142358019D01*
X191804760Y-142409148D01*
X191795403Y-142447235D01*
X191779612Y-142474131D01*
X191750232Y-142528455D01*
X191759299Y-142570614D01*
X191814488Y-142625329D01*
X191830854Y-142639213D01*
X191899866Y-142712506D01*
X191935030Y-142800315D01*
X191947780Y-142896634D01*
X191947327Y-143021228D01*
X191926689Y-143108264D01*
X191918427Y-143121773D01*
X191892852Y-143157632D01*
X191912332Y-143147439D01*
X191939616Y-143126341D01*
X191973691Y-143088043D01*
X191991158Y-143029490D01*
X191995192Y-142932700D01*
X191994021Y-142899052D01*
X192144656Y-142899052D01*
X192147449Y-142970466D01*
X192155312Y-142988898D01*
X192159746Y-142977530D01*
X192166210Y-142894201D01*
X192160447Y-142838732D01*
X192151306Y-142819501D01*
X192145556Y-142861207D01*
X192144656Y-142899052D01*
X191994021Y-142899052D01*
X191991665Y-142831396D01*
X191988691Y-142742904D01*
X192274703Y-142742904D01*
X192287399Y-142771466D01*
X192297836Y-142766037D01*
X192301989Y-142724857D01*
X192297836Y-142719771D01*
X192277207Y-142724534D01*
X192274703Y-142742904D01*
X191988691Y-142742904D01*
X191987346Y-142702864D01*
X191988288Y-142687963D01*
X192103945Y-142687963D01*
X192110325Y-142732969D01*
X192122170Y-142733506D01*
X192130453Y-142687065D01*
X192124909Y-142666999D01*
X192109502Y-142653855D01*
X192103945Y-142687963D01*
X191988288Y-142687963D01*
X191992021Y-142628908D01*
X192008681Y-142594964D01*
X192040313Y-142586469D01*
X192041935Y-142586453D01*
X192109225Y-142573615D01*
X192134148Y-142532241D01*
X192121565Y-142481605D01*
X192357978Y-142481605D01*
X192362480Y-142541614D01*
X192366124Y-142551721D01*
X192411722Y-142593633D01*
X192461660Y-142590026D01*
X192541113Y-142573582D01*
X192578323Y-142569881D01*
X192616751Y-142541454D01*
X192621697Y-142517316D01*
X192646962Y-142465034D01*
X192712410Y-142385834D01*
X192802521Y-142294190D01*
X192901776Y-142204576D01*
X192994654Y-142131466D01*
X193065637Y-142089337D01*
X193085934Y-142084344D01*
X193148003Y-142061705D01*
X193234349Y-142004729D01*
X193285556Y-141962166D01*
X193369005Y-141893082D01*
X193435561Y-141849090D01*
X193459040Y-141840718D01*
X193499928Y-141818228D01*
X193577146Y-141757909D01*
X193677438Y-141670490D01*
X193734320Y-141617875D01*
X193846518Y-141518339D01*
X193948498Y-141439020D01*
X194024626Y-141391619D01*
X194047290Y-141383654D01*
X194125797Y-141349200D01*
X194161052Y-141313216D01*
X194186190Y-141251628D01*
X194161552Y-141231865D01*
X194092433Y-141253522D01*
X193984128Y-141316194D01*
X193966310Y-141328102D01*
X193846349Y-141405792D01*
X193728512Y-141476284D01*
X193662681Y-141511863D01*
X193562989Y-141568169D01*
X193443507Y-141644924D01*
X193380436Y-141689060D01*
X193279051Y-141753853D01*
X193188991Y-141796325D01*
X193146650Y-141806019D01*
X193072683Y-141838794D01*
X192994097Y-141932103D01*
X192991042Y-141936896D01*
X192889501Y-142063852D01*
X192748606Y-142196848D01*
X192592747Y-142314485D01*
X192493775Y-142373191D01*
X192398173Y-142430457D01*
X192357978Y-142481605D01*
X192121565Y-142481605D01*
X192115388Y-142456749D01*
X192051633Y-142341559D01*
X191948927Y-142191297D01*
X191812774Y-141999539D01*
X191672965Y-141798306D01*
X191536978Y-141598776D01*
X191412288Y-141412129D01*
X191306374Y-141249545D01*
X191226712Y-141122203D01*
X191183822Y-141047319D01*
X191133847Y-140971423D01*
X191094604Y-140960966D01*
X191088018Y-140966256D01*
X191085748Y-141010658D01*
X190877705Y-141010658D01*
X190853482Y-140979236D01*
X190824810Y-140948886D01*
X190724983Y-140857186D01*
X190620799Y-140765541D01*
X190613700Y-140759491D01*
X190544345Y-140683788D01*
X190507071Y-140610384D01*
X190505031Y-140594669D01*
X190485137Y-140536721D01*
X190455344Y-140522139D01*
X190384092Y-140489461D01*
X190320590Y-140399462D01*
X190270646Y-140264192D01*
X190240064Y-140095700D01*
X190237678Y-140070383D01*
X190237642Y-140070025D01*
X190367906Y-140070025D01*
X190375940Y-140164190D01*
X190400690Y-140255941D01*
X190410990Y-140278935D01*
X190466784Y-140347547D01*
X190523252Y-140377286D01*
X190609505Y-140419087D01*
X190656615Y-140494222D01*
X190657630Y-140549776D01*
X190677670Y-140611245D01*
X190757367Y-140695239D01*
X190800098Y-140730175D01*
X190885978Y-140802109D01*
X190944381Y-140860865D01*
X190960229Y-140886322D01*
X190969007Y-140882170D01*
X190984922Y-140825457D01*
X190986765Y-140817084D01*
X191024207Y-140733350D01*
X191078083Y-140709449D01*
X191156751Y-140701680D01*
X191174376Y-140681471D01*
X191133438Y-140636524D01*
X191098764Y-140606796D01*
X191001059Y-140484970D01*
X190972572Y-140368827D01*
X191122069Y-140368827D01*
X191175289Y-140465605D01*
X191245844Y-140515357D01*
X191320274Y-140583706D01*
X191335563Y-140677706D01*
X191289440Y-140783230D01*
X191289033Y-140783789D01*
X191259707Y-140839954D01*
X191267865Y-140899631D01*
X191293346Y-140955243D01*
X191338857Y-141035265D01*
X191412438Y-141153410D01*
X191507547Y-141300156D01*
X191617639Y-141465979D01*
X191736170Y-141641356D01*
X191856598Y-141816763D01*
X191972378Y-141982676D01*
X192076968Y-142129572D01*
X192163823Y-142247928D01*
X192226400Y-142328219D01*
X192258155Y-142360924D01*
X192259379Y-142361210D01*
X192295934Y-142344357D01*
X192370709Y-142301355D01*
X192422865Y-142269384D01*
X192594920Y-142149724D01*
X192737101Y-142027308D01*
X192835184Y-141914940D01*
X192857696Y-141878000D01*
X192941062Y-141751872D01*
X193034914Y-141665655D01*
X193124743Y-141632556D01*
X193127401Y-141632521D01*
X193197706Y-141613591D01*
X193297609Y-141564791D01*
X193372924Y-141518222D01*
X193468108Y-141449711D01*
X193519154Y-141394205D01*
X193540752Y-141327890D01*
X193547287Y-141235536D01*
X193548765Y-141224803D01*
X193663212Y-141224803D01*
X193673710Y-141294042D01*
X193697380Y-141320226D01*
X193729276Y-141292880D01*
X193731549Y-141276852D01*
X193713349Y-141211229D01*
X193697380Y-141181429D01*
X193673331Y-141157956D01*
X193663983Y-141194439D01*
X193663212Y-141224803D01*
X193548765Y-141224803D01*
X193566107Y-141098842D01*
X193615125Y-141007150D01*
X193627362Y-140994166D01*
X193682156Y-140946371D01*
X193715957Y-140946885D01*
X193746057Y-140981189D01*
X193781333Y-141018169D01*
X193816239Y-141009617D01*
X193865503Y-140961603D01*
X193917761Y-140899575D01*
X193940258Y-140860178D01*
X193940277Y-140859663D01*
X193912895Y-140834103D01*
X193838633Y-140779349D01*
X193729318Y-140703218D01*
X193596775Y-140613526D01*
X193452832Y-140518090D01*
X193309313Y-140424728D01*
X193178047Y-140341255D01*
X193070857Y-140275489D01*
X192999572Y-140235247D01*
X192986042Y-140228941D01*
X192904101Y-140211397D01*
X192798883Y-140207159D01*
X192790984Y-140207536D01*
X192672065Y-140198006D01*
X192548565Y-140165473D01*
X192536268Y-140160582D01*
X192425772Y-140131202D01*
X192252224Y-140107850D01*
X192021773Y-140091292D01*
X191954995Y-140088263D01*
X191783736Y-140080064D01*
X191637555Y-140070749D01*
X191600308Y-140067490D01*
X193038091Y-140067490D01*
X193065991Y-140095866D01*
X193141936Y-140151585D01*
X193254291Y-140226568D01*
X193389933Y-140311824D01*
X193641734Y-140470028D01*
X193842785Y-140605188D01*
X193990316Y-140715234D01*
X194081560Y-140798099D01*
X194113749Y-140851714D01*
X194113774Y-140852778D01*
X194091842Y-140906115D01*
X194035789Y-140986567D01*
X193992326Y-141038062D01*
X193909016Y-141138821D01*
X193876552Y-141198172D01*
X193894125Y-141213684D01*
X193960927Y-141182928D01*
X194026217Y-141139904D01*
X194116663Y-141078385D01*
X194171271Y-141053401D01*
X194210424Y-141060801D01*
X194251763Y-141093948D01*
X194313326Y-141190898D01*
X194317098Y-141303453D01*
X194264535Y-141411080D01*
X194226547Y-141449427D01*
X194131124Y-141529186D01*
X194243658Y-141468081D01*
X194350817Y-141373882D01*
X194403541Y-141268177D01*
X194451705Y-141167996D01*
X194504395Y-141134047D01*
X194507877Y-141134199D01*
X194560487Y-141125133D01*
X194553315Y-141085081D01*
X194487762Y-141015810D01*
X194365229Y-140919087D01*
X194301271Y-140873592D01*
X194234742Y-140827921D01*
X194535190Y-140827921D01*
X194541989Y-140852667D01*
X194569313Y-140874800D01*
X194578212Y-140880668D01*
X194640181Y-140912792D01*
X194694404Y-140906623D01*
X194759336Y-140870176D01*
X194826623Y-140819432D01*
X194927390Y-140733467D01*
X195045917Y-140626000D01*
X195126148Y-140550044D01*
X195392484Y-140293248D01*
X195698689Y-140252629D01*
X195884250Y-140229475D01*
X196087533Y-140206358D01*
X196267383Y-140187938D01*
X196282490Y-140186534D01*
X196412214Y-140173192D01*
X196477686Y-140162225D01*
X196483950Y-140152198D01*
X196438637Y-140142076D01*
X196348756Y-140114059D01*
X196317189Y-140071046D01*
X196333711Y-140042536D01*
X196390683Y-140021803D01*
X196499212Y-140005899D01*
X196594785Y-139997362D01*
X196756758Y-139983453D01*
X196954633Y-139964594D01*
X197155390Y-139943986D01*
X197236725Y-139935123D01*
X197533869Y-139902357D01*
X197768856Y-139877335D01*
X197948426Y-139859482D01*
X198079320Y-139848219D01*
X198168279Y-139842971D01*
X198222044Y-139843160D01*
X198247354Y-139848211D01*
X198248043Y-139848611D01*
X198278391Y-139896136D01*
X198252126Y-139951026D01*
X198182285Y-139993709D01*
X198119731Y-140010111D01*
X197999881Y-140035740D01*
X197833922Y-140068603D01*
X197633046Y-140106711D01*
X197408440Y-140148070D01*
X197171294Y-140190690D01*
X196932797Y-140232579D01*
X196704139Y-140271746D01*
X196496508Y-140306200D01*
X196321095Y-140333948D01*
X196189088Y-140352999D01*
X196119338Y-140360870D01*
X195953421Y-140392072D01*
X195839826Y-140454528D01*
X195784152Y-140544536D01*
X195779348Y-140585706D01*
X195791879Y-140676616D01*
X195836816Y-140748569D01*
X195925175Y-140811817D01*
X196067970Y-140876616D01*
X196108993Y-140892558D01*
X196391028Y-140973779D01*
X196708234Y-141021412D01*
X197035167Y-141033978D01*
X197346384Y-141010000D01*
X197525408Y-140974833D01*
X197690092Y-140930522D01*
X197805446Y-140890907D01*
X197889959Y-140845957D01*
X197962120Y-140785643D01*
X198040417Y-140699933D01*
X198047656Y-140691495D01*
X198112120Y-140606125D01*
X198160978Y-140512042D01*
X198202479Y-140389366D01*
X198244873Y-140218218D01*
X198245833Y-140213960D01*
X198285296Y-140056027D01*
X198328321Y-139911541D01*
X198368105Y-139802364D01*
X198384638Y-139767878D01*
X198423804Y-139692589D01*
X198427229Y-139653413D01*
X198395615Y-139627400D01*
X198389045Y-139623830D01*
X198270866Y-139587486D01*
X198099554Y-139570644D01*
X197887995Y-139571404D01*
X197649073Y-139587871D01*
X197395673Y-139618144D01*
X197140680Y-139660327D01*
X196896978Y-139712521D01*
X196677453Y-139772828D01*
X196494990Y-139839351D01*
X196362473Y-139910192D01*
X196342355Y-139925311D01*
X196202909Y-140035663D01*
X196099947Y-140107986D01*
X196017868Y-140150113D01*
X195941071Y-140169879D01*
X195853956Y-140175118D01*
X195844823Y-140175144D01*
X195722846Y-140165228D01*
X195629976Y-140125905D01*
X195555009Y-140067451D01*
X195480161Y-139986547D01*
X195436577Y-139909757D01*
X195431822Y-139885279D01*
X195425365Y-139837957D01*
X195403542Y-139854706D01*
X195400847Y-139858871D01*
X195343612Y-139890809D01*
X195275747Y-139883185D01*
X195214192Y-139871672D01*
X195192691Y-139891023D01*
X195199606Y-139957722D01*
X195204481Y-139984103D01*
X195214874Y-140086017D01*
X195208940Y-140167775D01*
X195207357Y-140173409D01*
X195174217Y-140219467D01*
X195098335Y-140299057D01*
X194990510Y-140401551D01*
X194861534Y-140516318D01*
X194842204Y-140532932D01*
X194702423Y-140653066D01*
X194608959Y-140736613D01*
X194555364Y-140792067D01*
X194535190Y-140827921D01*
X194234742Y-140827921D01*
X194122646Y-140750969D01*
X193933490Y-140623813D01*
X193742421Y-140497624D01*
X193558057Y-140377901D01*
X193389016Y-140270144D01*
X193243914Y-140179851D01*
X193131369Y-140112521D01*
X193059999Y-140073655D01*
X193038091Y-140067490D01*
X191600308Y-140067490D01*
X191530443Y-140061377D01*
X191516906Y-140059281D01*
X192705303Y-140059281D01*
X192725796Y-140066168D01*
X192800060Y-140052856D01*
X192847244Y-140036347D01*
X192885087Y-140013412D01*
X192864594Y-140006525D01*
X192790330Y-140019837D01*
X192743146Y-140036347D01*
X192705303Y-140059281D01*
X191516906Y-140059281D01*
X191476391Y-140053008D01*
X191473538Y-140051795D01*
X191420193Y-140053449D01*
X191337163Y-140088109D01*
X191246574Y-140142609D01*
X191170551Y-140203782D01*
X191132435Y-140254791D01*
X191122069Y-140368827D01*
X190972572Y-140368827D01*
X190966493Y-140344044D01*
X190997754Y-140196775D01*
X191007924Y-140175625D01*
X191065867Y-140063577D01*
X190850629Y-140088558D01*
X190713920Y-140098634D01*
X190631317Y-140084206D01*
X190589419Y-140036869D01*
X190574824Y-139948216D01*
X190573807Y-139914899D01*
X190572121Y-139810800D01*
X190506989Y-139888874D01*
X190448089Y-139945362D01*
X190404045Y-139966948D01*
X190377103Y-139996571D01*
X190367906Y-140070025D01*
X190237642Y-140070025D01*
X190224893Y-139941453D01*
X190204899Y-139855700D01*
X190165274Y-139788025D01*
X190093597Y-139713331D01*
X190033526Y-139657892D01*
X189900721Y-139553724D01*
X189726376Y-139441594D01*
X189534370Y-139336709D01*
X189511183Y-139325286D01*
X189347486Y-139241418D01*
X189215763Y-139161172D01*
X189094638Y-139068951D01*
X188962737Y-138949162D01*
X188867895Y-138855931D01*
X188563310Y-138551345D01*
X188068118Y-138509334D01*
X187862672Y-138491403D01*
X187717503Y-138477032D01*
X187623680Y-138464633D01*
X187572273Y-138452617D01*
X187554351Y-138439399D01*
X187560983Y-138423389D01*
X187564395Y-138419788D01*
X187637791Y-138386766D01*
X187772904Y-138368985D01*
X187963659Y-138366823D01*
X188197517Y-138380125D01*
X188449328Y-138391585D01*
X188750097Y-138390324D01*
X189080770Y-138377439D01*
X189422297Y-138354024D01*
X189755623Y-138321178D01*
X190061697Y-138279996D01*
X190129060Y-138268981D01*
X190314666Y-138238798D01*
X190501757Y-138210736D01*
X190664325Y-138188585D01*
X190747927Y-138178797D01*
X190902270Y-138157593D01*
X191082202Y-138125245D01*
X191233719Y-138092240D01*
X191414235Y-138049803D01*
X191537878Y-138025182D01*
X191614616Y-138017517D01*
X191654416Y-138025952D01*
X191667246Y-138049629D01*
X191667462Y-138054936D01*
X191634929Y-138089210D01*
X191544627Y-138130186D01*
X191407505Y-138174854D01*
X191234510Y-138220203D01*
X191036589Y-138263224D01*
X190824691Y-138300906D01*
X190713227Y-138317308D01*
X190517439Y-138345114D01*
X190305630Y-138377065D01*
X190112945Y-138407800D01*
X190046975Y-138418918D01*
X189856441Y-138447510D01*
X189641701Y-138473339D01*
X189447780Y-138491018D01*
X189439735Y-138491571D01*
X189273086Y-138503568D01*
X189107356Y-138516746D01*
X188973431Y-138528624D01*
X188951979Y-138530748D01*
X188769555Y-138549327D01*
X188892136Y-138698920D01*
X189016984Y-138824598D01*
X189189492Y-138961263D01*
X189391950Y-139096588D01*
X189606653Y-139218249D01*
X189712244Y-139269730D01*
X189914374Y-139387760D01*
X190123298Y-139556234D01*
X190164929Y-139595464D01*
X190274124Y-139699756D01*
X190345699Y-139761790D01*
X190391469Y-139788020D01*
X190423245Y-139784898D01*
X190452842Y-139758878D01*
X190456577Y-139754778D01*
X190542768Y-139696874D01*
X190625710Y-139699853D01*
X190688248Y-139756606D01*
X190713226Y-139860027D01*
X190713229Y-139861114D01*
X190713230Y-139949598D01*
X190986478Y-139943264D01*
X193142057Y-139943264D01*
X193315803Y-140050529D01*
X193514667Y-140174367D01*
X193709517Y-140297635D01*
X193891272Y-140414394D01*
X194050853Y-140518707D01*
X194179183Y-140604636D01*
X194267182Y-140666244D01*
X194305771Y-140697592D01*
X194306293Y-140698341D01*
X194332523Y-140722422D01*
X194372753Y-140720452D01*
X194435109Y-140687596D01*
X194527712Y-140619019D01*
X194658687Y-140509886D01*
X194737605Y-140441647D01*
X195066490Y-140155253D01*
X195067250Y-139948327D01*
X195067945Y-139758751D01*
X195432353Y-139758751D01*
X195445049Y-139787313D01*
X195455486Y-139781884D01*
X195459639Y-139740704D01*
X195455486Y-139735618D01*
X195434857Y-139740381D01*
X195432353Y-139758751D01*
X195067945Y-139758751D01*
X195068009Y-139741401D01*
X195180782Y-139730528D01*
X195265423Y-139711168D01*
X195290818Y-139683631D01*
X195255245Y-139660850D01*
X195190887Y-139654653D01*
X195125432Y-139637303D01*
X195605850Y-139637303D01*
X195612983Y-139683601D01*
X195618951Y-139689352D01*
X195648890Y-139666357D01*
X195675249Y-139637303D01*
X195699442Y-139596258D01*
X195667564Y-139585302D01*
X195662148Y-139585254D01*
X195613474Y-139611230D01*
X195605850Y-139637303D01*
X195125432Y-139637303D01*
X195104879Y-139631855D01*
X194990031Y-139572265D01*
X194865632Y-139489088D01*
X194750974Y-139395526D01*
X194665347Y-139304784D01*
X194651718Y-139285594D01*
X194596957Y-139202018D01*
X194485488Y-139286412D01*
X194392651Y-139347209D01*
X194251763Y-139427955D01*
X194078336Y-139520738D01*
X193887878Y-139617647D01*
X193695901Y-139710768D01*
X193517913Y-139792190D01*
X193383846Y-139848402D01*
X193142057Y-139943264D01*
X190986478Y-139943264D01*
X191016849Y-139942560D01*
X191152889Y-139939610D01*
X191340020Y-139935837D01*
X191559943Y-139931595D01*
X191794360Y-139927238D01*
X191979758Y-139923913D01*
X192233294Y-139918109D01*
X192432341Y-139909830D01*
X192591800Y-139897683D01*
X192726572Y-139880274D01*
X192851558Y-139856207D01*
X192945441Y-139833568D01*
X193132519Y-139776501D01*
X193353286Y-139694905D01*
X193592072Y-139595975D01*
X193833207Y-139486907D01*
X194061021Y-139374896D01*
X194259845Y-139267138D01*
X194396224Y-139181936D01*
X194741948Y-139181936D01*
X194750153Y-139199904D01*
X194830159Y-139278633D01*
X194938850Y-139362530D01*
X195056029Y-139438459D01*
X195161500Y-139493284D01*
X195232831Y-139513863D01*
X195328255Y-139515855D01*
X195328255Y-139138498D01*
X195326322Y-138971830D01*
X195321104Y-138820699D01*
X195313473Y-138704975D01*
X195308420Y-138665718D01*
X195432353Y-138665718D01*
X195449703Y-138683068D01*
X195467053Y-138665718D01*
X195449703Y-138648368D01*
X195432353Y-138665718D01*
X195308420Y-138665718D01*
X195307064Y-138655187D01*
X195285873Y-138549232D01*
X194998143Y-138850371D01*
X194873396Y-138983816D01*
X194793088Y-139077956D01*
X194751259Y-139141195D01*
X194741948Y-139181936D01*
X194396224Y-139181936D01*
X194414007Y-139170826D01*
X194456122Y-139139899D01*
X194538224Y-139075736D01*
X194460668Y-139078924D01*
X194383171Y-139058356D01*
X194346848Y-139025834D01*
X194334944Y-138978963D01*
X194361126Y-138916826D01*
X194429051Y-138826938D01*
X194503287Y-138746571D01*
X194565674Y-138694560D01*
X194590891Y-138683693D01*
X194627792Y-138708312D01*
X194628995Y-138768076D01*
X194595867Y-138839458D01*
X194580753Y-138858183D01*
X194548790Y-138902652D01*
X194571625Y-138924206D01*
X194615587Y-138934203D01*
X194664615Y-138934431D01*
X194718777Y-138910293D01*
X194789759Y-138853434D01*
X194889247Y-138755499D01*
X194940910Y-138701618D01*
X195186840Y-138421428D01*
X195198358Y-138405472D01*
X195397654Y-138405472D01*
X195410350Y-138434034D01*
X195420787Y-138428605D01*
X195424940Y-138387425D01*
X195420787Y-138382339D01*
X195400158Y-138387102D01*
X195397654Y-138405472D01*
X195198358Y-138405472D01*
X195289551Y-138279142D01*
X195526479Y-138279142D01*
X195543467Y-138379566D01*
X195556260Y-138440172D01*
X195576642Y-138572270D01*
X195592902Y-138747104D01*
X195602938Y-138938040D01*
X195605127Y-139058844D01*
X195605850Y-139451970D01*
X195718624Y-139427684D01*
X195829977Y-139395178D01*
X195921669Y-139357301D01*
X196067411Y-139248715D01*
X196200238Y-139084583D01*
X196311445Y-138878630D01*
X196392325Y-138644582D01*
X196403686Y-138597445D01*
X196421277Y-138434921D01*
X196415616Y-138230282D01*
X196389147Y-138005878D01*
X196344316Y-137784058D01*
X196297196Y-137624398D01*
X196250271Y-137514891D01*
X196183990Y-137390667D01*
X196108325Y-137267007D01*
X196033247Y-137159193D01*
X195968730Y-137082505D01*
X195924745Y-137052225D01*
X195923788Y-137052194D01*
X195905928Y-137083795D01*
X195882481Y-137167646D01*
X195857836Y-137287319D01*
X195851967Y-137321114D01*
X195800044Y-137580679D01*
X195737410Y-137790207D01*
X195657642Y-137968928D01*
X195605758Y-138058478D01*
X195554277Y-138144416D01*
X195528967Y-138209365D01*
X195526479Y-138279142D01*
X195289551Y-138279142D01*
X195376246Y-138159042D01*
X195414051Y-138097151D01*
X195408802Y-138084097D01*
X195361615Y-138109460D01*
X195337932Y-138126208D01*
X195241856Y-138175953D01*
X195150143Y-138189690D01*
X195082833Y-138167298D01*
X195060589Y-138127877D01*
X195075723Y-138070829D01*
X195123108Y-137996948D01*
X195185925Y-137925382D01*
X195247353Y-137875280D01*
X195290574Y-137865790D01*
X195290722Y-137865879D01*
X195310720Y-137906286D01*
X195291023Y-137959112D01*
X195269639Y-138007284D01*
X195292254Y-138007334D01*
X195328340Y-137989033D01*
X195403288Y-137964159D01*
X195447032Y-137965903D01*
X195492524Y-137948765D01*
X195543815Y-137870807D01*
X195597721Y-137740026D01*
X195651058Y-137564416D01*
X195700639Y-137351974D01*
X195709683Y-137306501D01*
X195737093Y-137137389D01*
X195763367Y-136924981D01*
X195787737Y-136681783D01*
X195809435Y-136420301D01*
X195827693Y-136153042D01*
X195841743Y-135892514D01*
X195850817Y-135651222D01*
X195854148Y-135441673D01*
X195850967Y-135276375D01*
X195840883Y-135169866D01*
X195829315Y-135015666D01*
X195841298Y-134841775D01*
X195872896Y-134674304D01*
X195920172Y-134539362D01*
X195941605Y-134501784D01*
X195987568Y-134444537D01*
X196067067Y-134355258D01*
X196164701Y-134251122D01*
X196187614Y-134227379D01*
X196386588Y-134022373D01*
X196126342Y-134197015D01*
X196000970Y-134284369D01*
X195891519Y-134366408D01*
X195815875Y-134429519D01*
X195799994Y-134445395D01*
X195729777Y-134502979D01*
X195671521Y-134516322D01*
X195641671Y-134482963D01*
X195640550Y-134469255D01*
X195668951Y-134412384D01*
X195748214Y-134327554D01*
X195869426Y-134222067D01*
X196023676Y-134103226D01*
X196202053Y-133978334D01*
X196375522Y-133866996D01*
X196733583Y-133646922D01*
X196560085Y-133671090D01*
X196283795Y-133723187D01*
X195982351Y-133803004D01*
X195689369Y-133901354D01*
X195622380Y-133927362D01*
X195452893Y-133991373D01*
X195336795Y-134024531D01*
X195265677Y-134027562D01*
X195231129Y-134001189D01*
X195224156Y-133961661D01*
X195238635Y-133873046D01*
X195289084Y-133791818D01*
X195386023Y-133704499D01*
X195474079Y-133641394D01*
X195596074Y-133566408D01*
X195707032Y-133512252D01*
X195793517Y-133483994D01*
X195842092Y-133486699D01*
X195847998Y-133500413D01*
X195821412Y-133534167D01*
X195752406Y-133594113D01*
X195655878Y-133667318D01*
X195655178Y-133667820D01*
X195530097Y-133760886D01*
X195448149Y-133829021D01*
X195412656Y-133868472D01*
X195426937Y-133875486D01*
X195494313Y-133846308D01*
X195499722Y-133843529D01*
X195744231Y-133738351D01*
X196043643Y-133644732D01*
X196383935Y-133566146D01*
X196751084Y-133506063D01*
X196959129Y-133482188D01*
X197158054Y-133469438D01*
X197290924Y-133476106D01*
G37*
D11*
%TO.C,SW28*%
X242828643Y-80680179D02*
X243526182Y-80863021D01*
X242958902Y-81058383D02*
X242486137Y-81221171D01*
X243089115Y-81436591D02*
X242828643Y-80680179D01*
X243526182Y-80863021D02*
X243089115Y-81436591D01*
X243526182Y-80863021D02*
X243347125Y-80342983D01*
X243526182Y-80863021D02*
X243705253Y-81383064D01*
X243904403Y-80732793D02*
X243526182Y-80863021D01*
%TO.C,SW18*%
X235121967Y-115732933D02*
X235828126Y-115879017D01*
X235271846Y-116103801D02*
X234808241Y-116291102D01*
X235421673Y-116474689D02*
X235121967Y-115732933D01*
X235828126Y-115879017D02*
X235421673Y-116474689D01*
X235828126Y-115879017D02*
X235622091Y-115369055D01*
X235828126Y-115879017D02*
X236034176Y-116388982D01*
X236199006Y-115729177D02*
X235828126Y-115879017D01*
%TO.C,SW19*%
X254215322Y-113766470D02*
X254912861Y-113949312D01*
X254345581Y-114144674D02*
X253872816Y-114307462D01*
X254475794Y-114522882D02*
X254215322Y-113766470D01*
X254912861Y-113949312D02*
X254475794Y-114522882D01*
X254912861Y-113949312D02*
X254733804Y-113429274D01*
X254912861Y-113949312D02*
X255091932Y-114469355D01*
X255291082Y-113819084D02*
X254912861Y-113949312D01*
%TO.C,SW5*%
X99405623Y-97813479D02*
X99666059Y-97057052D01*
X99535859Y-97435274D02*
X99063094Y-97272493D01*
X99666059Y-97057052D02*
X100103175Y-97630586D01*
X100103175Y-97630586D02*
X99405623Y-97813479D01*
X100103175Y-97630586D02*
X99924115Y-98150643D01*
X100103175Y-97630586D02*
X100282232Y-97110557D01*
X100481384Y-97760812D02*
X100103175Y-97630586D01*
%TO.C,SW15*%
X205351626Y-152640808D02*
X206071518Y-152599156D01*
X205592365Y-152960250D02*
X205193031Y-153261158D01*
X205833085Y-153279706D02*
X205351626Y-152640808D01*
X206071518Y-152599156D02*
X205740522Y-152159897D01*
X206071518Y-152599156D02*
X205833085Y-153279706D01*
X206071518Y-152599156D02*
X206402539Y-153038408D01*
X206391006Y-152358427D02*
X206071518Y-152599156D01*
%TO.C,SW6*%
X119327049Y-100061612D02*
X119626729Y-99319852D01*
X119476896Y-99690748D02*
X119013297Y-99503439D01*
X119626729Y-99319852D02*
X120033207Y-99915473D01*
X120033207Y-99915473D02*
X119327049Y-100061612D01*
X120033207Y-99915473D02*
X119827164Y-100425465D01*
X120033207Y-99915473D02*
X120239236Y-99405525D01*
X120404087Y-100065332D02*
X120033207Y-99915473D01*
%TO.C,SW14*%
X142424330Y-152978800D02*
X142905775Y-152339902D01*
X142665060Y-152659350D02*
X142265735Y-152358429D01*
X142905775Y-152339902D02*
X143144238Y-153020413D01*
X143144238Y-153020413D02*
X142424330Y-152978800D01*
X143144238Y-153020413D02*
X142813243Y-153459684D01*
X143144238Y-153020413D02*
X143475246Y-152581162D01*
X143463705Y-153261165D02*
X143144238Y-153020413D01*
%TO.C,SW1*%
X105103070Y-81266908D02*
X105363506Y-80510481D01*
X105233306Y-80888703D02*
X104760541Y-80725922D01*
X105363506Y-80510481D02*
X105800622Y-81084015D01*
X105800622Y-81084015D02*
X105103070Y-81266908D01*
X105800622Y-81084015D02*
X105621562Y-81604072D01*
X105800622Y-81084015D02*
X105979679Y-80563986D01*
X106178831Y-81214241D02*
X105800622Y-81084015D01*
D12*
%TO.C,G\u002A\u002A\u002A*%
G36*
X178526108Y-138571891D02*
G01*
X178535662Y-138640913D01*
X178497571Y-138748775D01*
X178471691Y-138796830D01*
X178407748Y-138923412D01*
X178346854Y-139069553D01*
X178326077Y-139128795D01*
X178275244Y-139250107D01*
X178223527Y-139304884D01*
X178172751Y-139292155D01*
X178133419Y-139231369D01*
X178124568Y-139147731D01*
X178148624Y-139031276D01*
X178197301Y-138898889D01*
X178262315Y-138767454D01*
X178335378Y-138653855D01*
X178408206Y-138574977D01*
X178468975Y-138547579D01*
X178526108Y-138571891D01*
G37*
G36*
X179628205Y-138539574D02*
G01*
X179657682Y-138561838D01*
X179690778Y-138606904D01*
X179676193Y-138650592D01*
X179647493Y-138684618D01*
X179566855Y-138740832D01*
X179476315Y-138770720D01*
X179247403Y-138798949D01*
X179072673Y-138806789D01*
X178957542Y-138794058D01*
X178940661Y-138788444D01*
X178878941Y-138739759D01*
X178871698Y-138695217D01*
X178891242Y-138664382D01*
X178944111Y-138637405D01*
X179041219Y-138610663D01*
X179193483Y-138580532D01*
X179244043Y-138571593D01*
X179407409Y-138544305D01*
X179516608Y-138530091D01*
X179585565Y-138528624D01*
X179628205Y-138539574D01*
G37*
G36*
X183839898Y-141580727D02*
G01*
X183912765Y-141634538D01*
X183956338Y-141712273D01*
X183946086Y-141773052D01*
X183889282Y-141799930D01*
X183843913Y-141794923D01*
X183737181Y-141798170D01*
X183619326Y-141845691D01*
X183519605Y-141925316D01*
X183513660Y-141932259D01*
X183483031Y-141991995D01*
X183444420Y-142099166D01*
X183404920Y-142233462D01*
X183394739Y-142272867D01*
X183355759Y-142416653D01*
X183322691Y-142504900D01*
X183289348Y-142550405D01*
X183253217Y-142565505D01*
X183184267Y-142563183D01*
X183157793Y-142551047D01*
X183134198Y-142480621D01*
X183144189Y-142351725D01*
X183187440Y-142166439D01*
X183250158Y-141966015D01*
X183316375Y-141784516D01*
X183371003Y-141667004D01*
X183416758Y-141609559D01*
X183456358Y-141608258D01*
X183479600Y-141634874D01*
X183514119Y-141656597D01*
X183578907Y-141638260D01*
X183612661Y-141621753D01*
X183741079Y-141573318D01*
X183839898Y-141580727D01*
G37*
G36*
X186066890Y-141605758D02*
G01*
X186092946Y-141638518D01*
X186100974Y-141675972D01*
X186086296Y-141726432D01*
X186044233Y-141798212D01*
X185970108Y-141899624D01*
X185859243Y-142038982D01*
X185743819Y-142179899D01*
X185598938Y-142349114D01*
X185487238Y-142463152D01*
X185404200Y-142525097D01*
X185345301Y-142538037D01*
X185306022Y-142505057D01*
X185296765Y-142485065D01*
X185287443Y-142415997D01*
X185288185Y-142300176D01*
X185297052Y-142157408D01*
X185312104Y-142007500D01*
X185331401Y-141870260D01*
X185353005Y-141765492D01*
X185372029Y-141716360D01*
X185423248Y-141676302D01*
X185465518Y-141699245D01*
X185494898Y-141778969D01*
X185507442Y-141909255D01*
X185507631Y-141930157D01*
X185507631Y-142119394D01*
X185612377Y-141990385D01*
X185697449Y-141889845D01*
X185801570Y-141772459D01*
X185863389Y-141705230D01*
X185945300Y-141620890D01*
X185996586Y-141581303D01*
X186032400Y-141579060D01*
X186066890Y-141605758D01*
G37*
G36*
X184383133Y-141628356D02*
G01*
X184432458Y-141678251D01*
X184473889Y-141761550D01*
X184486475Y-141822422D01*
X184458016Y-141895965D01*
X184383955Y-141984502D01*
X184281270Y-142073021D01*
X184166936Y-142146511D01*
X184076377Y-142185036D01*
X183988310Y-142216870D01*
X183936807Y-142246025D01*
X183931284Y-142254874D01*
X183962469Y-142313207D01*
X184042741Y-142353181D01*
X184129071Y-142364519D01*
X184214957Y-142373232D01*
X184237913Y-142403436D01*
X184199512Y-142461231D01*
X184163269Y-142497268D01*
X184058767Y-142562080D01*
X183951143Y-142559070D01*
X183849215Y-142500799D01*
X183775445Y-142402012D01*
X183752081Y-142271047D01*
X183776209Y-142120145D01*
X183837930Y-141977672D01*
X184053008Y-141977672D01*
X184087411Y-141970319D01*
X184163775Y-141920602D01*
X184191530Y-141899015D01*
X184252431Y-141840764D01*
X184275354Y-141798944D01*
X184272916Y-141792618D01*
X184236387Y-141799870D01*
X184170053Y-141844588D01*
X184134118Y-141875239D01*
X184066575Y-141945149D01*
X184053008Y-141977672D01*
X183837930Y-141977672D01*
X183844916Y-141961546D01*
X183955287Y-141807492D01*
X184032969Y-141728887D01*
X184166078Y-141634057D01*
X184284661Y-141600311D01*
X184383133Y-141628356D01*
G37*
G36*
X185169753Y-141523348D02*
G01*
X185229890Y-141610156D01*
X185249332Y-141724762D01*
X185215911Y-141842345D01*
X185117165Y-141954421D01*
X184957155Y-142056851D01*
X184894194Y-142086687D01*
X184800702Y-142136986D01*
X184740973Y-142186329D01*
X184729371Y-142209995D01*
X184733616Y-142243840D01*
X184757382Y-142256451D01*
X184817214Y-142249425D01*
X184914559Y-142227868D01*
X184999535Y-142210503D01*
X185033276Y-142218288D01*
X185032048Y-142260273D01*
X185025228Y-142289420D01*
X184966613Y-142405641D01*
X184869585Y-142476844D01*
X184752439Y-142498017D01*
X184633470Y-142464147D01*
X184568146Y-142414645D01*
X184507781Y-142338194D01*
X184494549Y-142259361D01*
X184501735Y-142207309D01*
X184564021Y-142006133D01*
X184647432Y-141850626D01*
X184868169Y-141850626D01*
X184888975Y-141865037D01*
X184938096Y-141842668D01*
X184995594Y-141796615D01*
X185041525Y-141739973D01*
X185044333Y-141734946D01*
X185066390Y-141684736D01*
X185048472Y-141682546D01*
X185036453Y-141688970D01*
X184955398Y-141745564D01*
X184892198Y-141806779D01*
X184868169Y-141850626D01*
X184647432Y-141850626D01*
X184667549Y-141813121D01*
X184799210Y-141647615D01*
X184945897Y-141528960D01*
X184970732Y-141515177D01*
X185079699Y-141488928D01*
X185169753Y-141523348D01*
G37*
G36*
X186769039Y-141537441D02*
G01*
X186849106Y-141596589D01*
X186880111Y-141702711D01*
X186880737Y-141725062D01*
X186864606Y-141819247D01*
X186805351Y-141895792D01*
X186767964Y-141926438D01*
X186682606Y-141982691D01*
X186565849Y-142048620D01*
X186436321Y-142115045D01*
X186312652Y-142172787D01*
X186213468Y-142212665D01*
X186160724Y-142225694D01*
X186120414Y-142247640D01*
X186117349Y-142260421D01*
X186146394Y-142289795D01*
X186223926Y-142291337D01*
X186335547Y-142266563D01*
X186446994Y-142225721D01*
X186610888Y-142169336D01*
X186724867Y-142156160D01*
X186786179Y-142178492D01*
X186792072Y-142228628D01*
X186739791Y-142298865D01*
X186626584Y-142381503D01*
X186522378Y-142436637D01*
X186341841Y-142509588D01*
X186200189Y-142535423D01*
X186085353Y-142514139D01*
X185985263Y-142445737D01*
X185975882Y-142436587D01*
X185897656Y-142329631D01*
X185874502Y-142214940D01*
X185907961Y-142086025D01*
X185942381Y-142029806D01*
X186169399Y-142029806D01*
X186377595Y-141915748D01*
X186487788Y-141853597D01*
X186574717Y-141801303D01*
X186618757Y-141770810D01*
X186627632Y-141745440D01*
X186589122Y-141740595D01*
X186521556Y-141754477D01*
X186443259Y-141785287D01*
X186436596Y-141788681D01*
X186347257Y-141849511D01*
X186259584Y-141929850D01*
X186256147Y-141933620D01*
X186169399Y-142029806D01*
X185942381Y-142029806D01*
X185999570Y-141936400D01*
X186131530Y-141780263D01*
X186290103Y-141646321D01*
X186469063Y-141556620D01*
X186636659Y-141522568D01*
X186769039Y-141537441D01*
G37*
G36*
X179245354Y-139005346D02*
G01*
X179275115Y-139058450D01*
X179296030Y-139157306D01*
X179300666Y-139191584D01*
X179310080Y-139319190D01*
X179313532Y-139485880D01*
X179310587Y-139661562D01*
X179308255Y-139714129D01*
X179303291Y-139875455D01*
X179307409Y-139985648D01*
X179320197Y-140036919D01*
X179325341Y-140039656D01*
X179340345Y-140058557D01*
X179325164Y-140083030D01*
X179304890Y-140137736D01*
X179284499Y-140239775D01*
X179268358Y-140367225D01*
X179268163Y-140369301D01*
X179234853Y-140680971D01*
X179199102Y-140925519D01*
X179160126Y-141105202D01*
X179117142Y-141222277D01*
X179069366Y-141279000D01*
X179016017Y-141277629D01*
X178967751Y-141234966D01*
X178947893Y-141196139D01*
X178940311Y-141133103D01*
X178944945Y-141031985D01*
X178961735Y-140878911D01*
X178966066Y-140844598D01*
X178986641Y-140690438D01*
X179006258Y-140555153D01*
X179021986Y-140458465D01*
X179027795Y-140429393D01*
X179035386Y-140377049D01*
X179010835Y-140368056D01*
X178947158Y-140390795D01*
X178852796Y-140423114D01*
X178729450Y-140458314D01*
X178674858Y-140472002D01*
X178590270Y-140494534D01*
X178530482Y-140523088D01*
X178481234Y-140571631D01*
X178428264Y-140654131D01*
X178359038Y-140781310D01*
X178275361Y-140935339D01*
X178215128Y-141035382D01*
X178170913Y-141089610D01*
X178135292Y-141106191D01*
X178100839Y-141093296D01*
X178085897Y-141081860D01*
X178040822Y-141019422D01*
X178032377Y-140983324D01*
X178049551Y-140930597D01*
X178098342Y-140825881D01*
X178174657Y-140676689D01*
X178274400Y-140490538D01*
X178391914Y-140277768D01*
X178622959Y-140277768D01*
X178830961Y-140207524D01*
X178957202Y-140158106D01*
X179027525Y-140111364D01*
X179053942Y-140062444D01*
X179063525Y-139992805D01*
X179075220Y-139876816D01*
X179086763Y-139737384D01*
X179088653Y-139711516D01*
X179108387Y-139435426D01*
X178914121Y-139763565D01*
X178829363Y-139907743D01*
X178753385Y-140038808D01*
X178695990Y-140139749D01*
X178671408Y-140184736D01*
X178622959Y-140277768D01*
X178391914Y-140277768D01*
X178393476Y-140274940D01*
X178527791Y-140037413D01*
X178673249Y-139785469D01*
X178825756Y-139526625D01*
X178830199Y-139519164D01*
X178961473Y-139303625D01*
X179064806Y-139147133D01*
X179144018Y-139047028D01*
X179202928Y-139000652D01*
X179245354Y-139005346D01*
G37*
G36*
X181156746Y-141341762D02*
G01*
X181180727Y-141387407D01*
X181184379Y-141487168D01*
X181177583Y-141571876D01*
X181156256Y-141775931D01*
X181258167Y-141723230D01*
X181396565Y-141676530D01*
X181513976Y-141683775D01*
X181599378Y-141740704D01*
X181641751Y-141843055D01*
X181644249Y-141872531D01*
X181648118Y-141926203D01*
X181657831Y-141921279D01*
X181678789Y-141853625D01*
X181681493Y-141844027D01*
X181730952Y-141716570D01*
X181783729Y-141649917D01*
X181829749Y-141642983D01*
X181858940Y-141694682D01*
X181861226Y-141803929D01*
X181852547Y-141862455D01*
X181820659Y-142033142D01*
X182026218Y-141817137D01*
X182123064Y-141719235D01*
X182204015Y-141644481D01*
X182256025Y-141604656D01*
X182265432Y-141601131D01*
X182302422Y-141630986D01*
X182320868Y-141704540D01*
X182317421Y-141797779D01*
X182301363Y-141858869D01*
X182276295Y-141939088D01*
X182289712Y-141970085D01*
X182351718Y-141960444D01*
X182401510Y-141943971D01*
X182497986Y-141922725D01*
X182550542Y-141941482D01*
X182573569Y-142003154D01*
X182530330Y-142072174D01*
X182423154Y-142145361D01*
X182388284Y-142163141D01*
X182293656Y-142214229D01*
X182246931Y-142260903D01*
X182231453Y-142324204D01*
X182230249Y-142362759D01*
X182209992Y-142505103D01*
X182156962Y-142645078D01*
X182080161Y-142773099D01*
X181988593Y-142879580D01*
X181891260Y-142954935D01*
X181797167Y-142989580D01*
X181715317Y-142973929D01*
X181682858Y-142945541D01*
X181628178Y-142828198D01*
X181627989Y-142734985D01*
X181818860Y-142734985D01*
X181834443Y-142735760D01*
X181861316Y-142711514D01*
X181909812Y-142645885D01*
X181960536Y-142550187D01*
X181969604Y-142529342D01*
X181999830Y-142448638D01*
X182010414Y-142403016D01*
X182008293Y-142399219D01*
X181975206Y-142426741D01*
X181926421Y-142494231D01*
X181876236Y-142579076D01*
X181838946Y-142658661D01*
X181832795Y-142676814D01*
X181818860Y-142734985D01*
X181627989Y-142734985D01*
X181627888Y-142684974D01*
X181656323Y-142589851D01*
X181688794Y-142504441D01*
X181690239Y-142456824D01*
X181658111Y-142421505D01*
X181638039Y-142407035D01*
X181601385Y-142377376D01*
X181582883Y-142342079D01*
X181581940Y-142285149D01*
X181597959Y-142190592D01*
X181602910Y-142167844D01*
X181960193Y-142167844D01*
X181960427Y-142190452D01*
X181966516Y-142191022D01*
X181995481Y-142167309D01*
X182027240Y-142130298D01*
X182057250Y-142089197D01*
X182039281Y-142097813D01*
X182014139Y-142117197D01*
X181960193Y-142167844D01*
X181602910Y-142167844D01*
X181625303Y-142064947D01*
X181647539Y-141965475D01*
X181580097Y-142069574D01*
X181519051Y-142147861D01*
X181426922Y-142248521D01*
X181335478Y-142338495D01*
X181218448Y-142437498D01*
X181126959Y-142489425D01*
X181051857Y-142503317D01*
X180976911Y-142493476D01*
X180926478Y-142458638D01*
X180899439Y-142390831D01*
X180894674Y-142282082D01*
X180896738Y-142262222D01*
X181100695Y-142262222D01*
X181122281Y-142259237D01*
X181176995Y-142212486D01*
X181256992Y-142132878D01*
X181343741Y-142037056D01*
X181406584Y-141953784D01*
X181432790Y-141900072D01*
X181432923Y-141897765D01*
X181426502Y-141863483D01*
X181394990Y-141864561D01*
X181329412Y-141895773D01*
X181213163Y-141994875D01*
X181127601Y-142155829D01*
X181105241Y-142225721D01*
X181100695Y-142262222D01*
X180896738Y-142262222D01*
X180911061Y-142124418D01*
X180947481Y-141909868D01*
X180959572Y-141846474D01*
X181001512Y-141638065D01*
X181035941Y-141490231D01*
X181065986Y-141394966D01*
X181094775Y-141344268D01*
X181125434Y-141330130D01*
X181156746Y-141341762D01*
G37*
G36*
X186659500Y-138727864D02*
G01*
X186686331Y-138800987D01*
X186671019Y-138913546D01*
X186618761Y-139054234D01*
X186534759Y-139211744D01*
X186424210Y-139374768D01*
X186292315Y-139532001D01*
X186287230Y-139537415D01*
X186235819Y-139607798D01*
X186173254Y-139715199D01*
X186109734Y-139838980D01*
X186055460Y-139958501D01*
X186020632Y-140053122D01*
X186013251Y-140091815D01*
X186037964Y-140088867D01*
X186097480Y-140055465D01*
X186098321Y-140054915D01*
X186210617Y-139996455D01*
X186336272Y-139953300D01*
X186452096Y-139931375D01*
X186534893Y-139936605D01*
X186544544Y-139940912D01*
X186584868Y-139976574D01*
X186598029Y-140030916D01*
X186582098Y-140114397D01*
X186535145Y-140237476D01*
X186459546Y-140401652D01*
X186399695Y-140532009D01*
X186356187Y-140637801D01*
X186334722Y-140704515D01*
X186334647Y-140719613D01*
X186373084Y-140715423D01*
X186452992Y-140685163D01*
X186528926Y-140649337D01*
X186634941Y-140589190D01*
X186696000Y-140530996D01*
X186732219Y-140452597D01*
X186743684Y-140412783D01*
X186771159Y-140351951D01*
X186991430Y-140351951D01*
X187024896Y-140329147D01*
X187071584Y-140282552D01*
X187111657Y-140232286D01*
X187117040Y-140213153D01*
X187083573Y-140235957D01*
X187036885Y-140282552D01*
X186996812Y-140332818D01*
X186991430Y-140351951D01*
X186771159Y-140351951D01*
X186787321Y-140316167D01*
X186864376Y-140203817D01*
X186960707Y-140090930D01*
X187062174Y-139992701D01*
X187154633Y-139924329D01*
X187220055Y-139900858D01*
X187308074Y-139929744D01*
X187356923Y-140014199D01*
X187366530Y-140100368D01*
X187338890Y-140256495D01*
X187252458Y-140404247D01*
X187121578Y-140536507D01*
X187041471Y-140607593D01*
X187008583Y-140649143D01*
X187016382Y-140675522D01*
X187048988Y-140696138D01*
X187144893Y-140726833D01*
X187249777Y-140716369D01*
X187370164Y-140661182D01*
X187512576Y-140557710D01*
X187683538Y-140402389D01*
X187798969Y-140286502D01*
X187914674Y-140175910D01*
X187994442Y-140121176D01*
X188041740Y-140121033D01*
X188060035Y-140174210D01*
X188060519Y-140190813D01*
X188034075Y-140279292D01*
X187962770Y-140394911D01*
X187858645Y-140525080D01*
X187733744Y-140657212D01*
X187600105Y-140778717D01*
X187469772Y-140877007D01*
X187354786Y-140939493D01*
X187338885Y-140945239D01*
X187168673Y-140966703D01*
X187000327Y-140925215D01*
X186883742Y-140852296D01*
X186780605Y-140765513D01*
X186593644Y-140871027D01*
X186418624Y-140950219D01*
X186276046Y-140972854D01*
X186168828Y-140938660D01*
X186140077Y-140913085D01*
X186098220Y-140847451D01*
X186087900Y-140768221D01*
X186111104Y-140663063D01*
X186169818Y-140519645D01*
X186220196Y-140415529D01*
X186357742Y-140140721D01*
X186220681Y-140217753D01*
X186026237Y-140345005D01*
X185881092Y-140486686D01*
X185765407Y-140663252D01*
X185739405Y-140713939D01*
X185668239Y-140846189D01*
X185611184Y-140918642D01*
X185560447Y-140937355D01*
X185508236Y-140908383D01*
X185499699Y-140900202D01*
X185461110Y-140814742D01*
X185481111Y-140697604D01*
X185532388Y-140594847D01*
X185583607Y-140502626D01*
X185649187Y-140373396D01*
X185715683Y-140233733D01*
X185721230Y-140221611D01*
X185776252Y-140095251D01*
X185800583Y-140022725D01*
X185796115Y-139996588D01*
X185777155Y-140001753D01*
X185659749Y-140097346D01*
X185558983Y-140237665D01*
X185492881Y-140396986D01*
X185401989Y-140617801D01*
X185259476Y-140792576D01*
X185063157Y-140923978D01*
X185059742Y-140925657D01*
X184945396Y-140977918D01*
X184865700Y-141000417D01*
X184794911Y-140997577D01*
X184733220Y-140981794D01*
X184629858Y-140937938D01*
X184547544Y-140881650D01*
X184539082Y-140873059D01*
X184495674Y-140830067D01*
X184457755Y-140822904D01*
X184398683Y-140851846D01*
X184361021Y-140874919D01*
X184223715Y-140929736D01*
X184088029Y-140932404D01*
X183973002Y-140884565D01*
X183925499Y-140837397D01*
X183884178Y-140756101D01*
X183844186Y-140635813D01*
X183820777Y-140535243D01*
X183793208Y-140420422D01*
X183761305Y-140335918D01*
X183735567Y-140302835D01*
X183696803Y-140324660D01*
X183638538Y-140410838D01*
X183562014Y-140559492D01*
X183552694Y-140579238D01*
X183486752Y-140710210D01*
X183424924Y-140816030D01*
X183376614Y-140881307D01*
X183360423Y-140893949D01*
X183287085Y-140890588D01*
X183226737Y-140838362D01*
X183202595Y-140759676D01*
X183195341Y-140728007D01*
X183166713Y-140733138D01*
X183106414Y-140779951D01*
X183047223Y-140833324D01*
X182908062Y-140937353D01*
X182783918Y-140976207D01*
X182669038Y-140950926D01*
X182610503Y-140912337D01*
X182543885Y-140870125D01*
X182483338Y-140875282D01*
X182441836Y-140894773D01*
X182321141Y-140931887D01*
X182181098Y-140938709D01*
X182053391Y-140915732D01*
X181995835Y-140887825D01*
X181941104Y-140824493D01*
X181921106Y-140729667D01*
X181936003Y-140594713D01*
X181985957Y-140410999D01*
X182005901Y-140350665D01*
X182045900Y-140224805D01*
X182072968Y-140123342D01*
X182082290Y-140064800D01*
X182081560Y-140059746D01*
X182053018Y-140064178D01*
X181988640Y-140108214D01*
X181901827Y-140182551D01*
X181893464Y-140190324D01*
X181782042Y-140307883D01*
X181696485Y-140434987D01*
X181618928Y-140598945D01*
X181606882Y-140628403D01*
X181524987Y-140813024D01*
X181453420Y-140932634D01*
X181389512Y-140990389D01*
X181330591Y-140989450D01*
X181312126Y-140977081D01*
X181271689Y-140922238D01*
X181265247Y-140845245D01*
X181294678Y-140735967D01*
X181361860Y-140584269D01*
X181398224Y-140512338D01*
X181461482Y-140383038D01*
X181509635Y-140271181D01*
X181534971Y-140195212D01*
X181537022Y-140180327D01*
X181533006Y-140142183D01*
X181509455Y-140135845D01*
X181449109Y-140161566D01*
X181408237Y-140182194D01*
X181317932Y-140223602D01*
X181250661Y-140246349D01*
X181239140Y-140247853D01*
X181212610Y-140280061D01*
X181197507Y-140367597D01*
X181195574Y-140409980D01*
X181165527Y-140601319D01*
X181090096Y-140782981D01*
X180979863Y-140938608D01*
X180845406Y-141051845D01*
X180753061Y-141094045D01*
X180657665Y-141091634D01*
X180573292Y-141034817D01*
X180514658Y-140938491D01*
X180496038Y-140833925D01*
X180496038Y-140802613D01*
X180716803Y-140802613D01*
X180741329Y-140831656D01*
X180793438Y-140798161D01*
X180851956Y-140728696D01*
X180911855Y-140614753D01*
X180953283Y-140472896D01*
X180968638Y-140335469D01*
X180961123Y-140264180D01*
X180934494Y-140194405D01*
X180894648Y-140184603D01*
X180852924Y-140206306D01*
X180824355Y-140246842D01*
X180794680Y-140336453D01*
X180762215Y-140481616D01*
X180725273Y-140688814D01*
X180721583Y-140711264D01*
X180716803Y-140802613D01*
X180496038Y-140802613D01*
X180496038Y-140696346D01*
X180346476Y-140879818D01*
X180254281Y-140984441D01*
X180182877Y-141041464D01*
X180116626Y-141062353D01*
X180096235Y-141063290D01*
X180021006Y-141047566D01*
X179963527Y-140993883D01*
X179917866Y-140892478D01*
X179878089Y-140733585D01*
X179869601Y-140690271D01*
X179844832Y-140583612D01*
X179819262Y-140511215D01*
X179802477Y-140490749D01*
X179779387Y-140521532D01*
X179745030Y-140602963D01*
X179706139Y-140718668D01*
X179699044Y-140742320D01*
X179659388Y-140871521D01*
X179623624Y-140978555D01*
X179598840Y-141042331D01*
X179597013Y-141045940D01*
X179536570Y-141101183D01*
X179461775Y-141098290D01*
X179428308Y-141074712D01*
X179390619Y-141011639D01*
X179385656Y-140984455D01*
X179396468Y-140927075D01*
X179425154Y-140821863D01*
X179466087Y-140686284D01*
X179513642Y-140537804D01*
X179562192Y-140393889D01*
X179606111Y-140272005D01*
X179639773Y-140189618D01*
X179645283Y-140178454D01*
X179677881Y-140108381D01*
X179727101Y-139993165D01*
X179784657Y-139852438D01*
X179813671Y-139779410D01*
X179907307Y-139542688D01*
X179980212Y-139362925D01*
X180036319Y-139232213D01*
X180079563Y-139142645D01*
X180113878Y-139086311D01*
X180143199Y-139055305D01*
X180171459Y-139041718D01*
X180181701Y-139039633D01*
X180238379Y-139048235D01*
X180253142Y-139103375D01*
X180241840Y-139162759D01*
X180210738Y-139274218D01*
X180164044Y-139424710D01*
X180105962Y-139601195D01*
X180040700Y-139790632D01*
X179972464Y-139979980D01*
X179956732Y-140022306D01*
X179961762Y-140042444D01*
X180009451Y-140011858D01*
X180084595Y-139944232D01*
X180172087Y-139866202D01*
X180243695Y-139812745D01*
X180278432Y-139796760D01*
X180332616Y-139818840D01*
X180340251Y-139878429D01*
X180305399Y-139965552D01*
X180232121Y-140070233D01*
X180124479Y-140182496D01*
X180119581Y-140186944D01*
X180046199Y-140258980D01*
X180003826Y-140312036D01*
X179999455Y-140329594D01*
X180016674Y-140369979D01*
X180044461Y-140458446D01*
X180076228Y-140573703D01*
X180135074Y-140799886D01*
X180289532Y-140605265D01*
X180387973Y-140474764D01*
X180486030Y-140334448D01*
X180548793Y-140236792D01*
X180631100Y-140119812D01*
X180717220Y-140047682D01*
X180801161Y-140009137D01*
X180898329Y-139978043D01*
X180965391Y-139975521D01*
X181035982Y-140002697D01*
X181065044Y-140017976D01*
X181147427Y-140056697D01*
X181207675Y-140059765D01*
X181282512Y-140028297D01*
X181289325Y-140024788D01*
X181443338Y-139927279D01*
X181572850Y-139801572D01*
X181689450Y-139633970D01*
X181799702Y-139421570D01*
X181807568Y-139406120D01*
X182002712Y-139406120D01*
X182018206Y-139400325D01*
X182065520Y-139334019D01*
X182112316Y-139257351D01*
X182161292Y-139166333D01*
X182187770Y-139102032D01*
X182188787Y-139083680D01*
X182165274Y-139102533D01*
X182120821Y-139167775D01*
X182078307Y-139241395D01*
X182021819Y-139352708D01*
X182002712Y-139406120D01*
X181807568Y-139406120D01*
X181918685Y-139187876D01*
X182033174Y-139003550D01*
X182139420Y-138873489D01*
X182233670Y-138802586D01*
X182283335Y-138790475D01*
X182362353Y-138807812D01*
X182402519Y-138867343D01*
X182411208Y-138980351D01*
X182411020Y-138985768D01*
X182376090Y-139143116D01*
X182284495Y-139327791D01*
X182140068Y-139533124D01*
X182007252Y-139688123D01*
X181879253Y-139832891D01*
X181801275Y-139933440D01*
X181773508Y-139989128D01*
X181796142Y-139999314D01*
X181869366Y-139963355D01*
X181939367Y-139918208D01*
X182047852Y-139854095D01*
X182130242Y-139834591D01*
X182209928Y-139855650D01*
X182233292Y-139867379D01*
X182277972Y-139907600D01*
X182296001Y-139973319D01*
X182286956Y-140075028D01*
X182250413Y-140223214D01*
X182214104Y-140341954D01*
X182162924Y-140509964D01*
X182135994Y-140623141D01*
X182132805Y-140691481D01*
X182152843Y-140724981D01*
X182194052Y-140733645D01*
X182313193Y-140715091D01*
X182400641Y-140666343D01*
X182438779Y-140597775D01*
X182439207Y-140589312D01*
X182462838Y-140473483D01*
X182506534Y-140380968D01*
X182720648Y-140380968D01*
X182737951Y-140376444D01*
X182765066Y-140354805D01*
X182831236Y-140282437D01*
X182863176Y-140233357D01*
X182886455Y-140184136D01*
X182869152Y-140188660D01*
X182842038Y-140210299D01*
X182775868Y-140282667D01*
X182743927Y-140331747D01*
X182720648Y-140380968D01*
X182506534Y-140380968D01*
X182525670Y-140340452D01*
X182615619Y-140205402D01*
X182720595Y-140083518D01*
X182828514Y-139989984D01*
X182927287Y-139939984D01*
X182959607Y-139935557D01*
X183065366Y-139958077D01*
X183120961Y-140021675D01*
X183127271Y-140120406D01*
X183085176Y-140248328D01*
X182995553Y-140399497D01*
X182867466Y-140558919D01*
X182781480Y-140666023D01*
X182748061Y-140732040D01*
X182762042Y-140754394D01*
X182818255Y-140730504D01*
X182911532Y-140657792D01*
X182965074Y-140607622D01*
X183136853Y-140417070D01*
X183318676Y-140176999D01*
X183446588Y-139984827D01*
X183851078Y-139984827D01*
X183861972Y-140026382D01*
X183868726Y-140037715D01*
X183902330Y-140079677D01*
X183943300Y-140082704D01*
X184016088Y-140050232D01*
X184109378Y-139996347D01*
X184182855Y-139943345D01*
X184235571Y-139881266D01*
X184232114Y-139843480D01*
X184181971Y-139831808D01*
X184094630Y-139848068D01*
X183979576Y-139894080D01*
X183964712Y-139901507D01*
X183881552Y-139948554D01*
X183851078Y-139984827D01*
X183446588Y-139984827D01*
X183500231Y-139904236D01*
X183671204Y-139615609D01*
X183821285Y-139327944D01*
X183940159Y-139058069D01*
X183978152Y-138954511D01*
X184028601Y-138886624D01*
X184101071Y-138869810D01*
X184160560Y-138900782D01*
X184179437Y-138929851D01*
X184182108Y-138973096D01*
X184165620Y-139042561D01*
X184127021Y-139150291D01*
X184063357Y-139308330D01*
X184056674Y-139324519D01*
X183990589Y-139489279D01*
X183952214Y-139598218D01*
X183939633Y-139658272D01*
X183950934Y-139676380D01*
X183960211Y-139674077D01*
X184030297Y-139654953D01*
X184133935Y-139636505D01*
X184166355Y-139632170D01*
X184306449Y-139638211D01*
X184402270Y-139692943D01*
X184448384Y-139792472D01*
X184451776Y-139836737D01*
X184424360Y-139931711D01*
X184353113Y-140041511D01*
X184254532Y-140146665D01*
X184145116Y-140227700D01*
X184102727Y-140248703D01*
X184031238Y-140287125D01*
X184010619Y-140337159D01*
X184018833Y-140400231D01*
X184058637Y-140565939D01*
X184100410Y-140678445D01*
X184141338Y-140730741D01*
X184152685Y-140733645D01*
X184237897Y-140704800D01*
X184268029Y-140682105D01*
X184698655Y-140682105D01*
X184710803Y-140731673D01*
X184768317Y-140765033D01*
X184861611Y-140761615D01*
X184969762Y-140724647D01*
X185043352Y-140680352D01*
X185133281Y-140596478D01*
X185213877Y-140492167D01*
X185268698Y-140391142D01*
X185282953Y-140334601D01*
X185253275Y-140310260D01*
X185178469Y-140294815D01*
X185160615Y-140293530D01*
X185062624Y-140277844D01*
X184990372Y-140248232D01*
X184986435Y-140245211D01*
X184940540Y-140216501D01*
X184926611Y-140216883D01*
X184799630Y-140417680D01*
X184723741Y-140572523D01*
X184698655Y-140682105D01*
X184268029Y-140682105D01*
X184341419Y-140626828D01*
X184450327Y-140512573D01*
X184551694Y-140374879D01*
X184604285Y-140284897D01*
X184675335Y-140163232D01*
X184742897Y-140070873D01*
X184777523Y-140039656D01*
X185076366Y-140039656D01*
X185106906Y-140062438D01*
X185182156Y-140073997D01*
X185199862Y-140074355D01*
X185278816Y-140066136D01*
X185303929Y-140044392D01*
X185301912Y-140039656D01*
X185255004Y-140014656D01*
X185178416Y-140004956D01*
X185106216Y-140015193D01*
X185076366Y-140039656D01*
X184777523Y-140039656D01*
X184795068Y-140023839D01*
X184799566Y-140022053D01*
X184855402Y-139983752D01*
X184868169Y-139951369D01*
X184899981Y-139887740D01*
X184983884Y-139833777D01*
X185102582Y-139797937D01*
X185202143Y-139788063D01*
X185315218Y-139794340D01*
X185389345Y-139824435D01*
X185441016Y-139873631D01*
X185488071Y-139920156D01*
X185534230Y-139936860D01*
X185591869Y-139919492D01*
X185673360Y-139863804D01*
X185791077Y-139765546D01*
X185814248Y-139745462D01*
X185960823Y-139586249D01*
X186087084Y-139376822D01*
X186102173Y-139346000D01*
X186218930Y-139122198D01*
X186332694Y-138941528D01*
X186439220Y-138808702D01*
X186534263Y-138728426D01*
X186613576Y-138705409D01*
X186659500Y-138727864D01*
G37*
D11*
%TO.C,SW21*%
X199177326Y-125536925D02*
X199883485Y-125683009D01*
X199327205Y-125907793D02*
X198863600Y-126095094D01*
X199477032Y-126278681D02*
X199177326Y-125536925D01*
X199883485Y-125683009D02*
X199477032Y-126278681D01*
X199883485Y-125683009D02*
X199677450Y-125173047D01*
X199883485Y-125683009D02*
X200089535Y-126192974D01*
X200254365Y-125533169D02*
X199883485Y-125683009D01*
%TO.C,SW25*%
X192618260Y-109309152D02*
X193324419Y-109455236D01*
X192768139Y-109680020D02*
X192304534Y-109867321D01*
X192917966Y-110050908D02*
X192618260Y-109309152D01*
X193324419Y-109455236D02*
X192917966Y-110050908D01*
X193324419Y-109455236D02*
X193118384Y-108945274D01*
X193324419Y-109455236D02*
X193530469Y-109965201D01*
X193695299Y-109305396D02*
X193324419Y-109455236D01*
%TO.C,SW9*%
X75594639Y-109129622D02*
X75788155Y-108353375D01*
X75691409Y-108741512D02*
X75206260Y-108620529D01*
X75788155Y-108353375D02*
X76273591Y-108886633D01*
X76273591Y-108886633D02*
X75594639Y-109129622D01*
X76273591Y-108886633D02*
X76140527Y-109420327D01*
X76273591Y-108886633D02*
X76406633Y-108352975D01*
X76661715Y-108983401D02*
X76273591Y-108886633D01*
%TO.C,SW2*%
X125882667Y-83835915D02*
X126182347Y-83094155D01*
X126032514Y-83465051D02*
X125568915Y-83277742D01*
X126182347Y-83094155D02*
X126588825Y-83689776D01*
X126588825Y-83689776D02*
X125882667Y-83835915D01*
X126588825Y-83689776D02*
X126382782Y-84199768D01*
X126588825Y-83689776D02*
X126794854Y-83179828D01*
X126959705Y-83839635D02*
X126588825Y-83689776D01*
%TO.C,SW17*%
X219608005Y-126719565D02*
X220314164Y-126865649D01*
X219757884Y-127090433D02*
X219294279Y-127277734D01*
X219907711Y-127461321D02*
X219608005Y-126719565D01*
X220314164Y-126865649D02*
X219907711Y-127461321D01*
X220314164Y-126865649D02*
X220108129Y-126355687D01*
X220314164Y-126865649D02*
X220520214Y-127375614D01*
X220685044Y-126715809D02*
X220314164Y-126865649D01*
%TO.C,SW26*%
X206503201Y-94272272D02*
X207209360Y-94418356D01*
X206653080Y-94643140D02*
X206189475Y-94830441D01*
X206802907Y-95014028D02*
X206503201Y-94272272D01*
X207209360Y-94418356D02*
X206802907Y-95014028D01*
X207209360Y-94418356D02*
X207003325Y-93908394D01*
X207209360Y-94418356D02*
X207415410Y-94928321D01*
X207580240Y-94268516D02*
X207209360Y-94418356D01*
%TO.C,SW10*%
X93708160Y-114360076D02*
X93968596Y-113603649D01*
X93838396Y-113981871D02*
X93365631Y-113819090D01*
X93968596Y-113603649D02*
X94405712Y-114177183D01*
X94405712Y-114177183D02*
X93708160Y-114360076D01*
X94405712Y-114177183D02*
X94226652Y-114697240D01*
X94405712Y-114177183D02*
X94584769Y-113657154D01*
X94783921Y-114307409D02*
X94405712Y-114177183D01*
%TO.C,SW4*%
X155271758Y-109865673D02*
X155571438Y-109123913D01*
X155421605Y-109494809D02*
X154958006Y-109307500D01*
X155571438Y-109123913D02*
X155977916Y-109719534D01*
X155977916Y-109719534D02*
X155271758Y-109865673D01*
X155977916Y-109719534D02*
X155771873Y-110229526D01*
X155977916Y-109719534D02*
X156183945Y-109209586D01*
X156348796Y-109869393D02*
X155977916Y-109719534D01*
%TO.C,SW7*%
X134841015Y-111048294D02*
X135140695Y-110306534D01*
X134990862Y-110677430D02*
X134527263Y-110490121D01*
X135140695Y-110306534D02*
X135547173Y-110902155D01*
X135547173Y-110902155D02*
X134841015Y-111048294D01*
X135547173Y-110902155D02*
X135341130Y-111412147D01*
X135547173Y-110902155D02*
X135753202Y-110392207D01*
X135918053Y-111052014D02*
X135547173Y-110902155D01*
%TO.C,SW8*%
X148716134Y-126091395D02*
X149015814Y-125349635D01*
X148865981Y-125720531D02*
X148402382Y-125533222D01*
X149015814Y-125349635D02*
X149422292Y-125945256D01*
X149422292Y-125945256D02*
X148716134Y-126091395D01*
X149422292Y-125945256D02*
X149216249Y-126455248D01*
X149422292Y-125945256D02*
X149628321Y-125435308D01*
X149793172Y-126095115D02*
X149422292Y-125945256D01*
%TD*%
M02*
