M48
; DRILL file {KiCad 8.0.9-1.fc41} date 2025-04-15T07:09:24+1000
; FORMAT={-:-/ absolute / inch / decimal}
; #@! TF.CreationDate,2025-04-15T07:09:24+10:00
; #@! TF.GenerationSoftware,Kicad,Pcbnew,8.0.9-1.fc41
; #@! TF.FileFunction,NonPlated,1,2,NPTH
FMAT,2
INCH
; #@! TA.AperFunction,NonPlated,NPTH,ComponentDrill
T1C0.0670
; #@! TA.AperFunction,NonPlated,NPTH,ComponentDrill
T2C0.0866
; #@! TA.AperFunction,NonPlated,NPTH,ComponentDrill
T3C0.1350
%
G90
G05
T1
X2.8242Y-4.0516
X3.2444Y-4.1564
X3.5592Y-4.2452
X3.7835Y-3.5938
X3.9687Y-4.3862
X4.0079Y-2.9423
X4.193Y-3.7348
X4.3234Y-4.3146
X4.4173Y-3.0833
X4.5815Y-3.6758
X4.7249Y-4.4769
X4.8396Y-3.037
X4.9342Y-4.7472
X4.983Y-3.8381
X5.1923Y-4.1084
X5.2411Y-3.1993
X5.3357Y-4.9094
X5.4504Y-3.4696
X5.563Y-5.738
X5.563Y-5.738
X5.5938Y-4.2706
X5.7385Y-4.7006
X5.8519Y-3.6318
X5.9089Y-5.9987
X5.9089Y-5.9987
X5.9966Y-4.0618
X6.1401Y-4.8629
X6.3982Y-4.2241
X7.3283Y-4.224
X7.5866Y-4.8629
X7.7299Y-4.0617
X7.8178Y-5.9987
X7.8178Y-5.9987
X7.875Y-3.632
X7.9881Y-4.7006
X8.1328Y-4.2706
X8.1636Y-5.738
X8.1636Y-5.738
X8.2765Y-3.4697
X8.3909Y-4.9094
X8.4855Y-3.1992
X8.5344Y-4.1084
X8.7436Y-3.8381
X8.7925Y-4.7472
X8.887Y-3.0369
X9.0017Y-4.4769
X9.1452Y-3.6758
X9.3096Y-3.0836
X9.4032Y-4.3146
X9.5334Y-3.7345
X9.7191Y-2.9426
X9.7579Y-4.3862
X9.9428Y-3.5935
X10.1674Y-4.2452
X10.4822Y-4.1564
X10.9025Y-4.0516
T2
X5.5486Y-5.1971
X5.5486Y-5.1971
X8.1781Y-5.1971
T3
X3.0343Y-4.104
X3.764Y-4.3157
X3.9883Y-3.6643
X4.2126Y-3.0128
X4.5242Y-4.3958
X4.7823Y-3.757
X5.0404Y-3.1181
X5.1349Y-4.8283
X5.393Y-4.1895
X5.6511Y-3.5507
X5.736Y-5.8684
X5.736Y-5.8684
X5.9393Y-4.7817
X6.1974Y-4.1429
X7.5291Y-4.1429
X7.7873Y-4.7817
X7.9907Y-5.8684
X7.9907Y-5.8684
X8.0758Y-3.5509
X8.3336Y-4.1895
X8.5917Y-4.8283
X8.6862Y-3.118
X8.9444Y-3.757
X9.2025Y-4.3958
X9.5144Y-3.0131
X9.7381Y-3.664
X9.9627Y-4.3157
X10.6924Y-4.104
M30
