%TF.GenerationSoftware,KiCad,Pcbnew,9.0.1-1.fc42*%
%TF.CreationDate,2025-04-18T11:19:58+10:00*%
%TF.ProjectId,'akohekohe,27616b6f-6865-46b6-9f68-652e6b696361,0.1*%
%TF.SameCoordinates,Original*%
%TF.FileFunction,Soldermask,Bot*%
%TF.FilePolarity,Negative*%
%FSLAX46Y46*%
G04 Gerber Fmt 4.6, Leading zero omitted, Abs format (unit mm)*
G04 Created by KiCad (PCBNEW 9.0.1-1.fc42) date 2025-04-18 11:19:58*
%MOMM*%
%LPD*%
G01*
G04 APERTURE LIST*
%ADD10C,1.852600*%
%ADD11C,1.801800*%
%ADD12C,3.529000*%
%ADD13C,2.132000*%
%ADD14C,2.300000*%
%ADD15O,2.850000X1.900000*%
%ADD16O,1.600000X1.600000*%
G04 APERTURE END LIST*
D10*
%TO.C,D9*%
X172325000Y-140237000D03*
X167240000Y-140237000D03*
X169780000Y-140237000D03*
%TD*%
D11*
%TO.C,SW22*%
X206573919Y-108473645D03*
D12*
X211673418Y-106413295D03*
D13*
X209463271Y-100942926D03*
D11*
X216772917Y-104352945D03*
D13*
X214885822Y-101016954D03*
%TD*%
D11*
%TO.C,SW23*%
X222087878Y-97486976D03*
D12*
X227187377Y-95426626D03*
D13*
X224977230Y-89956257D03*
D11*
X232286876Y-93366276D03*
D13*
X230399781Y-90030285D03*
%TD*%
D14*
%TO.C,PAD1*%
X140933522Y-132006700D03*
%TD*%
D11*
%TO.C,SW27*%
X215530681Y-81258670D03*
D12*
X220630180Y-79198320D03*
D13*
X218420033Y-73727951D03*
D11*
X225729679Y-77137970D03*
D13*
X223842584Y-73801979D03*
%TD*%
D15*
%TO.C,U1*%
X166231543Y-119860642D03*
X166231507Y-122400657D03*
X166231516Y-124940672D03*
X166231527Y-127480647D03*
X166231539Y-130020650D03*
X166231524Y-132560655D03*
X166231504Y-135100635D03*
X182421497Y-135100674D03*
X182421533Y-132560659D03*
X182421524Y-130020644D03*
X182421513Y-127480669D03*
X182421501Y-124940666D03*
X182421516Y-122400661D03*
X182421536Y-119860681D03*
%TD*%
D11*
%TO.C,SW20*%
X266249103Y-105572171D03*
D12*
X271585715Y-104241587D03*
D13*
X270158401Y-98516861D03*
D11*
X276922327Y-102911003D03*
D13*
X275517881Y-99344833D03*
%TD*%
D11*
%TO.C,SW24*%
X242147292Y-94857162D03*
D12*
X247347638Y-93066534D03*
D13*
X245426812Y-87487989D03*
D11*
X252547984Y-91275906D03*
D13*
X250838058Y-87845703D03*
%TD*%
D14*
%TO.C,PAD1*%
X140933522Y-132006700D03*
%TD*%
D11*
%TO.C,SW11*%
X109814173Y-109592053D03*
D12*
X114913678Y-111652390D03*
D13*
X117123867Y-106182039D03*
D11*
X120013183Y-113712727D03*
D13*
X120973105Y-110002103D03*
%TD*%
D11*
%TO.C,SW12*%
X125328221Y-120578702D03*
D12*
X130427726Y-122639039D03*
D13*
X132637915Y-117168688D03*
D11*
X135527231Y-124699376D03*
D13*
X136487153Y-120988752D03*
%TD*%
D11*
%TO.C,SW3*%
X138439454Y-88127220D03*
D12*
X143538959Y-90187557D03*
D13*
X145749148Y-84717206D03*
D11*
X148638464Y-92247894D03*
D13*
X149598386Y-88537270D03*
%TD*%
D11*
%TO.C,SW28*%
X236464747Y-78323672D03*
D12*
X241665093Y-76533044D03*
D13*
X239744267Y-70954499D03*
D11*
X246865439Y-74742416D03*
D13*
X245155513Y-71312213D03*
%TD*%
D11*
%TO.C,SW18*%
X228643468Y-113712732D03*
D12*
X233742967Y-111652382D03*
D13*
X231532820Y-106182013D03*
D11*
X238842466Y-109592032D03*
D13*
X236955371Y-106256041D03*
%TD*%
D11*
%TO.C,SW19*%
X247851426Y-111409963D03*
D12*
X253051772Y-109619335D03*
D13*
X251130946Y-104040790D03*
D11*
X258252118Y-107828707D03*
D13*
X256542192Y-104398504D03*
%TD*%
D11*
%TO.C,S26*%
X198570986Y-152366188D03*
D12*
X202963481Y-149056205D03*
D11*
X207355976Y-145746222D03*
D13*
X204669761Y-143012315D03*
X199412772Y-144344255D03*
%TD*%
D11*
%TO.C,SW5*%
X96102036Y-91282088D03*
D12*
X101302404Y-93072716D03*
D13*
X103223265Y-87494194D03*
D11*
X106502772Y-94863344D03*
D13*
X107267156Y-91107565D03*
%TD*%
D11*
%TO.C,SW15*%
X198570987Y-152366186D03*
D12*
X202963481Y-149056205D03*
D13*
X199412814Y-144344272D03*
D11*
X207355975Y-145746224D03*
D13*
X204669746Y-143012303D03*
%TD*%
D16*
%TO.C,*%
X169985514Y-127059596D03*
%TD*%
D11*
%TO.C,SW6*%
X116369837Y-93366283D03*
D12*
X121469342Y-95426620D03*
D13*
X123679531Y-89956269D03*
D11*
X126568847Y-97486957D03*
D13*
X127528769Y-93776333D03*
%TD*%
D11*
%TO.C,SW14*%
X141300756Y-145746221D03*
D12*
X145693250Y-149056205D03*
D13*
X149243954Y-144344298D03*
D11*
X150085744Y-152366189D03*
D13*
X151973332Y-149030447D03*
%TD*%
D11*
%TO.C,SW1*%
X101799483Y-74735517D03*
D12*
X106999851Y-76526145D03*
D13*
X108920712Y-70947623D03*
D11*
X112200219Y-78316773D03*
D13*
X112964603Y-74560994D03*
%TD*%
D14*
%TO.C,PAD1*%
X207723209Y-132006700D03*
%TD*%
D11*
%TO.C,SW21*%
X192698827Y-123516724D03*
D12*
X197798326Y-121456374D03*
D13*
X195588179Y-115986005D03*
D11*
X202897825Y-119396024D03*
D13*
X201010730Y-116060033D03*
%TD*%
D11*
%TO.C,SW25*%
X186139761Y-107288951D03*
D12*
X191239260Y-105228601D03*
D13*
X189029113Y-99758232D03*
D11*
X196338759Y-103168251D03*
D13*
X194451664Y-99832260D03*
%TD*%
D11*
%TO.C,SW9*%
X71734396Y-102911011D03*
D12*
X77071016Y-104241587D03*
D13*
X78498372Y-98516878D03*
D11*
X82407636Y-105572163D03*
D13*
X82841797Y-101764056D03*
%TD*%
D11*
%TO.C,SW2*%
X122925455Y-77140586D03*
D12*
X128024960Y-79200923D03*
D13*
X130235149Y-73730572D03*
D11*
X133124465Y-81261260D03*
D13*
X134084387Y-77550636D03*
%TD*%
D11*
%TO.C,SW17*%
X213129506Y-124699364D03*
D12*
X218229005Y-122639014D03*
D13*
X216018858Y-117168645D03*
D11*
X223328504Y-120578664D03*
D13*
X221441409Y-117242673D03*
%TD*%
D11*
%TO.C,SW26*%
X200024702Y-92252071D03*
D12*
X205124201Y-90191721D03*
D13*
X202914054Y-84721352D03*
D11*
X210223700Y-88131371D03*
D13*
X208336605Y-84795380D03*
%TD*%
D11*
%TO.C,SW10*%
X90404573Y-107828685D03*
D12*
X95604941Y-109619313D03*
D13*
X97525802Y-104040791D03*
D11*
X100805309Y-111409941D03*
D13*
X101569693Y-107654162D03*
%TD*%
D11*
%TO.C,SW4*%
X152314546Y-103170344D03*
D12*
X157414051Y-105230681D03*
D13*
X159624240Y-99760330D03*
D11*
X162513556Y-107291018D03*
D13*
X163473478Y-103580394D03*
%TD*%
D11*
%TO.C,SW7*%
X131883803Y-104352965D03*
D12*
X136983308Y-106413302D03*
D13*
X139193497Y-100942951D03*
D11*
X142082813Y-108473639D03*
D13*
X143042735Y-104763015D03*
%TD*%
D11*
%TO.C,S25*%
X141300755Y-145746222D03*
D12*
X145693250Y-149056205D03*
D11*
X150085745Y-152366188D03*
D13*
X151973325Y-149030465D03*
X149243959Y-144344255D03*
%TD*%
D11*
%TO.C,SW8*%
X145758922Y-119396066D03*
D12*
X150858427Y-121456403D03*
D13*
X153068616Y-115986052D03*
D11*
X155957932Y-123516740D03*
D13*
X156917854Y-119806116D03*
%TD*%
M02*
