%TF.GenerationSoftware,KiCad,Pcbnew,9.0.1-1.fc42*%
%TF.CreationDate,2025-04-18T11:19:58+10:00*%
%TF.ProjectId,'akohekohe,27616b6f-6865-46b6-9f68-652e6b696361,0.1*%
%TF.SameCoordinates,Original*%
%TF.FileFunction,Profile,NP*%
%FSLAX46Y46*%
G04 Gerber Fmt 4.6, Leading zero omitted, Abs format (unit mm)*
G04 Created by KiCad (PCBNEW 9.0.1-1.fc42) date 2025-04-18 11:19:58*
%MOMM*%
%LPD*%
G01*
G04 APERTURE LIST*
%TA.AperFunction,Profile*%
%ADD10C,0.150000*%
%TD*%
G04 APERTURE END LIST*
D10*
X226291159Y-71852669D02*
X225614308Y-70177406D01*
X120261522Y-122441318D02*
G75*
G02*
X121090389Y-124394004I-561922J-1390782D01*
G01*
X182762527Y-116605685D02*
X165894206Y-116605685D01*
X72699469Y-94906729D02*
X89333728Y-99054115D01*
X152066240Y-94441755D02*
G75*
G02*
X151237374Y-92489069I561860J1390755D01*
G01*
X166437590Y-100248157D02*
G75*
G02*
X167266426Y-102200831I-561890J-1390743D01*
G01*
X198970649Y-162082105D02*
X216585353Y-148808473D01*
X121404170Y-127621568D02*
G75*
G02*
X120575324Y-125668890I561930J1390768D01*
G01*
X138191146Y-79398675D02*
X152562496Y-85205077D01*
X103458518Y-66845852D02*
X120486444Y-72709037D01*
X151786758Y-161786875D02*
X160058608Y-150811490D01*
X197419357Y-92489069D02*
G75*
G02*
X196590497Y-94441771I-1390757J-561931D01*
G01*
X123042423Y-70177406D02*
X122365573Y-71852669D01*
X103633648Y-115723221D02*
X120261522Y-122441318D01*
X122365573Y-71852670D02*
G75*
G02*
X120486438Y-72709056I-1390773J561870D01*
G01*
X210779366Y-76171110D02*
G75*
G02*
X211608241Y-74218445I1390734J561910D01*
G01*
X151786758Y-161786874D02*
G75*
G02*
X149686073Y-162082118I-1197958J902674D01*
G01*
X185544079Y-112481865D02*
G75*
G02*
X182762527Y-116605731I-2781579J-1123835D01*
G01*
X223661622Y-69348540D02*
G75*
G02*
X225614261Y-70177425I561878J-1390760D01*
G01*
X157858393Y-147262359D02*
G75*
G02*
X158430745Y-145049341I719807J994359D01*
G01*
X151237374Y-92489070D02*
X153391362Y-87157762D01*
X227566343Y-124394004D02*
G75*
G02*
X228395216Y-122441335I1390757J561904D01*
G01*
X85436264Y-114578947D02*
X99146284Y-119299685D01*
X198970649Y-162082105D02*
G75*
G02*
X196869951Y-161786891I-902749J1197905D01*
G01*
X101052914Y-118369759D02*
G75*
G02*
X99146271Y-119299724I-1418314J488359D01*
G01*
X138568544Y-134556426D02*
G75*
G02*
X139204575Y-136849913I-561944J-1390774D01*
G01*
X137048499Y-74218425D02*
G75*
G02*
X137877369Y-76171113I-561899J-1390775D01*
G01*
X188604383Y-150816489D02*
G75*
G02*
X188899630Y-148715795I1198217J902689D01*
G01*
X228395209Y-122441318D02*
X245023083Y-115723221D01*
X247104843Y-67775777D02*
X257541842Y-98087024D01*
X123042423Y-70177406D02*
G75*
G02*
X124995113Y-69348531I1390777J-561894D01*
G01*
X209452144Y-136849924D02*
G75*
G02*
X210088186Y-134556423I1197956J902724D01*
G01*
X245023083Y-115723221D02*
G75*
G02*
X247003282Y-116625641I561917J-1390779D01*
G01*
X190231255Y-145057341D02*
X158430745Y-145049341D01*
X132071378Y-148808473D02*
X149686083Y-162082105D01*
X259323003Y-99054115D02*
G75*
G02*
X257541837Y-98087026I-362903J1455415D01*
G01*
X249510447Y-119299685D02*
G75*
G02*
X247603819Y-118369758I-488347J1418285D01*
G01*
X228081427Y-125668882D02*
X227566343Y-124394004D01*
X181390275Y-102200843D02*
G75*
G02*
X182219135Y-100248143I1390725J561943D01*
G01*
X159763374Y-148710779D02*
G75*
G02*
X160058625Y-150811503I-902974J-1198021D01*
G01*
X263218323Y-114572721D02*
X279828012Y-110431460D01*
X228170287Y-72709037D02*
X245198213Y-66845852D01*
X70881143Y-95999289D02*
G75*
G02*
X72699468Y-94906732I1455457J-362911D01*
G01*
X70881143Y-95999290D02*
X67736158Y-108613134D01*
X152562495Y-85205077D02*
G75*
G02*
X153391426Y-87157788I-561895J-1390823D01*
G01*
X247003271Y-116625645D02*
X247603817Y-118369759D01*
X101653460Y-116625645D02*
G75*
G02*
X103633628Y-115723269I1418240J-488355D01*
G01*
X85438408Y-114572721D02*
X85436264Y-114578947D01*
X101052914Y-118369759D02*
X101653461Y-116625645D01*
X195265369Y-87157762D02*
X197419357Y-92489070D01*
X121404170Y-127621568D02*
X138568544Y-134556426D01*
X165894206Y-116605685D02*
G75*
G02*
X163112668Y-112481872I-6J2999985D01*
G01*
X159763374Y-148710779D02*
X157856383Y-147264824D01*
X209452143Y-136849923D02*
X216880584Y-146707797D01*
X121090388Y-124394004D02*
X120575304Y-125668882D01*
X280920573Y-108613135D02*
G75*
G02*
X279828012Y-110431461I-1455473J-362865D01*
G01*
X68828719Y-110431460D02*
X85438408Y-114572721D01*
X195265369Y-87157763D02*
G75*
G02*
X196094267Y-85205157I1390731J561863D01*
G01*
X137362280Y-77445989D02*
X137877365Y-76171111D01*
X131776147Y-146707797D02*
X139204588Y-136849923D01*
X216880584Y-146707798D02*
G75*
G02*
X216585340Y-148808456I-1197984J-902702D01*
G01*
X91114889Y-98087024D02*
X101551888Y-67775777D01*
X245198212Y-66845852D02*
G75*
G02*
X247104867Y-67775769I488388J-1418248D01*
G01*
X188899617Y-148715778D02*
X190805617Y-147272824D01*
X259323003Y-99054115D02*
X275957262Y-94906729D01*
X249510448Y-119299685D02*
X263220467Y-114578947D01*
X138191146Y-79398674D02*
G75*
G02*
X137362305Y-77445999I561954J1390774D01*
G01*
X275957263Y-94906729D02*
G75*
G02*
X277775555Y-95999298I362837J-1455471D01*
G01*
X263220467Y-114578947D02*
X263218323Y-114572721D01*
X91114888Y-98087024D02*
G75*
G02*
X89333721Y-99054145I-1418288J488324D01*
G01*
X182219141Y-100248157D02*
X196590491Y-94441755D01*
X188604383Y-150816489D02*
X196869973Y-161786875D01*
X137048499Y-74218425D02*
X124995109Y-69348540D01*
X181390275Y-102200843D02*
X185544078Y-112481866D01*
X211294451Y-77445989D02*
G75*
G02*
X210465580Y-79398663I-1390751J-561911D01*
G01*
X190231255Y-145057341D02*
G75*
G02*
X190803607Y-147270359I-147455J-1218659D01*
G01*
X210779367Y-76171111D02*
X211294451Y-77445989D01*
X223661623Y-69348540D02*
X211608233Y-74218425D01*
X132071377Y-148808473D02*
G75*
G02*
X131776125Y-146707780I902723J1197973D01*
G01*
X152066240Y-94441755D02*
X166437590Y-100248157D01*
X196094235Y-85205077D02*
X210465585Y-79398675D01*
X228081428Y-125668883D02*
G75*
G02*
X227252555Y-127621553I-1390728J-561917D01*
G01*
X163112653Y-112481866D02*
X167266456Y-102200843D01*
X101551888Y-67775778D02*
G75*
G02*
X103458538Y-66845794I1418312J-488322D01*
G01*
X228170286Y-72709036D02*
G75*
G02*
X226291141Y-71852676I-488386J1418236D01*
G01*
X68828719Y-110431461D02*
G75*
G02*
X67736137Y-108613129I362881J1455461D01*
G01*
X210088187Y-134556425D02*
X227252561Y-127621568D01*
X280920573Y-108613134D02*
X277775588Y-95999290D01*
M02*
