<svg width="2184" height="423" viewBox="0 0 2184 423" class="keymap" xmlns="http://www.w3.org/2000/svg" xmlns:xlink="http://www.w3.org/1999/xlink">
<style>/* inherit to force styles through use tags */
svg path {
    fill: inherit;
}

/* font and background color specifications */
svg.keymap {
    font-family: SFMono-Regular,Consolas,Liberation Mono,Menlo,monospace;
    font-size: 14px;
    font-kerning: normal;
    text-rendering: optimizeLegibility;
    fill: #24292e;
}

/* default key styling */
rect.key {
    fill: #f6f8fa;
}

rect.key, rect.combo {
    stroke: #c9cccf;
    stroke-width: 1;
}

/* default key side styling, only used is draw_key_sides is set */
rect.side {
    filter: brightness(90%);
}

/* color accent for combo boxes */
rect.combo, rect.combo-separate {
    fill: #cdf;
}

/* color accent for held keys */
rect.held, rect.combo.held {
    fill: #fdd;
}

/* color accent for ghost (optional) keys */
rect.ghost, rect.combo.ghost {
    stroke-dasharray: 4, 4;
    stroke-width: 2;
}

text {
    text-anchor: middle;
    dominant-baseline: middle;
}

/* styling for layer labels */
text.label {
    font-weight: bold;
    text-anchor: start;
    stroke: white;
    stroke-width: 4;
    paint-order: stroke;
}

/* styling for optional footer */
text.footer {
    text-anchor: end;
    dominant-baseline: auto;
    stroke: white;
    stroke-width: 4;
    paint-order: stroke;
}

/* styling for combo tap, and key hold/shifted label text */
text.combo, text.hold, text.shifted {
    font-size: 11px;
}

text.hold {
    text-anchor: middle;
    dominant-baseline: auto;
}

text.shifted {
    text-anchor: middle;
    dominant-baseline: hanging;
}

text.layer-activator {
    text-decoration: underline;
}

/* styling for hold/shifted label text in combo box */
text.combo.hold, text.combo.shifted {
    font-size: 8px;
}

/* lighter symbol for transparent keys */
text.trans {
    fill: #7b7e81;
}

/* styling for combo dendrons */
path.combo {
    stroke-width: 1;
    stroke: gray;
    fill: none;
}

/* Start Tabler Icons Cleanup */
/* cannot use height/width with glyphs */
.icon-tabler > path {
    fill: inherit;
    stroke: inherit;
    stroke-width: 2;
}
/* hide tabler's default box */
.icon-tabler > path[stroke="none"][fill="none"] {
    visibility: hidden;
}
/* End Tabler Icons Cleanup */

@media (prefers-color-scheme: dark) {
svg.keymap { fill: #d1d6db; }
rect.key { fill: #3f4750; }
rect.key, rect.combo { stroke: #60666c; }
rect.combo, rect.combo-separate { fill: #1f3d7a; }
rect.held, rect.combo.held { fill: #854747; }
text.label, text.footer { stroke: black; }
text.trans { fill: #7e8184; }
path.combo { stroke: #7f7f7f; }

}</style>
<g transform="translate(30, 0)" class="layer-colemak">
<text x="0" y="28" class="label" id="colemak">colemak:</text>
<g transform="translate(0, 56)">
<g transform="translate(121, 28) rotate(19.0)" class="key keypos-0">
<rect rx="6" ry="6" x="-26" y="-26" width="52" height="52" class="key"/>
<text x="0" y="0" class="key tap">W</text>
</g>
<g transform="translate(187, 37) rotate(22.0)" class="key keypos-1">
<rect rx="6" ry="6" x="-26" y="-26" width="52" height="52" class="key"/>
<text x="0" y="0" class="key tap">F</text>
</g>
<g transform="translate(235, 73) rotate(22.0)" class="key keypos-2">
<rect rx="6" ry="6" x="-26" y="-26" width="52" height="52" class="key"/>
<text x="0" y="0" class="key tap">P</text>
</g>
<g transform="translate(278, 123) rotate(22.0)" class="key keypos-3">
<rect rx="6" ry="6" x="-26" y="-26" width="52" height="52" class="key"/>
<text x="0" y="0" class="key tap">B</text>
</g>
<g transform="translate(383, 123) rotate(-22.0)" class="key keypos-4">
<rect rx="6" ry="6" x="-26" y="-26" width="52" height="52" class="key"/>
<text x="0" y="0" class="key tap">K</text>
</g>
<g transform="translate(427, 73) rotate(-22.0)" class="key keypos-5">
<rect rx="6" ry="6" x="-26" y="-26" width="52" height="52" class="key"/>
<text x="0" y="0" class="key tap">L</text>
</g>
<g transform="translate(475, 37) rotate(-22.0)" class="key keypos-6">
<rect rx="6" ry="6" x="-26" y="-26" width="52" height="52" class="key"/>
<text x="0" y="0" class="key tap">U</text>
</g>
<g transform="translate(540, 28) rotate(-19.0)" class="key keypos-7">
<rect rx="6" ry="6" x="-26" y="-26" width="52" height="52" class="key"/>
<text x="0" y="0" class="key tap">Y</text>
</g>
<g transform="translate(28, 119) rotate(14.0)" class="key keypos-8">
<rect rx="6" ry="6" x="-26" y="-26" width="52" height="52" class="key"/>
<text x="0" y="0" class="key tap">A</text>
<text x="0" y="24" class="key hold">SHIFT</text>
</g>
<g transform="translate(104, 82) rotate(19.0)" class="key keypos-9">
<rect rx="6" ry="6" x="-26" y="-26" width="52" height="52" class="key"/>
<text x="0" y="0" class="key tap">R</text>
<text x="0" y="24" class="key hold">CONTROL</text>
</g>
<g transform="translate(166, 90) rotate(22.0)" class="key keypos-10">
<rect rx="6" ry="6" x="-26" y="-26" width="52" height="52" class="key"/>
<text x="0" y="0" class="key tap">S</text>
<text x="0" y="24" class="key hold">ALT</text>
</g>
<g transform="translate(215, 126) rotate(22.0)" class="key keypos-11">
<rect rx="6" ry="6" x="-26" y="-26" width="52" height="52" class="key"/>
<text x="0" y="0" class="key tap">T</text>
<text x="0" y="24" class="key hold">GUI</text>
</g>
<g transform="translate(258, 176) rotate(22.0)" class="key keypos-12">
<rect rx="6" ry="6" x="-26" y="-26" width="52" height="52" class="key"/>
<text x="0" y="0" class="key tap">G</text>
</g>
<g transform="translate(404, 176) rotate(-22.0)" class="key keypos-13">
<rect rx="6" ry="6" x="-26" y="-26" width="52" height="52" class="key"/>
<text x="0" y="0" class="key tap">M</text>
</g>
<g transform="translate(447, 126) rotate(-22.0)" class="key keypos-14">
<rect rx="6" ry="6" x="-26" y="-26" width="52" height="52" class="key"/>
<text x="0" y="0" class="key tap">N</text>
<text x="0" y="24" class="key hold">GUI</text>
</g>
<g transform="translate(495, 90) rotate(-22.0)" class="key keypos-15">
<rect rx="6" ry="6" x="-26" y="-26" width="52" height="52" class="key"/>
<text x="0" y="0" class="key tap">E</text>
<text x="0" y="24" class="key hold">ALT</text>
</g>
<g transform="translate(558, 82) rotate(-19.0)" class="key keypos-16">
<rect rx="6" ry="6" x="-26" y="-26" width="52" height="52" class="key"/>
<text x="0" y="0" class="key tap">I</text>
<text x="0" y="24" class="key hold">CONTROL</text>
</g>
<g transform="translate(634, 119) rotate(-14.0)" class="key keypos-17">
<rect rx="6" ry="6" x="-26" y="-26" width="52" height="52" class="key"/>
<text x="0" y="0" class="key tap">O</text>
<text x="0" y="24" class="key hold">SHIFT</text>
</g>
<g transform="translate(86, 137) rotate(19.0)" class="key keypos-18">
<rect rx="6" ry="6" x="-26" y="-26" width="52" height="52" class="key"/>
<text x="0" y="0" class="key tap">X</text>
</g>
<g transform="translate(146, 144) rotate(22.0)" class="key keypos-19">
<rect rx="6" ry="6" x="-26" y="-26" width="52" height="52" class="key"/>
<text x="0" y="0" class="key tap">C</text>
</g>
<g transform="translate(194, 180) rotate(22.0)" class="key keypos-20">
<rect rx="6" ry="6" x="-26" y="-26" width="52" height="52" class="key"/>
<text x="0" y="0" class="key tap">D</text>
</g>
<g transform="translate(467, 180) rotate(-22.0)" class="key keypos-21">
<rect rx="6" ry="6" x="-26" y="-26" width="52" height="52" class="key"/>
<text x="0" y="0" class="key tap">H</text>
</g>
<g transform="translate(516, 144) rotate(-22.0)" class="key keypos-22">
<rect rx="6" ry="6" x="-26" y="-26" width="52" height="52" class="key"/>
<text x="0" y="0" class="key tap">,</text>
<text x="0" y="-24" class="key shifted">;</text>
</g>
<g transform="translate(576, 137) rotate(-19.0)" class="key keypos-23">
<rect rx="6" ry="6" x="-26" y="-26" width="52" height="52" class="key"/>
<text x="0" y="0" class="key tap">.</text>
<text x="0" y="-24" class="key shifted">:</text>
</g>
<g transform="translate(239, 263) rotate(37.0)" class="key keypos-24">
<rect rx="6" ry="6" x="-40" y="-26" width="80" height="52" class="key"/>
<text x="0" y="0" class="key tap">SPACE</text>
<text x="0" y="24" class="key hold">nav</text>
</g>
<g transform="translate(423, 263) rotate(-37.0)" class="key keypos-25">
<rect rx="6" ry="6" x="-40" y="-26" width="80" height="52" class="key"/>
<text x="0" y="0" class="key tap">SHIFT</text>
<text x="0" y="24" class="key hold">symnum</text>
</g>
<g class="combo combopos-0">
<g transform="rotate(20.0, 210.84, 54.879999999999995)">
<rect rx="6" ry="6" x="197" y="42" width="28" height="26" class="combo"/>
<text x="211" y="55" class="combo tap">J</text>
</g>
</g>
<g class="combo combopos-1">
<g transform="rotate(20.0, 115.892, 140.336)">
<rect rx="6" ry="6" x="102" y="127" width="28" height="26" class="combo"/>
<text x="116" y="140" class="combo tap">Z</text>
</g>
</g>
<g class="combo combopos-2">
<g transform="rotate(20.0, 154.0, 32.396)">
<rect rx="6" ry="6" x="140" y="19" width="28" height="26" class="combo"/>
<text x="154" y="32" class="combo tap">V</text>
</g>
</g>
<g class="combo combopos-3">
<g transform="rotate(20.0, 170.072, 161.784)">
<rect rx="6" ry="6" x="156" y="149" width="28" height="26" class="combo"/>
<text x="170" y="162" class="combo tap">QU</text>
</g>
</g>
<g class="combo combopos-4">
<g transform="rotate(20.0, 112.448, 55.244)">
<rect rx="6" ry="6" x="98" y="42" width="28" height="26" class="combo"/>
<text x="112" y="55" class="combo tap">{</text>
</g>
</g>
<g class="combo combopos-5">
<g transform="rotate(20.0, 176.512, 63.504000000000005)">
<rect rx="6" ry="6" x="163" y="51" width="28" height="26" class="combo"/>
<text x="177" y="64" class="combo tap">[</text>
</g>
</g>
<g class="combo combopos-6">
<g transform="rotate(20.0, 224.784, 99.708)">
<rect rx="6" ry="6" x="211" y="87" width="28" height="26" class="combo"/>
<text x="225" y="100" class="combo tap">(</text>
</g>
</g>
<g class="combo combopos-7">
<g transform="rotate(20.0, 267.96000000000004, 149.24)">
<rect rx="6" ry="6" x="254" y="136" width="28" height="26" class="combo"/>
<text x="268" y="149" class="combo tap">&lt;</text>
</g>
</g>
<g class="combo combopos-8">
<g transform="rotate(-20.0, 549.1080000000001, 55.244)">
<rect rx="6" ry="6" x="535" y="42" width="28" height="26" class="combo"/>
<text x="549" y="55" class="combo tap">}</text>
</g>
</g>
<g class="combo combopos-9">
<g transform="rotate(-20.0, 485.016, 63.504000000000005)">
<rect rx="6" ry="6" x="471" y="51" width="28" height="26" class="combo"/>
<text x="485" y="64" class="combo tap">]</text>
</g>
</g>
<g class="combo combopos-10">
<g transform="rotate(-20.0, 436.772, 99.708)">
<rect rx="6" ry="6" x="423" y="87" width="28" height="26" class="combo"/>
<text x="437" y="100" class="combo tap">)</text>
</g>
</g>
<g class="combo combopos-11">
<g transform="rotate(-20.0, 393.596, 149.24)">
<rect rx="6" ry="6" x="380" y="136" width="28" height="26" class="combo"/>
<text x="394" y="149" class="combo tap">&gt;</text>
</g>
</g>
<g class="combo combopos-12">
<g transform="rotate(-20.0, 545.664, 140.336)">
<rect rx="6" ry="6" x="532" y="127" width="28" height="26" class="combo"/>
<text x="546" y="140" class="combo tap">/</text>
</g>
</g>
<g class="combo combopos-13">
<g transform="rotate(-20.0, 491.512, 161.784)">
<rect rx="6" ry="6" x="478" y="149" width="28" height="26" class="combo"/>
<text x="492" y="162" class="combo tap">\</text>
</g>
</g>
<g class="combo combopos-14">
<g transform="rotate(-20.0, 507.55600000000004, 32.396)">
<rect rx="6" ry="6" x="494" y="19" width="28" height="26" class="combo"/>
<text x="508" y="32" class="combo tap">&#x27;</text>
</g>
</g>
<g class="combo combopos-15">
<g transform="rotate(-20.0, 450.716, 54.879999999999995)">
<rect rx="6" ry="6" x="437" y="42" width="28" height="26" class="combo"/>
<text x="451" y="55" class="combo tap">`</text>
</g>
</g>
</g>
</g>
<g transform="translate(758, 0)" class="layer-bird">
<text x="0" y="28" class="label" id="bird">bird:</text>
<g transform="translate(0, 56)">
<g transform="translate(121, 28) rotate(19.0)" class="key keypos-0">
<rect rx="6" ry="6" x="-26" y="-26" width="52" height="52" class="key"/>
<text x="0" y="0" class="key tap">C</text>
</g>
<g transform="translate(187, 37) rotate(22.0)" class="key keypos-1">
<rect rx="6" ry="6" x="-26" y="-26" width="52" height="52" class="key"/>
<text x="0" y="0" class="key tap">L</text>
</g>
<g transform="translate(235, 73) rotate(22.0)" class="key keypos-2">
<rect rx="6" ry="6" x="-26" y="-26" width="52" height="52" class="key"/>
<text x="0" y="0" class="key tap">F</text>
</g>
<g transform="translate(278, 123) rotate(22.0)" class="key keypos-3">
<rect rx="6" ry="6" x="-26" y="-26" width="52" height="52" class="key"/>
<text x="0" y="0" class="key tap">P</text>
</g>
<g transform="translate(383, 123) rotate(-22.0)" class="key keypos-4">
<rect rx="6" ry="6" x="-26" y="-26" width="52" height="52" class="key"/>
<text x="0" y="0" class="key tap">K</text>
</g>
<g transform="translate(427, 73) rotate(-22.0)" class="key keypos-5">
<rect rx="6" ry="6" x="-26" y="-26" width="52" height="52" class="key"/>
<text x="0" y="0" class="key tap">Y</text>
</g>
<g transform="translate(475, 37) rotate(-22.0)" class="key keypos-6">
<rect rx="6" ry="6" x="-26" y="-26" width="52" height="52" class="key"/>
<text x="0" y="0" class="key tap">O</text>
</g>
<g transform="translate(540, 28) rotate(-19.0)" class="key keypos-7">
<rect rx="6" ry="6" x="-26" y="-26" width="52" height="52" class="key"/>
<text x="0" y="0" class="key tap">U</text>
</g>
<g transform="translate(28, 119) rotate(14.0)" class="key keypos-8">
<rect rx="6" ry="6" x="-26" y="-26" width="52" height="52" class="key"/>
<text x="0" y="0" class="key tap">R</text>
<text x="0" y="24" class="key hold">SHIFT</text>
</g>
<g transform="translate(104, 82) rotate(19.0)" class="key keypos-9">
<rect rx="6" ry="6" x="-26" y="-26" width="52" height="52" class="key"/>
<text x="0" y="0" class="key tap">S</text>
<text x="0" y="24" class="key hold">CONTROL</text>
</g>
<g transform="translate(166, 90) rotate(22.0)" class="key keypos-10">
<rect rx="6" ry="6" x="-26" y="-26" width="52" height="52" class="key"/>
<text x="0" y="0" class="key tap">N</text>
<text x="0" y="24" class="key hold">ALT</text>
</g>
<g transform="translate(215, 126) rotate(22.0)" class="key keypos-11">
<rect rx="6" ry="6" x="-26" y="-26" width="52" height="52" class="key"/>
<text x="0" y="0" class="key tap">T</text>
<text x="0" y="24" class="key hold">GUI</text>
</g>
<g transform="translate(258, 176) rotate(22.0)" class="key keypos-12">
<rect rx="6" ry="6" x="-26" y="-26" width="52" height="52" class="key"/>
<text x="0" y="0" class="key tap">B</text>
</g>
<g transform="translate(404, 176) rotate(-22.0)" class="key keypos-13">
<rect rx="6" ry="6" x="-26" y="-26" width="52" height="52" class="key"/>
<text x="0" y="0" class="key tap">J</text>
</g>
<g transform="translate(447, 126) rotate(-22.0)" class="key keypos-14">
<rect rx="6" ry="6" x="-26" y="-26" width="52" height="52" class="key"/>
<text x="0" y="0" class="key tap">H</text>
<text x="0" y="24" class="key hold">GUI</text>
</g>
<g transform="translate(495, 90) rotate(-22.0)" class="key keypos-15">
<rect rx="6" ry="6" x="-26" y="-26" width="52" height="52" class="key"/>
<text x="0" y="0" class="key tap">E</text>
<text x="0" y="24" class="key hold">ALT</text>
</g>
<g transform="translate(558, 82) rotate(-19.0)" class="key keypos-16">
<rect rx="6" ry="6" x="-26" y="-26" width="52" height="52" class="key"/>
<text x="0" y="0" class="key tap">I</text>
<text x="0" y="24" class="key hold">CONTROL</text>
</g>
<g transform="translate(634, 119) rotate(-14.0)" class="key keypos-17">
<rect rx="6" ry="6" x="-26" y="-26" width="52" height="52" class="key"/>
<text x="0" y="0" class="key tap">O</text>
<text x="0" y="24" class="key hold">SHIFT</text>
</g>
<g transform="translate(86, 137) rotate(19.0)" class="key keypos-18">
<rect rx="6" ry="6" x="-26" y="-26" width="52" height="52" class="key"/>
<text x="0" y="0" class="key tap">W</text>
</g>
<g transform="translate(146, 144) rotate(22.0)" class="key keypos-19">
<rect rx="6" ry="6" x="-26" y="-26" width="52" height="52" class="key"/>
<text x="0" y="0" class="key tap">M</text>
</g>
<g transform="translate(194, 180) rotate(22.0)" class="key keypos-20">
<rect rx="6" ry="6" x="-26" y="-26" width="52" height="52" class="key"/>
<text x="0" y="0" class="key tap">G</text>
</g>
<g transform="translate(467, 180) rotate(-22.0)" class="key keypos-21">
<rect rx="6" ry="6" x="-26" y="-26" width="52" height="52" class="key"/>
<text x="0" y="0" class="key tap">D</text>
</g>
<g transform="translate(516, 144) rotate(-22.0)" class="key keypos-22">
<rect rx="6" ry="6" x="-26" y="-26" width="52" height="52" class="key"/>
<text x="0" y="0" class="key tap">,</text>
<text x="0" y="-24" class="key shifted">;</text>
</g>
<g transform="translate(576, 137) rotate(-19.0)" class="key keypos-23">
<rect rx="6" ry="6" x="-26" y="-26" width="52" height="52" class="key"/>
<text x="0" y="0" class="key tap">.</text>
<text x="0" y="-24" class="key shifted">:</text>
</g>
<g transform="translate(239, 263) rotate(37.0)" class="key keypos-24">
<rect rx="6" ry="6" x="-40" y="-26" width="80" height="52" class="key"/>
<text x="0" y="0" class="key tap">SPACE</text>
<text x="0" y="24" class="key hold">nav</text>
</g>
<g transform="translate(423, 263) rotate(-37.0)" class="key keypos-25">
<rect rx="6" ry="6" x="-40" y="-26" width="80" height="52" class="key"/>
<text x="0" y="0" class="key tap">SHIFT</text>
<text x="0" y="24" class="key hold">symnum</text>
</g>
<g class="combo combopos-0">
<g transform="rotate(20.0, 210.84, 54.879999999999995)">
<rect rx="6" ry="6" x="197" y="42" width="28" height="26" class="combo"/>
<text x="211" y="55" class="combo tap">QU</text>
</g>
</g>
<g class="combo combopos-1">
<g transform="rotate(20.0, 115.892, 140.336)">
<rect rx="6" ry="6" x="102" y="127" width="28" height="26" class="combo"/>
<text x="116" y="140" class="combo tap">Z</text>
</g>
</g>
<g class="combo combopos-2">
<g transform="rotate(20.0, 154.0, 32.396)">
<rect rx="6" ry="6" x="140" y="19" width="28" height="26" class="combo"/>
<text x="154" y="32" class="combo tap">V</text>
</g>
</g>
<g class="combo combopos-3">
<g transform="rotate(20.0, 170.072, 161.784)">
<rect rx="6" ry="6" x="156" y="149" width="28" height="26" class="combo"/>
<text x="170" y="162" class="combo tap">X</text>
</g>
</g>
<g class="combo combopos-4">
<g transform="rotate(20.0, 112.448, 55.244)">
<rect rx="6" ry="6" x="98" y="42" width="28" height="26" class="combo"/>
<text x="112" y="55" class="combo tap">{</text>
</g>
</g>
<g class="combo combopos-5">
<g transform="rotate(20.0, 176.512, 63.504000000000005)">
<rect rx="6" ry="6" x="163" y="51" width="28" height="26" class="combo"/>
<text x="177" y="64" class="combo tap">[</text>
</g>
</g>
<g class="combo combopos-6">
<g transform="rotate(20.0, 224.784, 99.708)">
<rect rx="6" ry="6" x="211" y="87" width="28" height="26" class="combo"/>
<text x="225" y="100" class="combo tap">(</text>
</g>
</g>
<g class="combo combopos-7">
<g transform="rotate(20.0, 267.96000000000004, 149.24)">
<rect rx="6" ry="6" x="254" y="136" width="28" height="26" class="combo"/>
<text x="268" y="149" class="combo tap">&lt;</text>
</g>
</g>
<g class="combo combopos-8">
<g transform="rotate(-20.0, 549.1080000000001, 55.244)">
<rect rx="6" ry="6" x="535" y="42" width="28" height="26" class="combo"/>
<text x="549" y="55" class="combo tap">}</text>
</g>
</g>
<g class="combo combopos-9">
<g transform="rotate(-20.0, 485.016, 63.504000000000005)">
<rect rx="6" ry="6" x="471" y="51" width="28" height="26" class="combo"/>
<text x="485" y="64" class="combo tap">]</text>
</g>
</g>
<g class="combo combopos-10">
<g transform="rotate(-20.0, 436.772, 99.708)">
<rect rx="6" ry="6" x="423" y="87" width="28" height="26" class="combo"/>
<text x="437" y="100" class="combo tap">)</text>
</g>
</g>
<g class="combo combopos-11">
<g transform="rotate(-20.0, 393.596, 149.24)">
<rect rx="6" ry="6" x="380" y="136" width="28" height="26" class="combo"/>
<text x="394" y="149" class="combo tap">&gt;</text>
</g>
</g>
<g class="combo combopos-12">
<g transform="rotate(-20.0, 545.664, 140.336)">
<rect rx="6" ry="6" x="532" y="127" width="28" height="26" class="combo"/>
<text x="546" y="140" class="combo tap">/</text>
</g>
</g>
<g class="combo combopos-13">
<g transform="rotate(-20.0, 491.512, 161.784)">
<rect rx="6" ry="6" x="478" y="149" width="28" height="26" class="combo"/>
<text x="492" y="162" class="combo tap">\</text>
</g>
</g>
<g class="combo combopos-14">
<g transform="rotate(-20.0, 507.55600000000004, 32.396)">
<rect rx="6" ry="6" x="494" y="19" width="28" height="26" class="combo"/>
<text x="508" y="32" class="combo tap">&#x27;</text>
</g>
</g>
<g class="combo combopos-15">
<g transform="rotate(-20.0, 450.716, 54.879999999999995)">
<rect rx="6" ry="6" x="437" y="42" width="28" height="26" class="combo"/>
<text x="451" y="55" class="combo tap">`</text>
</g>
</g>
</g>
</g>
<g transform="translate(1486, 0)" class="layer-gallium-ssbb">
<text x="0" y="28" class="label" id="gallium-ssbb">gallium-ssbb:</text>
<g transform="translate(0, 56)">
<g transform="translate(121, 28) rotate(19.0)" class="key keypos-0">
<rect rx="6" ry="6" x="-26" y="-26" width="52" height="52" class="key"/>
<text x="0" y="0" class="key tap">L</text>
</g>
<g transform="translate(187, 37) rotate(22.0)" class="key keypos-1">
<rect rx="6" ry="6" x="-26" y="-26" width="52" height="52" class="key"/>
<text x="0" y="0" class="key tap">D</text>
</g>
<g transform="translate(235, 73) rotate(22.0)" class="key keypos-2">
<rect rx="6" ry="6" x="-26" y="-26" width="52" height="52" class="key"/>
<text x="0" y="0" class="key tap">W</text>
</g>
<g transform="translate(278, 123) rotate(22.0)" class="key keypos-3">
<rect rx="6" ry="6" x="-26" y="-26" width="52" height="52" class="key"/>
<text x="0" y="0" class="key tap">G</text>
</g>
<g transform="translate(383, 123) rotate(-22.0)" class="key keypos-4">
<rect rx="6" ry="6" x="-26" y="-26" width="52" height="52" class="key"/>
<text x="0" y="0" class="key tap">B</text>
</g>
<g transform="translate(427, 73) rotate(-22.0)" class="key keypos-5">
<rect rx="6" ry="6" x="-26" y="-26" width="52" height="52" class="key"/>
<text x="0" y="0" class="key tap">F</text>
</g>
<g transform="translate(475, 37) rotate(-22.0)" class="key keypos-6">
<rect rx="6" ry="6" x="-26" y="-26" width="52" height="52" class="key"/>
<text x="0" y="0" class="key tap">O</text>
</g>
<g transform="translate(540, 28) rotate(-19.0)" class="key keypos-7">
<rect rx="6" ry="6" x="-26" y="-26" width="52" height="52" class="key"/>
<text x="0" y="0" class="key tap">U</text>
</g>
<g transform="translate(28, 119) rotate(14.0)" class="key keypos-8">
<rect rx="6" ry="6" x="-26" y="-26" width="52" height="52" class="key"/>
<text x="0" y="0" class="key tap">N</text>
<text x="0" y="24" class="key hold">SHIFT</text>
</g>
<g transform="translate(104, 82) rotate(19.0)" class="key keypos-9">
<rect rx="6" ry="6" x="-26" y="-26" width="52" height="52" class="key"/>
<text x="0" y="0" class="key tap">R</text>
<text x="0" y="24" class="key hold">CONTROL</text>
</g>
<g transform="translate(166, 90) rotate(22.0)" class="key keypos-10">
<rect rx="6" ry="6" x="-26" y="-26" width="52" height="52" class="key"/>
<text x="0" y="0" class="key tap">T</text>
<text x="0" y="24" class="key hold">ALT</text>
</g>
<g transform="translate(215, 126) rotate(22.0)" class="key keypos-11">
<rect rx="6" ry="6" x="-26" y="-26" width="52" height="52" class="key"/>
<text x="0" y="0" class="key tap">Y</text>
<text x="0" y="24" class="key hold">GUI</text>
</g>
<g transform="translate(258, 176) rotate(22.0)" class="key keypos-12">
<rect rx="6" ry="6" x="-26" y="-26" width="52" height="52" class="key"/>
<text x="0" y="0" class="key tap">V</text>
</g>
<g transform="translate(404, 176) rotate(-22.0)" class="key keypos-13">
<rect rx="6" ry="6" x="-26" y="-26" width="52" height="52" class="key"/>
<text x="0" y="0" class="key tap">K</text>
</g>
<g transform="translate(447, 126) rotate(-22.0)" class="key keypos-14">
<rect rx="6" ry="6" x="-26" y="-26" width="52" height="52" class="key"/>
<text x="0" y="0" class="key tap">H</text>
<text x="0" y="24" class="key hold">GUI</text>
</g>
<g transform="translate(495, 90) rotate(-22.0)" class="key keypos-15">
<rect rx="6" ry="6" x="-26" y="-26" width="52" height="52" class="key"/>
<text x="0" y="0" class="key tap">A</text>
<text x="0" y="24" class="key hold">ALT</text>
</g>
<g transform="translate(558, 82) rotate(-19.0)" class="key keypos-16">
<rect rx="6" ry="6" x="-26" y="-26" width="52" height="52" class="key"/>
<text x="0" y="0" class="key tap">E</text>
<text x="0" y="24" class="key hold">CONTROL</text>
</g>
<g transform="translate(634, 119) rotate(-14.0)" class="key keypos-17">
<rect rx="6" ry="6" x="-26" y="-26" width="52" height="52" class="key"/>
<text x="0" y="0" class="key tap">I</text>
<text x="0" y="24" class="key hold">SHIFT</text>
</g>
<g transform="translate(86, 137) rotate(19.0)" class="key keypos-18">
<rect rx="6" ry="6" x="-26" y="-26" width="52" height="52" class="key"/>
<text x="0" y="0" class="key tap">J</text>
</g>
<g transform="translate(146, 144) rotate(22.0)" class="key keypos-19">
<rect rx="6" ry="6" x="-26" y="-26" width="52" height="52" class="key"/>
<text x="0" y="0" class="key tap">M</text>
</g>
<g transform="translate(194, 180) rotate(22.0)" class="key keypos-20">
<rect rx="6" ry="6" x="-26" y="-26" width="52" height="52" class="key"/>
<text x="0" y="0" class="key tap">C</text>
</g>
<g transform="translate(467, 180) rotate(-22.0)" class="key keypos-21">
<rect rx="6" ry="6" x="-26" y="-26" width="52" height="52" class="key"/>
<text x="0" y="0" class="key tap">P</text>
</g>
<g transform="translate(516, 144) rotate(-22.0)" class="key keypos-22">
<rect rx="6" ry="6" x="-26" y="-26" width="52" height="52" class="key"/>
<text x="0" y="0" class="key tap">,</text>
<text x="0" y="-24" class="key shifted">;</text>
</g>
<g transform="translate(576, 137) rotate(-19.0)" class="key keypos-23">
<rect rx="6" ry="6" x="-26" y="-26" width="52" height="52" class="key"/>
<text x="0" y="0" class="key tap">.</text>
<text x="0" y="-24" class="key shifted">:</text>
</g>
<g transform="translate(239, 263) rotate(37.0)" class="key keypos-24">
<rect rx="6" ry="6" x="-40" y="-26" width="80" height="52" class="key"/>
<text x="0" y="0" class="key tap">SPACE</text>
<text x="0" y="24" class="key hold">nav</text>
</g>
<g transform="translate(423, 263) rotate(-37.0)" class="key keypos-25">
<rect rx="6" ry="6" x="-40" y="-26" width="80" height="52" class="key"/>
<text x="0" y="0" class="key tap">S</text>
<text x="0" y="24" class="key hold">symnum</text>
</g>
<g class="combo combopos-0">
<g transform="rotate(20.0, 210.84, 54.879999999999995)">
<rect rx="6" ry="6" x="197" y="42" width="28" height="26" class="combo"/>
<text x="211" y="55" class="combo tap">Q</text>
</g>
</g>
<g class="combo combopos-1">
<g transform="rotate(20.0, 154.0, 32.396)">
<rect rx="6" ry="6" x="140" y="19" width="28" height="26" class="combo"/>
<text x="154" y="32" class="combo tap">X</text>
</g>
</g>
<g class="combo combopos-2">
<g transform="rotate(20.0, 115.892, 140.336)">
<rect rx="6" ry="6" x="102" y="127" width="28" height="26" class="combo"/>
<text x="116" y="140" class="combo tap">Z</text>
</g>
</g>
<g class="combo combopos-3">
<g transform="rotate(20.0, 112.448, 55.244)">
<rect rx="6" ry="6" x="98" y="42" width="28" height="26" class="combo"/>
<text x="112" y="55" class="combo tap">{</text>
</g>
</g>
<g class="combo combopos-4">
<g transform="rotate(20.0, 176.512, 63.504000000000005)">
<rect rx="6" ry="6" x="163" y="51" width="28" height="26" class="combo"/>
<text x="177" y="64" class="combo tap">[</text>
</g>
</g>
<g class="combo combopos-5">
<g transform="rotate(20.0, 224.784, 99.708)">
<rect rx="6" ry="6" x="211" y="87" width="28" height="26" class="combo"/>
<text x="225" y="100" class="combo tap">(</text>
</g>
</g>
<g class="combo combopos-6">
<g transform="rotate(20.0, 267.96000000000004, 149.24)">
<rect rx="6" ry="6" x="254" y="136" width="28" height="26" class="combo"/>
<text x="268" y="149" class="combo tap">&lt;</text>
</g>
</g>
<g class="combo combopos-7">
<g transform="rotate(-20.0, 549.1080000000001, 55.244)">
<rect rx="6" ry="6" x="535" y="42" width="28" height="26" class="combo"/>
<text x="549" y="55" class="combo tap">}</text>
</g>
</g>
<g class="combo combopos-8">
<g transform="rotate(-20.0, 485.016, 63.504000000000005)">
<rect rx="6" ry="6" x="471" y="51" width="28" height="26" class="combo"/>
<text x="485" y="64" class="combo tap">]</text>
</g>
</g>
<g class="combo combopos-9">
<g transform="rotate(-20.0, 436.772, 99.708)">
<rect rx="6" ry="6" x="423" y="87" width="28" height="26" class="combo"/>
<text x="437" y="100" class="combo tap">)</text>
</g>
</g>
<g class="combo combopos-10">
<g transform="rotate(-20.0, 393.596, 149.24)">
<rect rx="6" ry="6" x="380" y="136" width="28" height="26" class="combo"/>
<text x="394" y="149" class="combo tap">&gt;</text>
</g>
</g>
<g class="combo combopos-11">
<g transform="rotate(-20.0, 545.664, 140.336)">
<rect rx="6" ry="6" x="532" y="127" width="28" height="26" class="combo"/>
<text x="546" y="140" class="combo tap">/</text>
</g>
</g>
<g class="combo combopos-12">
<g transform="rotate(-20.0, 491.512, 161.784)">
<rect rx="6" ry="6" x="478" y="149" width="28" height="26" class="combo"/>
<text x="492" y="162" class="combo tap">\</text>
</g>
</g>
<g class="combo combopos-13">
<g transform="rotate(-20.0, 507.55600000000004, 32.396)">
<rect rx="6" ry="6" x="494" y="19" width="28" height="26" class="combo"/>
<text x="508" y="32" class="combo tap">&#x27;</text>
</g>
</g>
<g class="combo combopos-14">
<g transform="rotate(-20.0, 450.716, 54.879999999999995)">
<rect rx="6" ry="6" x="437" y="42" width="28" height="26" class="combo"/>
<text x="451" y="55" class="combo tap">`</text>
</g>
</g>
</g>
</g>
<text x="2154.0" y="395.0" class="footer">Created with <a href="https://github.com/caksoylar/keymap-drawer">keymap-drawer</a></text></svg>
